%TF.GenerationSoftware,KiCad,Pcbnew,8.0.0*%
%TF.CreationDate,2024-03-22T00:44:03+00:00*%
%TF.ProjectId,40in60,3430696e-3630-42e6-9b69-6361645f7063,rev?*%
%TF.SameCoordinates,Original*%
%TF.FileFunction,Soldermask,Top*%
%TF.FilePolarity,Negative*%
%FSLAX46Y46*%
G04 Gerber Fmt 4.6, Leading zero omitted, Abs format (unit mm)*
G04 Created by KiCad (PCBNEW 8.0.0) date 2024-03-22 00:44:03*
%MOMM*%
%LPD*%
G01*
G04 APERTURE LIST*
%ADD10C,1.750000*%
%ADD11C,3.050000*%
%ADD12C,4.000000*%
%ADD13C,5.500000*%
%ADD14O,10.000000X5.000000*%
%ADD15C,3.048000*%
%ADD16C,3.987800*%
%ADD17C,0.650000*%
%ADD18O,1.000000X1.600000*%
%ADD19O,1.000000X2.100000*%
G04 APERTURE END LIST*
D10*
%TO.C,SW43*%
X63623750Y-105680000D03*
D11*
X64893750Y-103140000D03*
D12*
X68703750Y-105680000D03*
D11*
X71243750Y-100600000D03*
D10*
X73783750Y-105680000D03*
%TD*%
%TO.C,SW28*%
X294605000Y-67580000D03*
D11*
X295875000Y-65040000D03*
D12*
X299685000Y-67580000D03*
D11*
X302225000Y-62500000D03*
D10*
X304765000Y-67580000D03*
%TD*%
%TO.C,SW4*%
X94580000Y-48530000D03*
D11*
X95850000Y-45990000D03*
D12*
X99660000Y-48530000D03*
D11*
X102200000Y-43450000D03*
D10*
X104740000Y-48530000D03*
%TD*%
%TO.C,SW18*%
X99342500Y-67580000D03*
D11*
X100612500Y-65040000D03*
D12*
X104422500Y-67580000D03*
D11*
X106962500Y-62500000D03*
D10*
X109502500Y-67580000D03*
%TD*%
%TO.C,SW46*%
X206498750Y-105680000D03*
D11*
X207768750Y-103140000D03*
D12*
X211578750Y-105680000D03*
D11*
X214118750Y-100600000D03*
D10*
X216658750Y-105680000D03*
%TD*%
D13*
%TO.C,*%
X175859642Y-67230000D03*
%TD*%
D10*
%TO.C,SW21*%
X156492500Y-67580000D03*
D11*
X157762500Y-65040000D03*
D12*
X161572500Y-67580000D03*
D11*
X164112500Y-62500000D03*
D10*
X166652500Y-67580000D03*
%TD*%
%TO.C,SW40*%
X285080000Y-86630000D03*
D11*
X286350000Y-84090000D03*
D12*
X290160000Y-86630000D03*
D11*
X292700000Y-81550000D03*
D10*
X295240000Y-86630000D03*
%TD*%
%TO.C,SW6*%
X132680000Y-48530000D03*
D11*
X133950000Y-45990000D03*
D12*
X137760000Y-48530000D03*
D11*
X140300000Y-43450000D03*
D10*
X142840000Y-48530000D03*
%TD*%
%TO.C,SW10*%
X213642500Y-48530000D03*
D11*
X214912500Y-45990000D03*
D12*
X218722500Y-48530000D03*
D11*
X221262500Y-43450000D03*
D10*
X223802500Y-48530000D03*
%TD*%
%TO.C,SW39*%
X266030000Y-86630000D03*
D11*
X267300000Y-84090000D03*
D12*
X271110000Y-86630000D03*
D11*
X273650000Y-81550000D03*
D10*
X276190000Y-86630000D03*
%TD*%
%TO.C,SW36*%
X208880000Y-86630000D03*
D11*
X210150000Y-84090000D03*
D12*
X213960000Y-86630000D03*
D11*
X216500000Y-81550000D03*
D10*
X219040000Y-86630000D03*
%TD*%
%TO.C,SW13*%
X270792500Y-48530000D03*
D11*
X272062500Y-45990000D03*
D12*
X275872500Y-48530000D03*
D11*
X278412500Y-43450000D03*
D10*
X280952500Y-48530000D03*
%TD*%
%TO.C,SW15*%
X42192500Y-67580000D03*
D11*
X43462500Y-65040000D03*
D12*
X47272500Y-67580000D03*
D11*
X49812500Y-62500000D03*
D10*
X52352500Y-67580000D03*
%TD*%
D13*
%TO.C,*%
X58584642Y-58055024D03*
%TD*%
D10*
%TO.C,SW25*%
X237455000Y-67580000D03*
D11*
X238725000Y-65040000D03*
D12*
X242535000Y-67580000D03*
D11*
X245075000Y-62500000D03*
D10*
X247615000Y-67580000D03*
%TD*%
%TO.C,SW26*%
X256505000Y-67580000D03*
D11*
X257775000Y-65040000D03*
D12*
X261585000Y-67580000D03*
D11*
X264125000Y-62500000D03*
D10*
X266665000Y-67580000D03*
%TD*%
%TO.C,SW32*%
X108867500Y-86630000D03*
D11*
X110137500Y-84090000D03*
D12*
X113947500Y-86630000D03*
D11*
X116487500Y-81550000D03*
D10*
X119027500Y-86630000D03*
%TD*%
D14*
%TO.C,*%
X316353630Y-86605000D03*
%TD*%
D10*
%TO.C,SW20*%
X137442500Y-67580000D03*
D11*
X138712500Y-65040000D03*
D12*
X142522500Y-67580000D03*
D11*
X145062500Y-62500000D03*
D10*
X147602500Y-67580000D03*
%TD*%
%TO.C,SW29*%
X44573750Y-86630000D03*
D11*
X45843750Y-84090000D03*
D12*
X49653750Y-86630000D03*
D11*
X52193750Y-81550000D03*
D10*
X54733750Y-86630000D03*
%TD*%
%TO.C,SW33*%
X127917500Y-86630000D03*
D11*
X129187500Y-84090000D03*
D12*
X132997500Y-86630000D03*
D11*
X135537500Y-81550000D03*
D10*
X138077500Y-86630000D03*
%TD*%
%TO.C,SW49*%
X285080000Y-105680000D03*
D11*
X286350000Y-103140000D03*
D12*
X290160000Y-105680000D03*
D11*
X292700000Y-100600000D03*
D10*
X295240000Y-105680000D03*
%TD*%
D15*
%TO.C,REF\u002A\u002A*%
X223516750Y-112665000D03*
D16*
X223516750Y-97455000D03*
D15*
X199640750Y-112665000D03*
D16*
X199640750Y-97455000D03*
%TD*%
D13*
%TO.C,*%
X59609642Y-115205072D03*
%TD*%
D10*
%TO.C,SW1*%
X37430000Y-48530000D03*
D11*
X38700000Y-45990000D03*
D12*
X42510000Y-48530000D03*
D11*
X45050000Y-43450000D03*
D10*
X47590000Y-48530000D03*
%TD*%
%TO.C,SW12*%
X251742500Y-48530000D03*
D11*
X253012500Y-45990000D03*
D12*
X256822500Y-48530000D03*
D11*
X259362500Y-43450000D03*
D10*
X261902500Y-48530000D03*
%TD*%
%TO.C,SW16*%
X61242500Y-67580000D03*
D11*
X62512500Y-65040000D03*
D12*
X66322500Y-67580000D03*
D11*
X68862500Y-62500000D03*
D10*
X71402500Y-67580000D03*
%TD*%
%TO.C,SW22*%
X190465000Y-67580000D03*
D11*
X189195000Y-70120000D03*
D12*
X185385000Y-67580000D03*
D11*
X182845000Y-72660000D03*
D10*
X180305000Y-67580000D03*
%TD*%
%TO.C,SW14*%
X294605000Y-48530000D03*
D11*
X295875000Y-45990000D03*
D12*
X299685000Y-48530000D03*
D11*
X302225000Y-43450000D03*
D10*
X304765000Y-48530000D03*
%TD*%
%TO.C,SW27*%
X275555000Y-67580000D03*
D11*
X276825000Y-65040000D03*
D12*
X280635000Y-67580000D03*
D11*
X283175000Y-62500000D03*
D10*
X285715000Y-67580000D03*
%TD*%
%TO.C,SW19*%
X118392500Y-67580000D03*
D11*
X119662500Y-65040000D03*
D12*
X123472500Y-67580000D03*
D11*
X126012500Y-62500000D03*
D10*
X128552500Y-67580000D03*
%TD*%
D13*
%TO.C,*%
X293409642Y-57707050D03*
%TD*%
D10*
%TO.C,SW11*%
X232692500Y-48530000D03*
D11*
X233962500Y-45990000D03*
D12*
X237772500Y-48530000D03*
D11*
X240312500Y-43450000D03*
D10*
X242852500Y-48530000D03*
%TD*%
%TO.C,SW48*%
X266030000Y-105680000D03*
D11*
X267300000Y-103140000D03*
D12*
X271110000Y-105680000D03*
D11*
X273650000Y-100600000D03*
D10*
X276190000Y-105680000D03*
%TD*%
D14*
%TO.C,*%
X35365894Y-86605000D03*
%TD*%
D10*
%TO.C,SW5*%
X113630000Y-48530000D03*
D11*
X114900000Y-45990000D03*
D12*
X118710000Y-48530000D03*
D11*
X121250000Y-43450000D03*
D10*
X123790000Y-48530000D03*
%TD*%
%TO.C,SW42*%
X39811250Y-105680000D03*
D11*
X41081250Y-103140000D03*
D12*
X44891250Y-105680000D03*
D11*
X47431250Y-100600000D03*
D10*
X49971250Y-105680000D03*
%TD*%
%TO.C,SW30*%
X70767500Y-86630000D03*
D11*
X72037500Y-84090000D03*
D12*
X75847500Y-86630000D03*
D11*
X78387500Y-81550000D03*
D10*
X80927500Y-86630000D03*
%TD*%
D15*
%TO.C,REF\u002A\u002A*%
X142554250Y-112665000D03*
D16*
X142554250Y-97455000D03*
D15*
X118678250Y-112665000D03*
D16*
X118678250Y-97455000D03*
%TD*%
D10*
%TO.C,SW50*%
X304130000Y-105680000D03*
D11*
X305400000Y-103140000D03*
D12*
X309210000Y-105680000D03*
D11*
X311750000Y-100600000D03*
D10*
X314290000Y-105680000D03*
%TD*%
D13*
%TO.C,*%
X293414642Y-115205072D03*
%TD*%
%TO.C,*%
X161572250Y-76905040D03*
%TD*%
D10*
%TO.C,SW44*%
X87436250Y-105680000D03*
D11*
X88706250Y-103140000D03*
D12*
X92516250Y-105680000D03*
D11*
X95056250Y-100600000D03*
D10*
X97596250Y-105680000D03*
%TD*%
%TO.C,SW17*%
X80292500Y-67580000D03*
D11*
X81562500Y-65040000D03*
D12*
X85372500Y-67580000D03*
D11*
X87912500Y-62500000D03*
D10*
X90452500Y-67580000D03*
%TD*%
%TO.C,SW41*%
X304130000Y-86630000D03*
D11*
X305400000Y-84090000D03*
D12*
X309210000Y-86630000D03*
D11*
X311750000Y-81550000D03*
D10*
X314290000Y-86630000D03*
%TD*%
%TO.C,SW3*%
X75530000Y-48530000D03*
D11*
X76800000Y-45990000D03*
D12*
X80610000Y-48530000D03*
D11*
X83150000Y-43450000D03*
D10*
X85690000Y-48530000D03*
%TD*%
%TO.C,SW45*%
X125536250Y-105680000D03*
D11*
X126806250Y-103140000D03*
D12*
X130616250Y-105680000D03*
D11*
X133156250Y-100600000D03*
D10*
X135696250Y-105680000D03*
%TD*%
%TO.C,SW24*%
X218405000Y-67580000D03*
D11*
X219675000Y-65040000D03*
D12*
X223485000Y-67580000D03*
D11*
X226025000Y-62500000D03*
D10*
X228565000Y-67580000D03*
%TD*%
%TO.C,SW38*%
X246980000Y-86630000D03*
D11*
X248250000Y-84090000D03*
D12*
X252060000Y-86630000D03*
D11*
X254600000Y-81550000D03*
D10*
X257140000Y-86630000D03*
%TD*%
%TO.C,SW47*%
X242217500Y-105680000D03*
D11*
X243487500Y-103140000D03*
D12*
X247297500Y-105680000D03*
D11*
X249837500Y-100600000D03*
D10*
X252377500Y-105680000D03*
%TD*%
%TO.C,SW35*%
X189830000Y-86630000D03*
D11*
X191100000Y-84090000D03*
D12*
X194910000Y-86630000D03*
D11*
X197450000Y-81550000D03*
D10*
X199990000Y-86630000D03*
%TD*%
%TO.C,SW34*%
X146967500Y-86630000D03*
D11*
X148237500Y-84090000D03*
D12*
X152047500Y-86630000D03*
D11*
X154587500Y-81550000D03*
D10*
X157127500Y-86630000D03*
%TD*%
%TO.C,SW2*%
X56480000Y-48530000D03*
D11*
X57750000Y-45990000D03*
D12*
X61560000Y-48530000D03*
D11*
X64100000Y-43450000D03*
D10*
X66640000Y-48530000D03*
%TD*%
%TO.C,SW37*%
X227930000Y-86630000D03*
D11*
X229200000Y-84090000D03*
D12*
X233010000Y-86630000D03*
D11*
X235550000Y-81550000D03*
D10*
X238090000Y-86630000D03*
%TD*%
%TO.C,SW31*%
X89817500Y-86630000D03*
D11*
X91087500Y-84090000D03*
D12*
X94897500Y-86630000D03*
D11*
X97437500Y-81550000D03*
D10*
X99977500Y-86630000D03*
%TD*%
%TO.C,SW8*%
X175542500Y-48530000D03*
D11*
X176812500Y-45990000D03*
D12*
X180622500Y-48530000D03*
D11*
X183162500Y-43450000D03*
D10*
X185702500Y-48530000D03*
%TD*%
%TO.C,SW7*%
X151730000Y-48530000D03*
D11*
X153000000Y-45990000D03*
D12*
X156810000Y-48530000D03*
D11*
X159350000Y-43450000D03*
D10*
X161890000Y-48530000D03*
%TD*%
%TO.C,SW23*%
X199355000Y-67580000D03*
D11*
X200625000Y-65040000D03*
D12*
X204435000Y-67580000D03*
D11*
X206975000Y-62500000D03*
D10*
X209515000Y-67580000D03*
%TD*%
%TO.C,SW9*%
X194592500Y-48530000D03*
D11*
X195862500Y-45990000D03*
D12*
X199672500Y-48530000D03*
D11*
X202212500Y-43450000D03*
D10*
X204752500Y-48530000D03*
%TD*%
D17*
%TO.C,J1*%
X48662642Y-35094214D03*
X54442642Y-35094214D03*
D18*
X47232642Y-31444214D03*
D19*
X47232642Y-35624214D03*
D18*
X55872642Y-31444214D03*
D19*
X55872642Y-35624214D03*
%TD*%
M02*
