M48
; DRILL file {KiCad 8.0.0} date 2024-03-22T00:44:05+0000
; FORMAT={-:-/ absolute / inch / decimal}
; #@! TF.CreationDate,2024-03-22T00:44:05+00:00
; #@! TF.GenerationSoftware,Kicad,Pcbnew,8.0.0
; #@! TF.FileFunction,Plated,1,2,PTH
FMAT,2
INCH
; #@! TA.AperFunction,Plated,PTH,ViaDrill
T1C0.0118
; #@! TA.AperFunction,Plated,PTH,ComponentDrill
T2C0.0236
; #@! TA.AperFunction,Plated,PTH,ComponentDrill
T3C0.0984
%
G90
G05
T1
X1.9803Y-1.7106
X2.0382Y-1.5868
X2.0598Y-3.9614
X2.1563Y-2.4598
X2.2461Y-3.211
X2.4421Y-3.5461
X2.7252Y-1.7102
X2.9146Y-2.463
X3.0024Y-3.9622
X3.2831Y-3.211
X3.4752Y-1.7098
X3.6524Y-2.4614
X3.9409Y-3.9622
X4.0291Y-3.2114
X4.226Y-1.7102
X4.4055Y-2.461
X4.7787Y-3.2118
X4.9823Y-1.7098
X5.1559Y-2.4614
X5.4366Y-3.963
X5.5346Y-3.2114
X5.7004Y-3.6638
X5.7311Y-1.7094
X5.8001Y-2.1573
X5.9091Y-2.4598
X5.9382Y-2.2043
X6.1201Y-2.9575
X6.2811Y-3.2098
X6.5102Y-3.6647
X6.5347Y-3.5199
X6.5379Y-3.6947
X6.5544Y-2.9915
X6.5749Y-3.325
X6.6442Y-3.4754
X6.6469Y-3.3726
X6.665Y-4.0482
X6.689Y-3.9187
X6.8095Y-3.5872
X6.8095Y-3.6246
X6.8095Y-3.66
X6.8193Y-3.3632
X6.8449Y-3.2305
X6.8485Y-3.5872
X6.8485Y-3.6246
X6.8485Y-3.66
X6.8712Y-3.9148
X6.8863Y-3.5872
X6.8863Y-3.6246
X6.8863Y-3.66
X6.9166Y-3.0781
X6.9363Y-4.0297
X7.0012Y-4.0706
X7.0367Y-3.4781
X7.1414Y-3.673
X7.1691Y-3.6573
X7.1756Y-3.5195
X7.1957Y-3.2285
X7.354Y-3.6639
X7.3549Y-3.7832
X7.3839Y-3.7675
X7.3934Y-2.1583
X7.4193Y-1.7106
X7.4355Y-3.7517
X7.4647Y-2.914
X7.6Y-2.8413
X7.9693Y-3.2106
X8.1657Y-1.7114
X8.339Y-2.4598
X8.6362Y-3.961
X8.7205Y-3.2114
X8.9177Y-1.7102
X9.089Y-2.4606
X9.4724Y-3.211
X9.6661Y-1.7102
X9.8445Y-2.4606
X10.0366Y-3.9606
X10.2181Y-3.2106
X10.4122Y-1.7106
X10.5921Y-2.4602
X10.9661Y-3.2114
X10.9673Y-3.961
X11.1673Y-1.7118
X11.3417Y-2.4614
X11.7189Y-3.2106
X11.7193Y-3.961
X12.1063Y-2.4622
X12.1071Y-1.7114
X12.4654Y-3.2114
X12.4654Y-3.9606
T2
G00X1.8596Y-1.2262
M15
G01X1.8596Y-1.2498
M16
G05
G00X1.8596Y-1.3809
M15
G01X1.8596Y-1.4242
M16
G05
G00X2.1997Y-1.2262
M15
G01X2.1997Y-1.2498
M16
G05
G00X2.1997Y-1.3809
M15
G01X2.1997Y-1.4242
M16
G05
T3
G00X1.3038Y-3.4096
M15
G01X1.4809Y-3.4096
M16
G05
G00X2.2573Y-2.2856
M15
G01X2.3557Y-2.2856
M16
G05
G00X2.2976Y-4.5356
M15
G01X2.396Y-4.5356
M16
G05
G00X6.3119Y-3.0278
M15
G01X6.4103Y-3.0278
M16
G05
G00X6.8744Y-2.6469
M15
G01X6.9728Y-2.6469
M16
G05
G00X11.5023Y-2.2719
M15
G01X11.6008Y-2.2719
M16
G05
G00X11.5025Y-4.5356
M15
G01X11.601Y-4.5356
M16
G05
G00X12.3663Y-3.4096
M15
G01X12.5434Y-3.4096
M16
G05
M30
