%TF.GenerationSoftware,KiCad,Pcbnew,8.0.0*%
%TF.CreationDate,2024-03-22T00:44:03+00:00*%
%TF.ProjectId,40in60,3430696e-3630-42e6-9b69-6361645f7063,rev?*%
%TF.SameCoordinates,Original*%
%TF.FileFunction,Paste,Bot*%
%TF.FilePolarity,Positive*%
%FSLAX46Y46*%
G04 Gerber Fmt 4.6, Leading zero omitted, Abs format (unit mm)*
G04 Created by KiCad (PCBNEW 8.0.0) date 2024-03-22 00:44:03*
%MOMM*%
%LPD*%
G01*
G04 APERTURE LIST*
G04 Aperture macros list*
%AMRoundRect*
0 Rectangle with rounded corners*
0 $1 Rounding radius*
0 $2 $3 $4 $5 $6 $7 $8 $9 X,Y pos of 4 corners*
0 Add a 4 corners polygon primitive as box body*
4,1,4,$2,$3,$4,$5,$6,$7,$8,$9,$2,$3,0*
0 Add four circle primitives for the rounded corners*
1,1,$1+$1,$2,$3*
1,1,$1+$1,$4,$5*
1,1,$1+$1,$6,$7*
1,1,$1+$1,$8,$9*
0 Add four rect primitives between the rounded corners*
20,1,$1+$1,$2,$3,$4,$5,0*
20,1,$1+$1,$4,$5,$6,$7,0*
20,1,$1+$1,$6,$7,$8,$9,0*
20,1,$1+$1,$8,$9,$2,$3,0*%
G04 Aperture macros list end*
%ADD10RoundRect,0.250000X-1.025000X-1.000000X1.025000X-1.000000X1.025000X1.000000X-1.025000X1.000000X0*%
%ADD11RoundRect,0.250000X1.025000X1.000000X-1.025000X1.000000X-1.025000X-1.000000X1.025000X-1.000000X0*%
%ADD12RoundRect,0.225000X0.225000X0.375000X-0.225000X0.375000X-0.225000X-0.375000X0.225000X-0.375000X0*%
%ADD13RoundRect,0.225000X0.375000X-0.225000X0.375000X0.225000X-0.375000X0.225000X-0.375000X-0.225000X0*%
%ADD14RoundRect,0.150000X0.650000X0.150000X-0.650000X0.150000X-0.650000X-0.150000X0.650000X-0.150000X0*%
%ADD15RoundRect,0.140000X0.170000X-0.140000X0.170000X0.140000X-0.170000X0.140000X-0.170000X-0.140000X0*%
%ADD16RoundRect,0.150000X-0.512500X-0.150000X0.512500X-0.150000X0.512500X0.150000X-0.512500X0.150000X0*%
%ADD17RoundRect,0.135000X-0.185000X0.135000X-0.185000X-0.135000X0.185000X-0.135000X0.185000X0.135000X0*%
%ADD18RoundRect,0.135000X0.135000X0.185000X-0.135000X0.185000X-0.135000X-0.185000X0.135000X-0.185000X0*%
%ADD19RoundRect,0.140000X-0.140000X-0.170000X0.140000X-0.170000X0.140000X0.170000X-0.140000X0.170000X0*%
%ADD20RoundRect,0.249999X0.395001X0.395001X-0.395001X0.395001X-0.395001X-0.395001X0.395001X-0.395001X0*%
%ADD21RoundRect,0.050000X0.387500X0.050000X-0.387500X0.050000X-0.387500X-0.050000X0.387500X-0.050000X0*%
%ADD22RoundRect,0.050000X0.050000X0.387500X-0.050000X0.387500X-0.050000X-0.387500X0.050000X-0.387500X0*%
%ADD23RoundRect,0.140000X0.140000X0.170000X-0.140000X0.170000X-0.140000X-0.170000X0.140000X-0.170000X0*%
%ADD24R,1.700000X1.000000*%
%ADD25RoundRect,0.250000X-0.350000X-0.450000X0.350000X-0.450000X0.350000X0.450000X-0.350000X0.450000X0*%
%ADD26R,1.150000X1.000000*%
%ADD27R,0.600000X1.450000*%
%ADD28R,0.300000X1.450000*%
%ADD29RoundRect,0.135000X-0.135000X-0.185000X0.135000X-0.185000X0.135000X0.185000X-0.135000X0.185000X0*%
%ADD30R,0.250000X0.625000*%
%ADD31R,0.450000X0.700000*%
%ADD32R,0.450000X0.575000*%
G04 APERTURE END LIST*
D10*
%TO.C,SW43*%
X61618750Y-103140000D03*
X74545750Y-100600000D03*
%TD*%
%TO.C,SW28*%
X292600000Y-65040000D03*
X305527000Y-62500000D03*
%TD*%
%TO.C,SW4*%
X92575000Y-45990000D03*
X105502000Y-43450000D03*
%TD*%
%TO.C,SW18*%
X97337500Y-65040000D03*
X110264500Y-62500000D03*
%TD*%
%TO.C,SW46*%
X204493750Y-103140000D03*
X217420750Y-100600000D03*
%TD*%
%TO.C,SW21*%
X154487500Y-65040000D03*
X167414500Y-62500000D03*
%TD*%
%TO.C,SW40*%
X283075000Y-84090000D03*
X296002000Y-81550000D03*
%TD*%
%TO.C,SW6*%
X130675000Y-45990000D03*
X143602000Y-43450000D03*
%TD*%
%TO.C,SW10*%
X211637500Y-45990000D03*
X224564500Y-43450000D03*
%TD*%
%TO.C,SW39*%
X264025000Y-84090000D03*
X276952000Y-81550000D03*
%TD*%
%TO.C,SW36*%
X206875000Y-84090000D03*
X219802000Y-81550000D03*
%TD*%
%TO.C,SW13*%
X268787500Y-45990000D03*
X281714500Y-43450000D03*
%TD*%
%TO.C,SW15*%
X40187500Y-65040000D03*
X53114500Y-62500000D03*
%TD*%
%TO.C,SW25*%
X235450000Y-65040000D03*
X248377000Y-62500000D03*
%TD*%
%TO.C,SW26*%
X254500000Y-65040000D03*
X267427000Y-62500000D03*
%TD*%
%TO.C,SW32*%
X106862500Y-84090000D03*
X119789500Y-81550000D03*
%TD*%
%TO.C,SW20*%
X135437500Y-65040000D03*
X148364500Y-62500000D03*
%TD*%
%TO.C,SW29*%
X42568750Y-84090000D03*
X55495750Y-81550000D03*
%TD*%
%TO.C,SW33*%
X125912500Y-84090000D03*
X138839500Y-81550000D03*
%TD*%
%TO.C,SW49*%
X283075000Y-103140000D03*
X296002000Y-100600000D03*
%TD*%
%TO.C,SW1*%
X35425000Y-45990000D03*
X48352000Y-43450000D03*
%TD*%
%TO.C,SW12*%
X249737500Y-45990000D03*
X262664500Y-43450000D03*
%TD*%
%TO.C,SW16*%
X59237500Y-65040000D03*
X72164500Y-62500000D03*
%TD*%
D11*
%TO.C,SW22*%
X192470000Y-70120000D03*
X179543000Y-72660000D03*
%TD*%
D10*
%TO.C,SW14*%
X292600000Y-45990000D03*
X305527000Y-43450000D03*
%TD*%
%TO.C,SW27*%
X273550000Y-65040000D03*
X286477000Y-62500000D03*
%TD*%
%TO.C,SW19*%
X116387500Y-65040000D03*
X129314500Y-62500000D03*
%TD*%
%TO.C,SW11*%
X230687500Y-45990000D03*
X243614500Y-43450000D03*
%TD*%
%TO.C,SW48*%
X264025000Y-103140000D03*
X276952000Y-100600000D03*
%TD*%
%TO.C,SW5*%
X111625000Y-45990000D03*
X124552000Y-43450000D03*
%TD*%
%TO.C,SW42*%
X37806250Y-103140000D03*
X50733250Y-100600000D03*
%TD*%
%TO.C,SW30*%
X68762500Y-84090000D03*
X81689500Y-81550000D03*
%TD*%
%TO.C,SW50*%
X302125000Y-103140000D03*
X315052000Y-100600000D03*
%TD*%
%TO.C,SW44*%
X85431250Y-103140000D03*
X98358250Y-100600000D03*
%TD*%
%TO.C,SW17*%
X78287500Y-65040000D03*
X91214500Y-62500000D03*
%TD*%
%TO.C,SW41*%
X302125000Y-84090000D03*
X315052000Y-81550000D03*
%TD*%
%TO.C,SW3*%
X73525000Y-45990000D03*
X86452000Y-43450000D03*
%TD*%
%TO.C,SW45*%
X123531250Y-103140000D03*
X136458250Y-100600000D03*
%TD*%
%TO.C,SW24*%
X216400000Y-65040000D03*
X229327000Y-62500000D03*
%TD*%
%TO.C,SW38*%
X244975000Y-84090000D03*
X257902000Y-81550000D03*
%TD*%
%TO.C,SW47*%
X240212500Y-103140000D03*
X253139500Y-100600000D03*
%TD*%
%TO.C,SW35*%
X187825000Y-84090000D03*
X200752000Y-81550000D03*
%TD*%
%TO.C,SW34*%
X144962500Y-84090000D03*
X157889500Y-81550000D03*
%TD*%
%TO.C,SW2*%
X54475000Y-45990000D03*
X67402000Y-43450000D03*
%TD*%
%TO.C,SW37*%
X225925000Y-84090000D03*
X238852000Y-81550000D03*
%TD*%
%TO.C,SW31*%
X87812500Y-84090000D03*
X100739500Y-81550000D03*
%TD*%
%TO.C,SW8*%
X173537500Y-45990000D03*
X186464500Y-43450000D03*
%TD*%
%TO.C,SW7*%
X149725000Y-45990000D03*
X162652000Y-43450000D03*
%TD*%
%TO.C,SW23*%
X197350000Y-65040000D03*
X210277000Y-62500000D03*
%TD*%
%TO.C,SW9*%
X192587500Y-45990000D03*
X205514500Y-43450000D03*
%TD*%
D12*
%TO.C,DS1*%
X61618924Y-35774214D03*
X58318924Y-35774214D03*
%TD*%
D13*
%TO.C,D7*%
X150830000Y-54830000D03*
X150830000Y-51530000D03*
%TD*%
D14*
%TO.C,U2*%
X184211424Y-78184214D03*
X184211424Y-79454214D03*
X184211424Y-80724214D03*
X184211424Y-81994214D03*
X177011424Y-81994214D03*
X177011424Y-80724214D03*
X177011424Y-79454214D03*
X177011424Y-78184214D03*
%TD*%
D13*
%TO.C,D26*%
X255560000Y-74000000D03*
X255560000Y-70700000D03*
%TD*%
%TO.C,D49*%
X284100000Y-112147500D03*
X284100000Y-108847500D03*
%TD*%
%TO.C,D33*%
X126940000Y-93020000D03*
X126940000Y-89720000D03*
%TD*%
D15*
%TO.C,C14*%
X62041424Y-34064214D03*
X62041424Y-33104214D03*
%TD*%
D16*
%TO.C,U3*%
X63846424Y-35736714D03*
X63846424Y-34786714D03*
X63846424Y-33836714D03*
X66121424Y-33836714D03*
X66121424Y-35736714D03*
%TD*%
D13*
%TO.C,D17*%
X79330000Y-74010000D03*
X79330000Y-70710000D03*
%TD*%
%TO.C,D38*%
X245970000Y-93090000D03*
X245970000Y-89790000D03*
%TD*%
D17*
%TO.C,R8*%
X49141424Y-38544214D03*
X49141424Y-39564214D03*
%TD*%
D18*
%TO.C,R3*%
X171481424Y-100334214D03*
X170461424Y-100334214D03*
%TD*%
D13*
%TO.C,D2*%
X54480000Y-54880000D03*
X54480000Y-51580000D03*
%TD*%
D19*
%TO.C,C11*%
X168421424Y-100354214D03*
X169381424Y-100354214D03*
%TD*%
%TO.C,C9*%
X179551424Y-89484214D03*
X180511424Y-89484214D03*
%TD*%
D20*
%TO.C,U1*%
X174711424Y-92894214D03*
X174711424Y-91294214D03*
X173111424Y-92894214D03*
X173111424Y-91294214D03*
D21*
X177348924Y-89494214D03*
X177348924Y-89894214D03*
X177348924Y-90294214D03*
X177348924Y-90694214D03*
X177348924Y-91094214D03*
X177348924Y-91494214D03*
X177348924Y-91894214D03*
X177348924Y-92294214D03*
X177348924Y-92694214D03*
X177348924Y-93094214D03*
X177348924Y-93494214D03*
X177348924Y-93894214D03*
X177348924Y-94294214D03*
X177348924Y-94694214D03*
D22*
X176511424Y-95531714D03*
X176111424Y-95531714D03*
X175711424Y-95531714D03*
X175311424Y-95531714D03*
X174911424Y-95531714D03*
X174511424Y-95531714D03*
X174111424Y-95531714D03*
X173711424Y-95531714D03*
X173311424Y-95531714D03*
X172911424Y-95531714D03*
X172511424Y-95531714D03*
X172111424Y-95531714D03*
X171711424Y-95531714D03*
X171311424Y-95531714D03*
D21*
X170473924Y-94694214D03*
X170473924Y-94294214D03*
X170473924Y-93894214D03*
X170473924Y-93494214D03*
X170473924Y-93094214D03*
X170473924Y-92694214D03*
X170473924Y-92294214D03*
X170473924Y-91894214D03*
X170473924Y-91494214D03*
X170473924Y-91094214D03*
X170473924Y-90694214D03*
X170473924Y-90294214D03*
X170473924Y-89894214D03*
X170473924Y-89494214D03*
D22*
X171311424Y-88656714D03*
X171711424Y-88656714D03*
X172111424Y-88656714D03*
X172511424Y-88656714D03*
X172911424Y-88656714D03*
X173311424Y-88656714D03*
X173711424Y-88656714D03*
X174111424Y-88656714D03*
X174511424Y-88656714D03*
X174911424Y-88656714D03*
X175311424Y-88656714D03*
X175711424Y-88656714D03*
X176111424Y-88656714D03*
X176511424Y-88656714D03*
%TD*%
D15*
%TO.C,C5*%
X173861424Y-84754214D03*
X173861424Y-83794214D03*
%TD*%
D19*
%TO.C,C6*%
X168431424Y-101724214D03*
X169391424Y-101724214D03*
%TD*%
D13*
%TO.C,D29*%
X43690000Y-92957500D03*
X43690000Y-89657500D03*
%TD*%
%TO.C,D31*%
X88860000Y-93050000D03*
X88860000Y-89750000D03*
%TD*%
D19*
%TO.C,C10*%
X179591424Y-92904214D03*
X180551424Y-92904214D03*
%TD*%
D17*
%TO.C,R5*%
X170291424Y-83744214D03*
X170291424Y-84764214D03*
%TD*%
D13*
%TO.C,D41*%
X303150000Y-93110000D03*
X303150000Y-89810000D03*
%TD*%
D18*
%TO.C,R2*%
X167991424Y-88274214D03*
X166971424Y-88274214D03*
%TD*%
D13*
%TO.C,D40*%
X284080000Y-93110000D03*
X284080000Y-89810000D03*
%TD*%
D15*
%TO.C,C15*%
X67721424Y-35734214D03*
X67721424Y-34774214D03*
%TD*%
D13*
%TO.C,D36*%
X207950000Y-93040000D03*
X207950000Y-89740000D03*
%TD*%
%TO.C,D11*%
X231770000Y-54910000D03*
X231770000Y-51610000D03*
%TD*%
%TO.C,D13*%
X269920000Y-54860000D03*
X269920000Y-51560000D03*
%TD*%
%TO.C,D39*%
X265060000Y-93090000D03*
X265060000Y-89790000D03*
%TD*%
%TO.C,D35*%
X188880000Y-93050000D03*
X188880000Y-89750000D03*
%TD*%
%TO.C,D24*%
X217460000Y-74047500D03*
X217460000Y-70747500D03*
%TD*%
%TO.C,D4*%
X93630000Y-54937500D03*
X93630000Y-51637500D03*
%TD*%
%TO.C,D43*%
X64310000Y-108870000D03*
X64310000Y-112170000D03*
%TD*%
D23*
%TO.C,C12*%
X167941424Y-93074214D03*
X166981424Y-93074214D03*
%TD*%
D24*
%TO.C,RST1*%
X67090918Y-75205040D03*
X60790918Y-75205040D03*
X67090918Y-79005040D03*
X60790918Y-79005040D03*
%TD*%
D15*
%TO.C,C4*%
X169131424Y-84724214D03*
X169131424Y-83764214D03*
%TD*%
%TO.C,C2*%
X176181424Y-101564214D03*
X176181424Y-100604214D03*
%TD*%
D25*
%TO.C,F1*%
X58481424Y-33544214D03*
X60481424Y-33544214D03*
%TD*%
D13*
%TO.C,D37*%
X226960000Y-93080000D03*
X226960000Y-89780000D03*
%TD*%
%TO.C,D45*%
X124590000Y-112087500D03*
X124590000Y-108787500D03*
%TD*%
%TO.C,D19*%
X117560000Y-74010000D03*
X117560000Y-70710000D03*
%TD*%
%TO.C,D1*%
X36500000Y-54950000D03*
X36500000Y-51650000D03*
%TD*%
%TO.C,D30*%
X69800000Y-93047500D03*
X69800000Y-89747500D03*
%TD*%
%TO.C,D48*%
X265090000Y-112070000D03*
X265090000Y-108770000D03*
%TD*%
%TO.C,D28*%
X293670000Y-74000000D03*
X293670000Y-70700000D03*
%TD*%
D26*
%TO.C,Y1*%
X174591424Y-101724214D03*
X172841424Y-101724214D03*
X172841424Y-100324214D03*
X174591424Y-100324214D03*
%TD*%
D15*
%TO.C,C7*%
X167961424Y-84734214D03*
X167961424Y-83774214D03*
%TD*%
D13*
%TO.C,D10*%
X212750000Y-54850000D03*
X212750000Y-51550000D03*
%TD*%
%TO.C,D15*%
X41310000Y-73940000D03*
X41310000Y-70640000D03*
%TD*%
%TO.C,D32*%
X107950000Y-93040000D03*
X107950000Y-89740000D03*
%TD*%
%TO.C,D14*%
X291561424Y-52794214D03*
X291561424Y-49494214D03*
%TD*%
%TO.C,D20*%
X136530000Y-74000000D03*
X136530000Y-70700000D03*
%TD*%
D19*
%TO.C,C1*%
X167001424Y-85894214D03*
X167961424Y-85894214D03*
%TD*%
D13*
%TO.C,D23*%
X198390000Y-74017500D03*
X198390000Y-70717500D03*
%TD*%
%TO.C,D18*%
X98480000Y-73950000D03*
X98480000Y-70650000D03*
%TD*%
D27*
%TO.C,J1*%
X48302642Y-36539214D03*
X49102642Y-36539214D03*
D28*
X50302642Y-36539214D03*
X51302642Y-36539214D03*
X51802642Y-36539214D03*
X52802642Y-36539214D03*
D27*
X54002642Y-36539214D03*
X54802642Y-36539214D03*
X54802642Y-36539214D03*
X54002642Y-36539214D03*
D28*
X53302642Y-36539214D03*
X52302642Y-36539214D03*
X50802642Y-36539214D03*
X49802642Y-36539214D03*
D27*
X49102642Y-36539214D03*
X48302642Y-36539214D03*
%TD*%
D13*
%TO.C,D5*%
X112710000Y-54900000D03*
X112710000Y-51600000D03*
%TD*%
%TO.C,D22*%
X196031424Y-74014214D03*
X196031424Y-70714214D03*
%TD*%
%TO.C,D34*%
X146000000Y-93060000D03*
X146000000Y-89760000D03*
%TD*%
%TO.C,D8*%
X174680000Y-54820000D03*
X174680000Y-51520000D03*
%TD*%
%TO.C,D6*%
X131760000Y-54940000D03*
X131760000Y-51640000D03*
%TD*%
%TO.C,D50*%
X303120000Y-112170000D03*
X303120000Y-108870000D03*
%TD*%
D29*
%TO.C,R6*%
X179521424Y-88304214D03*
X180541424Y-88304214D03*
%TD*%
D13*
%TO.C,D9*%
X193680000Y-54837500D03*
X193680000Y-51537500D03*
%TD*%
D19*
%TO.C,C3*%
X170511424Y-101734214D03*
X171471424Y-101734214D03*
%TD*%
D13*
%TO.C,D16*%
X60261424Y-73054214D03*
X60261424Y-69754214D03*
%TD*%
%TO.C,D46*%
X205530000Y-112120000D03*
X205530000Y-108820000D03*
%TD*%
D15*
%TO.C,C8*%
X172711424Y-84724214D03*
X172711424Y-83764214D03*
%TD*%
D13*
%TO.C,D12*%
X250830000Y-54950000D03*
X250830000Y-51650000D03*
%TD*%
D17*
%TO.C,R9*%
X53691424Y-38534214D03*
X53691424Y-39554214D03*
%TD*%
D13*
%TO.C,D3*%
X74610000Y-54870000D03*
X74610000Y-51570000D03*
%TD*%
%TO.C,D21*%
X155470000Y-74010000D03*
X155470000Y-70710000D03*
%TD*%
D17*
%TO.C,R4*%
X171471424Y-83754214D03*
X171471424Y-84774214D03*
%TD*%
D29*
%TO.C,R1*%
X166981424Y-87074214D03*
X168001424Y-87074214D03*
%TD*%
D18*
%TO.C,R7*%
X180521424Y-87034214D03*
X179501424Y-87034214D03*
%TD*%
D30*
%TO.C,U4*%
X50451424Y-38656714D03*
X50951424Y-38656714D03*
D31*
X51451424Y-38694214D03*
D30*
X51951424Y-38656714D03*
X52451424Y-38656714D03*
X52451424Y-39431714D03*
X51951424Y-39431714D03*
D32*
X51451424Y-39456714D03*
D30*
X50951424Y-39431714D03*
X50451424Y-39431714D03*
%TD*%
D13*
%TO.C,D27*%
X274610000Y-74000000D03*
X274610000Y-70700000D03*
%TD*%
%TO.C,D47*%
X241320000Y-112130000D03*
X241320000Y-108830000D03*
%TD*%
%TO.C,D25*%
X236510000Y-74020000D03*
X236510000Y-70720000D03*
%TD*%
%TO.C,D44*%
X86470000Y-112120000D03*
X86470000Y-108820000D03*
%TD*%
%TO.C,D42*%
X38870000Y-112067500D03*
X38870000Y-108767500D03*
%TD*%
D23*
%TO.C,C13*%
X167951424Y-89414214D03*
X166991424Y-89414214D03*
%TD*%
M02*
