%TF.GenerationSoftware,KiCad,Pcbnew,8.0.0*%
%TF.CreationDate,2024-03-22T00:44:03+00:00*%
%TF.ProjectId,40in60,3430696e-3630-42e6-9b69-6361645f7063,rev?*%
%TF.SameCoordinates,Original*%
%TF.FileFunction,Legend,Bot*%
%TF.FilePolarity,Positive*%
%FSLAX46Y46*%
G04 Gerber Fmt 4.6, Leading zero omitted, Abs format (unit mm)*
G04 Created by KiCad (PCBNEW 8.0.0) date 2024-03-22 00:44:03*
%MOMM*%
%LPD*%
G01*
G04 APERTURE LIST*
%ADD10C,0.150000*%
%ADD11C,0.120000*%
G04 APERTURE END LIST*
D10*
X61205709Y-38149033D02*
X61205709Y-37149033D01*
X61205709Y-37149033D02*
X60967614Y-37149033D01*
X60967614Y-37149033D02*
X60824757Y-37196652D01*
X60824757Y-37196652D02*
X60729519Y-37291890D01*
X60729519Y-37291890D02*
X60681900Y-37387128D01*
X60681900Y-37387128D02*
X60634281Y-37577604D01*
X60634281Y-37577604D02*
X60634281Y-37720461D01*
X60634281Y-37720461D02*
X60681900Y-37910937D01*
X60681900Y-37910937D02*
X60729519Y-38006175D01*
X60729519Y-38006175D02*
X60824757Y-38101414D01*
X60824757Y-38101414D02*
X60967614Y-38149033D01*
X60967614Y-38149033D02*
X61205709Y-38149033D01*
X60253328Y-38101414D02*
X60110471Y-38149033D01*
X60110471Y-38149033D02*
X59872376Y-38149033D01*
X59872376Y-38149033D02*
X59777138Y-38101414D01*
X59777138Y-38101414D02*
X59729519Y-38053794D01*
X59729519Y-38053794D02*
X59681900Y-37958556D01*
X59681900Y-37958556D02*
X59681900Y-37863318D01*
X59681900Y-37863318D02*
X59729519Y-37768080D01*
X59729519Y-37768080D02*
X59777138Y-37720461D01*
X59777138Y-37720461D02*
X59872376Y-37672842D01*
X59872376Y-37672842D02*
X60062852Y-37625223D01*
X60062852Y-37625223D02*
X60158090Y-37577604D01*
X60158090Y-37577604D02*
X60205709Y-37529985D01*
X60205709Y-37529985D02*
X60253328Y-37434747D01*
X60253328Y-37434747D02*
X60253328Y-37339509D01*
X60253328Y-37339509D02*
X60205709Y-37244271D01*
X60205709Y-37244271D02*
X60158090Y-37196652D01*
X60158090Y-37196652D02*
X60062852Y-37149033D01*
X60062852Y-37149033D02*
X59824757Y-37149033D01*
X59824757Y-37149033D02*
X59681900Y-37196652D01*
X58729519Y-38149033D02*
X59300947Y-38149033D01*
X59015233Y-38149033D02*
X59015233Y-37149033D01*
X59015233Y-37149033D02*
X59110471Y-37291890D01*
X59110471Y-37291890D02*
X59205709Y-37387128D01*
X59205709Y-37387128D02*
X59300947Y-37434747D01*
X153284819Y-52441905D02*
X152284819Y-52441905D01*
X152284819Y-52441905D02*
X152284819Y-52680000D01*
X152284819Y-52680000D02*
X152332438Y-52822857D01*
X152332438Y-52822857D02*
X152427676Y-52918095D01*
X152427676Y-52918095D02*
X152522914Y-52965714D01*
X152522914Y-52965714D02*
X152713390Y-53013333D01*
X152713390Y-53013333D02*
X152856247Y-53013333D01*
X152856247Y-53013333D02*
X153046723Y-52965714D01*
X153046723Y-52965714D02*
X153141961Y-52918095D01*
X153141961Y-52918095D02*
X153237200Y-52822857D01*
X153237200Y-52822857D02*
X153284819Y-52680000D01*
X153284819Y-52680000D02*
X153284819Y-52441905D01*
X152284819Y-53346667D02*
X152284819Y-54013333D01*
X152284819Y-54013333D02*
X153284819Y-53584762D01*
X181373326Y-75984033D02*
X181373326Y-76793556D01*
X181373326Y-76793556D02*
X181325707Y-76888794D01*
X181325707Y-76888794D02*
X181278088Y-76936414D01*
X181278088Y-76936414D02*
X181182850Y-76984033D01*
X181182850Y-76984033D02*
X180992374Y-76984033D01*
X180992374Y-76984033D02*
X180897136Y-76936414D01*
X180897136Y-76936414D02*
X180849517Y-76888794D01*
X180849517Y-76888794D02*
X180801898Y-76793556D01*
X180801898Y-76793556D02*
X180801898Y-75984033D01*
X180373326Y-76079271D02*
X180325707Y-76031652D01*
X180325707Y-76031652D02*
X180230469Y-75984033D01*
X180230469Y-75984033D02*
X179992374Y-75984033D01*
X179992374Y-75984033D02*
X179897136Y-76031652D01*
X179897136Y-76031652D02*
X179849517Y-76079271D01*
X179849517Y-76079271D02*
X179801898Y-76174509D01*
X179801898Y-76174509D02*
X179801898Y-76269747D01*
X179801898Y-76269747D02*
X179849517Y-76412604D01*
X179849517Y-76412604D02*
X180420945Y-76984033D01*
X180420945Y-76984033D02*
X179801898Y-76984033D01*
X258014819Y-71135714D02*
X257014819Y-71135714D01*
X257014819Y-71135714D02*
X257014819Y-71373809D01*
X257014819Y-71373809D02*
X257062438Y-71516666D01*
X257062438Y-71516666D02*
X257157676Y-71611904D01*
X257157676Y-71611904D02*
X257252914Y-71659523D01*
X257252914Y-71659523D02*
X257443390Y-71707142D01*
X257443390Y-71707142D02*
X257586247Y-71707142D01*
X257586247Y-71707142D02*
X257776723Y-71659523D01*
X257776723Y-71659523D02*
X257871961Y-71611904D01*
X257871961Y-71611904D02*
X257967200Y-71516666D01*
X257967200Y-71516666D02*
X258014819Y-71373809D01*
X258014819Y-71373809D02*
X258014819Y-71135714D01*
X257110057Y-72088095D02*
X257062438Y-72135714D01*
X257062438Y-72135714D02*
X257014819Y-72230952D01*
X257014819Y-72230952D02*
X257014819Y-72469047D01*
X257014819Y-72469047D02*
X257062438Y-72564285D01*
X257062438Y-72564285D02*
X257110057Y-72611904D01*
X257110057Y-72611904D02*
X257205295Y-72659523D01*
X257205295Y-72659523D02*
X257300533Y-72659523D01*
X257300533Y-72659523D02*
X257443390Y-72611904D01*
X257443390Y-72611904D02*
X258014819Y-72040476D01*
X258014819Y-72040476D02*
X258014819Y-72659523D01*
X257014819Y-73516666D02*
X257014819Y-73326190D01*
X257014819Y-73326190D02*
X257062438Y-73230952D01*
X257062438Y-73230952D02*
X257110057Y-73183333D01*
X257110057Y-73183333D02*
X257252914Y-73088095D01*
X257252914Y-73088095D02*
X257443390Y-73040476D01*
X257443390Y-73040476D02*
X257824342Y-73040476D01*
X257824342Y-73040476D02*
X257919580Y-73088095D01*
X257919580Y-73088095D02*
X257967200Y-73135714D01*
X257967200Y-73135714D02*
X258014819Y-73230952D01*
X258014819Y-73230952D02*
X258014819Y-73421428D01*
X258014819Y-73421428D02*
X257967200Y-73516666D01*
X257967200Y-73516666D02*
X257919580Y-73564285D01*
X257919580Y-73564285D02*
X257824342Y-73611904D01*
X257824342Y-73611904D02*
X257586247Y-73611904D01*
X257586247Y-73611904D02*
X257491009Y-73564285D01*
X257491009Y-73564285D02*
X257443390Y-73516666D01*
X257443390Y-73516666D02*
X257395771Y-73421428D01*
X257395771Y-73421428D02*
X257395771Y-73230952D01*
X257395771Y-73230952D02*
X257443390Y-73135714D01*
X257443390Y-73135714D02*
X257491009Y-73088095D01*
X257491009Y-73088095D02*
X257586247Y-73040476D01*
X286554819Y-109283214D02*
X285554819Y-109283214D01*
X285554819Y-109283214D02*
X285554819Y-109521309D01*
X285554819Y-109521309D02*
X285602438Y-109664166D01*
X285602438Y-109664166D02*
X285697676Y-109759404D01*
X285697676Y-109759404D02*
X285792914Y-109807023D01*
X285792914Y-109807023D02*
X285983390Y-109854642D01*
X285983390Y-109854642D02*
X286126247Y-109854642D01*
X286126247Y-109854642D02*
X286316723Y-109807023D01*
X286316723Y-109807023D02*
X286411961Y-109759404D01*
X286411961Y-109759404D02*
X286507200Y-109664166D01*
X286507200Y-109664166D02*
X286554819Y-109521309D01*
X286554819Y-109521309D02*
X286554819Y-109283214D01*
X285888152Y-110711785D02*
X286554819Y-110711785D01*
X285507200Y-110473690D02*
X286221485Y-110235595D01*
X286221485Y-110235595D02*
X286221485Y-110854642D01*
X286554819Y-111283214D02*
X286554819Y-111473690D01*
X286554819Y-111473690D02*
X286507200Y-111568928D01*
X286507200Y-111568928D02*
X286459580Y-111616547D01*
X286459580Y-111616547D02*
X286316723Y-111711785D01*
X286316723Y-111711785D02*
X286126247Y-111759404D01*
X286126247Y-111759404D02*
X285745295Y-111759404D01*
X285745295Y-111759404D02*
X285650057Y-111711785D01*
X285650057Y-111711785D02*
X285602438Y-111664166D01*
X285602438Y-111664166D02*
X285554819Y-111568928D01*
X285554819Y-111568928D02*
X285554819Y-111378452D01*
X285554819Y-111378452D02*
X285602438Y-111283214D01*
X285602438Y-111283214D02*
X285650057Y-111235595D01*
X285650057Y-111235595D02*
X285745295Y-111187976D01*
X285745295Y-111187976D02*
X285983390Y-111187976D01*
X285983390Y-111187976D02*
X286078628Y-111235595D01*
X286078628Y-111235595D02*
X286126247Y-111283214D01*
X286126247Y-111283214D02*
X286173866Y-111378452D01*
X286173866Y-111378452D02*
X286173866Y-111568928D01*
X286173866Y-111568928D02*
X286126247Y-111664166D01*
X286126247Y-111664166D02*
X286078628Y-111711785D01*
X286078628Y-111711785D02*
X285983390Y-111759404D01*
X129394819Y-90155714D02*
X128394819Y-90155714D01*
X128394819Y-90155714D02*
X128394819Y-90393809D01*
X128394819Y-90393809D02*
X128442438Y-90536666D01*
X128442438Y-90536666D02*
X128537676Y-90631904D01*
X128537676Y-90631904D02*
X128632914Y-90679523D01*
X128632914Y-90679523D02*
X128823390Y-90727142D01*
X128823390Y-90727142D02*
X128966247Y-90727142D01*
X128966247Y-90727142D02*
X129156723Y-90679523D01*
X129156723Y-90679523D02*
X129251961Y-90631904D01*
X129251961Y-90631904D02*
X129347200Y-90536666D01*
X129347200Y-90536666D02*
X129394819Y-90393809D01*
X129394819Y-90393809D02*
X129394819Y-90155714D01*
X128394819Y-91060476D02*
X128394819Y-91679523D01*
X128394819Y-91679523D02*
X128775771Y-91346190D01*
X128775771Y-91346190D02*
X128775771Y-91489047D01*
X128775771Y-91489047D02*
X128823390Y-91584285D01*
X128823390Y-91584285D02*
X128871009Y-91631904D01*
X128871009Y-91631904D02*
X128966247Y-91679523D01*
X128966247Y-91679523D02*
X129204342Y-91679523D01*
X129204342Y-91679523D02*
X129299580Y-91631904D01*
X129299580Y-91631904D02*
X129347200Y-91584285D01*
X129347200Y-91584285D02*
X129394819Y-91489047D01*
X129394819Y-91489047D02*
X129394819Y-91203333D01*
X129394819Y-91203333D02*
X129347200Y-91108095D01*
X129347200Y-91108095D02*
X129299580Y-91060476D01*
X128394819Y-92012857D02*
X128394819Y-92631904D01*
X128394819Y-92631904D02*
X128775771Y-92298571D01*
X128775771Y-92298571D02*
X128775771Y-92441428D01*
X128775771Y-92441428D02*
X128823390Y-92536666D01*
X128823390Y-92536666D02*
X128871009Y-92584285D01*
X128871009Y-92584285D02*
X128966247Y-92631904D01*
X128966247Y-92631904D02*
X129204342Y-92631904D01*
X129204342Y-92631904D02*
X129299580Y-92584285D01*
X129299580Y-92584285D02*
X129347200Y-92536666D01*
X129347200Y-92536666D02*
X129394819Y-92441428D01*
X129394819Y-92441428D02*
X129394819Y-92155714D01*
X129394819Y-92155714D02*
X129347200Y-92060476D01*
X129347200Y-92060476D02*
X129299580Y-92012857D01*
X62664281Y-32233794D02*
X62711900Y-32281414D01*
X62711900Y-32281414D02*
X62854757Y-32329033D01*
X62854757Y-32329033D02*
X62949995Y-32329033D01*
X62949995Y-32329033D02*
X63092852Y-32281414D01*
X63092852Y-32281414D02*
X63188090Y-32186175D01*
X63188090Y-32186175D02*
X63235709Y-32090937D01*
X63235709Y-32090937D02*
X63283328Y-31900461D01*
X63283328Y-31900461D02*
X63283328Y-31757604D01*
X63283328Y-31757604D02*
X63235709Y-31567128D01*
X63235709Y-31567128D02*
X63188090Y-31471890D01*
X63188090Y-31471890D02*
X63092852Y-31376652D01*
X63092852Y-31376652D02*
X62949995Y-31329033D01*
X62949995Y-31329033D02*
X62854757Y-31329033D01*
X62854757Y-31329033D02*
X62711900Y-31376652D01*
X62711900Y-31376652D02*
X62664281Y-31424271D01*
X61711900Y-32329033D02*
X62283328Y-32329033D01*
X61997614Y-32329033D02*
X61997614Y-31329033D01*
X61997614Y-31329033D02*
X62092852Y-31471890D01*
X62092852Y-31471890D02*
X62188090Y-31567128D01*
X62188090Y-31567128D02*
X62283328Y-31614747D01*
X60854757Y-31662366D02*
X60854757Y-32329033D01*
X61092852Y-31281414D02*
X61330947Y-31995699D01*
X61330947Y-31995699D02*
X60711900Y-31995699D01*
X65745828Y-36641533D02*
X65745828Y-37451056D01*
X65745828Y-37451056D02*
X65698209Y-37546294D01*
X65698209Y-37546294D02*
X65650590Y-37593914D01*
X65650590Y-37593914D02*
X65555352Y-37641533D01*
X65555352Y-37641533D02*
X65364876Y-37641533D01*
X65364876Y-37641533D02*
X65269638Y-37593914D01*
X65269638Y-37593914D02*
X65222019Y-37546294D01*
X65222019Y-37546294D02*
X65174400Y-37451056D01*
X65174400Y-37451056D02*
X65174400Y-36641533D01*
X64793447Y-36641533D02*
X64174400Y-36641533D01*
X64174400Y-36641533D02*
X64507733Y-37022485D01*
X64507733Y-37022485D02*
X64364876Y-37022485D01*
X64364876Y-37022485D02*
X64269638Y-37070104D01*
X64269638Y-37070104D02*
X64222019Y-37117723D01*
X64222019Y-37117723D02*
X64174400Y-37212961D01*
X64174400Y-37212961D02*
X64174400Y-37451056D01*
X64174400Y-37451056D02*
X64222019Y-37546294D01*
X64222019Y-37546294D02*
X64269638Y-37593914D01*
X64269638Y-37593914D02*
X64364876Y-37641533D01*
X64364876Y-37641533D02*
X64650590Y-37641533D01*
X64650590Y-37641533D02*
X64745828Y-37593914D01*
X64745828Y-37593914D02*
X64793447Y-37546294D01*
X81784819Y-71145714D02*
X80784819Y-71145714D01*
X80784819Y-71145714D02*
X80784819Y-71383809D01*
X80784819Y-71383809D02*
X80832438Y-71526666D01*
X80832438Y-71526666D02*
X80927676Y-71621904D01*
X80927676Y-71621904D02*
X81022914Y-71669523D01*
X81022914Y-71669523D02*
X81213390Y-71717142D01*
X81213390Y-71717142D02*
X81356247Y-71717142D01*
X81356247Y-71717142D02*
X81546723Y-71669523D01*
X81546723Y-71669523D02*
X81641961Y-71621904D01*
X81641961Y-71621904D02*
X81737200Y-71526666D01*
X81737200Y-71526666D02*
X81784819Y-71383809D01*
X81784819Y-71383809D02*
X81784819Y-71145714D01*
X81784819Y-72669523D02*
X81784819Y-72098095D01*
X81784819Y-72383809D02*
X80784819Y-72383809D01*
X80784819Y-72383809D02*
X80927676Y-72288571D01*
X80927676Y-72288571D02*
X81022914Y-72193333D01*
X81022914Y-72193333D02*
X81070533Y-72098095D01*
X80784819Y-73002857D02*
X80784819Y-73669523D01*
X80784819Y-73669523D02*
X81784819Y-73240952D01*
X248424819Y-90225714D02*
X247424819Y-90225714D01*
X247424819Y-90225714D02*
X247424819Y-90463809D01*
X247424819Y-90463809D02*
X247472438Y-90606666D01*
X247472438Y-90606666D02*
X247567676Y-90701904D01*
X247567676Y-90701904D02*
X247662914Y-90749523D01*
X247662914Y-90749523D02*
X247853390Y-90797142D01*
X247853390Y-90797142D02*
X247996247Y-90797142D01*
X247996247Y-90797142D02*
X248186723Y-90749523D01*
X248186723Y-90749523D02*
X248281961Y-90701904D01*
X248281961Y-90701904D02*
X248377200Y-90606666D01*
X248377200Y-90606666D02*
X248424819Y-90463809D01*
X248424819Y-90463809D02*
X248424819Y-90225714D01*
X247424819Y-91130476D02*
X247424819Y-91749523D01*
X247424819Y-91749523D02*
X247805771Y-91416190D01*
X247805771Y-91416190D02*
X247805771Y-91559047D01*
X247805771Y-91559047D02*
X247853390Y-91654285D01*
X247853390Y-91654285D02*
X247901009Y-91701904D01*
X247901009Y-91701904D02*
X247996247Y-91749523D01*
X247996247Y-91749523D02*
X248234342Y-91749523D01*
X248234342Y-91749523D02*
X248329580Y-91701904D01*
X248329580Y-91701904D02*
X248377200Y-91654285D01*
X248377200Y-91654285D02*
X248424819Y-91559047D01*
X248424819Y-91559047D02*
X248424819Y-91273333D01*
X248424819Y-91273333D02*
X248377200Y-91178095D01*
X248377200Y-91178095D02*
X248329580Y-91130476D01*
X247853390Y-92320952D02*
X247805771Y-92225714D01*
X247805771Y-92225714D02*
X247758152Y-92178095D01*
X247758152Y-92178095D02*
X247662914Y-92130476D01*
X247662914Y-92130476D02*
X247615295Y-92130476D01*
X247615295Y-92130476D02*
X247520057Y-92178095D01*
X247520057Y-92178095D02*
X247472438Y-92225714D01*
X247472438Y-92225714D02*
X247424819Y-92320952D01*
X247424819Y-92320952D02*
X247424819Y-92511428D01*
X247424819Y-92511428D02*
X247472438Y-92606666D01*
X247472438Y-92606666D02*
X247520057Y-92654285D01*
X247520057Y-92654285D02*
X247615295Y-92701904D01*
X247615295Y-92701904D02*
X247662914Y-92701904D01*
X247662914Y-92701904D02*
X247758152Y-92654285D01*
X247758152Y-92654285D02*
X247805771Y-92606666D01*
X247805771Y-92606666D02*
X247853390Y-92511428D01*
X247853390Y-92511428D02*
X247853390Y-92320952D01*
X247853390Y-92320952D02*
X247901009Y-92225714D01*
X247901009Y-92225714D02*
X247948628Y-92178095D01*
X247948628Y-92178095D02*
X248043866Y-92130476D01*
X248043866Y-92130476D02*
X248234342Y-92130476D01*
X248234342Y-92130476D02*
X248329580Y-92178095D01*
X248329580Y-92178095D02*
X248377200Y-92225714D01*
X248377200Y-92225714D02*
X248424819Y-92320952D01*
X248424819Y-92320952D02*
X248424819Y-92511428D01*
X248424819Y-92511428D02*
X248377200Y-92606666D01*
X248377200Y-92606666D02*
X248329580Y-92654285D01*
X248329580Y-92654285D02*
X248234342Y-92701904D01*
X248234342Y-92701904D02*
X248043866Y-92701904D01*
X248043866Y-92701904D02*
X247948628Y-92654285D01*
X247948628Y-92654285D02*
X247901009Y-92606666D01*
X247901009Y-92606666D02*
X247853390Y-92511428D01*
X48426243Y-38887547D02*
X47950052Y-38554214D01*
X48426243Y-38316119D02*
X47426243Y-38316119D01*
X47426243Y-38316119D02*
X47426243Y-38697071D01*
X47426243Y-38697071D02*
X47473862Y-38792309D01*
X47473862Y-38792309D02*
X47521481Y-38839928D01*
X47521481Y-38839928D02*
X47616719Y-38887547D01*
X47616719Y-38887547D02*
X47759576Y-38887547D01*
X47759576Y-38887547D02*
X47854814Y-38839928D01*
X47854814Y-38839928D02*
X47902433Y-38792309D01*
X47902433Y-38792309D02*
X47950052Y-38697071D01*
X47950052Y-38697071D02*
X47950052Y-38316119D01*
X47854814Y-39458976D02*
X47807195Y-39363738D01*
X47807195Y-39363738D02*
X47759576Y-39316119D01*
X47759576Y-39316119D02*
X47664338Y-39268500D01*
X47664338Y-39268500D02*
X47616719Y-39268500D01*
X47616719Y-39268500D02*
X47521481Y-39316119D01*
X47521481Y-39316119D02*
X47473862Y-39363738D01*
X47473862Y-39363738D02*
X47426243Y-39458976D01*
X47426243Y-39458976D02*
X47426243Y-39649452D01*
X47426243Y-39649452D02*
X47473862Y-39744690D01*
X47473862Y-39744690D02*
X47521481Y-39792309D01*
X47521481Y-39792309D02*
X47616719Y-39839928D01*
X47616719Y-39839928D02*
X47664338Y-39839928D01*
X47664338Y-39839928D02*
X47759576Y-39792309D01*
X47759576Y-39792309D02*
X47807195Y-39744690D01*
X47807195Y-39744690D02*
X47854814Y-39649452D01*
X47854814Y-39649452D02*
X47854814Y-39458976D01*
X47854814Y-39458976D02*
X47902433Y-39363738D01*
X47902433Y-39363738D02*
X47950052Y-39316119D01*
X47950052Y-39316119D02*
X48045290Y-39268500D01*
X48045290Y-39268500D02*
X48235766Y-39268500D01*
X48235766Y-39268500D02*
X48331004Y-39316119D01*
X48331004Y-39316119D02*
X48378624Y-39363738D01*
X48378624Y-39363738D02*
X48426243Y-39458976D01*
X48426243Y-39458976D02*
X48426243Y-39649452D01*
X48426243Y-39649452D02*
X48378624Y-39744690D01*
X48378624Y-39744690D02*
X48331004Y-39792309D01*
X48331004Y-39792309D02*
X48235766Y-39839928D01*
X48235766Y-39839928D02*
X48045290Y-39839928D01*
X48045290Y-39839928D02*
X47950052Y-39792309D01*
X47950052Y-39792309D02*
X47902433Y-39744690D01*
X47902433Y-39744690D02*
X47854814Y-39649452D01*
X171138090Y-99619033D02*
X171471423Y-99142842D01*
X171709518Y-99619033D02*
X171709518Y-98619033D01*
X171709518Y-98619033D02*
X171328566Y-98619033D01*
X171328566Y-98619033D02*
X171233328Y-98666652D01*
X171233328Y-98666652D02*
X171185709Y-98714271D01*
X171185709Y-98714271D02*
X171138090Y-98809509D01*
X171138090Y-98809509D02*
X171138090Y-98952366D01*
X171138090Y-98952366D02*
X171185709Y-99047604D01*
X171185709Y-99047604D02*
X171233328Y-99095223D01*
X171233328Y-99095223D02*
X171328566Y-99142842D01*
X171328566Y-99142842D02*
X171709518Y-99142842D01*
X170804756Y-98619033D02*
X170185709Y-98619033D01*
X170185709Y-98619033D02*
X170519042Y-98999985D01*
X170519042Y-98999985D02*
X170376185Y-98999985D01*
X170376185Y-98999985D02*
X170280947Y-99047604D01*
X170280947Y-99047604D02*
X170233328Y-99095223D01*
X170233328Y-99095223D02*
X170185709Y-99190461D01*
X170185709Y-99190461D02*
X170185709Y-99428556D01*
X170185709Y-99428556D02*
X170233328Y-99523794D01*
X170233328Y-99523794D02*
X170280947Y-99571414D01*
X170280947Y-99571414D02*
X170376185Y-99619033D01*
X170376185Y-99619033D02*
X170661899Y-99619033D01*
X170661899Y-99619033D02*
X170757137Y-99571414D01*
X170757137Y-99571414D02*
X170804756Y-99523794D01*
X56934819Y-52491905D02*
X55934819Y-52491905D01*
X55934819Y-52491905D02*
X55934819Y-52730000D01*
X55934819Y-52730000D02*
X55982438Y-52872857D01*
X55982438Y-52872857D02*
X56077676Y-52968095D01*
X56077676Y-52968095D02*
X56172914Y-53015714D01*
X56172914Y-53015714D02*
X56363390Y-53063333D01*
X56363390Y-53063333D02*
X56506247Y-53063333D01*
X56506247Y-53063333D02*
X56696723Y-53015714D01*
X56696723Y-53015714D02*
X56791961Y-52968095D01*
X56791961Y-52968095D02*
X56887200Y-52872857D01*
X56887200Y-52872857D02*
X56934819Y-52730000D01*
X56934819Y-52730000D02*
X56934819Y-52491905D01*
X56030057Y-53444286D02*
X55982438Y-53491905D01*
X55982438Y-53491905D02*
X55934819Y-53587143D01*
X55934819Y-53587143D02*
X55934819Y-53825238D01*
X55934819Y-53825238D02*
X55982438Y-53920476D01*
X55982438Y-53920476D02*
X56030057Y-53968095D01*
X56030057Y-53968095D02*
X56125295Y-54015714D01*
X56125295Y-54015714D02*
X56220533Y-54015714D01*
X56220533Y-54015714D02*
X56363390Y-53968095D01*
X56363390Y-53968095D02*
X56934819Y-53396667D01*
X56934819Y-53396667D02*
X56934819Y-54015714D01*
X169254281Y-99553794D02*
X169301900Y-99601414D01*
X169301900Y-99601414D02*
X169444757Y-99649033D01*
X169444757Y-99649033D02*
X169539995Y-99649033D01*
X169539995Y-99649033D02*
X169682852Y-99601414D01*
X169682852Y-99601414D02*
X169778090Y-99506175D01*
X169778090Y-99506175D02*
X169825709Y-99410937D01*
X169825709Y-99410937D02*
X169873328Y-99220461D01*
X169873328Y-99220461D02*
X169873328Y-99077604D01*
X169873328Y-99077604D02*
X169825709Y-98887128D01*
X169825709Y-98887128D02*
X169778090Y-98791890D01*
X169778090Y-98791890D02*
X169682852Y-98696652D01*
X169682852Y-98696652D02*
X169539995Y-98649033D01*
X169539995Y-98649033D02*
X169444757Y-98649033D01*
X169444757Y-98649033D02*
X169301900Y-98696652D01*
X169301900Y-98696652D02*
X169254281Y-98744271D01*
X168301900Y-99649033D02*
X168873328Y-99649033D01*
X168587614Y-99649033D02*
X168587614Y-98649033D01*
X168587614Y-98649033D02*
X168682852Y-98791890D01*
X168682852Y-98791890D02*
X168778090Y-98887128D01*
X168778090Y-98887128D02*
X168873328Y-98934747D01*
X167349519Y-99649033D02*
X167920947Y-99649033D01*
X167635233Y-99649033D02*
X167635233Y-98649033D01*
X167635233Y-98649033D02*
X167730471Y-98791890D01*
X167730471Y-98791890D02*
X167825709Y-98887128D01*
X167825709Y-98887128D02*
X167920947Y-98934747D01*
X182088090Y-89853794D02*
X182135709Y-89901414D01*
X182135709Y-89901414D02*
X182278566Y-89949033D01*
X182278566Y-89949033D02*
X182373804Y-89949033D01*
X182373804Y-89949033D02*
X182516661Y-89901414D01*
X182516661Y-89901414D02*
X182611899Y-89806175D01*
X182611899Y-89806175D02*
X182659518Y-89710937D01*
X182659518Y-89710937D02*
X182707137Y-89520461D01*
X182707137Y-89520461D02*
X182707137Y-89377604D01*
X182707137Y-89377604D02*
X182659518Y-89187128D01*
X182659518Y-89187128D02*
X182611899Y-89091890D01*
X182611899Y-89091890D02*
X182516661Y-88996652D01*
X182516661Y-88996652D02*
X182373804Y-88949033D01*
X182373804Y-88949033D02*
X182278566Y-88949033D01*
X182278566Y-88949033D02*
X182135709Y-88996652D01*
X182135709Y-88996652D02*
X182088090Y-89044271D01*
X181611899Y-89949033D02*
X181421423Y-89949033D01*
X181421423Y-89949033D02*
X181326185Y-89901414D01*
X181326185Y-89901414D02*
X181278566Y-89853794D01*
X181278566Y-89853794D02*
X181183328Y-89710937D01*
X181183328Y-89710937D02*
X181135709Y-89520461D01*
X181135709Y-89520461D02*
X181135709Y-89139509D01*
X181135709Y-89139509D02*
X181183328Y-89044271D01*
X181183328Y-89044271D02*
X181230947Y-88996652D01*
X181230947Y-88996652D02*
X181326185Y-88949033D01*
X181326185Y-88949033D02*
X181516661Y-88949033D01*
X181516661Y-88949033D02*
X181611899Y-88996652D01*
X181611899Y-88996652D02*
X181659518Y-89044271D01*
X181659518Y-89044271D02*
X181707137Y-89139509D01*
X181707137Y-89139509D02*
X181707137Y-89377604D01*
X181707137Y-89377604D02*
X181659518Y-89472842D01*
X181659518Y-89472842D02*
X181611899Y-89520461D01*
X181611899Y-89520461D02*
X181516661Y-89568080D01*
X181516661Y-89568080D02*
X181326185Y-89568080D01*
X181326185Y-89568080D02*
X181230947Y-89520461D01*
X181230947Y-89520461D02*
X181183328Y-89472842D01*
X181183328Y-89472842D02*
X181135709Y-89377604D01*
X174673326Y-86729033D02*
X174673326Y-87538556D01*
X174673326Y-87538556D02*
X174625707Y-87633794D01*
X174625707Y-87633794D02*
X174578088Y-87681414D01*
X174578088Y-87681414D02*
X174482850Y-87729033D01*
X174482850Y-87729033D02*
X174292374Y-87729033D01*
X174292374Y-87729033D02*
X174197136Y-87681414D01*
X174197136Y-87681414D02*
X174149517Y-87633794D01*
X174149517Y-87633794D02*
X174101898Y-87538556D01*
X174101898Y-87538556D02*
X174101898Y-86729033D01*
X173101898Y-87729033D02*
X173673326Y-87729033D01*
X173387612Y-87729033D02*
X173387612Y-86729033D01*
X173387612Y-86729033D02*
X173482850Y-86871890D01*
X173482850Y-86871890D02*
X173578088Y-86967128D01*
X173578088Y-86967128D02*
X173673326Y-87014747D01*
X174261004Y-82227547D02*
X174308624Y-82179928D01*
X174308624Y-82179928D02*
X174356243Y-82037071D01*
X174356243Y-82037071D02*
X174356243Y-81941833D01*
X174356243Y-81941833D02*
X174308624Y-81798976D01*
X174308624Y-81798976D02*
X174213385Y-81703738D01*
X174213385Y-81703738D02*
X174118147Y-81656119D01*
X174118147Y-81656119D02*
X173927671Y-81608500D01*
X173927671Y-81608500D02*
X173784814Y-81608500D01*
X173784814Y-81608500D02*
X173594338Y-81656119D01*
X173594338Y-81656119D02*
X173499100Y-81703738D01*
X173499100Y-81703738D02*
X173403862Y-81798976D01*
X173403862Y-81798976D02*
X173356243Y-81941833D01*
X173356243Y-81941833D02*
X173356243Y-82037071D01*
X173356243Y-82037071D02*
X173403862Y-82179928D01*
X173403862Y-82179928D02*
X173451481Y-82227547D01*
X173356243Y-83132309D02*
X173356243Y-82656119D01*
X173356243Y-82656119D02*
X173832433Y-82608500D01*
X173832433Y-82608500D02*
X173784814Y-82656119D01*
X173784814Y-82656119D02*
X173737195Y-82751357D01*
X173737195Y-82751357D02*
X173737195Y-82989452D01*
X173737195Y-82989452D02*
X173784814Y-83084690D01*
X173784814Y-83084690D02*
X173832433Y-83132309D01*
X173832433Y-83132309D02*
X173927671Y-83179928D01*
X173927671Y-83179928D02*
X174165766Y-83179928D01*
X174165766Y-83179928D02*
X174261004Y-83132309D01*
X174261004Y-83132309D02*
X174308624Y-83084690D01*
X174308624Y-83084690D02*
X174356243Y-82989452D01*
X174356243Y-82989452D02*
X174356243Y-82751357D01*
X174356243Y-82751357D02*
X174308624Y-82656119D01*
X174308624Y-82656119D02*
X174261004Y-82608500D01*
X169078090Y-103243794D02*
X169125709Y-103291414D01*
X169125709Y-103291414D02*
X169268566Y-103339033D01*
X169268566Y-103339033D02*
X169363804Y-103339033D01*
X169363804Y-103339033D02*
X169506661Y-103291414D01*
X169506661Y-103291414D02*
X169601899Y-103196175D01*
X169601899Y-103196175D02*
X169649518Y-103100937D01*
X169649518Y-103100937D02*
X169697137Y-102910461D01*
X169697137Y-102910461D02*
X169697137Y-102767604D01*
X169697137Y-102767604D02*
X169649518Y-102577128D01*
X169649518Y-102577128D02*
X169601899Y-102481890D01*
X169601899Y-102481890D02*
X169506661Y-102386652D01*
X169506661Y-102386652D02*
X169363804Y-102339033D01*
X169363804Y-102339033D02*
X169268566Y-102339033D01*
X169268566Y-102339033D02*
X169125709Y-102386652D01*
X169125709Y-102386652D02*
X169078090Y-102434271D01*
X168220947Y-102339033D02*
X168411423Y-102339033D01*
X168411423Y-102339033D02*
X168506661Y-102386652D01*
X168506661Y-102386652D02*
X168554280Y-102434271D01*
X168554280Y-102434271D02*
X168649518Y-102577128D01*
X168649518Y-102577128D02*
X168697137Y-102767604D01*
X168697137Y-102767604D02*
X168697137Y-103148556D01*
X168697137Y-103148556D02*
X168649518Y-103243794D01*
X168649518Y-103243794D02*
X168601899Y-103291414D01*
X168601899Y-103291414D02*
X168506661Y-103339033D01*
X168506661Y-103339033D02*
X168316185Y-103339033D01*
X168316185Y-103339033D02*
X168220947Y-103291414D01*
X168220947Y-103291414D02*
X168173328Y-103243794D01*
X168173328Y-103243794D02*
X168125709Y-103148556D01*
X168125709Y-103148556D02*
X168125709Y-102910461D01*
X168125709Y-102910461D02*
X168173328Y-102815223D01*
X168173328Y-102815223D02*
X168220947Y-102767604D01*
X168220947Y-102767604D02*
X168316185Y-102719985D01*
X168316185Y-102719985D02*
X168506661Y-102719985D01*
X168506661Y-102719985D02*
X168601899Y-102767604D01*
X168601899Y-102767604D02*
X168649518Y-102815223D01*
X168649518Y-102815223D02*
X168697137Y-102910461D01*
X46144819Y-90093214D02*
X45144819Y-90093214D01*
X45144819Y-90093214D02*
X45144819Y-90331309D01*
X45144819Y-90331309D02*
X45192438Y-90474166D01*
X45192438Y-90474166D02*
X45287676Y-90569404D01*
X45287676Y-90569404D02*
X45382914Y-90617023D01*
X45382914Y-90617023D02*
X45573390Y-90664642D01*
X45573390Y-90664642D02*
X45716247Y-90664642D01*
X45716247Y-90664642D02*
X45906723Y-90617023D01*
X45906723Y-90617023D02*
X46001961Y-90569404D01*
X46001961Y-90569404D02*
X46097200Y-90474166D01*
X46097200Y-90474166D02*
X46144819Y-90331309D01*
X46144819Y-90331309D02*
X46144819Y-90093214D01*
X45240057Y-91045595D02*
X45192438Y-91093214D01*
X45192438Y-91093214D02*
X45144819Y-91188452D01*
X45144819Y-91188452D02*
X45144819Y-91426547D01*
X45144819Y-91426547D02*
X45192438Y-91521785D01*
X45192438Y-91521785D02*
X45240057Y-91569404D01*
X45240057Y-91569404D02*
X45335295Y-91617023D01*
X45335295Y-91617023D02*
X45430533Y-91617023D01*
X45430533Y-91617023D02*
X45573390Y-91569404D01*
X45573390Y-91569404D02*
X46144819Y-90997976D01*
X46144819Y-90997976D02*
X46144819Y-91617023D01*
X46144819Y-92093214D02*
X46144819Y-92283690D01*
X46144819Y-92283690D02*
X46097200Y-92378928D01*
X46097200Y-92378928D02*
X46049580Y-92426547D01*
X46049580Y-92426547D02*
X45906723Y-92521785D01*
X45906723Y-92521785D02*
X45716247Y-92569404D01*
X45716247Y-92569404D02*
X45335295Y-92569404D01*
X45335295Y-92569404D02*
X45240057Y-92521785D01*
X45240057Y-92521785D02*
X45192438Y-92474166D01*
X45192438Y-92474166D02*
X45144819Y-92378928D01*
X45144819Y-92378928D02*
X45144819Y-92188452D01*
X45144819Y-92188452D02*
X45192438Y-92093214D01*
X45192438Y-92093214D02*
X45240057Y-92045595D01*
X45240057Y-92045595D02*
X45335295Y-91997976D01*
X45335295Y-91997976D02*
X45573390Y-91997976D01*
X45573390Y-91997976D02*
X45668628Y-92045595D01*
X45668628Y-92045595D02*
X45716247Y-92093214D01*
X45716247Y-92093214D02*
X45763866Y-92188452D01*
X45763866Y-92188452D02*
X45763866Y-92378928D01*
X45763866Y-92378928D02*
X45716247Y-92474166D01*
X45716247Y-92474166D02*
X45668628Y-92521785D01*
X45668628Y-92521785D02*
X45573390Y-92569404D01*
X91314819Y-90185714D02*
X90314819Y-90185714D01*
X90314819Y-90185714D02*
X90314819Y-90423809D01*
X90314819Y-90423809D02*
X90362438Y-90566666D01*
X90362438Y-90566666D02*
X90457676Y-90661904D01*
X90457676Y-90661904D02*
X90552914Y-90709523D01*
X90552914Y-90709523D02*
X90743390Y-90757142D01*
X90743390Y-90757142D02*
X90886247Y-90757142D01*
X90886247Y-90757142D02*
X91076723Y-90709523D01*
X91076723Y-90709523D02*
X91171961Y-90661904D01*
X91171961Y-90661904D02*
X91267200Y-90566666D01*
X91267200Y-90566666D02*
X91314819Y-90423809D01*
X91314819Y-90423809D02*
X91314819Y-90185714D01*
X90314819Y-91090476D02*
X90314819Y-91709523D01*
X90314819Y-91709523D02*
X90695771Y-91376190D01*
X90695771Y-91376190D02*
X90695771Y-91519047D01*
X90695771Y-91519047D02*
X90743390Y-91614285D01*
X90743390Y-91614285D02*
X90791009Y-91661904D01*
X90791009Y-91661904D02*
X90886247Y-91709523D01*
X90886247Y-91709523D02*
X91124342Y-91709523D01*
X91124342Y-91709523D02*
X91219580Y-91661904D01*
X91219580Y-91661904D02*
X91267200Y-91614285D01*
X91267200Y-91614285D02*
X91314819Y-91519047D01*
X91314819Y-91519047D02*
X91314819Y-91233333D01*
X91314819Y-91233333D02*
X91267200Y-91138095D01*
X91267200Y-91138095D02*
X91219580Y-91090476D01*
X91314819Y-92661904D02*
X91314819Y-92090476D01*
X91314819Y-92376190D02*
X90314819Y-92376190D01*
X90314819Y-92376190D02*
X90457676Y-92280952D01*
X90457676Y-92280952D02*
X90552914Y-92185714D01*
X90552914Y-92185714D02*
X90600533Y-92090476D01*
X180714281Y-94423794D02*
X180761900Y-94471414D01*
X180761900Y-94471414D02*
X180904757Y-94519033D01*
X180904757Y-94519033D02*
X180999995Y-94519033D01*
X180999995Y-94519033D02*
X181142852Y-94471414D01*
X181142852Y-94471414D02*
X181238090Y-94376175D01*
X181238090Y-94376175D02*
X181285709Y-94280937D01*
X181285709Y-94280937D02*
X181333328Y-94090461D01*
X181333328Y-94090461D02*
X181333328Y-93947604D01*
X181333328Y-93947604D02*
X181285709Y-93757128D01*
X181285709Y-93757128D02*
X181238090Y-93661890D01*
X181238090Y-93661890D02*
X181142852Y-93566652D01*
X181142852Y-93566652D02*
X180999995Y-93519033D01*
X180999995Y-93519033D02*
X180904757Y-93519033D01*
X180904757Y-93519033D02*
X180761900Y-93566652D01*
X180761900Y-93566652D02*
X180714281Y-93614271D01*
X179761900Y-94519033D02*
X180333328Y-94519033D01*
X180047614Y-94519033D02*
X180047614Y-93519033D01*
X180047614Y-93519033D02*
X180142852Y-93661890D01*
X180142852Y-93661890D02*
X180238090Y-93757128D01*
X180238090Y-93757128D02*
X180333328Y-93804747D01*
X179142852Y-93519033D02*
X179047614Y-93519033D01*
X179047614Y-93519033D02*
X178952376Y-93566652D01*
X178952376Y-93566652D02*
X178904757Y-93614271D01*
X178904757Y-93614271D02*
X178857138Y-93709509D01*
X178857138Y-93709509D02*
X178809519Y-93899985D01*
X178809519Y-93899985D02*
X178809519Y-94138080D01*
X178809519Y-94138080D02*
X178857138Y-94328556D01*
X178857138Y-94328556D02*
X178904757Y-94423794D01*
X178904757Y-94423794D02*
X178952376Y-94471414D01*
X178952376Y-94471414D02*
X179047614Y-94519033D01*
X179047614Y-94519033D02*
X179142852Y-94519033D01*
X179142852Y-94519033D02*
X179238090Y-94471414D01*
X179238090Y-94471414D02*
X179285709Y-94423794D01*
X179285709Y-94423794D02*
X179333328Y-94328556D01*
X179333328Y-94328556D02*
X179380947Y-94138080D01*
X179380947Y-94138080D02*
X179380947Y-93899985D01*
X179380947Y-93899985D02*
X179333328Y-93709509D01*
X179333328Y-93709509D02*
X179285709Y-93614271D01*
X179285709Y-93614271D02*
X179238090Y-93566652D01*
X179238090Y-93566652D02*
X179142852Y-93519033D01*
X170756243Y-82177547D02*
X170280052Y-81844214D01*
X170756243Y-81606119D02*
X169756243Y-81606119D01*
X169756243Y-81606119D02*
X169756243Y-81987071D01*
X169756243Y-81987071D02*
X169803862Y-82082309D01*
X169803862Y-82082309D02*
X169851481Y-82129928D01*
X169851481Y-82129928D02*
X169946719Y-82177547D01*
X169946719Y-82177547D02*
X170089576Y-82177547D01*
X170089576Y-82177547D02*
X170184814Y-82129928D01*
X170184814Y-82129928D02*
X170232433Y-82082309D01*
X170232433Y-82082309D02*
X170280052Y-81987071D01*
X170280052Y-81987071D02*
X170280052Y-81606119D01*
X169756243Y-83082309D02*
X169756243Y-82606119D01*
X169756243Y-82606119D02*
X170232433Y-82558500D01*
X170232433Y-82558500D02*
X170184814Y-82606119D01*
X170184814Y-82606119D02*
X170137195Y-82701357D01*
X170137195Y-82701357D02*
X170137195Y-82939452D01*
X170137195Y-82939452D02*
X170184814Y-83034690D01*
X170184814Y-83034690D02*
X170232433Y-83082309D01*
X170232433Y-83082309D02*
X170327671Y-83129928D01*
X170327671Y-83129928D02*
X170565766Y-83129928D01*
X170565766Y-83129928D02*
X170661004Y-83082309D01*
X170661004Y-83082309D02*
X170708624Y-83034690D01*
X170708624Y-83034690D02*
X170756243Y-82939452D01*
X170756243Y-82939452D02*
X170756243Y-82701357D01*
X170756243Y-82701357D02*
X170708624Y-82606119D01*
X170708624Y-82606119D02*
X170661004Y-82558500D01*
X305604819Y-90245714D02*
X304604819Y-90245714D01*
X304604819Y-90245714D02*
X304604819Y-90483809D01*
X304604819Y-90483809D02*
X304652438Y-90626666D01*
X304652438Y-90626666D02*
X304747676Y-90721904D01*
X304747676Y-90721904D02*
X304842914Y-90769523D01*
X304842914Y-90769523D02*
X305033390Y-90817142D01*
X305033390Y-90817142D02*
X305176247Y-90817142D01*
X305176247Y-90817142D02*
X305366723Y-90769523D01*
X305366723Y-90769523D02*
X305461961Y-90721904D01*
X305461961Y-90721904D02*
X305557200Y-90626666D01*
X305557200Y-90626666D02*
X305604819Y-90483809D01*
X305604819Y-90483809D02*
X305604819Y-90245714D01*
X304938152Y-91674285D02*
X305604819Y-91674285D01*
X304557200Y-91436190D02*
X305271485Y-91198095D01*
X305271485Y-91198095D02*
X305271485Y-91817142D01*
X305604819Y-92721904D02*
X305604819Y-92150476D01*
X305604819Y-92436190D02*
X304604819Y-92436190D01*
X304604819Y-92436190D02*
X304747676Y-92340952D01*
X304747676Y-92340952D02*
X304842914Y-92245714D01*
X304842914Y-92245714D02*
X304890533Y-92150476D01*
X165748090Y-88719033D02*
X166081423Y-88242842D01*
X166319518Y-88719033D02*
X166319518Y-87719033D01*
X166319518Y-87719033D02*
X165938566Y-87719033D01*
X165938566Y-87719033D02*
X165843328Y-87766652D01*
X165843328Y-87766652D02*
X165795709Y-87814271D01*
X165795709Y-87814271D02*
X165748090Y-87909509D01*
X165748090Y-87909509D02*
X165748090Y-88052366D01*
X165748090Y-88052366D02*
X165795709Y-88147604D01*
X165795709Y-88147604D02*
X165843328Y-88195223D01*
X165843328Y-88195223D02*
X165938566Y-88242842D01*
X165938566Y-88242842D02*
X166319518Y-88242842D01*
X165367137Y-87814271D02*
X165319518Y-87766652D01*
X165319518Y-87766652D02*
X165224280Y-87719033D01*
X165224280Y-87719033D02*
X164986185Y-87719033D01*
X164986185Y-87719033D02*
X164890947Y-87766652D01*
X164890947Y-87766652D02*
X164843328Y-87814271D01*
X164843328Y-87814271D02*
X164795709Y-87909509D01*
X164795709Y-87909509D02*
X164795709Y-88004747D01*
X164795709Y-88004747D02*
X164843328Y-88147604D01*
X164843328Y-88147604D02*
X165414756Y-88719033D01*
X165414756Y-88719033D02*
X164795709Y-88719033D01*
X286534819Y-90245714D02*
X285534819Y-90245714D01*
X285534819Y-90245714D02*
X285534819Y-90483809D01*
X285534819Y-90483809D02*
X285582438Y-90626666D01*
X285582438Y-90626666D02*
X285677676Y-90721904D01*
X285677676Y-90721904D02*
X285772914Y-90769523D01*
X285772914Y-90769523D02*
X285963390Y-90817142D01*
X285963390Y-90817142D02*
X286106247Y-90817142D01*
X286106247Y-90817142D02*
X286296723Y-90769523D01*
X286296723Y-90769523D02*
X286391961Y-90721904D01*
X286391961Y-90721904D02*
X286487200Y-90626666D01*
X286487200Y-90626666D02*
X286534819Y-90483809D01*
X286534819Y-90483809D02*
X286534819Y-90245714D01*
X285868152Y-91674285D02*
X286534819Y-91674285D01*
X285487200Y-91436190D02*
X286201485Y-91198095D01*
X286201485Y-91198095D02*
X286201485Y-91817142D01*
X285534819Y-92388571D02*
X285534819Y-92483809D01*
X285534819Y-92483809D02*
X285582438Y-92579047D01*
X285582438Y-92579047D02*
X285630057Y-92626666D01*
X285630057Y-92626666D02*
X285725295Y-92674285D01*
X285725295Y-92674285D02*
X285915771Y-92721904D01*
X285915771Y-92721904D02*
X286153866Y-92721904D01*
X286153866Y-92721904D02*
X286344342Y-92674285D01*
X286344342Y-92674285D02*
X286439580Y-92626666D01*
X286439580Y-92626666D02*
X286487200Y-92579047D01*
X286487200Y-92579047D02*
X286534819Y-92483809D01*
X286534819Y-92483809D02*
X286534819Y-92388571D01*
X286534819Y-92388571D02*
X286487200Y-92293333D01*
X286487200Y-92293333D02*
X286439580Y-92245714D01*
X286439580Y-92245714D02*
X286344342Y-92198095D01*
X286344342Y-92198095D02*
X286153866Y-92150476D01*
X286153866Y-92150476D02*
X285915771Y-92150476D01*
X285915771Y-92150476D02*
X285725295Y-92198095D01*
X285725295Y-92198095D02*
X285630057Y-92245714D01*
X285630057Y-92245714D02*
X285582438Y-92293333D01*
X285582438Y-92293333D02*
X285534819Y-92388571D01*
X69241004Y-34611356D02*
X69288624Y-34563737D01*
X69288624Y-34563737D02*
X69336243Y-34420880D01*
X69336243Y-34420880D02*
X69336243Y-34325642D01*
X69336243Y-34325642D02*
X69288624Y-34182785D01*
X69288624Y-34182785D02*
X69193385Y-34087547D01*
X69193385Y-34087547D02*
X69098147Y-34039928D01*
X69098147Y-34039928D02*
X68907671Y-33992309D01*
X68907671Y-33992309D02*
X68764814Y-33992309D01*
X68764814Y-33992309D02*
X68574338Y-34039928D01*
X68574338Y-34039928D02*
X68479100Y-34087547D01*
X68479100Y-34087547D02*
X68383862Y-34182785D01*
X68383862Y-34182785D02*
X68336243Y-34325642D01*
X68336243Y-34325642D02*
X68336243Y-34420880D01*
X68336243Y-34420880D02*
X68383862Y-34563737D01*
X68383862Y-34563737D02*
X68431481Y-34611356D01*
X69336243Y-35563737D02*
X69336243Y-34992309D01*
X69336243Y-35278023D02*
X68336243Y-35278023D01*
X68336243Y-35278023D02*
X68479100Y-35182785D01*
X68479100Y-35182785D02*
X68574338Y-35087547D01*
X68574338Y-35087547D02*
X68621957Y-34992309D01*
X68336243Y-36468499D02*
X68336243Y-35992309D01*
X68336243Y-35992309D02*
X68812433Y-35944690D01*
X68812433Y-35944690D02*
X68764814Y-35992309D01*
X68764814Y-35992309D02*
X68717195Y-36087547D01*
X68717195Y-36087547D02*
X68717195Y-36325642D01*
X68717195Y-36325642D02*
X68764814Y-36420880D01*
X68764814Y-36420880D02*
X68812433Y-36468499D01*
X68812433Y-36468499D02*
X68907671Y-36516118D01*
X68907671Y-36516118D02*
X69145766Y-36516118D01*
X69145766Y-36516118D02*
X69241004Y-36468499D01*
X69241004Y-36468499D02*
X69288624Y-36420880D01*
X69288624Y-36420880D02*
X69336243Y-36325642D01*
X69336243Y-36325642D02*
X69336243Y-36087547D01*
X69336243Y-36087547D02*
X69288624Y-35992309D01*
X69288624Y-35992309D02*
X69241004Y-35944690D01*
X210404819Y-90175714D02*
X209404819Y-90175714D01*
X209404819Y-90175714D02*
X209404819Y-90413809D01*
X209404819Y-90413809D02*
X209452438Y-90556666D01*
X209452438Y-90556666D02*
X209547676Y-90651904D01*
X209547676Y-90651904D02*
X209642914Y-90699523D01*
X209642914Y-90699523D02*
X209833390Y-90747142D01*
X209833390Y-90747142D02*
X209976247Y-90747142D01*
X209976247Y-90747142D02*
X210166723Y-90699523D01*
X210166723Y-90699523D02*
X210261961Y-90651904D01*
X210261961Y-90651904D02*
X210357200Y-90556666D01*
X210357200Y-90556666D02*
X210404819Y-90413809D01*
X210404819Y-90413809D02*
X210404819Y-90175714D01*
X209404819Y-91080476D02*
X209404819Y-91699523D01*
X209404819Y-91699523D02*
X209785771Y-91366190D01*
X209785771Y-91366190D02*
X209785771Y-91509047D01*
X209785771Y-91509047D02*
X209833390Y-91604285D01*
X209833390Y-91604285D02*
X209881009Y-91651904D01*
X209881009Y-91651904D02*
X209976247Y-91699523D01*
X209976247Y-91699523D02*
X210214342Y-91699523D01*
X210214342Y-91699523D02*
X210309580Y-91651904D01*
X210309580Y-91651904D02*
X210357200Y-91604285D01*
X210357200Y-91604285D02*
X210404819Y-91509047D01*
X210404819Y-91509047D02*
X210404819Y-91223333D01*
X210404819Y-91223333D02*
X210357200Y-91128095D01*
X210357200Y-91128095D02*
X210309580Y-91080476D01*
X209404819Y-92556666D02*
X209404819Y-92366190D01*
X209404819Y-92366190D02*
X209452438Y-92270952D01*
X209452438Y-92270952D02*
X209500057Y-92223333D01*
X209500057Y-92223333D02*
X209642914Y-92128095D01*
X209642914Y-92128095D02*
X209833390Y-92080476D01*
X209833390Y-92080476D02*
X210214342Y-92080476D01*
X210214342Y-92080476D02*
X210309580Y-92128095D01*
X210309580Y-92128095D02*
X210357200Y-92175714D01*
X210357200Y-92175714D02*
X210404819Y-92270952D01*
X210404819Y-92270952D02*
X210404819Y-92461428D01*
X210404819Y-92461428D02*
X210357200Y-92556666D01*
X210357200Y-92556666D02*
X210309580Y-92604285D01*
X210309580Y-92604285D02*
X210214342Y-92651904D01*
X210214342Y-92651904D02*
X209976247Y-92651904D01*
X209976247Y-92651904D02*
X209881009Y-92604285D01*
X209881009Y-92604285D02*
X209833390Y-92556666D01*
X209833390Y-92556666D02*
X209785771Y-92461428D01*
X209785771Y-92461428D02*
X209785771Y-92270952D01*
X209785771Y-92270952D02*
X209833390Y-92175714D01*
X209833390Y-92175714D02*
X209881009Y-92128095D01*
X209881009Y-92128095D02*
X209976247Y-92080476D01*
X234224819Y-52045714D02*
X233224819Y-52045714D01*
X233224819Y-52045714D02*
X233224819Y-52283809D01*
X233224819Y-52283809D02*
X233272438Y-52426666D01*
X233272438Y-52426666D02*
X233367676Y-52521904D01*
X233367676Y-52521904D02*
X233462914Y-52569523D01*
X233462914Y-52569523D02*
X233653390Y-52617142D01*
X233653390Y-52617142D02*
X233796247Y-52617142D01*
X233796247Y-52617142D02*
X233986723Y-52569523D01*
X233986723Y-52569523D02*
X234081961Y-52521904D01*
X234081961Y-52521904D02*
X234177200Y-52426666D01*
X234177200Y-52426666D02*
X234224819Y-52283809D01*
X234224819Y-52283809D02*
X234224819Y-52045714D01*
X234224819Y-53569523D02*
X234224819Y-52998095D01*
X234224819Y-53283809D02*
X233224819Y-53283809D01*
X233224819Y-53283809D02*
X233367676Y-53188571D01*
X233367676Y-53188571D02*
X233462914Y-53093333D01*
X233462914Y-53093333D02*
X233510533Y-52998095D01*
X234224819Y-54521904D02*
X234224819Y-53950476D01*
X234224819Y-54236190D02*
X233224819Y-54236190D01*
X233224819Y-54236190D02*
X233367676Y-54140952D01*
X233367676Y-54140952D02*
X233462914Y-54045714D01*
X233462914Y-54045714D02*
X233510533Y-53950476D01*
X272374819Y-51995714D02*
X271374819Y-51995714D01*
X271374819Y-51995714D02*
X271374819Y-52233809D01*
X271374819Y-52233809D02*
X271422438Y-52376666D01*
X271422438Y-52376666D02*
X271517676Y-52471904D01*
X271517676Y-52471904D02*
X271612914Y-52519523D01*
X271612914Y-52519523D02*
X271803390Y-52567142D01*
X271803390Y-52567142D02*
X271946247Y-52567142D01*
X271946247Y-52567142D02*
X272136723Y-52519523D01*
X272136723Y-52519523D02*
X272231961Y-52471904D01*
X272231961Y-52471904D02*
X272327200Y-52376666D01*
X272327200Y-52376666D02*
X272374819Y-52233809D01*
X272374819Y-52233809D02*
X272374819Y-51995714D01*
X272374819Y-53519523D02*
X272374819Y-52948095D01*
X272374819Y-53233809D02*
X271374819Y-53233809D01*
X271374819Y-53233809D02*
X271517676Y-53138571D01*
X271517676Y-53138571D02*
X271612914Y-53043333D01*
X271612914Y-53043333D02*
X271660533Y-52948095D01*
X271374819Y-53852857D02*
X271374819Y-54471904D01*
X271374819Y-54471904D02*
X271755771Y-54138571D01*
X271755771Y-54138571D02*
X271755771Y-54281428D01*
X271755771Y-54281428D02*
X271803390Y-54376666D01*
X271803390Y-54376666D02*
X271851009Y-54424285D01*
X271851009Y-54424285D02*
X271946247Y-54471904D01*
X271946247Y-54471904D02*
X272184342Y-54471904D01*
X272184342Y-54471904D02*
X272279580Y-54424285D01*
X272279580Y-54424285D02*
X272327200Y-54376666D01*
X272327200Y-54376666D02*
X272374819Y-54281428D01*
X272374819Y-54281428D02*
X272374819Y-53995714D01*
X272374819Y-53995714D02*
X272327200Y-53900476D01*
X272327200Y-53900476D02*
X272279580Y-53852857D01*
X267514819Y-90225714D02*
X266514819Y-90225714D01*
X266514819Y-90225714D02*
X266514819Y-90463809D01*
X266514819Y-90463809D02*
X266562438Y-90606666D01*
X266562438Y-90606666D02*
X266657676Y-90701904D01*
X266657676Y-90701904D02*
X266752914Y-90749523D01*
X266752914Y-90749523D02*
X266943390Y-90797142D01*
X266943390Y-90797142D02*
X267086247Y-90797142D01*
X267086247Y-90797142D02*
X267276723Y-90749523D01*
X267276723Y-90749523D02*
X267371961Y-90701904D01*
X267371961Y-90701904D02*
X267467200Y-90606666D01*
X267467200Y-90606666D02*
X267514819Y-90463809D01*
X267514819Y-90463809D02*
X267514819Y-90225714D01*
X266514819Y-91130476D02*
X266514819Y-91749523D01*
X266514819Y-91749523D02*
X266895771Y-91416190D01*
X266895771Y-91416190D02*
X266895771Y-91559047D01*
X266895771Y-91559047D02*
X266943390Y-91654285D01*
X266943390Y-91654285D02*
X266991009Y-91701904D01*
X266991009Y-91701904D02*
X267086247Y-91749523D01*
X267086247Y-91749523D02*
X267324342Y-91749523D01*
X267324342Y-91749523D02*
X267419580Y-91701904D01*
X267419580Y-91701904D02*
X267467200Y-91654285D01*
X267467200Y-91654285D02*
X267514819Y-91559047D01*
X267514819Y-91559047D02*
X267514819Y-91273333D01*
X267514819Y-91273333D02*
X267467200Y-91178095D01*
X267467200Y-91178095D02*
X267419580Y-91130476D01*
X267514819Y-92225714D02*
X267514819Y-92416190D01*
X267514819Y-92416190D02*
X267467200Y-92511428D01*
X267467200Y-92511428D02*
X267419580Y-92559047D01*
X267419580Y-92559047D02*
X267276723Y-92654285D01*
X267276723Y-92654285D02*
X267086247Y-92701904D01*
X267086247Y-92701904D02*
X266705295Y-92701904D01*
X266705295Y-92701904D02*
X266610057Y-92654285D01*
X266610057Y-92654285D02*
X266562438Y-92606666D01*
X266562438Y-92606666D02*
X266514819Y-92511428D01*
X266514819Y-92511428D02*
X266514819Y-92320952D01*
X266514819Y-92320952D02*
X266562438Y-92225714D01*
X266562438Y-92225714D02*
X266610057Y-92178095D01*
X266610057Y-92178095D02*
X266705295Y-92130476D01*
X266705295Y-92130476D02*
X266943390Y-92130476D01*
X266943390Y-92130476D02*
X267038628Y-92178095D01*
X267038628Y-92178095D02*
X267086247Y-92225714D01*
X267086247Y-92225714D02*
X267133866Y-92320952D01*
X267133866Y-92320952D02*
X267133866Y-92511428D01*
X267133866Y-92511428D02*
X267086247Y-92606666D01*
X267086247Y-92606666D02*
X267038628Y-92654285D01*
X267038628Y-92654285D02*
X266943390Y-92701904D01*
X191334819Y-90185714D02*
X190334819Y-90185714D01*
X190334819Y-90185714D02*
X190334819Y-90423809D01*
X190334819Y-90423809D02*
X190382438Y-90566666D01*
X190382438Y-90566666D02*
X190477676Y-90661904D01*
X190477676Y-90661904D02*
X190572914Y-90709523D01*
X190572914Y-90709523D02*
X190763390Y-90757142D01*
X190763390Y-90757142D02*
X190906247Y-90757142D01*
X190906247Y-90757142D02*
X191096723Y-90709523D01*
X191096723Y-90709523D02*
X191191961Y-90661904D01*
X191191961Y-90661904D02*
X191287200Y-90566666D01*
X191287200Y-90566666D02*
X191334819Y-90423809D01*
X191334819Y-90423809D02*
X191334819Y-90185714D01*
X190334819Y-91090476D02*
X190334819Y-91709523D01*
X190334819Y-91709523D02*
X190715771Y-91376190D01*
X190715771Y-91376190D02*
X190715771Y-91519047D01*
X190715771Y-91519047D02*
X190763390Y-91614285D01*
X190763390Y-91614285D02*
X190811009Y-91661904D01*
X190811009Y-91661904D02*
X190906247Y-91709523D01*
X190906247Y-91709523D02*
X191144342Y-91709523D01*
X191144342Y-91709523D02*
X191239580Y-91661904D01*
X191239580Y-91661904D02*
X191287200Y-91614285D01*
X191287200Y-91614285D02*
X191334819Y-91519047D01*
X191334819Y-91519047D02*
X191334819Y-91233333D01*
X191334819Y-91233333D02*
X191287200Y-91138095D01*
X191287200Y-91138095D02*
X191239580Y-91090476D01*
X190334819Y-92614285D02*
X190334819Y-92138095D01*
X190334819Y-92138095D02*
X190811009Y-92090476D01*
X190811009Y-92090476D02*
X190763390Y-92138095D01*
X190763390Y-92138095D02*
X190715771Y-92233333D01*
X190715771Y-92233333D02*
X190715771Y-92471428D01*
X190715771Y-92471428D02*
X190763390Y-92566666D01*
X190763390Y-92566666D02*
X190811009Y-92614285D01*
X190811009Y-92614285D02*
X190906247Y-92661904D01*
X190906247Y-92661904D02*
X191144342Y-92661904D01*
X191144342Y-92661904D02*
X191239580Y-92614285D01*
X191239580Y-92614285D02*
X191287200Y-92566666D01*
X191287200Y-92566666D02*
X191334819Y-92471428D01*
X191334819Y-92471428D02*
X191334819Y-92233333D01*
X191334819Y-92233333D02*
X191287200Y-92138095D01*
X191287200Y-92138095D02*
X191239580Y-92090476D01*
X219914819Y-71183214D02*
X218914819Y-71183214D01*
X218914819Y-71183214D02*
X218914819Y-71421309D01*
X218914819Y-71421309D02*
X218962438Y-71564166D01*
X218962438Y-71564166D02*
X219057676Y-71659404D01*
X219057676Y-71659404D02*
X219152914Y-71707023D01*
X219152914Y-71707023D02*
X219343390Y-71754642D01*
X219343390Y-71754642D02*
X219486247Y-71754642D01*
X219486247Y-71754642D02*
X219676723Y-71707023D01*
X219676723Y-71707023D02*
X219771961Y-71659404D01*
X219771961Y-71659404D02*
X219867200Y-71564166D01*
X219867200Y-71564166D02*
X219914819Y-71421309D01*
X219914819Y-71421309D02*
X219914819Y-71183214D01*
X219010057Y-72135595D02*
X218962438Y-72183214D01*
X218962438Y-72183214D02*
X218914819Y-72278452D01*
X218914819Y-72278452D02*
X218914819Y-72516547D01*
X218914819Y-72516547D02*
X218962438Y-72611785D01*
X218962438Y-72611785D02*
X219010057Y-72659404D01*
X219010057Y-72659404D02*
X219105295Y-72707023D01*
X219105295Y-72707023D02*
X219200533Y-72707023D01*
X219200533Y-72707023D02*
X219343390Y-72659404D01*
X219343390Y-72659404D02*
X219914819Y-72087976D01*
X219914819Y-72087976D02*
X219914819Y-72707023D01*
X219248152Y-73564166D02*
X219914819Y-73564166D01*
X218867200Y-73326071D02*
X219581485Y-73087976D01*
X219581485Y-73087976D02*
X219581485Y-73707023D01*
X96084819Y-52549405D02*
X95084819Y-52549405D01*
X95084819Y-52549405D02*
X95084819Y-52787500D01*
X95084819Y-52787500D02*
X95132438Y-52930357D01*
X95132438Y-52930357D02*
X95227676Y-53025595D01*
X95227676Y-53025595D02*
X95322914Y-53073214D01*
X95322914Y-53073214D02*
X95513390Y-53120833D01*
X95513390Y-53120833D02*
X95656247Y-53120833D01*
X95656247Y-53120833D02*
X95846723Y-53073214D01*
X95846723Y-53073214D02*
X95941961Y-53025595D01*
X95941961Y-53025595D02*
X96037200Y-52930357D01*
X96037200Y-52930357D02*
X96084819Y-52787500D01*
X96084819Y-52787500D02*
X96084819Y-52549405D01*
X95418152Y-53977976D02*
X96084819Y-53977976D01*
X95037200Y-53739881D02*
X95751485Y-53501786D01*
X95751485Y-53501786D02*
X95751485Y-54120833D01*
X66764819Y-109305714D02*
X65764819Y-109305714D01*
X65764819Y-109305714D02*
X65764819Y-109543809D01*
X65764819Y-109543809D02*
X65812438Y-109686666D01*
X65812438Y-109686666D02*
X65907676Y-109781904D01*
X65907676Y-109781904D02*
X66002914Y-109829523D01*
X66002914Y-109829523D02*
X66193390Y-109877142D01*
X66193390Y-109877142D02*
X66336247Y-109877142D01*
X66336247Y-109877142D02*
X66526723Y-109829523D01*
X66526723Y-109829523D02*
X66621961Y-109781904D01*
X66621961Y-109781904D02*
X66717200Y-109686666D01*
X66717200Y-109686666D02*
X66764819Y-109543809D01*
X66764819Y-109543809D02*
X66764819Y-109305714D01*
X66098152Y-110734285D02*
X66764819Y-110734285D01*
X65717200Y-110496190D02*
X66431485Y-110258095D01*
X66431485Y-110258095D02*
X66431485Y-110877142D01*
X65764819Y-111162857D02*
X65764819Y-111781904D01*
X65764819Y-111781904D02*
X66145771Y-111448571D01*
X66145771Y-111448571D02*
X66145771Y-111591428D01*
X66145771Y-111591428D02*
X66193390Y-111686666D01*
X66193390Y-111686666D02*
X66241009Y-111734285D01*
X66241009Y-111734285D02*
X66336247Y-111781904D01*
X66336247Y-111781904D02*
X66574342Y-111781904D01*
X66574342Y-111781904D02*
X66669580Y-111734285D01*
X66669580Y-111734285D02*
X66717200Y-111686666D01*
X66717200Y-111686666D02*
X66764819Y-111591428D01*
X66764819Y-111591428D02*
X66764819Y-111305714D01*
X66764819Y-111305714D02*
X66717200Y-111210476D01*
X66717200Y-111210476D02*
X66669580Y-111162857D01*
X168104281Y-92273794D02*
X168151900Y-92321414D01*
X168151900Y-92321414D02*
X168294757Y-92369033D01*
X168294757Y-92369033D02*
X168389995Y-92369033D01*
X168389995Y-92369033D02*
X168532852Y-92321414D01*
X168532852Y-92321414D02*
X168628090Y-92226175D01*
X168628090Y-92226175D02*
X168675709Y-92130937D01*
X168675709Y-92130937D02*
X168723328Y-91940461D01*
X168723328Y-91940461D02*
X168723328Y-91797604D01*
X168723328Y-91797604D02*
X168675709Y-91607128D01*
X168675709Y-91607128D02*
X168628090Y-91511890D01*
X168628090Y-91511890D02*
X168532852Y-91416652D01*
X168532852Y-91416652D02*
X168389995Y-91369033D01*
X168389995Y-91369033D02*
X168294757Y-91369033D01*
X168294757Y-91369033D02*
X168151900Y-91416652D01*
X168151900Y-91416652D02*
X168104281Y-91464271D01*
X167151900Y-92369033D02*
X167723328Y-92369033D01*
X167437614Y-92369033D02*
X167437614Y-91369033D01*
X167437614Y-91369033D02*
X167532852Y-91511890D01*
X167532852Y-91511890D02*
X167628090Y-91607128D01*
X167628090Y-91607128D02*
X167723328Y-91654747D01*
X166770947Y-91464271D02*
X166723328Y-91416652D01*
X166723328Y-91416652D02*
X166628090Y-91369033D01*
X166628090Y-91369033D02*
X166389995Y-91369033D01*
X166389995Y-91369033D02*
X166294757Y-91416652D01*
X166294757Y-91416652D02*
X166247138Y-91464271D01*
X166247138Y-91464271D02*
X166199519Y-91559509D01*
X166199519Y-91559509D02*
X166199519Y-91654747D01*
X166199519Y-91654747D02*
X166247138Y-91797604D01*
X166247138Y-91797604D02*
X166818566Y-92369033D01*
X166818566Y-92369033D02*
X166199519Y-92369033D01*
X64964727Y-73809859D02*
X65298060Y-73333668D01*
X65536155Y-73809859D02*
X65536155Y-72809859D01*
X65536155Y-72809859D02*
X65155203Y-72809859D01*
X65155203Y-72809859D02*
X65059965Y-72857478D01*
X65059965Y-72857478D02*
X65012346Y-72905097D01*
X65012346Y-72905097D02*
X64964727Y-73000335D01*
X64964727Y-73000335D02*
X64964727Y-73143192D01*
X64964727Y-73143192D02*
X65012346Y-73238430D01*
X65012346Y-73238430D02*
X65059965Y-73286049D01*
X65059965Y-73286049D02*
X65155203Y-73333668D01*
X65155203Y-73333668D02*
X65536155Y-73333668D01*
X64583774Y-73762240D02*
X64440917Y-73809859D01*
X64440917Y-73809859D02*
X64202822Y-73809859D01*
X64202822Y-73809859D02*
X64107584Y-73762240D01*
X64107584Y-73762240D02*
X64059965Y-73714620D01*
X64059965Y-73714620D02*
X64012346Y-73619382D01*
X64012346Y-73619382D02*
X64012346Y-73524144D01*
X64012346Y-73524144D02*
X64059965Y-73428906D01*
X64059965Y-73428906D02*
X64107584Y-73381287D01*
X64107584Y-73381287D02*
X64202822Y-73333668D01*
X64202822Y-73333668D02*
X64393298Y-73286049D01*
X64393298Y-73286049D02*
X64488536Y-73238430D01*
X64488536Y-73238430D02*
X64536155Y-73190811D01*
X64536155Y-73190811D02*
X64583774Y-73095573D01*
X64583774Y-73095573D02*
X64583774Y-73000335D01*
X64583774Y-73000335D02*
X64536155Y-72905097D01*
X64536155Y-72905097D02*
X64488536Y-72857478D01*
X64488536Y-72857478D02*
X64393298Y-72809859D01*
X64393298Y-72809859D02*
X64155203Y-72809859D01*
X64155203Y-72809859D02*
X64012346Y-72857478D01*
X63726631Y-72809859D02*
X63155203Y-72809859D01*
X63440917Y-73809859D02*
X63440917Y-72809859D01*
X62298060Y-73809859D02*
X62869488Y-73809859D01*
X62583774Y-73809859D02*
X62583774Y-72809859D01*
X62583774Y-72809859D02*
X62679012Y-72952716D01*
X62679012Y-72952716D02*
X62774250Y-73047954D01*
X62774250Y-73047954D02*
X62869488Y-73095573D01*
X169491004Y-82107547D02*
X169538624Y-82059928D01*
X169538624Y-82059928D02*
X169586243Y-81917071D01*
X169586243Y-81917071D02*
X169586243Y-81821833D01*
X169586243Y-81821833D02*
X169538624Y-81678976D01*
X169538624Y-81678976D02*
X169443385Y-81583738D01*
X169443385Y-81583738D02*
X169348147Y-81536119D01*
X169348147Y-81536119D02*
X169157671Y-81488500D01*
X169157671Y-81488500D02*
X169014814Y-81488500D01*
X169014814Y-81488500D02*
X168824338Y-81536119D01*
X168824338Y-81536119D02*
X168729100Y-81583738D01*
X168729100Y-81583738D02*
X168633862Y-81678976D01*
X168633862Y-81678976D02*
X168586243Y-81821833D01*
X168586243Y-81821833D02*
X168586243Y-81917071D01*
X168586243Y-81917071D02*
X168633862Y-82059928D01*
X168633862Y-82059928D02*
X168681481Y-82107547D01*
X168919576Y-82964690D02*
X169586243Y-82964690D01*
X168538624Y-82726595D02*
X169252909Y-82488500D01*
X169252909Y-82488500D02*
X169252909Y-83107547D01*
X177691004Y-100927547D02*
X177738624Y-100879928D01*
X177738624Y-100879928D02*
X177786243Y-100737071D01*
X177786243Y-100737071D02*
X177786243Y-100641833D01*
X177786243Y-100641833D02*
X177738624Y-100498976D01*
X177738624Y-100498976D02*
X177643385Y-100403738D01*
X177643385Y-100403738D02*
X177548147Y-100356119D01*
X177548147Y-100356119D02*
X177357671Y-100308500D01*
X177357671Y-100308500D02*
X177214814Y-100308500D01*
X177214814Y-100308500D02*
X177024338Y-100356119D01*
X177024338Y-100356119D02*
X176929100Y-100403738D01*
X176929100Y-100403738D02*
X176833862Y-100498976D01*
X176833862Y-100498976D02*
X176786243Y-100641833D01*
X176786243Y-100641833D02*
X176786243Y-100737071D01*
X176786243Y-100737071D02*
X176833862Y-100879928D01*
X176833862Y-100879928D02*
X176881481Y-100927547D01*
X176881481Y-101308500D02*
X176833862Y-101356119D01*
X176833862Y-101356119D02*
X176786243Y-101451357D01*
X176786243Y-101451357D02*
X176786243Y-101689452D01*
X176786243Y-101689452D02*
X176833862Y-101784690D01*
X176833862Y-101784690D02*
X176881481Y-101832309D01*
X176881481Y-101832309D02*
X176976719Y-101879928D01*
X176976719Y-101879928D02*
X177071957Y-101879928D01*
X177071957Y-101879928D02*
X177214814Y-101832309D01*
X177214814Y-101832309D02*
X177786243Y-101260881D01*
X177786243Y-101260881D02*
X177786243Y-101879928D01*
X59814757Y-31885223D02*
X60148090Y-31885223D01*
X60148090Y-32409033D02*
X60148090Y-31409033D01*
X60148090Y-31409033D02*
X59671900Y-31409033D01*
X58767138Y-32409033D02*
X59338566Y-32409033D01*
X59052852Y-32409033D02*
X59052852Y-31409033D01*
X59052852Y-31409033D02*
X59148090Y-31551890D01*
X59148090Y-31551890D02*
X59243328Y-31647128D01*
X59243328Y-31647128D02*
X59338566Y-31694747D01*
X229414819Y-90215714D02*
X228414819Y-90215714D01*
X228414819Y-90215714D02*
X228414819Y-90453809D01*
X228414819Y-90453809D02*
X228462438Y-90596666D01*
X228462438Y-90596666D02*
X228557676Y-90691904D01*
X228557676Y-90691904D02*
X228652914Y-90739523D01*
X228652914Y-90739523D02*
X228843390Y-90787142D01*
X228843390Y-90787142D02*
X228986247Y-90787142D01*
X228986247Y-90787142D02*
X229176723Y-90739523D01*
X229176723Y-90739523D02*
X229271961Y-90691904D01*
X229271961Y-90691904D02*
X229367200Y-90596666D01*
X229367200Y-90596666D02*
X229414819Y-90453809D01*
X229414819Y-90453809D02*
X229414819Y-90215714D01*
X228414819Y-91120476D02*
X228414819Y-91739523D01*
X228414819Y-91739523D02*
X228795771Y-91406190D01*
X228795771Y-91406190D02*
X228795771Y-91549047D01*
X228795771Y-91549047D02*
X228843390Y-91644285D01*
X228843390Y-91644285D02*
X228891009Y-91691904D01*
X228891009Y-91691904D02*
X228986247Y-91739523D01*
X228986247Y-91739523D02*
X229224342Y-91739523D01*
X229224342Y-91739523D02*
X229319580Y-91691904D01*
X229319580Y-91691904D02*
X229367200Y-91644285D01*
X229367200Y-91644285D02*
X229414819Y-91549047D01*
X229414819Y-91549047D02*
X229414819Y-91263333D01*
X229414819Y-91263333D02*
X229367200Y-91168095D01*
X229367200Y-91168095D02*
X229319580Y-91120476D01*
X228414819Y-92072857D02*
X228414819Y-92739523D01*
X228414819Y-92739523D02*
X229414819Y-92310952D01*
X127044819Y-109223214D02*
X126044819Y-109223214D01*
X126044819Y-109223214D02*
X126044819Y-109461309D01*
X126044819Y-109461309D02*
X126092438Y-109604166D01*
X126092438Y-109604166D02*
X126187676Y-109699404D01*
X126187676Y-109699404D02*
X126282914Y-109747023D01*
X126282914Y-109747023D02*
X126473390Y-109794642D01*
X126473390Y-109794642D02*
X126616247Y-109794642D01*
X126616247Y-109794642D02*
X126806723Y-109747023D01*
X126806723Y-109747023D02*
X126901961Y-109699404D01*
X126901961Y-109699404D02*
X126997200Y-109604166D01*
X126997200Y-109604166D02*
X127044819Y-109461309D01*
X127044819Y-109461309D02*
X127044819Y-109223214D01*
X126378152Y-110651785D02*
X127044819Y-110651785D01*
X125997200Y-110413690D02*
X126711485Y-110175595D01*
X126711485Y-110175595D02*
X126711485Y-110794642D01*
X126044819Y-111651785D02*
X126044819Y-111175595D01*
X126044819Y-111175595D02*
X126521009Y-111127976D01*
X126521009Y-111127976D02*
X126473390Y-111175595D01*
X126473390Y-111175595D02*
X126425771Y-111270833D01*
X126425771Y-111270833D02*
X126425771Y-111508928D01*
X126425771Y-111508928D02*
X126473390Y-111604166D01*
X126473390Y-111604166D02*
X126521009Y-111651785D01*
X126521009Y-111651785D02*
X126616247Y-111699404D01*
X126616247Y-111699404D02*
X126854342Y-111699404D01*
X126854342Y-111699404D02*
X126949580Y-111651785D01*
X126949580Y-111651785D02*
X126997200Y-111604166D01*
X126997200Y-111604166D02*
X127044819Y-111508928D01*
X127044819Y-111508928D02*
X127044819Y-111270833D01*
X127044819Y-111270833D02*
X126997200Y-111175595D01*
X126997200Y-111175595D02*
X126949580Y-111127976D01*
X120014819Y-71145714D02*
X119014819Y-71145714D01*
X119014819Y-71145714D02*
X119014819Y-71383809D01*
X119014819Y-71383809D02*
X119062438Y-71526666D01*
X119062438Y-71526666D02*
X119157676Y-71621904D01*
X119157676Y-71621904D02*
X119252914Y-71669523D01*
X119252914Y-71669523D02*
X119443390Y-71717142D01*
X119443390Y-71717142D02*
X119586247Y-71717142D01*
X119586247Y-71717142D02*
X119776723Y-71669523D01*
X119776723Y-71669523D02*
X119871961Y-71621904D01*
X119871961Y-71621904D02*
X119967200Y-71526666D01*
X119967200Y-71526666D02*
X120014819Y-71383809D01*
X120014819Y-71383809D02*
X120014819Y-71145714D01*
X120014819Y-72669523D02*
X120014819Y-72098095D01*
X120014819Y-72383809D02*
X119014819Y-72383809D01*
X119014819Y-72383809D02*
X119157676Y-72288571D01*
X119157676Y-72288571D02*
X119252914Y-72193333D01*
X119252914Y-72193333D02*
X119300533Y-72098095D01*
X120014819Y-73145714D02*
X120014819Y-73336190D01*
X120014819Y-73336190D02*
X119967200Y-73431428D01*
X119967200Y-73431428D02*
X119919580Y-73479047D01*
X119919580Y-73479047D02*
X119776723Y-73574285D01*
X119776723Y-73574285D02*
X119586247Y-73621904D01*
X119586247Y-73621904D02*
X119205295Y-73621904D01*
X119205295Y-73621904D02*
X119110057Y-73574285D01*
X119110057Y-73574285D02*
X119062438Y-73526666D01*
X119062438Y-73526666D02*
X119014819Y-73431428D01*
X119014819Y-73431428D02*
X119014819Y-73240952D01*
X119014819Y-73240952D02*
X119062438Y-73145714D01*
X119062438Y-73145714D02*
X119110057Y-73098095D01*
X119110057Y-73098095D02*
X119205295Y-73050476D01*
X119205295Y-73050476D02*
X119443390Y-73050476D01*
X119443390Y-73050476D02*
X119538628Y-73098095D01*
X119538628Y-73098095D02*
X119586247Y-73145714D01*
X119586247Y-73145714D02*
X119633866Y-73240952D01*
X119633866Y-73240952D02*
X119633866Y-73431428D01*
X119633866Y-73431428D02*
X119586247Y-73526666D01*
X119586247Y-73526666D02*
X119538628Y-73574285D01*
X119538628Y-73574285D02*
X119443390Y-73621904D01*
X38954819Y-52561905D02*
X37954819Y-52561905D01*
X37954819Y-52561905D02*
X37954819Y-52800000D01*
X37954819Y-52800000D02*
X38002438Y-52942857D01*
X38002438Y-52942857D02*
X38097676Y-53038095D01*
X38097676Y-53038095D02*
X38192914Y-53085714D01*
X38192914Y-53085714D02*
X38383390Y-53133333D01*
X38383390Y-53133333D02*
X38526247Y-53133333D01*
X38526247Y-53133333D02*
X38716723Y-53085714D01*
X38716723Y-53085714D02*
X38811961Y-53038095D01*
X38811961Y-53038095D02*
X38907200Y-52942857D01*
X38907200Y-52942857D02*
X38954819Y-52800000D01*
X38954819Y-52800000D02*
X38954819Y-52561905D01*
X38954819Y-54085714D02*
X38954819Y-53514286D01*
X38954819Y-53800000D02*
X37954819Y-53800000D01*
X37954819Y-53800000D02*
X38097676Y-53704762D01*
X38097676Y-53704762D02*
X38192914Y-53609524D01*
X38192914Y-53609524D02*
X38240533Y-53514286D01*
X72254819Y-90183214D02*
X71254819Y-90183214D01*
X71254819Y-90183214D02*
X71254819Y-90421309D01*
X71254819Y-90421309D02*
X71302438Y-90564166D01*
X71302438Y-90564166D02*
X71397676Y-90659404D01*
X71397676Y-90659404D02*
X71492914Y-90707023D01*
X71492914Y-90707023D02*
X71683390Y-90754642D01*
X71683390Y-90754642D02*
X71826247Y-90754642D01*
X71826247Y-90754642D02*
X72016723Y-90707023D01*
X72016723Y-90707023D02*
X72111961Y-90659404D01*
X72111961Y-90659404D02*
X72207200Y-90564166D01*
X72207200Y-90564166D02*
X72254819Y-90421309D01*
X72254819Y-90421309D02*
X72254819Y-90183214D01*
X71254819Y-91087976D02*
X71254819Y-91707023D01*
X71254819Y-91707023D02*
X71635771Y-91373690D01*
X71635771Y-91373690D02*
X71635771Y-91516547D01*
X71635771Y-91516547D02*
X71683390Y-91611785D01*
X71683390Y-91611785D02*
X71731009Y-91659404D01*
X71731009Y-91659404D02*
X71826247Y-91707023D01*
X71826247Y-91707023D02*
X72064342Y-91707023D01*
X72064342Y-91707023D02*
X72159580Y-91659404D01*
X72159580Y-91659404D02*
X72207200Y-91611785D01*
X72207200Y-91611785D02*
X72254819Y-91516547D01*
X72254819Y-91516547D02*
X72254819Y-91230833D01*
X72254819Y-91230833D02*
X72207200Y-91135595D01*
X72207200Y-91135595D02*
X72159580Y-91087976D01*
X71254819Y-92326071D02*
X71254819Y-92421309D01*
X71254819Y-92421309D02*
X71302438Y-92516547D01*
X71302438Y-92516547D02*
X71350057Y-92564166D01*
X71350057Y-92564166D02*
X71445295Y-92611785D01*
X71445295Y-92611785D02*
X71635771Y-92659404D01*
X71635771Y-92659404D02*
X71873866Y-92659404D01*
X71873866Y-92659404D02*
X72064342Y-92611785D01*
X72064342Y-92611785D02*
X72159580Y-92564166D01*
X72159580Y-92564166D02*
X72207200Y-92516547D01*
X72207200Y-92516547D02*
X72254819Y-92421309D01*
X72254819Y-92421309D02*
X72254819Y-92326071D01*
X72254819Y-92326071D02*
X72207200Y-92230833D01*
X72207200Y-92230833D02*
X72159580Y-92183214D01*
X72159580Y-92183214D02*
X72064342Y-92135595D01*
X72064342Y-92135595D02*
X71873866Y-92087976D01*
X71873866Y-92087976D02*
X71635771Y-92087976D01*
X71635771Y-92087976D02*
X71445295Y-92135595D01*
X71445295Y-92135595D02*
X71350057Y-92183214D01*
X71350057Y-92183214D02*
X71302438Y-92230833D01*
X71302438Y-92230833D02*
X71254819Y-92326071D01*
X267544819Y-109205714D02*
X266544819Y-109205714D01*
X266544819Y-109205714D02*
X266544819Y-109443809D01*
X266544819Y-109443809D02*
X266592438Y-109586666D01*
X266592438Y-109586666D02*
X266687676Y-109681904D01*
X266687676Y-109681904D02*
X266782914Y-109729523D01*
X266782914Y-109729523D02*
X266973390Y-109777142D01*
X266973390Y-109777142D02*
X267116247Y-109777142D01*
X267116247Y-109777142D02*
X267306723Y-109729523D01*
X267306723Y-109729523D02*
X267401961Y-109681904D01*
X267401961Y-109681904D02*
X267497200Y-109586666D01*
X267497200Y-109586666D02*
X267544819Y-109443809D01*
X267544819Y-109443809D02*
X267544819Y-109205714D01*
X266878152Y-110634285D02*
X267544819Y-110634285D01*
X266497200Y-110396190D02*
X267211485Y-110158095D01*
X267211485Y-110158095D02*
X267211485Y-110777142D01*
X266973390Y-111300952D02*
X266925771Y-111205714D01*
X266925771Y-111205714D02*
X266878152Y-111158095D01*
X266878152Y-111158095D02*
X266782914Y-111110476D01*
X266782914Y-111110476D02*
X266735295Y-111110476D01*
X266735295Y-111110476D02*
X266640057Y-111158095D01*
X266640057Y-111158095D02*
X266592438Y-111205714D01*
X266592438Y-111205714D02*
X266544819Y-111300952D01*
X266544819Y-111300952D02*
X266544819Y-111491428D01*
X266544819Y-111491428D02*
X266592438Y-111586666D01*
X266592438Y-111586666D02*
X266640057Y-111634285D01*
X266640057Y-111634285D02*
X266735295Y-111681904D01*
X266735295Y-111681904D02*
X266782914Y-111681904D01*
X266782914Y-111681904D02*
X266878152Y-111634285D01*
X266878152Y-111634285D02*
X266925771Y-111586666D01*
X266925771Y-111586666D02*
X266973390Y-111491428D01*
X266973390Y-111491428D02*
X266973390Y-111300952D01*
X266973390Y-111300952D02*
X267021009Y-111205714D01*
X267021009Y-111205714D02*
X267068628Y-111158095D01*
X267068628Y-111158095D02*
X267163866Y-111110476D01*
X267163866Y-111110476D02*
X267354342Y-111110476D01*
X267354342Y-111110476D02*
X267449580Y-111158095D01*
X267449580Y-111158095D02*
X267497200Y-111205714D01*
X267497200Y-111205714D02*
X267544819Y-111300952D01*
X267544819Y-111300952D02*
X267544819Y-111491428D01*
X267544819Y-111491428D02*
X267497200Y-111586666D01*
X267497200Y-111586666D02*
X267449580Y-111634285D01*
X267449580Y-111634285D02*
X267354342Y-111681904D01*
X267354342Y-111681904D02*
X267163866Y-111681904D01*
X267163866Y-111681904D02*
X267068628Y-111634285D01*
X267068628Y-111634285D02*
X267021009Y-111586666D01*
X267021009Y-111586666D02*
X266973390Y-111491428D01*
X296124819Y-71135714D02*
X295124819Y-71135714D01*
X295124819Y-71135714D02*
X295124819Y-71373809D01*
X295124819Y-71373809D02*
X295172438Y-71516666D01*
X295172438Y-71516666D02*
X295267676Y-71611904D01*
X295267676Y-71611904D02*
X295362914Y-71659523D01*
X295362914Y-71659523D02*
X295553390Y-71707142D01*
X295553390Y-71707142D02*
X295696247Y-71707142D01*
X295696247Y-71707142D02*
X295886723Y-71659523D01*
X295886723Y-71659523D02*
X295981961Y-71611904D01*
X295981961Y-71611904D02*
X296077200Y-71516666D01*
X296077200Y-71516666D02*
X296124819Y-71373809D01*
X296124819Y-71373809D02*
X296124819Y-71135714D01*
X295220057Y-72088095D02*
X295172438Y-72135714D01*
X295172438Y-72135714D02*
X295124819Y-72230952D01*
X295124819Y-72230952D02*
X295124819Y-72469047D01*
X295124819Y-72469047D02*
X295172438Y-72564285D01*
X295172438Y-72564285D02*
X295220057Y-72611904D01*
X295220057Y-72611904D02*
X295315295Y-72659523D01*
X295315295Y-72659523D02*
X295410533Y-72659523D01*
X295410533Y-72659523D02*
X295553390Y-72611904D01*
X295553390Y-72611904D02*
X296124819Y-72040476D01*
X296124819Y-72040476D02*
X296124819Y-72659523D01*
X295553390Y-73230952D02*
X295505771Y-73135714D01*
X295505771Y-73135714D02*
X295458152Y-73088095D01*
X295458152Y-73088095D02*
X295362914Y-73040476D01*
X295362914Y-73040476D02*
X295315295Y-73040476D01*
X295315295Y-73040476D02*
X295220057Y-73088095D01*
X295220057Y-73088095D02*
X295172438Y-73135714D01*
X295172438Y-73135714D02*
X295124819Y-73230952D01*
X295124819Y-73230952D02*
X295124819Y-73421428D01*
X295124819Y-73421428D02*
X295172438Y-73516666D01*
X295172438Y-73516666D02*
X295220057Y-73564285D01*
X295220057Y-73564285D02*
X295315295Y-73611904D01*
X295315295Y-73611904D02*
X295362914Y-73611904D01*
X295362914Y-73611904D02*
X295458152Y-73564285D01*
X295458152Y-73564285D02*
X295505771Y-73516666D01*
X295505771Y-73516666D02*
X295553390Y-73421428D01*
X295553390Y-73421428D02*
X295553390Y-73230952D01*
X295553390Y-73230952D02*
X295601009Y-73135714D01*
X295601009Y-73135714D02*
X295648628Y-73088095D01*
X295648628Y-73088095D02*
X295743866Y-73040476D01*
X295743866Y-73040476D02*
X295934342Y-73040476D01*
X295934342Y-73040476D02*
X296029580Y-73088095D01*
X296029580Y-73088095D02*
X296077200Y-73135714D01*
X296077200Y-73135714D02*
X296124819Y-73230952D01*
X296124819Y-73230952D02*
X296124819Y-73421428D01*
X296124819Y-73421428D02*
X296077200Y-73516666D01*
X296077200Y-73516666D02*
X296029580Y-73564285D01*
X296029580Y-73564285D02*
X295934342Y-73611904D01*
X295934342Y-73611904D02*
X295743866Y-73611904D01*
X295743866Y-73611904D02*
X295648628Y-73564285D01*
X295648628Y-73564285D02*
X295601009Y-73516666D01*
X295601009Y-73516666D02*
X295553390Y-73421428D01*
X174192614Y-98802842D02*
X174192614Y-99279033D01*
X174525947Y-98279033D02*
X174192614Y-98802842D01*
X174192614Y-98802842D02*
X173859281Y-98279033D01*
X173002138Y-99279033D02*
X173573566Y-99279033D01*
X173287852Y-99279033D02*
X173287852Y-98279033D01*
X173287852Y-98279033D02*
X173383090Y-98421890D01*
X173383090Y-98421890D02*
X173478328Y-98517128D01*
X173478328Y-98517128D02*
X173573566Y-98564747D01*
X168301004Y-82147547D02*
X168348624Y-82099928D01*
X168348624Y-82099928D02*
X168396243Y-81957071D01*
X168396243Y-81957071D02*
X168396243Y-81861833D01*
X168396243Y-81861833D02*
X168348624Y-81718976D01*
X168348624Y-81718976D02*
X168253385Y-81623738D01*
X168253385Y-81623738D02*
X168158147Y-81576119D01*
X168158147Y-81576119D02*
X167967671Y-81528500D01*
X167967671Y-81528500D02*
X167824814Y-81528500D01*
X167824814Y-81528500D02*
X167634338Y-81576119D01*
X167634338Y-81576119D02*
X167539100Y-81623738D01*
X167539100Y-81623738D02*
X167443862Y-81718976D01*
X167443862Y-81718976D02*
X167396243Y-81861833D01*
X167396243Y-81861833D02*
X167396243Y-81957071D01*
X167396243Y-81957071D02*
X167443862Y-82099928D01*
X167443862Y-82099928D02*
X167491481Y-82147547D01*
X167396243Y-82480881D02*
X167396243Y-83147547D01*
X167396243Y-83147547D02*
X168396243Y-82718976D01*
X215204819Y-51985714D02*
X214204819Y-51985714D01*
X214204819Y-51985714D02*
X214204819Y-52223809D01*
X214204819Y-52223809D02*
X214252438Y-52366666D01*
X214252438Y-52366666D02*
X214347676Y-52461904D01*
X214347676Y-52461904D02*
X214442914Y-52509523D01*
X214442914Y-52509523D02*
X214633390Y-52557142D01*
X214633390Y-52557142D02*
X214776247Y-52557142D01*
X214776247Y-52557142D02*
X214966723Y-52509523D01*
X214966723Y-52509523D02*
X215061961Y-52461904D01*
X215061961Y-52461904D02*
X215157200Y-52366666D01*
X215157200Y-52366666D02*
X215204819Y-52223809D01*
X215204819Y-52223809D02*
X215204819Y-51985714D01*
X215204819Y-53509523D02*
X215204819Y-52938095D01*
X215204819Y-53223809D02*
X214204819Y-53223809D01*
X214204819Y-53223809D02*
X214347676Y-53128571D01*
X214347676Y-53128571D02*
X214442914Y-53033333D01*
X214442914Y-53033333D02*
X214490533Y-52938095D01*
X214204819Y-54128571D02*
X214204819Y-54223809D01*
X214204819Y-54223809D02*
X214252438Y-54319047D01*
X214252438Y-54319047D02*
X214300057Y-54366666D01*
X214300057Y-54366666D02*
X214395295Y-54414285D01*
X214395295Y-54414285D02*
X214585771Y-54461904D01*
X214585771Y-54461904D02*
X214823866Y-54461904D01*
X214823866Y-54461904D02*
X215014342Y-54414285D01*
X215014342Y-54414285D02*
X215109580Y-54366666D01*
X215109580Y-54366666D02*
X215157200Y-54319047D01*
X215157200Y-54319047D02*
X215204819Y-54223809D01*
X215204819Y-54223809D02*
X215204819Y-54128571D01*
X215204819Y-54128571D02*
X215157200Y-54033333D01*
X215157200Y-54033333D02*
X215109580Y-53985714D01*
X215109580Y-53985714D02*
X215014342Y-53938095D01*
X215014342Y-53938095D02*
X214823866Y-53890476D01*
X214823866Y-53890476D02*
X214585771Y-53890476D01*
X214585771Y-53890476D02*
X214395295Y-53938095D01*
X214395295Y-53938095D02*
X214300057Y-53985714D01*
X214300057Y-53985714D02*
X214252438Y-54033333D01*
X214252438Y-54033333D02*
X214204819Y-54128571D01*
X43764819Y-71075714D02*
X42764819Y-71075714D01*
X42764819Y-71075714D02*
X42764819Y-71313809D01*
X42764819Y-71313809D02*
X42812438Y-71456666D01*
X42812438Y-71456666D02*
X42907676Y-71551904D01*
X42907676Y-71551904D02*
X43002914Y-71599523D01*
X43002914Y-71599523D02*
X43193390Y-71647142D01*
X43193390Y-71647142D02*
X43336247Y-71647142D01*
X43336247Y-71647142D02*
X43526723Y-71599523D01*
X43526723Y-71599523D02*
X43621961Y-71551904D01*
X43621961Y-71551904D02*
X43717200Y-71456666D01*
X43717200Y-71456666D02*
X43764819Y-71313809D01*
X43764819Y-71313809D02*
X43764819Y-71075714D01*
X43764819Y-72599523D02*
X43764819Y-72028095D01*
X43764819Y-72313809D02*
X42764819Y-72313809D01*
X42764819Y-72313809D02*
X42907676Y-72218571D01*
X42907676Y-72218571D02*
X43002914Y-72123333D01*
X43002914Y-72123333D02*
X43050533Y-72028095D01*
X42764819Y-73504285D02*
X42764819Y-73028095D01*
X42764819Y-73028095D02*
X43241009Y-72980476D01*
X43241009Y-72980476D02*
X43193390Y-73028095D01*
X43193390Y-73028095D02*
X43145771Y-73123333D01*
X43145771Y-73123333D02*
X43145771Y-73361428D01*
X43145771Y-73361428D02*
X43193390Y-73456666D01*
X43193390Y-73456666D02*
X43241009Y-73504285D01*
X43241009Y-73504285D02*
X43336247Y-73551904D01*
X43336247Y-73551904D02*
X43574342Y-73551904D01*
X43574342Y-73551904D02*
X43669580Y-73504285D01*
X43669580Y-73504285D02*
X43717200Y-73456666D01*
X43717200Y-73456666D02*
X43764819Y-73361428D01*
X43764819Y-73361428D02*
X43764819Y-73123333D01*
X43764819Y-73123333D02*
X43717200Y-73028095D01*
X43717200Y-73028095D02*
X43669580Y-72980476D01*
X110404819Y-90175714D02*
X109404819Y-90175714D01*
X109404819Y-90175714D02*
X109404819Y-90413809D01*
X109404819Y-90413809D02*
X109452438Y-90556666D01*
X109452438Y-90556666D02*
X109547676Y-90651904D01*
X109547676Y-90651904D02*
X109642914Y-90699523D01*
X109642914Y-90699523D02*
X109833390Y-90747142D01*
X109833390Y-90747142D02*
X109976247Y-90747142D01*
X109976247Y-90747142D02*
X110166723Y-90699523D01*
X110166723Y-90699523D02*
X110261961Y-90651904D01*
X110261961Y-90651904D02*
X110357200Y-90556666D01*
X110357200Y-90556666D02*
X110404819Y-90413809D01*
X110404819Y-90413809D02*
X110404819Y-90175714D01*
X109404819Y-91080476D02*
X109404819Y-91699523D01*
X109404819Y-91699523D02*
X109785771Y-91366190D01*
X109785771Y-91366190D02*
X109785771Y-91509047D01*
X109785771Y-91509047D02*
X109833390Y-91604285D01*
X109833390Y-91604285D02*
X109881009Y-91651904D01*
X109881009Y-91651904D02*
X109976247Y-91699523D01*
X109976247Y-91699523D02*
X110214342Y-91699523D01*
X110214342Y-91699523D02*
X110309580Y-91651904D01*
X110309580Y-91651904D02*
X110357200Y-91604285D01*
X110357200Y-91604285D02*
X110404819Y-91509047D01*
X110404819Y-91509047D02*
X110404819Y-91223333D01*
X110404819Y-91223333D02*
X110357200Y-91128095D01*
X110357200Y-91128095D02*
X110309580Y-91080476D01*
X109500057Y-92080476D02*
X109452438Y-92128095D01*
X109452438Y-92128095D02*
X109404819Y-92223333D01*
X109404819Y-92223333D02*
X109404819Y-92461428D01*
X109404819Y-92461428D02*
X109452438Y-92556666D01*
X109452438Y-92556666D02*
X109500057Y-92604285D01*
X109500057Y-92604285D02*
X109595295Y-92651904D01*
X109595295Y-92651904D02*
X109690533Y-92651904D01*
X109690533Y-92651904D02*
X109833390Y-92604285D01*
X109833390Y-92604285D02*
X110404819Y-92032857D01*
X110404819Y-92032857D02*
X110404819Y-92651904D01*
X294016243Y-49929928D02*
X293016243Y-49929928D01*
X293016243Y-49929928D02*
X293016243Y-50168023D01*
X293016243Y-50168023D02*
X293063862Y-50310880D01*
X293063862Y-50310880D02*
X293159100Y-50406118D01*
X293159100Y-50406118D02*
X293254338Y-50453737D01*
X293254338Y-50453737D02*
X293444814Y-50501356D01*
X293444814Y-50501356D02*
X293587671Y-50501356D01*
X293587671Y-50501356D02*
X293778147Y-50453737D01*
X293778147Y-50453737D02*
X293873385Y-50406118D01*
X293873385Y-50406118D02*
X293968624Y-50310880D01*
X293968624Y-50310880D02*
X294016243Y-50168023D01*
X294016243Y-50168023D02*
X294016243Y-49929928D01*
X294016243Y-51453737D02*
X294016243Y-50882309D01*
X294016243Y-51168023D02*
X293016243Y-51168023D01*
X293016243Y-51168023D02*
X293159100Y-51072785D01*
X293159100Y-51072785D02*
X293254338Y-50977547D01*
X293254338Y-50977547D02*
X293301957Y-50882309D01*
X293349576Y-52310880D02*
X294016243Y-52310880D01*
X292968624Y-52072785D02*
X293682909Y-51834690D01*
X293682909Y-51834690D02*
X293682909Y-52453737D01*
X138984819Y-71135714D02*
X137984819Y-71135714D01*
X137984819Y-71135714D02*
X137984819Y-71373809D01*
X137984819Y-71373809D02*
X138032438Y-71516666D01*
X138032438Y-71516666D02*
X138127676Y-71611904D01*
X138127676Y-71611904D02*
X138222914Y-71659523D01*
X138222914Y-71659523D02*
X138413390Y-71707142D01*
X138413390Y-71707142D02*
X138556247Y-71707142D01*
X138556247Y-71707142D02*
X138746723Y-71659523D01*
X138746723Y-71659523D02*
X138841961Y-71611904D01*
X138841961Y-71611904D02*
X138937200Y-71516666D01*
X138937200Y-71516666D02*
X138984819Y-71373809D01*
X138984819Y-71373809D02*
X138984819Y-71135714D01*
X138080057Y-72088095D02*
X138032438Y-72135714D01*
X138032438Y-72135714D02*
X137984819Y-72230952D01*
X137984819Y-72230952D02*
X137984819Y-72469047D01*
X137984819Y-72469047D02*
X138032438Y-72564285D01*
X138032438Y-72564285D02*
X138080057Y-72611904D01*
X138080057Y-72611904D02*
X138175295Y-72659523D01*
X138175295Y-72659523D02*
X138270533Y-72659523D01*
X138270533Y-72659523D02*
X138413390Y-72611904D01*
X138413390Y-72611904D02*
X138984819Y-72040476D01*
X138984819Y-72040476D02*
X138984819Y-72659523D01*
X137984819Y-73278571D02*
X137984819Y-73373809D01*
X137984819Y-73373809D02*
X138032438Y-73469047D01*
X138032438Y-73469047D02*
X138080057Y-73516666D01*
X138080057Y-73516666D02*
X138175295Y-73564285D01*
X138175295Y-73564285D02*
X138365771Y-73611904D01*
X138365771Y-73611904D02*
X138603866Y-73611904D01*
X138603866Y-73611904D02*
X138794342Y-73564285D01*
X138794342Y-73564285D02*
X138889580Y-73516666D01*
X138889580Y-73516666D02*
X138937200Y-73469047D01*
X138937200Y-73469047D02*
X138984819Y-73373809D01*
X138984819Y-73373809D02*
X138984819Y-73278571D01*
X138984819Y-73278571D02*
X138937200Y-73183333D01*
X138937200Y-73183333D02*
X138889580Y-73135714D01*
X138889580Y-73135714D02*
X138794342Y-73088095D01*
X138794342Y-73088095D02*
X138603866Y-73040476D01*
X138603866Y-73040476D02*
X138365771Y-73040476D01*
X138365771Y-73040476D02*
X138175295Y-73088095D01*
X138175295Y-73088095D02*
X138080057Y-73135714D01*
X138080057Y-73135714D02*
X138032438Y-73183333D01*
X138032438Y-73183333D02*
X137984819Y-73278571D01*
X165838090Y-86243794D02*
X165885709Y-86291414D01*
X165885709Y-86291414D02*
X166028566Y-86339033D01*
X166028566Y-86339033D02*
X166123804Y-86339033D01*
X166123804Y-86339033D02*
X166266661Y-86291414D01*
X166266661Y-86291414D02*
X166361899Y-86196175D01*
X166361899Y-86196175D02*
X166409518Y-86100937D01*
X166409518Y-86100937D02*
X166457137Y-85910461D01*
X166457137Y-85910461D02*
X166457137Y-85767604D01*
X166457137Y-85767604D02*
X166409518Y-85577128D01*
X166409518Y-85577128D02*
X166361899Y-85481890D01*
X166361899Y-85481890D02*
X166266661Y-85386652D01*
X166266661Y-85386652D02*
X166123804Y-85339033D01*
X166123804Y-85339033D02*
X166028566Y-85339033D01*
X166028566Y-85339033D02*
X165885709Y-85386652D01*
X165885709Y-85386652D02*
X165838090Y-85434271D01*
X164885709Y-86339033D02*
X165457137Y-86339033D01*
X165171423Y-86339033D02*
X165171423Y-85339033D01*
X165171423Y-85339033D02*
X165266661Y-85481890D01*
X165266661Y-85481890D02*
X165361899Y-85577128D01*
X165361899Y-85577128D02*
X165457137Y-85624747D01*
X200844819Y-71153214D02*
X199844819Y-71153214D01*
X199844819Y-71153214D02*
X199844819Y-71391309D01*
X199844819Y-71391309D02*
X199892438Y-71534166D01*
X199892438Y-71534166D02*
X199987676Y-71629404D01*
X199987676Y-71629404D02*
X200082914Y-71677023D01*
X200082914Y-71677023D02*
X200273390Y-71724642D01*
X200273390Y-71724642D02*
X200416247Y-71724642D01*
X200416247Y-71724642D02*
X200606723Y-71677023D01*
X200606723Y-71677023D02*
X200701961Y-71629404D01*
X200701961Y-71629404D02*
X200797200Y-71534166D01*
X200797200Y-71534166D02*
X200844819Y-71391309D01*
X200844819Y-71391309D02*
X200844819Y-71153214D01*
X199940057Y-72105595D02*
X199892438Y-72153214D01*
X199892438Y-72153214D02*
X199844819Y-72248452D01*
X199844819Y-72248452D02*
X199844819Y-72486547D01*
X199844819Y-72486547D02*
X199892438Y-72581785D01*
X199892438Y-72581785D02*
X199940057Y-72629404D01*
X199940057Y-72629404D02*
X200035295Y-72677023D01*
X200035295Y-72677023D02*
X200130533Y-72677023D01*
X200130533Y-72677023D02*
X200273390Y-72629404D01*
X200273390Y-72629404D02*
X200844819Y-72057976D01*
X200844819Y-72057976D02*
X200844819Y-72677023D01*
X199844819Y-73010357D02*
X199844819Y-73629404D01*
X199844819Y-73629404D02*
X200225771Y-73296071D01*
X200225771Y-73296071D02*
X200225771Y-73438928D01*
X200225771Y-73438928D02*
X200273390Y-73534166D01*
X200273390Y-73534166D02*
X200321009Y-73581785D01*
X200321009Y-73581785D02*
X200416247Y-73629404D01*
X200416247Y-73629404D02*
X200654342Y-73629404D01*
X200654342Y-73629404D02*
X200749580Y-73581785D01*
X200749580Y-73581785D02*
X200797200Y-73534166D01*
X200797200Y-73534166D02*
X200844819Y-73438928D01*
X200844819Y-73438928D02*
X200844819Y-73153214D01*
X200844819Y-73153214D02*
X200797200Y-73057976D01*
X200797200Y-73057976D02*
X200749580Y-73010357D01*
X100934819Y-71085714D02*
X99934819Y-71085714D01*
X99934819Y-71085714D02*
X99934819Y-71323809D01*
X99934819Y-71323809D02*
X99982438Y-71466666D01*
X99982438Y-71466666D02*
X100077676Y-71561904D01*
X100077676Y-71561904D02*
X100172914Y-71609523D01*
X100172914Y-71609523D02*
X100363390Y-71657142D01*
X100363390Y-71657142D02*
X100506247Y-71657142D01*
X100506247Y-71657142D02*
X100696723Y-71609523D01*
X100696723Y-71609523D02*
X100791961Y-71561904D01*
X100791961Y-71561904D02*
X100887200Y-71466666D01*
X100887200Y-71466666D02*
X100934819Y-71323809D01*
X100934819Y-71323809D02*
X100934819Y-71085714D01*
X100934819Y-72609523D02*
X100934819Y-72038095D01*
X100934819Y-72323809D02*
X99934819Y-72323809D01*
X99934819Y-72323809D02*
X100077676Y-72228571D01*
X100077676Y-72228571D02*
X100172914Y-72133333D01*
X100172914Y-72133333D02*
X100220533Y-72038095D01*
X100363390Y-73180952D02*
X100315771Y-73085714D01*
X100315771Y-73085714D02*
X100268152Y-73038095D01*
X100268152Y-73038095D02*
X100172914Y-72990476D01*
X100172914Y-72990476D02*
X100125295Y-72990476D01*
X100125295Y-72990476D02*
X100030057Y-73038095D01*
X100030057Y-73038095D02*
X99982438Y-73085714D01*
X99982438Y-73085714D02*
X99934819Y-73180952D01*
X99934819Y-73180952D02*
X99934819Y-73371428D01*
X99934819Y-73371428D02*
X99982438Y-73466666D01*
X99982438Y-73466666D02*
X100030057Y-73514285D01*
X100030057Y-73514285D02*
X100125295Y-73561904D01*
X100125295Y-73561904D02*
X100172914Y-73561904D01*
X100172914Y-73561904D02*
X100268152Y-73514285D01*
X100268152Y-73514285D02*
X100315771Y-73466666D01*
X100315771Y-73466666D02*
X100363390Y-73371428D01*
X100363390Y-73371428D02*
X100363390Y-73180952D01*
X100363390Y-73180952D02*
X100411009Y-73085714D01*
X100411009Y-73085714D02*
X100458628Y-73038095D01*
X100458628Y-73038095D02*
X100553866Y-72990476D01*
X100553866Y-72990476D02*
X100744342Y-72990476D01*
X100744342Y-72990476D02*
X100839580Y-73038095D01*
X100839580Y-73038095D02*
X100887200Y-73085714D01*
X100887200Y-73085714D02*
X100934819Y-73180952D01*
X100934819Y-73180952D02*
X100934819Y-73371428D01*
X100934819Y-73371428D02*
X100887200Y-73466666D01*
X100887200Y-73466666D02*
X100839580Y-73514285D01*
X100839580Y-73514285D02*
X100744342Y-73561904D01*
X100744342Y-73561904D02*
X100553866Y-73561904D01*
X100553866Y-73561904D02*
X100458628Y-73514285D01*
X100458628Y-73514285D02*
X100411009Y-73466666D01*
X100411009Y-73466666D02*
X100363390Y-73371428D01*
X51885975Y-37594033D02*
X51885975Y-38308318D01*
X51885975Y-38308318D02*
X51933594Y-38451175D01*
X51933594Y-38451175D02*
X52028832Y-38546414D01*
X52028832Y-38546414D02*
X52171689Y-38594033D01*
X52171689Y-38594033D02*
X52266927Y-38594033D01*
X50885975Y-38594033D02*
X51457403Y-38594033D01*
X51171689Y-38594033D02*
X51171689Y-37594033D01*
X51171689Y-37594033D02*
X51266927Y-37736890D01*
X51266927Y-37736890D02*
X51362165Y-37832128D01*
X51362165Y-37832128D02*
X51457403Y-37879747D01*
X115164819Y-52511905D02*
X114164819Y-52511905D01*
X114164819Y-52511905D02*
X114164819Y-52750000D01*
X114164819Y-52750000D02*
X114212438Y-52892857D01*
X114212438Y-52892857D02*
X114307676Y-52988095D01*
X114307676Y-52988095D02*
X114402914Y-53035714D01*
X114402914Y-53035714D02*
X114593390Y-53083333D01*
X114593390Y-53083333D02*
X114736247Y-53083333D01*
X114736247Y-53083333D02*
X114926723Y-53035714D01*
X114926723Y-53035714D02*
X115021961Y-52988095D01*
X115021961Y-52988095D02*
X115117200Y-52892857D01*
X115117200Y-52892857D02*
X115164819Y-52750000D01*
X115164819Y-52750000D02*
X115164819Y-52511905D01*
X114164819Y-53988095D02*
X114164819Y-53511905D01*
X114164819Y-53511905D02*
X114641009Y-53464286D01*
X114641009Y-53464286D02*
X114593390Y-53511905D01*
X114593390Y-53511905D02*
X114545771Y-53607143D01*
X114545771Y-53607143D02*
X114545771Y-53845238D01*
X114545771Y-53845238D02*
X114593390Y-53940476D01*
X114593390Y-53940476D02*
X114641009Y-53988095D01*
X114641009Y-53988095D02*
X114736247Y-54035714D01*
X114736247Y-54035714D02*
X114974342Y-54035714D01*
X114974342Y-54035714D02*
X115069580Y-53988095D01*
X115069580Y-53988095D02*
X115117200Y-53940476D01*
X115117200Y-53940476D02*
X115164819Y-53845238D01*
X115164819Y-53845238D02*
X115164819Y-53607143D01*
X115164819Y-53607143D02*
X115117200Y-53511905D01*
X115117200Y-53511905D02*
X115069580Y-53464286D01*
X194896243Y-71119928D02*
X193896243Y-71119928D01*
X193896243Y-71119928D02*
X193896243Y-71358023D01*
X193896243Y-71358023D02*
X193943862Y-71500880D01*
X193943862Y-71500880D02*
X194039100Y-71596118D01*
X194039100Y-71596118D02*
X194134338Y-71643737D01*
X194134338Y-71643737D02*
X194324814Y-71691356D01*
X194324814Y-71691356D02*
X194467671Y-71691356D01*
X194467671Y-71691356D02*
X194658147Y-71643737D01*
X194658147Y-71643737D02*
X194753385Y-71596118D01*
X194753385Y-71596118D02*
X194848624Y-71500880D01*
X194848624Y-71500880D02*
X194896243Y-71358023D01*
X194896243Y-71358023D02*
X194896243Y-71119928D01*
X193991481Y-72072309D02*
X193943862Y-72119928D01*
X193943862Y-72119928D02*
X193896243Y-72215166D01*
X193896243Y-72215166D02*
X193896243Y-72453261D01*
X193896243Y-72453261D02*
X193943862Y-72548499D01*
X193943862Y-72548499D02*
X193991481Y-72596118D01*
X193991481Y-72596118D02*
X194086719Y-72643737D01*
X194086719Y-72643737D02*
X194181957Y-72643737D01*
X194181957Y-72643737D02*
X194324814Y-72596118D01*
X194324814Y-72596118D02*
X194896243Y-72024690D01*
X194896243Y-72024690D02*
X194896243Y-72643737D01*
X193991481Y-73024690D02*
X193943862Y-73072309D01*
X193943862Y-73072309D02*
X193896243Y-73167547D01*
X193896243Y-73167547D02*
X193896243Y-73405642D01*
X193896243Y-73405642D02*
X193943862Y-73500880D01*
X193943862Y-73500880D02*
X193991481Y-73548499D01*
X193991481Y-73548499D02*
X194086719Y-73596118D01*
X194086719Y-73596118D02*
X194181957Y-73596118D01*
X194181957Y-73596118D02*
X194324814Y-73548499D01*
X194324814Y-73548499D02*
X194896243Y-72977071D01*
X194896243Y-72977071D02*
X194896243Y-73596118D01*
X148454819Y-90195714D02*
X147454819Y-90195714D01*
X147454819Y-90195714D02*
X147454819Y-90433809D01*
X147454819Y-90433809D02*
X147502438Y-90576666D01*
X147502438Y-90576666D02*
X147597676Y-90671904D01*
X147597676Y-90671904D02*
X147692914Y-90719523D01*
X147692914Y-90719523D02*
X147883390Y-90767142D01*
X147883390Y-90767142D02*
X148026247Y-90767142D01*
X148026247Y-90767142D02*
X148216723Y-90719523D01*
X148216723Y-90719523D02*
X148311961Y-90671904D01*
X148311961Y-90671904D02*
X148407200Y-90576666D01*
X148407200Y-90576666D02*
X148454819Y-90433809D01*
X148454819Y-90433809D02*
X148454819Y-90195714D01*
X147454819Y-91100476D02*
X147454819Y-91719523D01*
X147454819Y-91719523D02*
X147835771Y-91386190D01*
X147835771Y-91386190D02*
X147835771Y-91529047D01*
X147835771Y-91529047D02*
X147883390Y-91624285D01*
X147883390Y-91624285D02*
X147931009Y-91671904D01*
X147931009Y-91671904D02*
X148026247Y-91719523D01*
X148026247Y-91719523D02*
X148264342Y-91719523D01*
X148264342Y-91719523D02*
X148359580Y-91671904D01*
X148359580Y-91671904D02*
X148407200Y-91624285D01*
X148407200Y-91624285D02*
X148454819Y-91529047D01*
X148454819Y-91529047D02*
X148454819Y-91243333D01*
X148454819Y-91243333D02*
X148407200Y-91148095D01*
X148407200Y-91148095D02*
X148359580Y-91100476D01*
X147788152Y-92576666D02*
X148454819Y-92576666D01*
X147407200Y-92338571D02*
X148121485Y-92100476D01*
X148121485Y-92100476D02*
X148121485Y-92719523D01*
X177134819Y-52431905D02*
X176134819Y-52431905D01*
X176134819Y-52431905D02*
X176134819Y-52670000D01*
X176134819Y-52670000D02*
X176182438Y-52812857D01*
X176182438Y-52812857D02*
X176277676Y-52908095D01*
X176277676Y-52908095D02*
X176372914Y-52955714D01*
X176372914Y-52955714D02*
X176563390Y-53003333D01*
X176563390Y-53003333D02*
X176706247Y-53003333D01*
X176706247Y-53003333D02*
X176896723Y-52955714D01*
X176896723Y-52955714D02*
X176991961Y-52908095D01*
X176991961Y-52908095D02*
X177087200Y-52812857D01*
X177087200Y-52812857D02*
X177134819Y-52670000D01*
X177134819Y-52670000D02*
X177134819Y-52431905D01*
X176563390Y-53574762D02*
X176515771Y-53479524D01*
X176515771Y-53479524D02*
X176468152Y-53431905D01*
X176468152Y-53431905D02*
X176372914Y-53384286D01*
X176372914Y-53384286D02*
X176325295Y-53384286D01*
X176325295Y-53384286D02*
X176230057Y-53431905D01*
X176230057Y-53431905D02*
X176182438Y-53479524D01*
X176182438Y-53479524D02*
X176134819Y-53574762D01*
X176134819Y-53574762D02*
X176134819Y-53765238D01*
X176134819Y-53765238D02*
X176182438Y-53860476D01*
X176182438Y-53860476D02*
X176230057Y-53908095D01*
X176230057Y-53908095D02*
X176325295Y-53955714D01*
X176325295Y-53955714D02*
X176372914Y-53955714D01*
X176372914Y-53955714D02*
X176468152Y-53908095D01*
X176468152Y-53908095D02*
X176515771Y-53860476D01*
X176515771Y-53860476D02*
X176563390Y-53765238D01*
X176563390Y-53765238D02*
X176563390Y-53574762D01*
X176563390Y-53574762D02*
X176611009Y-53479524D01*
X176611009Y-53479524D02*
X176658628Y-53431905D01*
X176658628Y-53431905D02*
X176753866Y-53384286D01*
X176753866Y-53384286D02*
X176944342Y-53384286D01*
X176944342Y-53384286D02*
X177039580Y-53431905D01*
X177039580Y-53431905D02*
X177087200Y-53479524D01*
X177087200Y-53479524D02*
X177134819Y-53574762D01*
X177134819Y-53574762D02*
X177134819Y-53765238D01*
X177134819Y-53765238D02*
X177087200Y-53860476D01*
X177087200Y-53860476D02*
X177039580Y-53908095D01*
X177039580Y-53908095D02*
X176944342Y-53955714D01*
X176944342Y-53955714D02*
X176753866Y-53955714D01*
X176753866Y-53955714D02*
X176658628Y-53908095D01*
X176658628Y-53908095D02*
X176611009Y-53860476D01*
X176611009Y-53860476D02*
X176563390Y-53765238D01*
X134214819Y-52551905D02*
X133214819Y-52551905D01*
X133214819Y-52551905D02*
X133214819Y-52790000D01*
X133214819Y-52790000D02*
X133262438Y-52932857D01*
X133262438Y-52932857D02*
X133357676Y-53028095D01*
X133357676Y-53028095D02*
X133452914Y-53075714D01*
X133452914Y-53075714D02*
X133643390Y-53123333D01*
X133643390Y-53123333D02*
X133786247Y-53123333D01*
X133786247Y-53123333D02*
X133976723Y-53075714D01*
X133976723Y-53075714D02*
X134071961Y-53028095D01*
X134071961Y-53028095D02*
X134167200Y-52932857D01*
X134167200Y-52932857D02*
X134214819Y-52790000D01*
X134214819Y-52790000D02*
X134214819Y-52551905D01*
X133214819Y-53980476D02*
X133214819Y-53790000D01*
X133214819Y-53790000D02*
X133262438Y-53694762D01*
X133262438Y-53694762D02*
X133310057Y-53647143D01*
X133310057Y-53647143D02*
X133452914Y-53551905D01*
X133452914Y-53551905D02*
X133643390Y-53504286D01*
X133643390Y-53504286D02*
X134024342Y-53504286D01*
X134024342Y-53504286D02*
X134119580Y-53551905D01*
X134119580Y-53551905D02*
X134167200Y-53599524D01*
X134167200Y-53599524D02*
X134214819Y-53694762D01*
X134214819Y-53694762D02*
X134214819Y-53885238D01*
X134214819Y-53885238D02*
X134167200Y-53980476D01*
X134167200Y-53980476D02*
X134119580Y-54028095D01*
X134119580Y-54028095D02*
X134024342Y-54075714D01*
X134024342Y-54075714D02*
X133786247Y-54075714D01*
X133786247Y-54075714D02*
X133691009Y-54028095D01*
X133691009Y-54028095D02*
X133643390Y-53980476D01*
X133643390Y-53980476D02*
X133595771Y-53885238D01*
X133595771Y-53885238D02*
X133595771Y-53694762D01*
X133595771Y-53694762D02*
X133643390Y-53599524D01*
X133643390Y-53599524D02*
X133691009Y-53551905D01*
X133691009Y-53551905D02*
X133786247Y-53504286D01*
X305574819Y-109305714D02*
X304574819Y-109305714D01*
X304574819Y-109305714D02*
X304574819Y-109543809D01*
X304574819Y-109543809D02*
X304622438Y-109686666D01*
X304622438Y-109686666D02*
X304717676Y-109781904D01*
X304717676Y-109781904D02*
X304812914Y-109829523D01*
X304812914Y-109829523D02*
X305003390Y-109877142D01*
X305003390Y-109877142D02*
X305146247Y-109877142D01*
X305146247Y-109877142D02*
X305336723Y-109829523D01*
X305336723Y-109829523D02*
X305431961Y-109781904D01*
X305431961Y-109781904D02*
X305527200Y-109686666D01*
X305527200Y-109686666D02*
X305574819Y-109543809D01*
X305574819Y-109543809D02*
X305574819Y-109305714D01*
X304574819Y-110781904D02*
X304574819Y-110305714D01*
X304574819Y-110305714D02*
X305051009Y-110258095D01*
X305051009Y-110258095D02*
X305003390Y-110305714D01*
X305003390Y-110305714D02*
X304955771Y-110400952D01*
X304955771Y-110400952D02*
X304955771Y-110639047D01*
X304955771Y-110639047D02*
X305003390Y-110734285D01*
X305003390Y-110734285D02*
X305051009Y-110781904D01*
X305051009Y-110781904D02*
X305146247Y-110829523D01*
X305146247Y-110829523D02*
X305384342Y-110829523D01*
X305384342Y-110829523D02*
X305479580Y-110781904D01*
X305479580Y-110781904D02*
X305527200Y-110734285D01*
X305527200Y-110734285D02*
X305574819Y-110639047D01*
X305574819Y-110639047D02*
X305574819Y-110400952D01*
X305574819Y-110400952D02*
X305527200Y-110305714D01*
X305527200Y-110305714D02*
X305479580Y-110258095D01*
X304574819Y-111448571D02*
X304574819Y-111543809D01*
X304574819Y-111543809D02*
X304622438Y-111639047D01*
X304622438Y-111639047D02*
X304670057Y-111686666D01*
X304670057Y-111686666D02*
X304765295Y-111734285D01*
X304765295Y-111734285D02*
X304955771Y-111781904D01*
X304955771Y-111781904D02*
X305193866Y-111781904D01*
X305193866Y-111781904D02*
X305384342Y-111734285D01*
X305384342Y-111734285D02*
X305479580Y-111686666D01*
X305479580Y-111686666D02*
X305527200Y-111639047D01*
X305527200Y-111639047D02*
X305574819Y-111543809D01*
X305574819Y-111543809D02*
X305574819Y-111448571D01*
X305574819Y-111448571D02*
X305527200Y-111353333D01*
X305527200Y-111353333D02*
X305479580Y-111305714D01*
X305479580Y-111305714D02*
X305384342Y-111258095D01*
X305384342Y-111258095D02*
X305193866Y-111210476D01*
X305193866Y-111210476D02*
X304955771Y-111210476D01*
X304955771Y-111210476D02*
X304765295Y-111258095D01*
X304765295Y-111258095D02*
X304670057Y-111305714D01*
X304670057Y-111305714D02*
X304622438Y-111353333D01*
X304622438Y-111353333D02*
X304574819Y-111448571D01*
X182088090Y-88729033D02*
X182421423Y-88252842D01*
X182659518Y-88729033D02*
X182659518Y-87729033D01*
X182659518Y-87729033D02*
X182278566Y-87729033D01*
X182278566Y-87729033D02*
X182183328Y-87776652D01*
X182183328Y-87776652D02*
X182135709Y-87824271D01*
X182135709Y-87824271D02*
X182088090Y-87919509D01*
X182088090Y-87919509D02*
X182088090Y-88062366D01*
X182088090Y-88062366D02*
X182135709Y-88157604D01*
X182135709Y-88157604D02*
X182183328Y-88205223D01*
X182183328Y-88205223D02*
X182278566Y-88252842D01*
X182278566Y-88252842D02*
X182659518Y-88252842D01*
X181230947Y-87729033D02*
X181421423Y-87729033D01*
X181421423Y-87729033D02*
X181516661Y-87776652D01*
X181516661Y-87776652D02*
X181564280Y-87824271D01*
X181564280Y-87824271D02*
X181659518Y-87967128D01*
X181659518Y-87967128D02*
X181707137Y-88157604D01*
X181707137Y-88157604D02*
X181707137Y-88538556D01*
X181707137Y-88538556D02*
X181659518Y-88633794D01*
X181659518Y-88633794D02*
X181611899Y-88681414D01*
X181611899Y-88681414D02*
X181516661Y-88729033D01*
X181516661Y-88729033D02*
X181326185Y-88729033D01*
X181326185Y-88729033D02*
X181230947Y-88681414D01*
X181230947Y-88681414D02*
X181183328Y-88633794D01*
X181183328Y-88633794D02*
X181135709Y-88538556D01*
X181135709Y-88538556D02*
X181135709Y-88300461D01*
X181135709Y-88300461D02*
X181183328Y-88205223D01*
X181183328Y-88205223D02*
X181230947Y-88157604D01*
X181230947Y-88157604D02*
X181326185Y-88109985D01*
X181326185Y-88109985D02*
X181516661Y-88109985D01*
X181516661Y-88109985D02*
X181611899Y-88157604D01*
X181611899Y-88157604D02*
X181659518Y-88205223D01*
X181659518Y-88205223D02*
X181707137Y-88300461D01*
X196134819Y-52449405D02*
X195134819Y-52449405D01*
X195134819Y-52449405D02*
X195134819Y-52687500D01*
X195134819Y-52687500D02*
X195182438Y-52830357D01*
X195182438Y-52830357D02*
X195277676Y-52925595D01*
X195277676Y-52925595D02*
X195372914Y-52973214D01*
X195372914Y-52973214D02*
X195563390Y-53020833D01*
X195563390Y-53020833D02*
X195706247Y-53020833D01*
X195706247Y-53020833D02*
X195896723Y-52973214D01*
X195896723Y-52973214D02*
X195991961Y-52925595D01*
X195991961Y-52925595D02*
X196087200Y-52830357D01*
X196087200Y-52830357D02*
X196134819Y-52687500D01*
X196134819Y-52687500D02*
X196134819Y-52449405D01*
X196134819Y-53497024D02*
X196134819Y-53687500D01*
X196134819Y-53687500D02*
X196087200Y-53782738D01*
X196087200Y-53782738D02*
X196039580Y-53830357D01*
X196039580Y-53830357D02*
X195896723Y-53925595D01*
X195896723Y-53925595D02*
X195706247Y-53973214D01*
X195706247Y-53973214D02*
X195325295Y-53973214D01*
X195325295Y-53973214D02*
X195230057Y-53925595D01*
X195230057Y-53925595D02*
X195182438Y-53877976D01*
X195182438Y-53877976D02*
X195134819Y-53782738D01*
X195134819Y-53782738D02*
X195134819Y-53592262D01*
X195134819Y-53592262D02*
X195182438Y-53497024D01*
X195182438Y-53497024D02*
X195230057Y-53449405D01*
X195230057Y-53449405D02*
X195325295Y-53401786D01*
X195325295Y-53401786D02*
X195563390Y-53401786D01*
X195563390Y-53401786D02*
X195658628Y-53449405D01*
X195658628Y-53449405D02*
X195706247Y-53497024D01*
X195706247Y-53497024D02*
X195753866Y-53592262D01*
X195753866Y-53592262D02*
X195753866Y-53782738D01*
X195753866Y-53782738D02*
X195706247Y-53877976D01*
X195706247Y-53877976D02*
X195658628Y-53925595D01*
X195658628Y-53925595D02*
X195563390Y-53973214D01*
X171158090Y-103253794D02*
X171205709Y-103301414D01*
X171205709Y-103301414D02*
X171348566Y-103349033D01*
X171348566Y-103349033D02*
X171443804Y-103349033D01*
X171443804Y-103349033D02*
X171586661Y-103301414D01*
X171586661Y-103301414D02*
X171681899Y-103206175D01*
X171681899Y-103206175D02*
X171729518Y-103110937D01*
X171729518Y-103110937D02*
X171777137Y-102920461D01*
X171777137Y-102920461D02*
X171777137Y-102777604D01*
X171777137Y-102777604D02*
X171729518Y-102587128D01*
X171729518Y-102587128D02*
X171681899Y-102491890D01*
X171681899Y-102491890D02*
X171586661Y-102396652D01*
X171586661Y-102396652D02*
X171443804Y-102349033D01*
X171443804Y-102349033D02*
X171348566Y-102349033D01*
X171348566Y-102349033D02*
X171205709Y-102396652D01*
X171205709Y-102396652D02*
X171158090Y-102444271D01*
X170824756Y-102349033D02*
X170205709Y-102349033D01*
X170205709Y-102349033D02*
X170539042Y-102729985D01*
X170539042Y-102729985D02*
X170396185Y-102729985D01*
X170396185Y-102729985D02*
X170300947Y-102777604D01*
X170300947Y-102777604D02*
X170253328Y-102825223D01*
X170253328Y-102825223D02*
X170205709Y-102920461D01*
X170205709Y-102920461D02*
X170205709Y-103158556D01*
X170205709Y-103158556D02*
X170253328Y-103253794D01*
X170253328Y-103253794D02*
X170300947Y-103301414D01*
X170300947Y-103301414D02*
X170396185Y-103349033D01*
X170396185Y-103349033D02*
X170681899Y-103349033D01*
X170681899Y-103349033D02*
X170777137Y-103301414D01*
X170777137Y-103301414D02*
X170824756Y-103253794D01*
X62716243Y-70189928D02*
X61716243Y-70189928D01*
X61716243Y-70189928D02*
X61716243Y-70428023D01*
X61716243Y-70428023D02*
X61763862Y-70570880D01*
X61763862Y-70570880D02*
X61859100Y-70666118D01*
X61859100Y-70666118D02*
X61954338Y-70713737D01*
X61954338Y-70713737D02*
X62144814Y-70761356D01*
X62144814Y-70761356D02*
X62287671Y-70761356D01*
X62287671Y-70761356D02*
X62478147Y-70713737D01*
X62478147Y-70713737D02*
X62573385Y-70666118D01*
X62573385Y-70666118D02*
X62668624Y-70570880D01*
X62668624Y-70570880D02*
X62716243Y-70428023D01*
X62716243Y-70428023D02*
X62716243Y-70189928D01*
X62716243Y-71713737D02*
X62716243Y-71142309D01*
X62716243Y-71428023D02*
X61716243Y-71428023D01*
X61716243Y-71428023D02*
X61859100Y-71332785D01*
X61859100Y-71332785D02*
X61954338Y-71237547D01*
X61954338Y-71237547D02*
X62001957Y-71142309D01*
X61716243Y-72570880D02*
X61716243Y-72380404D01*
X61716243Y-72380404D02*
X61763862Y-72285166D01*
X61763862Y-72285166D02*
X61811481Y-72237547D01*
X61811481Y-72237547D02*
X61954338Y-72142309D01*
X61954338Y-72142309D02*
X62144814Y-72094690D01*
X62144814Y-72094690D02*
X62525766Y-72094690D01*
X62525766Y-72094690D02*
X62621004Y-72142309D01*
X62621004Y-72142309D02*
X62668624Y-72189928D01*
X62668624Y-72189928D02*
X62716243Y-72285166D01*
X62716243Y-72285166D02*
X62716243Y-72475642D01*
X62716243Y-72475642D02*
X62668624Y-72570880D01*
X62668624Y-72570880D02*
X62621004Y-72618499D01*
X62621004Y-72618499D02*
X62525766Y-72666118D01*
X62525766Y-72666118D02*
X62287671Y-72666118D01*
X62287671Y-72666118D02*
X62192433Y-72618499D01*
X62192433Y-72618499D02*
X62144814Y-72570880D01*
X62144814Y-72570880D02*
X62097195Y-72475642D01*
X62097195Y-72475642D02*
X62097195Y-72285166D01*
X62097195Y-72285166D02*
X62144814Y-72189928D01*
X62144814Y-72189928D02*
X62192433Y-72142309D01*
X62192433Y-72142309D02*
X62287671Y-72094690D01*
X207984819Y-109255714D02*
X206984819Y-109255714D01*
X206984819Y-109255714D02*
X206984819Y-109493809D01*
X206984819Y-109493809D02*
X207032438Y-109636666D01*
X207032438Y-109636666D02*
X207127676Y-109731904D01*
X207127676Y-109731904D02*
X207222914Y-109779523D01*
X207222914Y-109779523D02*
X207413390Y-109827142D01*
X207413390Y-109827142D02*
X207556247Y-109827142D01*
X207556247Y-109827142D02*
X207746723Y-109779523D01*
X207746723Y-109779523D02*
X207841961Y-109731904D01*
X207841961Y-109731904D02*
X207937200Y-109636666D01*
X207937200Y-109636666D02*
X207984819Y-109493809D01*
X207984819Y-109493809D02*
X207984819Y-109255714D01*
X207318152Y-110684285D02*
X207984819Y-110684285D01*
X206937200Y-110446190D02*
X207651485Y-110208095D01*
X207651485Y-110208095D02*
X207651485Y-110827142D01*
X206984819Y-111636666D02*
X206984819Y-111446190D01*
X206984819Y-111446190D02*
X207032438Y-111350952D01*
X207032438Y-111350952D02*
X207080057Y-111303333D01*
X207080057Y-111303333D02*
X207222914Y-111208095D01*
X207222914Y-111208095D02*
X207413390Y-111160476D01*
X207413390Y-111160476D02*
X207794342Y-111160476D01*
X207794342Y-111160476D02*
X207889580Y-111208095D01*
X207889580Y-111208095D02*
X207937200Y-111255714D01*
X207937200Y-111255714D02*
X207984819Y-111350952D01*
X207984819Y-111350952D02*
X207984819Y-111541428D01*
X207984819Y-111541428D02*
X207937200Y-111636666D01*
X207937200Y-111636666D02*
X207889580Y-111684285D01*
X207889580Y-111684285D02*
X207794342Y-111731904D01*
X207794342Y-111731904D02*
X207556247Y-111731904D01*
X207556247Y-111731904D02*
X207461009Y-111684285D01*
X207461009Y-111684285D02*
X207413390Y-111636666D01*
X207413390Y-111636666D02*
X207365771Y-111541428D01*
X207365771Y-111541428D02*
X207365771Y-111350952D01*
X207365771Y-111350952D02*
X207413390Y-111255714D01*
X207413390Y-111255714D02*
X207461009Y-111208095D01*
X207461009Y-111208095D02*
X207556247Y-111160476D01*
X173071004Y-82177547D02*
X173118624Y-82129928D01*
X173118624Y-82129928D02*
X173166243Y-81987071D01*
X173166243Y-81987071D02*
X173166243Y-81891833D01*
X173166243Y-81891833D02*
X173118624Y-81748976D01*
X173118624Y-81748976D02*
X173023385Y-81653738D01*
X173023385Y-81653738D02*
X172928147Y-81606119D01*
X172928147Y-81606119D02*
X172737671Y-81558500D01*
X172737671Y-81558500D02*
X172594814Y-81558500D01*
X172594814Y-81558500D02*
X172404338Y-81606119D01*
X172404338Y-81606119D02*
X172309100Y-81653738D01*
X172309100Y-81653738D02*
X172213862Y-81748976D01*
X172213862Y-81748976D02*
X172166243Y-81891833D01*
X172166243Y-81891833D02*
X172166243Y-81987071D01*
X172166243Y-81987071D02*
X172213862Y-82129928D01*
X172213862Y-82129928D02*
X172261481Y-82177547D01*
X172594814Y-82748976D02*
X172547195Y-82653738D01*
X172547195Y-82653738D02*
X172499576Y-82606119D01*
X172499576Y-82606119D02*
X172404338Y-82558500D01*
X172404338Y-82558500D02*
X172356719Y-82558500D01*
X172356719Y-82558500D02*
X172261481Y-82606119D01*
X172261481Y-82606119D02*
X172213862Y-82653738D01*
X172213862Y-82653738D02*
X172166243Y-82748976D01*
X172166243Y-82748976D02*
X172166243Y-82939452D01*
X172166243Y-82939452D02*
X172213862Y-83034690D01*
X172213862Y-83034690D02*
X172261481Y-83082309D01*
X172261481Y-83082309D02*
X172356719Y-83129928D01*
X172356719Y-83129928D02*
X172404338Y-83129928D01*
X172404338Y-83129928D02*
X172499576Y-83082309D01*
X172499576Y-83082309D02*
X172547195Y-83034690D01*
X172547195Y-83034690D02*
X172594814Y-82939452D01*
X172594814Y-82939452D02*
X172594814Y-82748976D01*
X172594814Y-82748976D02*
X172642433Y-82653738D01*
X172642433Y-82653738D02*
X172690052Y-82606119D01*
X172690052Y-82606119D02*
X172785290Y-82558500D01*
X172785290Y-82558500D02*
X172975766Y-82558500D01*
X172975766Y-82558500D02*
X173071004Y-82606119D01*
X173071004Y-82606119D02*
X173118624Y-82653738D01*
X173118624Y-82653738D02*
X173166243Y-82748976D01*
X173166243Y-82748976D02*
X173166243Y-82939452D01*
X173166243Y-82939452D02*
X173118624Y-83034690D01*
X173118624Y-83034690D02*
X173071004Y-83082309D01*
X173071004Y-83082309D02*
X172975766Y-83129928D01*
X172975766Y-83129928D02*
X172785290Y-83129928D01*
X172785290Y-83129928D02*
X172690052Y-83082309D01*
X172690052Y-83082309D02*
X172642433Y-83034690D01*
X172642433Y-83034690D02*
X172594814Y-82939452D01*
X253284819Y-52085714D02*
X252284819Y-52085714D01*
X252284819Y-52085714D02*
X252284819Y-52323809D01*
X252284819Y-52323809D02*
X252332438Y-52466666D01*
X252332438Y-52466666D02*
X252427676Y-52561904D01*
X252427676Y-52561904D02*
X252522914Y-52609523D01*
X252522914Y-52609523D02*
X252713390Y-52657142D01*
X252713390Y-52657142D02*
X252856247Y-52657142D01*
X252856247Y-52657142D02*
X253046723Y-52609523D01*
X253046723Y-52609523D02*
X253141961Y-52561904D01*
X253141961Y-52561904D02*
X253237200Y-52466666D01*
X253237200Y-52466666D02*
X253284819Y-52323809D01*
X253284819Y-52323809D02*
X253284819Y-52085714D01*
X253284819Y-53609523D02*
X253284819Y-53038095D01*
X253284819Y-53323809D02*
X252284819Y-53323809D01*
X252284819Y-53323809D02*
X252427676Y-53228571D01*
X252427676Y-53228571D02*
X252522914Y-53133333D01*
X252522914Y-53133333D02*
X252570533Y-53038095D01*
X252380057Y-53990476D02*
X252332438Y-54038095D01*
X252332438Y-54038095D02*
X252284819Y-54133333D01*
X252284819Y-54133333D02*
X252284819Y-54371428D01*
X252284819Y-54371428D02*
X252332438Y-54466666D01*
X252332438Y-54466666D02*
X252380057Y-54514285D01*
X252380057Y-54514285D02*
X252475295Y-54561904D01*
X252475295Y-54561904D02*
X252570533Y-54561904D01*
X252570533Y-54561904D02*
X252713390Y-54514285D01*
X252713390Y-54514285D02*
X253284819Y-53942857D01*
X253284819Y-53942857D02*
X253284819Y-54561904D01*
X55386243Y-38867547D02*
X54910052Y-38534214D01*
X55386243Y-38296119D02*
X54386243Y-38296119D01*
X54386243Y-38296119D02*
X54386243Y-38677071D01*
X54386243Y-38677071D02*
X54433862Y-38772309D01*
X54433862Y-38772309D02*
X54481481Y-38819928D01*
X54481481Y-38819928D02*
X54576719Y-38867547D01*
X54576719Y-38867547D02*
X54719576Y-38867547D01*
X54719576Y-38867547D02*
X54814814Y-38819928D01*
X54814814Y-38819928D02*
X54862433Y-38772309D01*
X54862433Y-38772309D02*
X54910052Y-38677071D01*
X54910052Y-38677071D02*
X54910052Y-38296119D01*
X55386243Y-39343738D02*
X55386243Y-39534214D01*
X55386243Y-39534214D02*
X55338624Y-39629452D01*
X55338624Y-39629452D02*
X55291004Y-39677071D01*
X55291004Y-39677071D02*
X55148147Y-39772309D01*
X55148147Y-39772309D02*
X54957671Y-39819928D01*
X54957671Y-39819928D02*
X54576719Y-39819928D01*
X54576719Y-39819928D02*
X54481481Y-39772309D01*
X54481481Y-39772309D02*
X54433862Y-39724690D01*
X54433862Y-39724690D02*
X54386243Y-39629452D01*
X54386243Y-39629452D02*
X54386243Y-39438976D01*
X54386243Y-39438976D02*
X54433862Y-39343738D01*
X54433862Y-39343738D02*
X54481481Y-39296119D01*
X54481481Y-39296119D02*
X54576719Y-39248500D01*
X54576719Y-39248500D02*
X54814814Y-39248500D01*
X54814814Y-39248500D02*
X54910052Y-39296119D01*
X54910052Y-39296119D02*
X54957671Y-39343738D01*
X54957671Y-39343738D02*
X55005290Y-39438976D01*
X55005290Y-39438976D02*
X55005290Y-39629452D01*
X55005290Y-39629452D02*
X54957671Y-39724690D01*
X54957671Y-39724690D02*
X54910052Y-39772309D01*
X54910052Y-39772309D02*
X54814814Y-39819928D01*
X77064819Y-52481905D02*
X76064819Y-52481905D01*
X76064819Y-52481905D02*
X76064819Y-52720000D01*
X76064819Y-52720000D02*
X76112438Y-52862857D01*
X76112438Y-52862857D02*
X76207676Y-52958095D01*
X76207676Y-52958095D02*
X76302914Y-53005714D01*
X76302914Y-53005714D02*
X76493390Y-53053333D01*
X76493390Y-53053333D02*
X76636247Y-53053333D01*
X76636247Y-53053333D02*
X76826723Y-53005714D01*
X76826723Y-53005714D02*
X76921961Y-52958095D01*
X76921961Y-52958095D02*
X77017200Y-52862857D01*
X77017200Y-52862857D02*
X77064819Y-52720000D01*
X77064819Y-52720000D02*
X77064819Y-52481905D01*
X76064819Y-53386667D02*
X76064819Y-54005714D01*
X76064819Y-54005714D02*
X76445771Y-53672381D01*
X76445771Y-53672381D02*
X76445771Y-53815238D01*
X76445771Y-53815238D02*
X76493390Y-53910476D01*
X76493390Y-53910476D02*
X76541009Y-53958095D01*
X76541009Y-53958095D02*
X76636247Y-54005714D01*
X76636247Y-54005714D02*
X76874342Y-54005714D01*
X76874342Y-54005714D02*
X76969580Y-53958095D01*
X76969580Y-53958095D02*
X77017200Y-53910476D01*
X77017200Y-53910476D02*
X77064819Y-53815238D01*
X77064819Y-53815238D02*
X77064819Y-53529524D01*
X77064819Y-53529524D02*
X77017200Y-53434286D01*
X77017200Y-53434286D02*
X76969580Y-53386667D01*
X157924819Y-71145714D02*
X156924819Y-71145714D01*
X156924819Y-71145714D02*
X156924819Y-71383809D01*
X156924819Y-71383809D02*
X156972438Y-71526666D01*
X156972438Y-71526666D02*
X157067676Y-71621904D01*
X157067676Y-71621904D02*
X157162914Y-71669523D01*
X157162914Y-71669523D02*
X157353390Y-71717142D01*
X157353390Y-71717142D02*
X157496247Y-71717142D01*
X157496247Y-71717142D02*
X157686723Y-71669523D01*
X157686723Y-71669523D02*
X157781961Y-71621904D01*
X157781961Y-71621904D02*
X157877200Y-71526666D01*
X157877200Y-71526666D02*
X157924819Y-71383809D01*
X157924819Y-71383809D02*
X157924819Y-71145714D01*
X157020057Y-72098095D02*
X156972438Y-72145714D01*
X156972438Y-72145714D02*
X156924819Y-72240952D01*
X156924819Y-72240952D02*
X156924819Y-72479047D01*
X156924819Y-72479047D02*
X156972438Y-72574285D01*
X156972438Y-72574285D02*
X157020057Y-72621904D01*
X157020057Y-72621904D02*
X157115295Y-72669523D01*
X157115295Y-72669523D02*
X157210533Y-72669523D01*
X157210533Y-72669523D02*
X157353390Y-72621904D01*
X157353390Y-72621904D02*
X157924819Y-72050476D01*
X157924819Y-72050476D02*
X157924819Y-72669523D01*
X157924819Y-73621904D02*
X157924819Y-73050476D01*
X157924819Y-73336190D02*
X156924819Y-73336190D01*
X156924819Y-73336190D02*
X157067676Y-73240952D01*
X157067676Y-73240952D02*
X157162914Y-73145714D01*
X157162914Y-73145714D02*
X157210533Y-73050476D01*
X171956243Y-82187547D02*
X171480052Y-81854214D01*
X171956243Y-81616119D02*
X170956243Y-81616119D01*
X170956243Y-81616119D02*
X170956243Y-81997071D01*
X170956243Y-81997071D02*
X171003862Y-82092309D01*
X171003862Y-82092309D02*
X171051481Y-82139928D01*
X171051481Y-82139928D02*
X171146719Y-82187547D01*
X171146719Y-82187547D02*
X171289576Y-82187547D01*
X171289576Y-82187547D02*
X171384814Y-82139928D01*
X171384814Y-82139928D02*
X171432433Y-82092309D01*
X171432433Y-82092309D02*
X171480052Y-81997071D01*
X171480052Y-81997071D02*
X171480052Y-81616119D01*
X171289576Y-83044690D02*
X171956243Y-83044690D01*
X170908624Y-82806595D02*
X171622909Y-82568500D01*
X171622909Y-82568500D02*
X171622909Y-83187547D01*
X165808090Y-87539033D02*
X166141423Y-87062842D01*
X166379518Y-87539033D02*
X166379518Y-86539033D01*
X166379518Y-86539033D02*
X165998566Y-86539033D01*
X165998566Y-86539033D02*
X165903328Y-86586652D01*
X165903328Y-86586652D02*
X165855709Y-86634271D01*
X165855709Y-86634271D02*
X165808090Y-86729509D01*
X165808090Y-86729509D02*
X165808090Y-86872366D01*
X165808090Y-86872366D02*
X165855709Y-86967604D01*
X165855709Y-86967604D02*
X165903328Y-87015223D01*
X165903328Y-87015223D02*
X165998566Y-87062842D01*
X165998566Y-87062842D02*
X166379518Y-87062842D01*
X164855709Y-87539033D02*
X165427137Y-87539033D01*
X165141423Y-87539033D02*
X165141423Y-86539033D01*
X165141423Y-86539033D02*
X165236661Y-86681890D01*
X165236661Y-86681890D02*
X165331899Y-86777128D01*
X165331899Y-86777128D02*
X165427137Y-86824747D01*
X182048090Y-87489033D02*
X182381423Y-87012842D01*
X182619518Y-87489033D02*
X182619518Y-86489033D01*
X182619518Y-86489033D02*
X182238566Y-86489033D01*
X182238566Y-86489033D02*
X182143328Y-86536652D01*
X182143328Y-86536652D02*
X182095709Y-86584271D01*
X182095709Y-86584271D02*
X182048090Y-86679509D01*
X182048090Y-86679509D02*
X182048090Y-86822366D01*
X182048090Y-86822366D02*
X182095709Y-86917604D01*
X182095709Y-86917604D02*
X182143328Y-86965223D01*
X182143328Y-86965223D02*
X182238566Y-87012842D01*
X182238566Y-87012842D02*
X182619518Y-87012842D01*
X181714756Y-86489033D02*
X181048090Y-86489033D01*
X181048090Y-86489033D02*
X181476661Y-87489033D01*
X52213328Y-40129033D02*
X52213328Y-40938556D01*
X52213328Y-40938556D02*
X52165709Y-41033794D01*
X52165709Y-41033794D02*
X52118090Y-41081414D01*
X52118090Y-41081414D02*
X52022852Y-41129033D01*
X52022852Y-41129033D02*
X51832376Y-41129033D01*
X51832376Y-41129033D02*
X51737138Y-41081414D01*
X51737138Y-41081414D02*
X51689519Y-41033794D01*
X51689519Y-41033794D02*
X51641900Y-40938556D01*
X51641900Y-40938556D02*
X51641900Y-40129033D01*
X50737138Y-40462366D02*
X50737138Y-41129033D01*
X50975233Y-40081414D02*
X51213328Y-40795699D01*
X51213328Y-40795699D02*
X50594281Y-40795699D01*
X277064819Y-71135714D02*
X276064819Y-71135714D01*
X276064819Y-71135714D02*
X276064819Y-71373809D01*
X276064819Y-71373809D02*
X276112438Y-71516666D01*
X276112438Y-71516666D02*
X276207676Y-71611904D01*
X276207676Y-71611904D02*
X276302914Y-71659523D01*
X276302914Y-71659523D02*
X276493390Y-71707142D01*
X276493390Y-71707142D02*
X276636247Y-71707142D01*
X276636247Y-71707142D02*
X276826723Y-71659523D01*
X276826723Y-71659523D02*
X276921961Y-71611904D01*
X276921961Y-71611904D02*
X277017200Y-71516666D01*
X277017200Y-71516666D02*
X277064819Y-71373809D01*
X277064819Y-71373809D02*
X277064819Y-71135714D01*
X276160057Y-72088095D02*
X276112438Y-72135714D01*
X276112438Y-72135714D02*
X276064819Y-72230952D01*
X276064819Y-72230952D02*
X276064819Y-72469047D01*
X276064819Y-72469047D02*
X276112438Y-72564285D01*
X276112438Y-72564285D02*
X276160057Y-72611904D01*
X276160057Y-72611904D02*
X276255295Y-72659523D01*
X276255295Y-72659523D02*
X276350533Y-72659523D01*
X276350533Y-72659523D02*
X276493390Y-72611904D01*
X276493390Y-72611904D02*
X277064819Y-72040476D01*
X277064819Y-72040476D02*
X277064819Y-72659523D01*
X276064819Y-72992857D02*
X276064819Y-73659523D01*
X276064819Y-73659523D02*
X277064819Y-73230952D01*
X243774819Y-109265714D02*
X242774819Y-109265714D01*
X242774819Y-109265714D02*
X242774819Y-109503809D01*
X242774819Y-109503809D02*
X242822438Y-109646666D01*
X242822438Y-109646666D02*
X242917676Y-109741904D01*
X242917676Y-109741904D02*
X243012914Y-109789523D01*
X243012914Y-109789523D02*
X243203390Y-109837142D01*
X243203390Y-109837142D02*
X243346247Y-109837142D01*
X243346247Y-109837142D02*
X243536723Y-109789523D01*
X243536723Y-109789523D02*
X243631961Y-109741904D01*
X243631961Y-109741904D02*
X243727200Y-109646666D01*
X243727200Y-109646666D02*
X243774819Y-109503809D01*
X243774819Y-109503809D02*
X243774819Y-109265714D01*
X243108152Y-110694285D02*
X243774819Y-110694285D01*
X242727200Y-110456190D02*
X243441485Y-110218095D01*
X243441485Y-110218095D02*
X243441485Y-110837142D01*
X242774819Y-111122857D02*
X242774819Y-111789523D01*
X242774819Y-111789523D02*
X243774819Y-111360952D01*
X238964819Y-71155714D02*
X237964819Y-71155714D01*
X237964819Y-71155714D02*
X237964819Y-71393809D01*
X237964819Y-71393809D02*
X238012438Y-71536666D01*
X238012438Y-71536666D02*
X238107676Y-71631904D01*
X238107676Y-71631904D02*
X238202914Y-71679523D01*
X238202914Y-71679523D02*
X238393390Y-71727142D01*
X238393390Y-71727142D02*
X238536247Y-71727142D01*
X238536247Y-71727142D02*
X238726723Y-71679523D01*
X238726723Y-71679523D02*
X238821961Y-71631904D01*
X238821961Y-71631904D02*
X238917200Y-71536666D01*
X238917200Y-71536666D02*
X238964819Y-71393809D01*
X238964819Y-71393809D02*
X238964819Y-71155714D01*
X238060057Y-72108095D02*
X238012438Y-72155714D01*
X238012438Y-72155714D02*
X237964819Y-72250952D01*
X237964819Y-72250952D02*
X237964819Y-72489047D01*
X237964819Y-72489047D02*
X238012438Y-72584285D01*
X238012438Y-72584285D02*
X238060057Y-72631904D01*
X238060057Y-72631904D02*
X238155295Y-72679523D01*
X238155295Y-72679523D02*
X238250533Y-72679523D01*
X238250533Y-72679523D02*
X238393390Y-72631904D01*
X238393390Y-72631904D02*
X238964819Y-72060476D01*
X238964819Y-72060476D02*
X238964819Y-72679523D01*
X237964819Y-73584285D02*
X237964819Y-73108095D01*
X237964819Y-73108095D02*
X238441009Y-73060476D01*
X238441009Y-73060476D02*
X238393390Y-73108095D01*
X238393390Y-73108095D02*
X238345771Y-73203333D01*
X238345771Y-73203333D02*
X238345771Y-73441428D01*
X238345771Y-73441428D02*
X238393390Y-73536666D01*
X238393390Y-73536666D02*
X238441009Y-73584285D01*
X238441009Y-73584285D02*
X238536247Y-73631904D01*
X238536247Y-73631904D02*
X238774342Y-73631904D01*
X238774342Y-73631904D02*
X238869580Y-73584285D01*
X238869580Y-73584285D02*
X238917200Y-73536666D01*
X238917200Y-73536666D02*
X238964819Y-73441428D01*
X238964819Y-73441428D02*
X238964819Y-73203333D01*
X238964819Y-73203333D02*
X238917200Y-73108095D01*
X238917200Y-73108095D02*
X238869580Y-73060476D01*
X88924819Y-109255714D02*
X87924819Y-109255714D01*
X87924819Y-109255714D02*
X87924819Y-109493809D01*
X87924819Y-109493809D02*
X87972438Y-109636666D01*
X87972438Y-109636666D02*
X88067676Y-109731904D01*
X88067676Y-109731904D02*
X88162914Y-109779523D01*
X88162914Y-109779523D02*
X88353390Y-109827142D01*
X88353390Y-109827142D02*
X88496247Y-109827142D01*
X88496247Y-109827142D02*
X88686723Y-109779523D01*
X88686723Y-109779523D02*
X88781961Y-109731904D01*
X88781961Y-109731904D02*
X88877200Y-109636666D01*
X88877200Y-109636666D02*
X88924819Y-109493809D01*
X88924819Y-109493809D02*
X88924819Y-109255714D01*
X88258152Y-110684285D02*
X88924819Y-110684285D01*
X87877200Y-110446190D02*
X88591485Y-110208095D01*
X88591485Y-110208095D02*
X88591485Y-110827142D01*
X88258152Y-111636666D02*
X88924819Y-111636666D01*
X87877200Y-111398571D02*
X88591485Y-111160476D01*
X88591485Y-111160476D02*
X88591485Y-111779523D01*
X41324819Y-109203214D02*
X40324819Y-109203214D01*
X40324819Y-109203214D02*
X40324819Y-109441309D01*
X40324819Y-109441309D02*
X40372438Y-109584166D01*
X40372438Y-109584166D02*
X40467676Y-109679404D01*
X40467676Y-109679404D02*
X40562914Y-109727023D01*
X40562914Y-109727023D02*
X40753390Y-109774642D01*
X40753390Y-109774642D02*
X40896247Y-109774642D01*
X40896247Y-109774642D02*
X41086723Y-109727023D01*
X41086723Y-109727023D02*
X41181961Y-109679404D01*
X41181961Y-109679404D02*
X41277200Y-109584166D01*
X41277200Y-109584166D02*
X41324819Y-109441309D01*
X41324819Y-109441309D02*
X41324819Y-109203214D01*
X40658152Y-110631785D02*
X41324819Y-110631785D01*
X40277200Y-110393690D02*
X40991485Y-110155595D01*
X40991485Y-110155595D02*
X40991485Y-110774642D01*
X40420057Y-111107976D02*
X40372438Y-111155595D01*
X40372438Y-111155595D02*
X40324819Y-111250833D01*
X40324819Y-111250833D02*
X40324819Y-111488928D01*
X40324819Y-111488928D02*
X40372438Y-111584166D01*
X40372438Y-111584166D02*
X40420057Y-111631785D01*
X40420057Y-111631785D02*
X40515295Y-111679404D01*
X40515295Y-111679404D02*
X40610533Y-111679404D01*
X40610533Y-111679404D02*
X40753390Y-111631785D01*
X40753390Y-111631785D02*
X41324819Y-111060357D01*
X41324819Y-111060357D02*
X41324819Y-111679404D01*
X165784281Y-89803794D02*
X165831900Y-89851414D01*
X165831900Y-89851414D02*
X165974757Y-89899033D01*
X165974757Y-89899033D02*
X166069995Y-89899033D01*
X166069995Y-89899033D02*
X166212852Y-89851414D01*
X166212852Y-89851414D02*
X166308090Y-89756175D01*
X166308090Y-89756175D02*
X166355709Y-89660937D01*
X166355709Y-89660937D02*
X166403328Y-89470461D01*
X166403328Y-89470461D02*
X166403328Y-89327604D01*
X166403328Y-89327604D02*
X166355709Y-89137128D01*
X166355709Y-89137128D02*
X166308090Y-89041890D01*
X166308090Y-89041890D02*
X166212852Y-88946652D01*
X166212852Y-88946652D02*
X166069995Y-88899033D01*
X166069995Y-88899033D02*
X165974757Y-88899033D01*
X165974757Y-88899033D02*
X165831900Y-88946652D01*
X165831900Y-88946652D02*
X165784281Y-88994271D01*
X164831900Y-89899033D02*
X165403328Y-89899033D01*
X165117614Y-89899033D02*
X165117614Y-88899033D01*
X165117614Y-88899033D02*
X165212852Y-89041890D01*
X165212852Y-89041890D02*
X165308090Y-89137128D01*
X165308090Y-89137128D02*
X165403328Y-89184747D01*
X164498566Y-88899033D02*
X163879519Y-88899033D01*
X163879519Y-88899033D02*
X164212852Y-89279985D01*
X164212852Y-89279985D02*
X164069995Y-89279985D01*
X164069995Y-89279985D02*
X163974757Y-89327604D01*
X163974757Y-89327604D02*
X163927138Y-89375223D01*
X163927138Y-89375223D02*
X163879519Y-89470461D01*
X163879519Y-89470461D02*
X163879519Y-89708556D01*
X163879519Y-89708556D02*
X163927138Y-89803794D01*
X163927138Y-89803794D02*
X163974757Y-89851414D01*
X163974757Y-89851414D02*
X164069995Y-89899033D01*
X164069995Y-89899033D02*
X164355709Y-89899033D01*
X164355709Y-89899033D02*
X164450947Y-89851414D01*
X164450947Y-89851414D02*
X164498566Y-89803794D01*
D11*
%TO.C,SW43*%
X64603750Y-98780000D02*
X69703750Y-98780000D01*
X68503750Y-102980000D02*
X73603750Y-102980000D01*
X62603750Y-100780000D02*
G75*
G02*
X64603750Y-98780000I1999999J1D01*
G01*
X66503750Y-104980000D02*
G75*
G02*
X68503750Y-102980000I1999999J1D01*
G01*
%TO.C,SW28*%
X295585000Y-60680000D02*
X300685000Y-60680000D01*
X299485000Y-64880000D02*
X304585000Y-64880000D01*
X293585000Y-62680000D02*
G75*
G02*
X295585000Y-60680000I1999999J1D01*
G01*
X297485000Y-66880000D02*
G75*
G02*
X299485000Y-64880000I1999999J1D01*
G01*
%TO.C,SW4*%
X95560000Y-41630000D02*
X100660000Y-41630000D01*
X99460000Y-45830000D02*
X104560000Y-45830000D01*
X93560000Y-43630000D02*
G75*
G02*
X95560000Y-41630000I1999999J1D01*
G01*
X97460000Y-47830000D02*
G75*
G02*
X99460000Y-45830000I1999999J1D01*
G01*
%TO.C,SW18*%
X100322500Y-60680000D02*
X105422500Y-60680000D01*
X104222500Y-64880000D02*
X109322500Y-64880000D01*
X98322500Y-62680000D02*
G75*
G02*
X100322500Y-60680000I1999999J1D01*
G01*
X102222500Y-66880000D02*
G75*
G02*
X104222500Y-64880000I1999999J1D01*
G01*
%TO.C,SW46*%
X207478750Y-98780000D02*
X212578750Y-98780000D01*
X211378750Y-102980000D02*
X216478750Y-102980000D01*
X205478750Y-100780000D02*
G75*
G02*
X207478750Y-98780000I1999999J1D01*
G01*
X209378750Y-104980000D02*
G75*
G02*
X211378750Y-102980000I1999999J1D01*
G01*
%TO.C,SW21*%
X157472500Y-60680000D02*
X162572500Y-60680000D01*
X161372500Y-64880000D02*
X166472500Y-64880000D01*
X155472500Y-62680000D02*
G75*
G02*
X157472500Y-60680000I1999999J1D01*
G01*
X159372500Y-66880000D02*
G75*
G02*
X161372500Y-64880000I1999999J1D01*
G01*
%TO.C,SW40*%
X286060000Y-79730000D02*
X291160000Y-79730000D01*
X289960000Y-83930000D02*
X295060000Y-83930000D01*
X284060000Y-81730000D02*
G75*
G02*
X286060000Y-79730000I1999999J1D01*
G01*
X287960000Y-85930000D02*
G75*
G02*
X289960000Y-83930000I1999999J1D01*
G01*
%TO.C,SW6*%
X133660000Y-41630000D02*
X138760000Y-41630000D01*
X137560000Y-45830000D02*
X142660000Y-45830000D01*
X131660000Y-43630000D02*
G75*
G02*
X133660000Y-41630000I1999999J1D01*
G01*
X135560000Y-47830000D02*
G75*
G02*
X137560000Y-45830000I1999999J1D01*
G01*
%TO.C,SW10*%
X214622500Y-41630000D02*
X219722500Y-41630000D01*
X218522500Y-45830000D02*
X223622500Y-45830000D01*
X212622500Y-43630000D02*
G75*
G02*
X214622500Y-41630000I1999999J1D01*
G01*
X216522500Y-47830000D02*
G75*
G02*
X218522500Y-45830000I1999999J1D01*
G01*
%TO.C,SW39*%
X267010000Y-79730000D02*
X272110000Y-79730000D01*
X270910000Y-83930000D02*
X276010000Y-83930000D01*
X265010000Y-81730000D02*
G75*
G02*
X267010000Y-79730000I1999999J1D01*
G01*
X268910000Y-85930000D02*
G75*
G02*
X270910000Y-83930000I1999999J1D01*
G01*
%TO.C,SW36*%
X209860000Y-79730000D02*
X214960000Y-79730000D01*
X213760000Y-83930000D02*
X218860000Y-83930000D01*
X207860000Y-81730000D02*
G75*
G02*
X209860000Y-79730000I1999999J1D01*
G01*
X211760000Y-85930000D02*
G75*
G02*
X213760000Y-83930000I1999999J1D01*
G01*
%TO.C,SW13*%
X271772500Y-41630000D02*
X276872500Y-41630000D01*
X275672500Y-45830000D02*
X280772500Y-45830000D01*
X269772500Y-43630000D02*
G75*
G02*
X271772500Y-41630000I1999999J1D01*
G01*
X273672500Y-47830000D02*
G75*
G02*
X275672500Y-45830000I1999999J1D01*
G01*
%TO.C,SW15*%
X43172500Y-60680000D02*
X48272500Y-60680000D01*
X47072500Y-64880000D02*
X52172500Y-64880000D01*
X41172500Y-62680000D02*
G75*
G02*
X43172500Y-60680000I1999999J1D01*
G01*
X45072500Y-66880000D02*
G75*
G02*
X47072500Y-64880000I1999999J1D01*
G01*
%TO.C,SW25*%
X238435000Y-60680000D02*
X243535000Y-60680000D01*
X242335000Y-64880000D02*
X247435000Y-64880000D01*
X236435000Y-62680000D02*
G75*
G02*
X238435000Y-60680000I1999999J1D01*
G01*
X240335000Y-66880000D02*
G75*
G02*
X242335000Y-64880000I1999999J1D01*
G01*
%TO.C,SW26*%
X257485000Y-60680000D02*
X262585000Y-60680000D01*
X261385000Y-64880000D02*
X266485000Y-64880000D01*
X255485000Y-62680000D02*
G75*
G02*
X257485000Y-60680000I1999999J1D01*
G01*
X259385000Y-66880000D02*
G75*
G02*
X261385000Y-64880000I1999999J1D01*
G01*
%TO.C,SW32*%
X109847500Y-79730000D02*
X114947500Y-79730000D01*
X113747500Y-83930000D02*
X118847500Y-83930000D01*
X107847500Y-81730000D02*
G75*
G02*
X109847500Y-79730000I1999999J1D01*
G01*
X111747500Y-85930000D02*
G75*
G02*
X113747500Y-83930000I1999999J1D01*
G01*
%TO.C,SW20*%
X138422500Y-60680000D02*
X143522500Y-60680000D01*
X142322500Y-64880000D02*
X147422500Y-64880000D01*
X136422500Y-62680000D02*
G75*
G02*
X138422500Y-60680000I1999999J1D01*
G01*
X140322500Y-66880000D02*
G75*
G02*
X142322500Y-64880000I1999999J1D01*
G01*
%TO.C,SW29*%
X45553750Y-79730000D02*
X50653750Y-79730000D01*
X49453750Y-83930000D02*
X54553750Y-83930000D01*
X43553750Y-81730000D02*
G75*
G02*
X45553750Y-79730000I1999999J1D01*
G01*
X47453750Y-85930000D02*
G75*
G02*
X49453750Y-83930000I1999999J1D01*
G01*
%TO.C,SW33*%
X128897500Y-79730000D02*
X133997500Y-79730000D01*
X132797500Y-83930000D02*
X137897500Y-83930000D01*
X126897500Y-81730000D02*
G75*
G02*
X128897500Y-79730000I1999999J1D01*
G01*
X130797500Y-85930000D02*
G75*
G02*
X132797500Y-83930000I1999999J1D01*
G01*
%TO.C,SW49*%
X286060000Y-98780000D02*
X291160000Y-98780000D01*
X289960000Y-102980000D02*
X295060000Y-102980000D01*
X284060000Y-100780000D02*
G75*
G02*
X286060000Y-98780000I1999999J1D01*
G01*
X287960000Y-104980000D02*
G75*
G02*
X289960000Y-102980000I1999999J1D01*
G01*
%TO.C,SW1*%
X38410000Y-41630000D02*
X43510000Y-41630000D01*
X42310000Y-45830000D02*
X47410000Y-45830000D01*
X36410000Y-43630000D02*
G75*
G02*
X38410000Y-41630000I1999999J1D01*
G01*
X40310000Y-47830000D02*
G75*
G02*
X42310000Y-45830000I1999999J1D01*
G01*
%TO.C,SW12*%
X252722500Y-41630000D02*
X257822500Y-41630000D01*
X256622500Y-45830000D02*
X261722500Y-45830000D01*
X250722500Y-43630000D02*
G75*
G02*
X252722500Y-41630000I1999999J1D01*
G01*
X254622500Y-47830000D02*
G75*
G02*
X256622500Y-45830000I1999999J1D01*
G01*
%TO.C,SW16*%
X62222500Y-60680000D02*
X67322500Y-60680000D01*
X66122500Y-64880000D02*
X71222500Y-64880000D01*
X60222500Y-62680000D02*
G75*
G02*
X62222500Y-60680000I1999999J1D01*
G01*
X64122500Y-66880000D02*
G75*
G02*
X66122500Y-64880000I1999999J1D01*
G01*
%TO.C,SW22*%
X185585000Y-70280000D02*
X180485000Y-70280000D01*
X189485000Y-74480000D02*
X184385000Y-74480000D01*
X187585000Y-68280000D02*
G75*
G02*
X185585000Y-70280000I-1999999J-1D01*
G01*
X191485000Y-72480000D02*
G75*
G02*
X189485000Y-74480000I-1999999J-1D01*
G01*
%TO.C,SW14*%
X295585000Y-41630000D02*
X300685000Y-41630000D01*
X299485000Y-45830000D02*
X304585000Y-45830000D01*
X293585000Y-43630000D02*
G75*
G02*
X295585000Y-41630000I1999999J1D01*
G01*
X297485000Y-47830000D02*
G75*
G02*
X299485000Y-45830000I1999999J1D01*
G01*
%TO.C,SW27*%
X276535000Y-60680000D02*
X281635000Y-60680000D01*
X280435000Y-64880000D02*
X285535000Y-64880000D01*
X274535000Y-62680000D02*
G75*
G02*
X276535000Y-60680000I1999999J1D01*
G01*
X278435000Y-66880000D02*
G75*
G02*
X280435000Y-64880000I1999999J1D01*
G01*
%TO.C,SW19*%
X119372500Y-60680000D02*
X124472500Y-60680000D01*
X123272500Y-64880000D02*
X128372500Y-64880000D01*
X117372500Y-62680000D02*
G75*
G02*
X119372500Y-60680000I1999999J1D01*
G01*
X121272500Y-66880000D02*
G75*
G02*
X123272500Y-64880000I1999999J1D01*
G01*
%TO.C,SW11*%
X233672500Y-41630000D02*
X238772500Y-41630000D01*
X237572500Y-45830000D02*
X242672500Y-45830000D01*
X231672500Y-43630000D02*
G75*
G02*
X233672500Y-41630000I1999999J1D01*
G01*
X235572500Y-47830000D02*
G75*
G02*
X237572500Y-45830000I1999999J1D01*
G01*
%TO.C,SW48*%
X267010000Y-98780000D02*
X272110000Y-98780000D01*
X270910000Y-102980000D02*
X276010000Y-102980000D01*
X265010000Y-100780000D02*
G75*
G02*
X267010000Y-98780000I1999999J1D01*
G01*
X268910000Y-104980000D02*
G75*
G02*
X270910000Y-102980000I1999999J1D01*
G01*
%TO.C,SW5*%
X114610000Y-41630000D02*
X119710000Y-41630000D01*
X118510000Y-45830000D02*
X123610000Y-45830000D01*
X112610000Y-43630000D02*
G75*
G02*
X114610000Y-41630000I1999999J1D01*
G01*
X116510000Y-47830000D02*
G75*
G02*
X118510000Y-45830000I1999999J1D01*
G01*
%TO.C,SW42*%
X40791250Y-98780000D02*
X45891250Y-98780000D01*
X44691250Y-102980000D02*
X49791250Y-102980000D01*
X38791250Y-100780000D02*
G75*
G02*
X40791250Y-98780000I1999999J1D01*
G01*
X42691250Y-104980000D02*
G75*
G02*
X44691250Y-102980000I1999999J1D01*
G01*
%TO.C,SW30*%
X71747500Y-79730000D02*
X76847500Y-79730000D01*
X75647500Y-83930000D02*
X80747500Y-83930000D01*
X69747500Y-81730000D02*
G75*
G02*
X71747500Y-79730000I1999999J1D01*
G01*
X73647500Y-85930000D02*
G75*
G02*
X75647500Y-83930000I1999999J1D01*
G01*
%TO.C,SW50*%
X305110000Y-98780000D02*
X310210000Y-98780000D01*
X309010000Y-102980000D02*
X314110000Y-102980000D01*
X303110000Y-100780000D02*
G75*
G02*
X305110000Y-98780000I1999999J1D01*
G01*
X307010000Y-104980000D02*
G75*
G02*
X309010000Y-102980000I1999999J1D01*
G01*
%TO.C,SW44*%
X88416250Y-98780000D02*
X93516250Y-98780000D01*
X92316250Y-102980000D02*
X97416250Y-102980000D01*
X86416250Y-100780000D02*
G75*
G02*
X88416250Y-98780000I1999999J1D01*
G01*
X90316250Y-104980000D02*
G75*
G02*
X92316250Y-102980000I1999999J1D01*
G01*
%TO.C,SW17*%
X81272500Y-60680000D02*
X86372500Y-60680000D01*
X85172500Y-64880000D02*
X90272500Y-64880000D01*
X79272500Y-62680000D02*
G75*
G02*
X81272500Y-60680000I1999999J1D01*
G01*
X83172500Y-66880000D02*
G75*
G02*
X85172500Y-64880000I1999999J1D01*
G01*
%TO.C,SW41*%
X305110000Y-79730000D02*
X310210000Y-79730000D01*
X309010000Y-83930000D02*
X314110000Y-83930000D01*
X303110000Y-81730000D02*
G75*
G02*
X305110000Y-79730000I1999999J1D01*
G01*
X307010000Y-85930000D02*
G75*
G02*
X309010000Y-83930000I1999999J1D01*
G01*
%TO.C,SW3*%
X76510000Y-41630000D02*
X81610000Y-41630000D01*
X80410000Y-45830000D02*
X85510000Y-45830000D01*
X74510000Y-43630000D02*
G75*
G02*
X76510000Y-41630000I1999999J1D01*
G01*
X78410000Y-47830000D02*
G75*
G02*
X80410000Y-45830000I1999999J1D01*
G01*
%TO.C,SW45*%
X126516250Y-98780000D02*
X131616250Y-98780000D01*
X130416250Y-102980000D02*
X135516250Y-102980000D01*
X124516250Y-100780000D02*
G75*
G02*
X126516250Y-98780000I1999999J1D01*
G01*
X128416250Y-104980000D02*
G75*
G02*
X130416250Y-102980000I1999999J1D01*
G01*
%TO.C,SW24*%
X219385000Y-60680000D02*
X224485000Y-60680000D01*
X223285000Y-64880000D02*
X228385000Y-64880000D01*
X217385000Y-62680000D02*
G75*
G02*
X219385000Y-60680000I1999999J1D01*
G01*
X221285000Y-66880000D02*
G75*
G02*
X223285000Y-64880000I1999999J1D01*
G01*
%TO.C,SW38*%
X247960000Y-79730000D02*
X253060000Y-79730000D01*
X251860000Y-83930000D02*
X256960000Y-83930000D01*
X245960000Y-81730000D02*
G75*
G02*
X247960000Y-79730000I1999999J1D01*
G01*
X249860000Y-85930000D02*
G75*
G02*
X251860000Y-83930000I1999999J1D01*
G01*
%TO.C,SW47*%
X243197500Y-98780000D02*
X248297500Y-98780000D01*
X247097500Y-102980000D02*
X252197500Y-102980000D01*
X241197500Y-100780000D02*
G75*
G02*
X243197500Y-98780000I1999999J1D01*
G01*
X245097500Y-104980000D02*
G75*
G02*
X247097500Y-102980000I1999999J1D01*
G01*
%TO.C,SW35*%
X190810000Y-79730000D02*
X195910000Y-79730000D01*
X194710000Y-83930000D02*
X199810000Y-83930000D01*
X188810000Y-81730000D02*
G75*
G02*
X190810000Y-79730000I1999999J1D01*
G01*
X192710000Y-85930000D02*
G75*
G02*
X194710000Y-83930000I1999999J1D01*
G01*
%TO.C,SW34*%
X147947500Y-79730000D02*
X153047500Y-79730000D01*
X151847500Y-83930000D02*
X156947500Y-83930000D01*
X145947500Y-81730000D02*
G75*
G02*
X147947500Y-79730000I1999999J1D01*
G01*
X149847500Y-85930000D02*
G75*
G02*
X151847500Y-83930000I1999999J1D01*
G01*
%TO.C,SW2*%
X57460000Y-41630000D02*
X62560000Y-41630000D01*
X61360000Y-45830000D02*
X66460000Y-45830000D01*
X55460000Y-43630000D02*
G75*
G02*
X57460000Y-41630000I1999999J1D01*
G01*
X59360000Y-47830000D02*
G75*
G02*
X61360000Y-45830000I1999999J1D01*
G01*
%TO.C,SW37*%
X228910000Y-79730000D02*
X234010000Y-79730000D01*
X232810000Y-83930000D02*
X237910000Y-83930000D01*
X226910000Y-81730000D02*
G75*
G02*
X228910000Y-79730000I1999999J1D01*
G01*
X230810000Y-85930000D02*
G75*
G02*
X232810000Y-83930000I1999999J1D01*
G01*
%TO.C,SW31*%
X90797500Y-79730000D02*
X95897500Y-79730000D01*
X94697500Y-83930000D02*
X99797500Y-83930000D01*
X88797500Y-81730000D02*
G75*
G02*
X90797500Y-79730000I1999999J1D01*
G01*
X92697500Y-85930000D02*
G75*
G02*
X94697500Y-83930000I1999999J1D01*
G01*
%TO.C,SW8*%
X176522500Y-41630000D02*
X181622500Y-41630000D01*
X180422500Y-45830000D02*
X185522500Y-45830000D01*
X174522500Y-43630000D02*
G75*
G02*
X176522500Y-41630000I1999999J1D01*
G01*
X178422500Y-47830000D02*
G75*
G02*
X180422500Y-45830000I1999999J1D01*
G01*
%TO.C,SW7*%
X152710000Y-41630000D02*
X157810000Y-41630000D01*
X156610000Y-45830000D02*
X161710000Y-45830000D01*
X150710000Y-43630000D02*
G75*
G02*
X152710000Y-41630000I1999999J1D01*
G01*
X154610000Y-47830000D02*
G75*
G02*
X156610000Y-45830000I1999999J1D01*
G01*
%TO.C,SW23*%
X200335000Y-60680000D02*
X205435000Y-60680000D01*
X204235000Y-64880000D02*
X209335000Y-64880000D01*
X198335000Y-62680000D02*
G75*
G02*
X200335000Y-60680000I1999999J1D01*
G01*
X202235000Y-66880000D02*
G75*
G02*
X204235000Y-64880000I1999999J1D01*
G01*
%TO.C,SW9*%
X195572500Y-41630000D02*
X200672500Y-41630000D01*
X199472500Y-45830000D02*
X204572500Y-45830000D01*
X193572500Y-43630000D02*
G75*
G02*
X195572500Y-41630000I1999999J1D01*
G01*
X197472500Y-47830000D02*
G75*
G02*
X199472500Y-45830000I1999999J1D01*
G01*
%TO.C,DS1*%
X58318924Y-34774214D02*
X62328924Y-34774214D01*
X58318924Y-36774214D02*
X62328924Y-36774214D01*
X62328924Y-36774214D02*
X62328924Y-34774214D01*
%TO.C,D7*%
X149830000Y-55540000D02*
X149830000Y-51530000D01*
X151830000Y-55540000D02*
X149830000Y-55540000D01*
X151830000Y-55540000D02*
X151830000Y-51530000D01*
%TO.C,U2*%
X177886424Y-77364214D02*
X177886424Y-77624214D01*
X177886424Y-82814214D02*
X177886424Y-82554214D01*
X180611424Y-77364214D02*
X177886424Y-77364214D01*
X180611424Y-77364214D02*
X183336424Y-77364214D01*
X180611424Y-82814214D02*
X177886424Y-82814214D01*
X180611424Y-82814214D02*
X183336424Y-82814214D01*
X183336424Y-77364214D02*
X183336424Y-77624214D01*
X183336424Y-77624214D02*
X185011424Y-77624214D01*
X183336424Y-82814214D02*
X183336424Y-82554214D01*
%TO.C,D26*%
X254560000Y-74710000D02*
X254560000Y-70700000D01*
X256560000Y-74710000D02*
X254560000Y-74710000D01*
X256560000Y-74710000D02*
X256560000Y-70700000D01*
%TO.C,D49*%
X283100000Y-112857500D02*
X283100000Y-108847500D01*
X285100000Y-112857500D02*
X283100000Y-112857500D01*
X285100000Y-112857500D02*
X285100000Y-108847500D01*
%TO.C,D33*%
X125940000Y-93730000D02*
X125940000Y-89720000D01*
X127940000Y-93730000D02*
X125940000Y-93730000D01*
X127940000Y-93730000D02*
X127940000Y-89720000D01*
%TO.C,C14*%
X61681424Y-33476378D02*
X61681424Y-33692050D01*
X62401424Y-33476378D02*
X62401424Y-33692050D01*
%TO.C,U3*%
X64183924Y-33226714D02*
X64983924Y-33226714D01*
X64183924Y-36346714D02*
X64983924Y-36346714D01*
X65783924Y-33226714D02*
X64983924Y-33226714D01*
X65783924Y-36346714D02*
X64983924Y-36346714D01*
X63923924Y-36626714D02*
X63443924Y-36626714D01*
X63683924Y-36296714D01*
X63923924Y-36626714D01*
G36*
X63923924Y-36626714D02*
G01*
X63443924Y-36626714D01*
X63683924Y-36296714D01*
X63923924Y-36626714D01*
G37*
%TO.C,D17*%
X78330000Y-74720000D02*
X78330000Y-70710000D01*
X80330000Y-74720000D02*
X78330000Y-74720000D01*
X80330000Y-74720000D02*
X80330000Y-70710000D01*
%TO.C,D38*%
X244970000Y-93800000D02*
X244970000Y-89790000D01*
X246970000Y-93800000D02*
X244970000Y-93800000D01*
X246970000Y-93800000D02*
X246970000Y-89790000D01*
%TO.C,R8*%
X48761424Y-39207855D02*
X48761424Y-38900573D01*
X49521424Y-39207855D02*
X49521424Y-38900573D01*
%TO.C,R3*%
X171125065Y-99954214D02*
X170817783Y-99954214D01*
X171125065Y-100714214D02*
X170817783Y-100714214D01*
%TO.C,D2*%
X53480000Y-55590000D02*
X53480000Y-51580000D01*
X55480000Y-55590000D02*
X53480000Y-55590000D01*
X55480000Y-55590000D02*
X55480000Y-51580000D01*
%TO.C,C11*%
X168793588Y-99994214D02*
X169009260Y-99994214D01*
X168793588Y-100714214D02*
X169009260Y-100714214D01*
%TO.C,C9*%
X179923588Y-89124214D02*
X180139260Y-89124214D01*
X179923588Y-89844214D02*
X180139260Y-89844214D01*
%TO.C,U1*%
X170301424Y-88484214D02*
X170301424Y-89134214D01*
X170301424Y-95704214D02*
X170301424Y-95054214D01*
X170951424Y-88484214D02*
X170301424Y-88484214D01*
X170951424Y-95704214D02*
X170301424Y-95704214D01*
X176871424Y-88484214D02*
X177521424Y-88484214D01*
X176871424Y-95704214D02*
X177521424Y-95704214D01*
X177521424Y-95704214D02*
X177521424Y-95054214D01*
%TO.C,C5*%
X173501424Y-84382050D02*
X173501424Y-84166378D01*
X174221424Y-84382050D02*
X174221424Y-84166378D01*
%TO.C,C6*%
X168803588Y-101364214D02*
X169019260Y-101364214D01*
X168803588Y-102084214D02*
X169019260Y-102084214D01*
%TO.C,D29*%
X42690000Y-93667500D02*
X42690000Y-89657500D01*
X44690000Y-93667500D02*
X42690000Y-93667500D01*
X44690000Y-93667500D02*
X44690000Y-89657500D01*
%TO.C,D31*%
X87860000Y-93760000D02*
X87860000Y-89750000D01*
X89860000Y-93760000D02*
X87860000Y-93760000D01*
X89860000Y-93760000D02*
X89860000Y-89750000D01*
%TO.C,C10*%
X179963588Y-92544214D02*
X180179260Y-92544214D01*
X179963588Y-93264214D02*
X180179260Y-93264214D01*
%TO.C,R5*%
X169911424Y-84100573D02*
X169911424Y-84407855D01*
X170671424Y-84100573D02*
X170671424Y-84407855D01*
%TO.C,D41*%
X302150000Y-93820000D02*
X302150000Y-89810000D01*
X304150000Y-93820000D02*
X302150000Y-93820000D01*
X304150000Y-93820000D02*
X304150000Y-89810000D01*
%TO.C,R2*%
X167635065Y-87894214D02*
X167327783Y-87894214D01*
X167635065Y-88654214D02*
X167327783Y-88654214D01*
%TO.C,D40*%
X283080000Y-93820000D02*
X283080000Y-89810000D01*
X285080000Y-93820000D02*
X283080000Y-93820000D01*
X285080000Y-93820000D02*
X285080000Y-89810000D01*
%TO.C,C15*%
X67361424Y-35146378D02*
X67361424Y-35362050D01*
X68081424Y-35146378D02*
X68081424Y-35362050D01*
%TO.C,D36*%
X206950000Y-93750000D02*
X206950000Y-89740000D01*
X208950000Y-93750000D02*
X206950000Y-93750000D01*
X208950000Y-93750000D02*
X208950000Y-89740000D01*
%TO.C,D11*%
X230770000Y-55620000D02*
X230770000Y-51610000D01*
X232770000Y-55620000D02*
X230770000Y-55620000D01*
X232770000Y-55620000D02*
X232770000Y-51610000D01*
%TO.C,D13*%
X268920000Y-55570000D02*
X268920000Y-51560000D01*
X270920000Y-55570000D02*
X268920000Y-55570000D01*
X270920000Y-55570000D02*
X270920000Y-51560000D01*
%TO.C,D39*%
X264060000Y-93800000D02*
X264060000Y-89790000D01*
X266060000Y-93800000D02*
X264060000Y-93800000D01*
X266060000Y-93800000D02*
X266060000Y-89790000D01*
%TO.C,D35*%
X187880000Y-93760000D02*
X187880000Y-89750000D01*
X189880000Y-93760000D02*
X187880000Y-93760000D01*
X189880000Y-93760000D02*
X189880000Y-89750000D01*
%TO.C,D24*%
X216460000Y-74757500D02*
X216460000Y-70747500D01*
X218460000Y-74757500D02*
X216460000Y-74757500D01*
X218460000Y-74757500D02*
X218460000Y-70747500D01*
%TO.C,D4*%
X92630000Y-55647500D02*
X92630000Y-51637500D01*
X94630000Y-55647500D02*
X92630000Y-55647500D01*
X94630000Y-55647500D02*
X94630000Y-51637500D01*
%TO.C,D43*%
X65310000Y-112880000D02*
X65310000Y-108870000D01*
X65310000Y-112880000D02*
X63310000Y-112880000D01*
X63310000Y-112880000D02*
X63310000Y-108870000D01*
%TO.C,C12*%
X167569260Y-92714214D02*
X167353588Y-92714214D01*
X167569260Y-93434214D02*
X167353588Y-93434214D01*
%TO.C,RST1*%
X61190918Y-76105040D02*
X61190918Y-78105040D01*
X62240918Y-74805040D02*
X62690918Y-74355040D01*
X62240918Y-79405040D02*
X62690918Y-79855040D01*
X65190918Y-74355040D02*
X62690918Y-74355040D01*
X65190918Y-79855040D02*
X62690918Y-79855040D01*
X65640918Y-74805040D02*
X65190918Y-74355040D01*
X65640918Y-79405040D02*
X65190918Y-79855040D01*
X66690918Y-76105040D02*
X66690918Y-78105040D01*
%TO.C,C4*%
X168771424Y-84352050D02*
X168771424Y-84136378D01*
X169491424Y-84352050D02*
X169491424Y-84136378D01*
%TO.C,C2*%
X175821424Y-101192050D02*
X175821424Y-100976378D01*
X176541424Y-101192050D02*
X176541424Y-100976378D01*
%TO.C,F1*%
X59708488Y-32809214D02*
X59254360Y-32809214D01*
X59708488Y-34279214D02*
X59254360Y-34279214D01*
%TO.C,D37*%
X225960000Y-93790000D02*
X225960000Y-89780000D01*
X227960000Y-93790000D02*
X225960000Y-93790000D01*
X227960000Y-93790000D02*
X227960000Y-89780000D01*
%TO.C,D45*%
X123590000Y-112797500D02*
X123590000Y-108787500D01*
X125590000Y-112797500D02*
X123590000Y-112797500D01*
X125590000Y-112797500D02*
X125590000Y-108787500D01*
%TO.C,D19*%
X116560000Y-74720000D02*
X116560000Y-70710000D01*
X118560000Y-74720000D02*
X116560000Y-74720000D01*
X118560000Y-74720000D02*
X118560000Y-70710000D01*
%TO.C,D1*%
X35500000Y-55660000D02*
X35500000Y-51650000D01*
X37500000Y-55660000D02*
X35500000Y-55660000D01*
X37500000Y-55660000D02*
X37500000Y-51650000D01*
%TO.C,D30*%
X68800000Y-93757500D02*
X68800000Y-89747500D01*
X70800000Y-93757500D02*
X68800000Y-93757500D01*
X70800000Y-93757500D02*
X70800000Y-89747500D01*
%TO.C,D48*%
X264090000Y-112780000D02*
X264090000Y-108770000D01*
X266090000Y-112780000D02*
X264090000Y-112780000D01*
X266090000Y-112780000D02*
X266090000Y-108770000D01*
%TO.C,D28*%
X292670000Y-74710000D02*
X292670000Y-70700000D01*
X294670000Y-74710000D02*
X292670000Y-74710000D01*
X294670000Y-74710000D02*
X294670000Y-70700000D01*
%TO.C,Y1*%
X175366424Y-99624214D02*
X175366424Y-102424214D01*
X175366424Y-102424214D02*
X172066424Y-102424214D01*
%TO.C,C7*%
X167601424Y-84362050D02*
X167601424Y-84146378D01*
X168321424Y-84362050D02*
X168321424Y-84146378D01*
%TO.C,D10*%
X211750000Y-55560000D02*
X211750000Y-51550000D01*
X213750000Y-55560000D02*
X211750000Y-55560000D01*
X213750000Y-55560000D02*
X213750000Y-51550000D01*
%TO.C,D15*%
X40310000Y-74650000D02*
X40310000Y-70640000D01*
X42310000Y-74650000D02*
X40310000Y-74650000D01*
X42310000Y-74650000D02*
X42310000Y-70640000D01*
%TO.C,D32*%
X106950000Y-93750000D02*
X106950000Y-89740000D01*
X108950000Y-93750000D02*
X106950000Y-93750000D01*
X108950000Y-93750000D02*
X108950000Y-89740000D01*
%TO.C,D14*%
X290561424Y-53504214D02*
X290561424Y-49494214D01*
X292561424Y-53504214D02*
X290561424Y-53504214D01*
X292561424Y-53504214D02*
X292561424Y-49494214D01*
%TO.C,D20*%
X135530000Y-74710000D02*
X135530000Y-70700000D01*
X137530000Y-74710000D02*
X135530000Y-74710000D01*
X137530000Y-74710000D02*
X137530000Y-70700000D01*
%TO.C,C1*%
X167373588Y-85534214D02*
X167589260Y-85534214D01*
X167373588Y-86254214D02*
X167589260Y-86254214D01*
%TO.C,D23*%
X197390000Y-74727500D02*
X197390000Y-70717500D01*
X199390000Y-74727500D02*
X197390000Y-74727500D01*
X199390000Y-74727500D02*
X199390000Y-70717500D01*
%TO.C,D18*%
X97480000Y-74660000D02*
X97480000Y-70650000D01*
X99480000Y-74660000D02*
X97480000Y-74660000D01*
X99480000Y-74660000D02*
X99480000Y-70650000D01*
%TO.C,J1*%
X46852642Y-28594214D02*
X56252642Y-28594214D01*
X46852642Y-30494214D02*
X46852642Y-28594214D01*
X46852642Y-34394214D02*
X46852642Y-32394214D01*
X56252642Y-30494214D02*
X56252642Y-28594214D01*
X56252642Y-34394214D02*
X56252642Y-32394214D01*
%TO.C,D5*%
X111710000Y-55610000D02*
X111710000Y-51600000D01*
X113710000Y-55610000D02*
X111710000Y-55610000D01*
X113710000Y-55610000D02*
X113710000Y-51600000D01*
%TO.C,D22*%
X195031424Y-74724214D02*
X195031424Y-70714214D01*
X197031424Y-74724214D02*
X195031424Y-74724214D01*
X197031424Y-74724214D02*
X197031424Y-70714214D01*
%TO.C,D34*%
X145000000Y-93770000D02*
X145000000Y-89760000D01*
X147000000Y-93770000D02*
X145000000Y-93770000D01*
X147000000Y-93770000D02*
X147000000Y-89760000D01*
%TO.C,D8*%
X173680000Y-55530000D02*
X173680000Y-51520000D01*
X175680000Y-55530000D02*
X173680000Y-55530000D01*
X175680000Y-55530000D02*
X175680000Y-51520000D01*
%TO.C,D6*%
X130760000Y-55650000D02*
X130760000Y-51640000D01*
X132760000Y-55650000D02*
X130760000Y-55650000D01*
X132760000Y-55650000D02*
X132760000Y-51640000D01*
%TO.C,D50*%
X302120000Y-112880000D02*
X302120000Y-108870000D01*
X304120000Y-112880000D02*
X302120000Y-112880000D01*
X304120000Y-112880000D02*
X304120000Y-108870000D01*
%TO.C,R6*%
X179877783Y-87924214D02*
X180185065Y-87924214D01*
X179877783Y-88684214D02*
X180185065Y-88684214D01*
%TO.C,D9*%
X192680000Y-55547500D02*
X192680000Y-51537500D01*
X194680000Y-55547500D02*
X192680000Y-55547500D01*
X194680000Y-55547500D02*
X194680000Y-51537500D01*
%TO.C,C3*%
X170883588Y-101374214D02*
X171099260Y-101374214D01*
X170883588Y-102094214D02*
X171099260Y-102094214D01*
%TO.C,D16*%
X59261424Y-73764214D02*
X59261424Y-69754214D01*
X61261424Y-73764214D02*
X59261424Y-73764214D01*
X61261424Y-73764214D02*
X61261424Y-69754214D01*
%TO.C,D46*%
X204530000Y-112830000D02*
X204530000Y-108820000D01*
X206530000Y-112830000D02*
X204530000Y-112830000D01*
X206530000Y-112830000D02*
X206530000Y-108820000D01*
%TO.C,C8*%
X172351424Y-84352050D02*
X172351424Y-84136378D01*
X173071424Y-84352050D02*
X173071424Y-84136378D01*
%TO.C,D12*%
X249830000Y-55660000D02*
X249830000Y-51650000D01*
X251830000Y-55660000D02*
X249830000Y-55660000D01*
X251830000Y-55660000D02*
X251830000Y-51650000D01*
%TO.C,R9*%
X53311424Y-39197855D02*
X53311424Y-38890573D01*
X54071424Y-39197855D02*
X54071424Y-38890573D01*
%TO.C,D3*%
X73610000Y-55580000D02*
X73610000Y-51570000D01*
X75610000Y-55580000D02*
X73610000Y-55580000D01*
X75610000Y-55580000D02*
X75610000Y-51570000D01*
%TO.C,D21*%
X154470000Y-74720000D02*
X154470000Y-70710000D01*
X156470000Y-74720000D02*
X154470000Y-74720000D01*
X156470000Y-74720000D02*
X156470000Y-70710000D01*
%TO.C,R4*%
X171091424Y-84110573D02*
X171091424Y-84417855D01*
X171851424Y-84110573D02*
X171851424Y-84417855D01*
%TO.C,R1*%
X167337783Y-86694214D02*
X167645065Y-86694214D01*
X167337783Y-87454214D02*
X167645065Y-87454214D01*
%TO.C,R7*%
X180165065Y-86654214D02*
X179857783Y-86654214D01*
X180165065Y-87414214D02*
X179857783Y-87414214D01*
%TO.C,U4*%
X50091424Y-38544214D02*
X50091424Y-39544214D01*
X52811424Y-38544214D02*
X52811424Y-39544214D01*
X50141424Y-38154214D02*
X49861424Y-38154214D01*
X50141424Y-37874214D01*
X50141424Y-38154214D01*
G36*
X50141424Y-38154214D02*
G01*
X49861424Y-38154214D01*
X50141424Y-37874214D01*
X50141424Y-38154214D01*
G37*
%TO.C,D27*%
X273610000Y-74710000D02*
X273610000Y-70700000D01*
X275610000Y-74710000D02*
X273610000Y-74710000D01*
X275610000Y-74710000D02*
X275610000Y-70700000D01*
%TO.C,D47*%
X240320000Y-112840000D02*
X240320000Y-108830000D01*
X242320000Y-112840000D02*
X240320000Y-112840000D01*
X242320000Y-112840000D02*
X242320000Y-108830000D01*
%TO.C,D25*%
X235510000Y-74730000D02*
X235510000Y-70720000D01*
X237510000Y-74730000D02*
X235510000Y-74730000D01*
X237510000Y-74730000D02*
X237510000Y-70720000D01*
%TO.C,D44*%
X85470000Y-112830000D02*
X85470000Y-108820000D01*
X87470000Y-112830000D02*
X85470000Y-112830000D01*
X87470000Y-112830000D02*
X87470000Y-108820000D01*
%TO.C,D42*%
X37870000Y-112777500D02*
X37870000Y-108767500D01*
X39870000Y-112777500D02*
X37870000Y-112777500D01*
X39870000Y-112777500D02*
X39870000Y-108767500D01*
%TO.C,C13*%
X167579260Y-89054214D02*
X167363588Y-89054214D01*
X167579260Y-89774214D02*
X167363588Y-89774214D01*
%TD*%
M02*
