M48
; DRILL file {KiCad 8.0.0} date 2024-03-22T00:44:05+0000
; FORMAT={-:-/ absolute / inch / decimal}
; #@! TF.CreationDate,2024-03-22T00:44:05+00:00
; #@! TF.GenerationSoftware,Kicad,Pcbnew,8.0.0
; #@! TF.FileFunction,NonPlated,1,2,NPTH
FMAT,2
INCH
; #@! TA.AperFunction,NonPlated,NPTH,ComponentDrill
T1C0.0256
; #@! TA.AperFunction,NonPlated,NPTH,ComponentDrill
T2C0.0689
; #@! TA.AperFunction,NonPlated,NPTH,ComponentDrill
T3C0.1200
; #@! TA.AperFunction,NonPlated,NPTH,ComponentDrill
T4C0.1201
; #@! TA.AperFunction,NonPlated,NPTH,ComponentDrill
T5C0.1570
; #@! TA.AperFunction,NonPlated,NPTH,ComponentDrill
T6C0.1575
%
G90
G05
T1
X1.9159Y-1.3817
X2.1434Y-1.3817
T2
X1.4736Y-1.9106
X1.5674Y-4.1606
X1.6611Y-2.6606
X1.7549Y-3.4106
X1.8736Y-1.9106
X1.9674Y-4.1606
X2.0611Y-2.6606
X2.1549Y-3.4106
X2.2236Y-1.9106
X2.4111Y-2.6606
X2.5049Y-4.1606
X2.6236Y-1.9106
X2.7861Y-3.4106
X2.8111Y-2.6606
X2.9049Y-4.1606
X2.9736Y-1.9106
X3.1611Y-2.6606
X3.1861Y-3.4106
X3.3736Y-1.9106
X3.4424Y-4.1606
X3.5361Y-3.4106
X3.5611Y-2.6606
X3.7236Y-1.9106
X3.8424Y-4.1606
X3.9111Y-2.6606
X3.9361Y-3.4106
X4.1236Y-1.9106
X4.2861Y-3.4106
X4.3111Y-2.6606
X4.4736Y-1.9106
X4.6611Y-2.6606
X4.6861Y-3.4106
X4.8736Y-1.9106
X4.9424Y-4.1606
X5.0361Y-3.4106
X5.0611Y-2.6606
X5.2236Y-1.9106
X5.3424Y-4.1606
X5.4111Y-2.6606
X5.4361Y-3.4106
X5.6236Y-1.9106
X5.7861Y-3.4106
X5.8111Y-2.6606
X5.9736Y-1.9106
X6.1611Y-2.6606
X6.1861Y-3.4106
X6.3736Y-1.9106
X6.5611Y-2.6606
X6.9111Y-1.9106
X7.0986Y-2.6606
X7.3111Y-1.9106
X7.4736Y-3.4106
X7.4986Y-2.6606
X7.6611Y-1.9106
X7.8486Y-2.6606
X7.8736Y-3.4106
X8.0611Y-1.9106
X8.1299Y-4.1606
X8.2236Y-3.4106
X8.2486Y-2.6606
X8.4111Y-1.9106
X8.5299Y-4.1606
X8.5986Y-2.6606
X8.6236Y-3.4106
X8.8111Y-1.9106
X8.9736Y-3.4106
X8.9986Y-2.6606
X9.1611Y-1.9106
X9.3486Y-2.6606
X9.3736Y-3.4106
X9.5361Y-4.1606
X9.5611Y-1.9106
X9.7236Y-3.4106
X9.7486Y-2.6606
X9.9111Y-1.9106
X9.9361Y-4.1606
X10.0986Y-2.6606
X10.1236Y-3.4106
X10.3111Y-1.9106
X10.4736Y-3.4106
X10.4736Y-4.1606
X10.4986Y-2.6606
X10.6611Y-1.9106
X10.8486Y-2.6606
X10.8736Y-3.4106
X10.8736Y-4.1606
X11.0611Y-1.9106
X11.2236Y-3.4106
X11.2236Y-4.1606
X11.2486Y-2.6606
X11.5986Y-1.9106
X11.5986Y-2.6606
X11.6236Y-3.4106
X11.6236Y-4.1606
X11.9736Y-3.4106
X11.9736Y-4.1606
X11.9986Y-1.9106
X11.9986Y-2.6606
X12.3736Y-3.4106
X12.3736Y-4.1606
T3
X4.6724Y-4.4356
X5.6124Y-4.4356
X7.8599Y-4.4356
X8.7999Y-4.4356
T4
X1.5236Y-1.8106
X1.6174Y-4.0606
X1.7111Y-2.5606
X1.7736Y-1.7106
X1.8049Y-3.3106
X1.8674Y-3.9606
X1.9611Y-2.4606
X2.0549Y-3.2106
X2.2736Y-1.8106
X2.4611Y-2.5606
X2.5236Y-1.7106
X2.5549Y-4.0606
X2.7111Y-2.4606
X2.8049Y-3.9606
X2.8361Y-3.3106
X3.0236Y-1.8106
X3.0861Y-3.2106
X3.2111Y-2.5606
X3.2736Y-1.7106
X3.4611Y-2.4606
X3.4924Y-4.0606
X3.5861Y-3.3106
X3.7424Y-3.9606
X3.7736Y-1.8106
X3.8361Y-3.2106
X3.9611Y-2.5606
X4.0236Y-1.7106
X4.2111Y-2.4606
X4.3361Y-3.3106
X4.5236Y-1.8106
X4.5861Y-3.2106
X4.7111Y-2.5606
X4.7736Y-1.7106
X4.9611Y-2.4606
X4.9924Y-4.0606
X5.0861Y-3.3106
X5.2424Y-3.9606
X5.2736Y-1.8106
X5.3361Y-3.2106
X5.4611Y-2.5606
X5.5236Y-1.7106
X5.7111Y-2.4606
X5.8361Y-3.3106
X6.0236Y-1.8106
X6.0861Y-3.2106
X6.2111Y-2.5606
X6.2736Y-1.7106
X6.4611Y-2.4606
X6.9611Y-1.8106
X7.1986Y-2.8606
X7.2111Y-1.7106
X7.4486Y-2.7606
X7.5236Y-3.3106
X7.7111Y-1.8106
X7.7736Y-3.2106
X7.8986Y-2.5606
X7.9611Y-1.7106
X8.1486Y-2.4606
X8.1799Y-4.0606
X8.2736Y-3.3106
X8.4299Y-3.9606
X8.4611Y-1.8106
X8.5236Y-3.2106
X8.6486Y-2.5606
X8.7111Y-1.7106
X8.8986Y-2.4606
X9.0236Y-3.3106
X9.2111Y-1.8106
X9.2736Y-3.2106
X9.3986Y-2.5606
X9.4611Y-1.7106
X9.5861Y-4.0606
X9.6486Y-2.4606
X9.7736Y-3.3106
X9.8361Y-3.9606
X9.9611Y-1.8106
X10.0236Y-3.2106
X10.1486Y-2.5606
X10.2111Y-1.7106
X10.3986Y-2.4606
X10.5236Y-3.3106
X10.5236Y-4.0606
X10.7111Y-1.8106
X10.7736Y-3.2106
X10.7736Y-3.9606
X10.8986Y-2.5606
X10.9611Y-1.7106
X11.1486Y-2.4606
X11.2736Y-3.3106
X11.2736Y-4.0606
X11.5236Y-3.2106
X11.5236Y-3.9606
X11.6486Y-1.8106
X11.6486Y-2.5606
X11.8986Y-1.7106
X11.8986Y-2.4606
X12.0236Y-3.3106
X12.0236Y-4.0606
X12.2736Y-3.2106
X12.2736Y-3.9606
T5
X4.6724Y-3.8368
X5.6124Y-3.8368
X7.8599Y-3.8368
X8.7999Y-3.8368
T6
X1.6736Y-1.9106
X1.7674Y-4.1606
X1.8611Y-2.6606
X1.9549Y-3.4106
X2.4236Y-1.9106
X2.6111Y-2.6606
X2.7049Y-4.1606
X2.9861Y-3.4106
X3.1736Y-1.9106
X3.3611Y-2.6606
X3.6424Y-4.1606
X3.7361Y-3.4106
X3.9236Y-1.9106
X4.1111Y-2.6606
X4.4861Y-3.4106
X4.6736Y-1.9106
X4.8611Y-2.6606
X5.1424Y-4.1606
X5.2361Y-3.4106
X5.4236Y-1.9106
X5.6111Y-2.6606
X5.9861Y-3.4106
X6.1736Y-1.9106
X6.3611Y-2.6606
X7.1111Y-1.9106
X7.2986Y-2.6606
X7.6736Y-3.4106
X7.8611Y-1.9106
X8.0486Y-2.6606
X8.3299Y-4.1606
X8.4236Y-3.4106
X8.6111Y-1.9106
X8.7986Y-2.6606
X9.1736Y-3.4106
X9.3611Y-1.9106
X9.5486Y-2.6606
X9.7361Y-4.1606
X9.9236Y-3.4106
X10.1111Y-1.9106
X10.2986Y-2.6606
X10.6736Y-3.4106
X10.6736Y-4.1606
X10.8611Y-1.9106
X11.0486Y-2.6606
X11.4236Y-3.4106
X11.4236Y-4.1606
X11.7986Y-1.9106
X11.7986Y-2.6606
X12.1736Y-3.4106
X12.1736Y-4.1606
M30
