%TF.GenerationSoftware,KiCad,Pcbnew,8.0.0*%
%TF.CreationDate,2024-04-24T08:36:32-07:00*%
%TF.ProjectId,plate,706c6174-652e-46b6-9963-61645f706362,rev?*%
%TF.SameCoordinates,Original*%
%TF.FileFunction,Copper,L1,Top*%
%TF.FilePolarity,Positive*%
%FSLAX46Y46*%
G04 Gerber Fmt 4.6, Leading zero omitted, Abs format (unit mm)*
G04 Created by KiCad (PCBNEW 8.0.0) date 2024-04-24 08:36:32*
%MOMM*%
%LPD*%
G01*
G04 APERTURE LIST*
%TA.AperFunction,ViaPad*%
%ADD10C,0.600000*%
%TD*%
G04 APERTURE END LIST*
D10*
%TO.N,GND*%
X104900000Y-112480000D03*
X290450000Y-131160000D03*
X316500000Y-93360000D03*
%TD*%
%TA.AperFunction,Conductor*%
%TO.N,GND*%
G36*
X345783025Y-75220005D02*
G01*
X345862259Y-75222007D01*
X345868496Y-75222323D01*
X345938592Y-75227653D01*
X345944791Y-75228282D01*
X346013676Y-75237035D01*
X346019810Y-75237972D01*
X346087458Y-75250053D01*
X346093495Y-75251288D01*
X346159845Y-75266602D01*
X346165814Y-75268137D01*
X346230877Y-75286613D01*
X346236745Y-75288438D01*
X346300395Y-75309975D01*
X346306126Y-75312073D01*
X346368402Y-75336629D01*
X346373998Y-75338996D01*
X346434755Y-75366464D01*
X346440190Y-75369082D01*
X346453304Y-75375799D01*
X346499407Y-75399413D01*
X346504676Y-75402275D01*
X346562251Y-75435380D01*
X346567331Y-75438467D01*
X346623164Y-75474263D01*
X346628096Y-75477595D01*
X346630557Y-75479345D01*
X346682086Y-75515990D01*
X346686842Y-75519547D01*
X346738889Y-75560450D01*
X346743451Y-75564214D01*
X346793490Y-75607561D01*
X346797865Y-75611538D01*
X346845748Y-75657194D01*
X346849929Y-75661375D01*
X346895592Y-75709273D01*
X346899571Y-75713651D01*
X346942894Y-75763669D01*
X346946663Y-75768236D01*
X346987581Y-75820306D01*
X346991139Y-75825065D01*
X347029509Y-75879026D01*
X347032846Y-75883965D01*
X347068638Y-75939800D01*
X347071745Y-75944915D01*
X347104846Y-76002490D01*
X347107714Y-76007771D01*
X347138025Y-76066957D01*
X347140649Y-76072403D01*
X347168129Y-76133194D01*
X347170496Y-76138791D01*
X347195043Y-76201054D01*
X347197143Y-76206793D01*
X347218685Y-76270463D01*
X347220511Y-76276337D01*
X347238978Y-76341381D01*
X347240517Y-76347364D01*
X347255827Y-76413704D01*
X347257073Y-76419793D01*
X347269145Y-76487405D01*
X347270086Y-76493570D01*
X347278838Y-76562449D01*
X347279470Y-76568677D01*
X347284800Y-76638772D01*
X347285117Y-76645038D01*
X347287121Y-76724255D01*
X347287161Y-76727391D01*
X347287161Y-127839937D01*
X347287121Y-127843074D01*
X347286418Y-127870857D01*
X347286101Y-127877124D01*
X347284634Y-127896413D01*
X347284003Y-127902632D01*
X347281611Y-127921466D01*
X347280670Y-127927631D01*
X347277391Y-127946002D01*
X347276147Y-127952087D01*
X347272002Y-127970055D01*
X347270461Y-127976046D01*
X347265466Y-127993641D01*
X347263644Y-127999504D01*
X347257817Y-128016733D01*
X347255716Y-128022475D01*
X347249072Y-128039332D01*
X347246710Y-128044920D01*
X347239257Y-128061415D01*
X347236631Y-128066867D01*
X347228397Y-128082950D01*
X347225532Y-128088227D01*
X347216515Y-128103917D01*
X347213407Y-128109035D01*
X347203628Y-128124295D01*
X347200298Y-128129228D01*
X347189791Y-128144011D01*
X347186230Y-128148774D01*
X347175006Y-128163062D01*
X347171242Y-128167626D01*
X347159335Y-128181379D01*
X347155357Y-128185757D01*
X347142830Y-128198903D01*
X347138650Y-128203086D01*
X347125483Y-128215646D01*
X347121101Y-128219630D01*
X347107355Y-128231542D01*
X347102789Y-128235312D01*
X347088531Y-128246522D01*
X347083776Y-128250080D01*
X347069018Y-128260580D01*
X347064076Y-128263920D01*
X347048818Y-128273706D01*
X347043706Y-128276813D01*
X347028042Y-128285824D01*
X347022757Y-128288696D01*
X347006682Y-128296933D01*
X347001236Y-128299558D01*
X346984791Y-128306996D01*
X346979195Y-128309363D01*
X346962351Y-128316008D01*
X346956605Y-128318113D01*
X346939421Y-128323930D01*
X346933548Y-128325757D01*
X346915983Y-128330747D01*
X346910001Y-128332286D01*
X346892047Y-128336432D01*
X346885960Y-128337678D01*
X346867630Y-128340952D01*
X346861462Y-128341894D01*
X346842666Y-128344283D01*
X346836438Y-128344916D01*
X346817144Y-128346384D01*
X346810879Y-128346701D01*
X346786330Y-128347323D01*
X346783136Y-128347404D01*
X346780001Y-128347444D01*
X346084499Y-128347444D01*
X346017460Y-128327759D01*
X345971705Y-128274955D01*
X345960499Y-128223444D01*
X345960499Y-125221365D01*
X345960499Y-125170004D01*
X345960500Y-125170004D01*
X345960501Y-125082471D01*
X345930101Y-124910065D01*
X345870226Y-124745557D01*
X345782693Y-124593945D01*
X345782691Y-124593943D01*
X345782691Y-124593942D01*
X345744326Y-124548221D01*
X345670163Y-124459837D01*
X345550037Y-124359039D01*
X345536057Y-124347308D01*
X345536053Y-124347306D01*
X345536050Y-124347304D01*
X345384443Y-124259774D01*
X345274771Y-124219857D01*
X345219936Y-124199899D01*
X345133732Y-124184699D01*
X345047529Y-124169499D01*
X345047528Y-124169499D01*
X344959996Y-124169500D01*
X332011363Y-124169500D01*
X332011360Y-124169499D01*
X331960000Y-124169499D01*
X331872467Y-124169499D01*
X331872464Y-124169499D01*
X331700060Y-124199899D01*
X331535559Y-124259772D01*
X331535549Y-124259776D01*
X331383946Y-124347304D01*
X331383940Y-124347309D01*
X331249837Y-124459835D01*
X331249835Y-124459838D01*
X331137305Y-124593945D01*
X331049776Y-124745551D01*
X331049773Y-124745558D01*
X330989897Y-124910064D01*
X330959499Y-125082466D01*
X330959499Y-138245880D01*
X330959500Y-138245893D01*
X330959500Y-138257533D01*
X330989898Y-138429935D01*
X331049774Y-138594441D01*
X331049777Y-138594448D01*
X331137308Y-138746056D01*
X331249829Y-138880155D01*
X331249830Y-138880155D01*
X331249836Y-138880162D01*
X331383944Y-138992692D01*
X331383946Y-138992693D01*
X331383950Y-138992696D01*
X331509103Y-139064953D01*
X331535555Y-139080225D01*
X331700062Y-139140100D01*
X331872467Y-139170500D01*
X331872469Y-139170500D01*
X345047529Y-139170500D01*
X345052715Y-139170500D01*
X345054919Y-139169296D01*
X345059744Y-139168346D01*
X345219934Y-139140100D01*
X345384442Y-139080225D01*
X345536053Y-138992693D01*
X345670161Y-138880163D01*
X345782691Y-138746055D01*
X345870224Y-138594444D01*
X345930100Y-138429936D01*
X345960499Y-138257531D01*
X345960499Y-138169998D01*
X345960499Y-138104106D01*
X345960499Y-134469210D01*
X345980184Y-134402171D01*
X346032988Y-134356416D01*
X346084499Y-134345210D01*
X346780024Y-134345210D01*
X346783078Y-134345248D01*
X346810959Y-134345952D01*
X346817139Y-134346265D01*
X346836480Y-134347735D01*
X346842690Y-134348366D01*
X346853820Y-134349779D01*
X346861537Y-134350760D01*
X346867641Y-134351691D01*
X346886063Y-134354979D01*
X346892103Y-134356215D01*
X346910104Y-134360369D01*
X346916034Y-134361893D01*
X346933683Y-134366903D01*
X346939483Y-134368707D01*
X346956730Y-134374541D01*
X346962406Y-134376618D01*
X346979348Y-134383297D01*
X346984849Y-134385624D01*
X347001364Y-134393089D01*
X347006770Y-134395693D01*
X347022881Y-134403943D01*
X347028159Y-134406809D01*
X347031880Y-134408949D01*
X347043819Y-134415813D01*
X347048932Y-134418919D01*
X347064180Y-134428693D01*
X347069120Y-134432030D01*
X347083870Y-134442518D01*
X347088630Y-134446077D01*
X347102881Y-134457276D01*
X347107446Y-134461043D01*
X347121212Y-134472966D01*
X347125573Y-134476930D01*
X347138716Y-134489460D01*
X347142893Y-134493637D01*
X347155437Y-134506794D01*
X347159416Y-134511173D01*
X347171310Y-134524904D01*
X347175081Y-134529473D01*
X347186288Y-134543734D01*
X347189839Y-134548481D01*
X347200359Y-134563277D01*
X347203684Y-134568200D01*
X347213445Y-134583429D01*
X347216545Y-134588532D01*
X347225569Y-134604226D01*
X347228442Y-134609517D01*
X347232072Y-134616607D01*
X347236659Y-134625564D01*
X347239281Y-134631007D01*
X347246722Y-134647469D01*
X347249089Y-134653067D01*
X347255733Y-134669921D01*
X347257834Y-134675661D01*
X347263652Y-134692859D01*
X347265478Y-134698732D01*
X347270466Y-134716303D01*
X347272005Y-134722289D01*
X347276151Y-134740259D01*
X347277395Y-134746341D01*
X347280669Y-134764678D01*
X347281610Y-134770845D01*
X347284002Y-134789673D01*
X347284634Y-134795901D01*
X347286101Y-134815198D01*
X347286418Y-134821460D01*
X347287121Y-134849233D01*
X347287161Y-134852371D01*
X347287161Y-167561553D01*
X347287121Y-167564689D01*
X347285117Y-167643891D01*
X347284800Y-167650158D01*
X347279471Y-167720231D01*
X347278839Y-167726458D01*
X347270090Y-167795313D01*
X347269148Y-167801482D01*
X347257076Y-167869081D01*
X347255831Y-167875168D01*
X347240518Y-167941517D01*
X347238978Y-167947504D01*
X347220515Y-168012522D01*
X347218689Y-168018394D01*
X347197146Y-168082060D01*
X347195045Y-168087798D01*
X347170498Y-168150056D01*
X347168130Y-168155656D01*
X347140661Y-168216414D01*
X347138039Y-168221857D01*
X347107720Y-168281055D01*
X347104851Y-168286337D01*
X347071751Y-168343905D01*
X347068649Y-168349009D01*
X347058879Y-168364250D01*
X347032871Y-168404817D01*
X347029536Y-168409753D01*
X346991136Y-168463753D01*
X346987579Y-168468510D01*
X346946681Y-168520553D01*
X346942909Y-168525124D01*
X346899569Y-168575156D01*
X346895591Y-168579532D01*
X346849946Y-168627408D01*
X346845766Y-168631589D01*
X346797859Y-168677265D01*
X346793480Y-168681245D01*
X346743484Y-168724553D01*
X346738912Y-168728326D01*
X346686845Y-168769241D01*
X346682092Y-168772795D01*
X346628114Y-168811181D01*
X346623174Y-168814518D01*
X346567345Y-168850309D01*
X346562248Y-168853405D01*
X346504704Y-168886494D01*
X346499420Y-168889364D01*
X346440191Y-168919699D01*
X346434748Y-168922321D01*
X346373985Y-168949792D01*
X346368385Y-168952160D01*
X346306142Y-168976701D01*
X346300404Y-168978802D01*
X346236739Y-169000345D01*
X346230866Y-169002171D01*
X346165846Y-169020634D01*
X346159861Y-169022174D01*
X346093519Y-169037486D01*
X346087432Y-169038731D01*
X346019828Y-169050804D01*
X346013658Y-169051746D01*
X345944803Y-169060495D01*
X345938576Y-169061127D01*
X345868503Y-169066456D01*
X345862236Y-169066773D01*
X345783034Y-169068777D01*
X345779898Y-169068817D01*
X64445737Y-169068817D01*
X64442603Y-169068777D01*
X64436595Y-169068625D01*
X64363383Y-169066773D01*
X64357117Y-169066456D01*
X64287022Y-169061126D01*
X64280795Y-169060494D01*
X64211919Y-169051743D01*
X64205753Y-169050801D01*
X64138136Y-169038728D01*
X64132048Y-169037483D01*
X64065710Y-169022174D01*
X64059728Y-169020636D01*
X64044008Y-169016173D01*
X63994678Y-169002166D01*
X63988808Y-169000341D01*
X63980588Y-168997560D01*
X63925121Y-168978793D01*
X63919399Y-168976698D01*
X63857127Y-168952147D01*
X63851530Y-168949781D01*
X63834648Y-168942150D01*
X63790756Y-168922308D01*
X63785328Y-168919693D01*
X63726111Y-168889366D01*
X63720830Y-168886498D01*
X63663252Y-168853395D01*
X63658138Y-168850288D01*
X63602322Y-168814509D01*
X63597394Y-168811181D01*
X63543388Y-168772779D01*
X63538654Y-168769239D01*
X63486571Y-168728312D01*
X63482016Y-168724553D01*
X63456776Y-168702691D01*
X63431989Y-168681221D01*
X63427617Y-168677249D01*
X63379708Y-168631574D01*
X63375530Y-168627396D01*
X63329846Y-168579484D01*
X63325913Y-168575156D01*
X63282569Y-168525120D01*
X63278803Y-168520555D01*
X63237892Y-168468498D01*
X63234334Y-168463742D01*
X63209750Y-168429173D01*
X63195925Y-168409733D01*
X63192599Y-168404807D01*
X63156818Y-168348998D01*
X63153724Y-168343905D01*
X63120609Y-168286314D01*
X63117745Y-168281041D01*
X63108066Y-168262144D01*
X63087428Y-168221848D01*
X63084811Y-168216417D01*
X63057336Y-168155647D01*
X63054969Y-168150048D01*
X63030417Y-168087781D01*
X63028322Y-168082060D01*
X63006773Y-168018373D01*
X63004963Y-168012554D01*
X62986479Y-167947464D01*
X62984950Y-167941517D01*
X62969630Y-167875142D01*
X62968398Y-167869120D01*
X62956316Y-167801465D01*
X62955377Y-167795313D01*
X62949730Y-167750873D01*
X62946626Y-167726446D01*
X62945996Y-167720231D01*
X62944279Y-167697655D01*
X62940667Y-167650151D01*
X62940351Y-167643898D01*
X62940178Y-167637065D01*
X62938349Y-167564680D01*
X62938309Y-167561547D01*
X62938309Y-160244480D01*
X85944737Y-160244480D01*
X85965060Y-160593404D01*
X85965061Y-160593415D01*
X86025750Y-160937604D01*
X86025752Y-160937611D01*
X86125996Y-161272449D01*
X86264429Y-161593372D01*
X86264435Y-161593385D01*
X86439192Y-161896074D01*
X86647906Y-162176426D01*
X86647911Y-162176432D01*
X86711637Y-162243977D01*
X86887764Y-162430660D01*
X87064225Y-162578728D01*
X87155508Y-162655324D01*
X87155516Y-162655330D01*
X87447525Y-162847388D01*
X87447529Y-162847390D01*
X87759871Y-163004254D01*
X88088311Y-163123796D01*
X88428408Y-163204400D01*
X88775563Y-163244977D01*
X88775570Y-163244977D01*
X89125074Y-163244977D01*
X89125081Y-163244977D01*
X89472236Y-163204400D01*
X89812333Y-163123796D01*
X90140773Y-163004254D01*
X90453115Y-162847390D01*
X90745133Y-162655326D01*
X91012880Y-162430660D01*
X91252734Y-162176430D01*
X91461452Y-161896073D01*
X91636211Y-161593381D01*
X91774648Y-161272448D01*
X91874891Y-160937613D01*
X91935584Y-160593404D01*
X91955907Y-160244477D01*
X91935584Y-159895550D01*
X91935582Y-159895538D01*
X91874893Y-159551349D01*
X91874891Y-159551342D01*
X91774647Y-159216504D01*
X91636214Y-158895581D01*
X91636211Y-158895573D01*
X91461452Y-158592881D01*
X91331666Y-158418548D01*
X91307422Y-158353019D01*
X91322454Y-158284786D01*
X91371990Y-158235511D01*
X91431129Y-158220500D01*
X91453700Y-158220500D01*
X91519592Y-158220507D01*
X91519594Y-158220506D01*
X91527685Y-158220507D01*
X91527808Y-158220500D01*
X104379688Y-158220500D01*
X104379810Y-158220507D01*
X104387901Y-158220506D01*
X104387904Y-158220507D01*
X104402378Y-158220505D01*
X104402543Y-158220553D01*
X104453796Y-158220548D01*
X104453796Y-158220549D01*
X104541328Y-158220541D01*
X104713728Y-158190127D01*
X104878229Y-158130240D01*
X105029832Y-158042698D01*
X105163932Y-157930163D01*
X105276455Y-157796052D01*
X105276455Y-157796050D01*
X105276458Y-157796048D01*
X105276459Y-157796046D01*
X105363976Y-157644448D01*
X105363981Y-157644440D01*
X105423852Y-157479933D01*
X105454250Y-157307529D01*
X105454249Y-157219998D01*
X105454249Y-157154106D01*
X105454249Y-144154110D01*
X105454249Y-144154109D01*
X105454249Y-144146265D01*
X105454200Y-144145528D01*
X105454201Y-144132477D01*
X105454200Y-144132469D01*
X114265748Y-144132469D01*
X114265749Y-144186373D01*
X114265749Y-157293618D01*
X114265799Y-157294382D01*
X114265799Y-157307529D01*
X114296194Y-157479918D01*
X114356065Y-157644423D01*
X114443583Y-157796022D01*
X114443584Y-157796023D01*
X114556097Y-157930123D01*
X114556099Y-157930124D01*
X114556101Y-157930127D01*
X114690194Y-158042657D01*
X114841789Y-158130194D01*
X115006281Y-158190079D01*
X115121209Y-158210354D01*
X115178672Y-158220492D01*
X115178673Y-158220492D01*
X115191140Y-158220492D01*
X115191234Y-158220500D01*
X115266200Y-158220500D01*
X115332092Y-158220507D01*
X115332094Y-158220506D01*
X115340185Y-158220507D01*
X115340308Y-158220500D01*
X128192188Y-158220500D01*
X128192310Y-158220507D01*
X128200401Y-158220506D01*
X128200404Y-158220507D01*
X128214878Y-158220505D01*
X128215043Y-158220553D01*
X128266296Y-158220548D01*
X128266296Y-158220549D01*
X128353828Y-158220541D01*
X128526228Y-158190127D01*
X128690729Y-158130240D01*
X128842332Y-158042698D01*
X128976432Y-157930163D01*
X129088955Y-157796052D01*
X129088955Y-157796050D01*
X129088958Y-157796048D01*
X129088959Y-157796046D01*
X129176476Y-157644448D01*
X129176481Y-157644440D01*
X129236352Y-157479933D01*
X129266750Y-157307529D01*
X129266749Y-157219998D01*
X129266749Y-157154106D01*
X129266749Y-144154110D01*
X129266749Y-144154109D01*
X129266749Y-144146265D01*
X129266700Y-144145528D01*
X129266701Y-144132477D01*
X129236306Y-143960081D01*
X129176437Y-143795582D01*
X129176434Y-143795576D01*
X129088919Y-143643982D01*
X129088917Y-143643980D01*
X129088916Y-143643978D01*
X129088915Y-143643977D01*
X128976398Y-143509873D01*
X128842305Y-143397342D01*
X128842304Y-143397341D01*
X128766507Y-143353573D01*
X128690709Y-143309805D01*
X128575478Y-143267854D01*
X128526214Y-143249919D01*
X128526206Y-143249917D01*
X128353833Y-143219509D01*
X128353825Y-143219508D01*
X128353823Y-143219508D01*
X128353815Y-143219507D01*
X128340437Y-143219506D01*
X128340335Y-143219500D01*
X128332140Y-143219500D01*
X128266296Y-143219500D01*
X128192310Y-143219492D01*
X128192188Y-143219500D01*
X115340308Y-143219500D01*
X115340185Y-143219492D01*
X115317615Y-143219494D01*
X115317444Y-143219444D01*
X115178672Y-143219456D01*
X115178665Y-143219457D01*
X115006274Y-143249870D01*
X115006257Y-143249874D01*
X114841769Y-143309758D01*
X114690164Y-143397300D01*
X114556069Y-143509833D01*
X114556059Y-143509842D01*
X114443544Y-143643945D01*
X114443538Y-143643953D01*
X114356019Y-143795554D01*
X114296144Y-143960068D01*
X114265748Y-144132461D01*
X114265748Y-144132469D01*
X105454200Y-144132469D01*
X105423806Y-143960081D01*
X105363937Y-143795582D01*
X105363934Y-143795576D01*
X105276419Y-143643982D01*
X105276417Y-143643980D01*
X105276416Y-143643978D01*
X105276415Y-143643977D01*
X105163898Y-143509873D01*
X105029805Y-143397342D01*
X105029804Y-143397341D01*
X104954007Y-143353573D01*
X104878209Y-143309805D01*
X104762978Y-143267854D01*
X104713714Y-143249919D01*
X104713706Y-143249917D01*
X104541333Y-143219509D01*
X104541325Y-143219508D01*
X104541323Y-143219508D01*
X104541315Y-143219507D01*
X104527937Y-143219506D01*
X104527835Y-143219500D01*
X104519640Y-143219500D01*
X104453796Y-143219500D01*
X104379810Y-143219492D01*
X104379688Y-143219500D01*
X91527808Y-143219500D01*
X91527685Y-143219492D01*
X91505115Y-143219494D01*
X91504944Y-143219444D01*
X91366172Y-143219456D01*
X91366165Y-143219457D01*
X91193774Y-143249870D01*
X91193757Y-143249874D01*
X91029269Y-143309758D01*
X90877664Y-143397300D01*
X90743569Y-143509833D01*
X90743559Y-143509842D01*
X90631044Y-143643945D01*
X90631038Y-143643953D01*
X90543519Y-143795554D01*
X90483644Y-143960068D01*
X90453248Y-144132461D01*
X90453248Y-144132469D01*
X90453249Y-144186373D01*
X90453249Y-157293618D01*
X90453299Y-157294382D01*
X90453299Y-157307525D01*
X90463461Y-157365158D01*
X90475064Y-157430968D01*
X90467318Y-157500407D01*
X90423261Y-157554635D01*
X90356879Y-157576436D01*
X90297296Y-157563308D01*
X90140780Y-157484703D01*
X90140774Y-157484700D01*
X89812334Y-157365158D01*
X89812331Y-157365157D01*
X89472237Y-157284554D01*
X89428841Y-157279481D01*
X89125081Y-157243977D01*
X88775563Y-157243977D01*
X88471802Y-157279481D01*
X88428407Y-157284554D01*
X88428405Y-157284554D01*
X88088312Y-157365157D01*
X88088309Y-157365158D01*
X87759869Y-157484700D01*
X87759863Y-157484703D01*
X87447525Y-157641565D01*
X87155516Y-157833623D01*
X87155508Y-157833629D01*
X86887764Y-158058294D01*
X86887762Y-158058296D01*
X86647911Y-158312521D01*
X86647906Y-158312527D01*
X86439192Y-158592879D01*
X86264435Y-158895568D01*
X86264429Y-158895581D01*
X86125996Y-159216504D01*
X86025752Y-159551342D01*
X86025750Y-159551349D01*
X85965061Y-159895538D01*
X85965060Y-159895549D01*
X85944737Y-160244473D01*
X85944737Y-160244480D01*
X62938309Y-160244480D01*
X62938309Y-144132469D01*
X66640748Y-144132469D01*
X66640749Y-144186373D01*
X66640749Y-157293618D01*
X66640799Y-157294382D01*
X66640799Y-157307529D01*
X66671194Y-157479918D01*
X66731065Y-157644423D01*
X66818583Y-157796022D01*
X66818584Y-157796023D01*
X66931097Y-157930123D01*
X66931099Y-157930124D01*
X66931101Y-157930127D01*
X67065194Y-158042657D01*
X67216789Y-158130194D01*
X67381281Y-158190079D01*
X67496209Y-158210354D01*
X67553672Y-158220492D01*
X67553673Y-158220492D01*
X67566140Y-158220492D01*
X67566234Y-158220500D01*
X67641200Y-158220500D01*
X67707092Y-158220507D01*
X67707094Y-158220506D01*
X67715185Y-158220507D01*
X67715308Y-158220500D01*
X80567188Y-158220500D01*
X80567310Y-158220507D01*
X80575401Y-158220506D01*
X80575404Y-158220507D01*
X80589878Y-158220505D01*
X80590043Y-158220553D01*
X80641296Y-158220548D01*
X80641296Y-158220549D01*
X80728828Y-158220541D01*
X80901228Y-158190127D01*
X81065729Y-158130240D01*
X81217332Y-158042698D01*
X81351432Y-157930163D01*
X81463955Y-157796052D01*
X81463955Y-157796050D01*
X81463958Y-157796048D01*
X81463959Y-157796046D01*
X81551476Y-157644448D01*
X81551481Y-157644440D01*
X81611352Y-157479933D01*
X81641750Y-157307529D01*
X81641749Y-157219998D01*
X81641749Y-157154106D01*
X81641749Y-144154110D01*
X81641749Y-144154109D01*
X81641749Y-144146265D01*
X81641700Y-144145528D01*
X81641701Y-144132477D01*
X81611306Y-143960081D01*
X81551437Y-143795582D01*
X81551434Y-143795576D01*
X81463919Y-143643982D01*
X81463917Y-143643980D01*
X81463916Y-143643978D01*
X81463915Y-143643977D01*
X81351398Y-143509873D01*
X81217305Y-143397342D01*
X81217304Y-143397341D01*
X81141507Y-143353573D01*
X81065709Y-143309805D01*
X80950478Y-143267854D01*
X80901214Y-143249919D01*
X80901206Y-143249917D01*
X80728833Y-143219509D01*
X80728825Y-143219508D01*
X80728823Y-143219508D01*
X80728815Y-143219507D01*
X80715437Y-143219506D01*
X80715335Y-143219500D01*
X80707140Y-143219500D01*
X80641296Y-143219500D01*
X80567310Y-143219492D01*
X80567188Y-143219500D01*
X67715308Y-143219500D01*
X67715185Y-143219492D01*
X67692615Y-143219494D01*
X67692444Y-143219444D01*
X67553672Y-143219456D01*
X67553665Y-143219457D01*
X67381274Y-143249870D01*
X67381257Y-143249874D01*
X67216769Y-143309758D01*
X67065164Y-143397300D01*
X66931069Y-143509833D01*
X66931059Y-143509842D01*
X66818544Y-143643945D01*
X66818538Y-143643953D01*
X66731019Y-143795554D01*
X66671144Y-143960068D01*
X66640748Y-144132461D01*
X66640748Y-144132469D01*
X62938309Y-144132469D01*
X62938309Y-143132469D01*
X143927748Y-143132469D01*
X143927749Y-143186373D01*
X143927749Y-157293618D01*
X143927799Y-157294382D01*
X143927799Y-157307529D01*
X143958194Y-157479918D01*
X144018065Y-157644423D01*
X144105583Y-157796022D01*
X144105584Y-157796023D01*
X144218097Y-157930123D01*
X144218099Y-157930124D01*
X144218101Y-157930127D01*
X144352194Y-158042657D01*
X144503789Y-158130194D01*
X144668281Y-158190079D01*
X144783209Y-158210354D01*
X144840672Y-158220492D01*
X144840673Y-158220492D01*
X144853140Y-158220492D01*
X144853234Y-158220500D01*
X144928200Y-158220500D01*
X144994092Y-158220507D01*
X144994094Y-158220506D01*
X145002185Y-158220507D01*
X145002308Y-158220500D01*
X150854188Y-158220500D01*
X150854310Y-158220507D01*
X150862401Y-158220506D01*
X150862404Y-158220507D01*
X150876878Y-158220505D01*
X150877043Y-158220553D01*
X150928296Y-158220548D01*
X150928296Y-158220549D01*
X151015828Y-158220541D01*
X151188228Y-158190127D01*
X151352729Y-158130240D01*
X151504332Y-158042698D01*
X151638432Y-157930163D01*
X151750955Y-157796052D01*
X151750955Y-157796050D01*
X151750958Y-157796048D01*
X151750959Y-157796046D01*
X151838476Y-157644448D01*
X151838481Y-157644440D01*
X151898352Y-157479933D01*
X151928750Y-157307529D01*
X151928749Y-157219998D01*
X151928749Y-157154106D01*
X151928749Y-144132469D01*
X152365748Y-144132469D01*
X152365749Y-144186373D01*
X152365749Y-157293618D01*
X152365799Y-157294382D01*
X152365799Y-157307529D01*
X152396194Y-157479918D01*
X152456065Y-157644423D01*
X152543583Y-157796022D01*
X152543584Y-157796023D01*
X152656097Y-157930123D01*
X152656099Y-157930124D01*
X152656101Y-157930127D01*
X152790194Y-158042657D01*
X152941789Y-158130194D01*
X153106281Y-158190079D01*
X153221209Y-158210354D01*
X153278672Y-158220492D01*
X153278673Y-158220492D01*
X153291140Y-158220492D01*
X153291234Y-158220500D01*
X153366200Y-158220500D01*
X153432092Y-158220507D01*
X153432094Y-158220506D01*
X153440185Y-158220507D01*
X153440308Y-158220500D01*
X166292188Y-158220500D01*
X166292310Y-158220507D01*
X166300401Y-158220506D01*
X166300404Y-158220507D01*
X166314878Y-158220505D01*
X166315043Y-158220553D01*
X166366296Y-158220548D01*
X166366296Y-158220549D01*
X166453828Y-158220541D01*
X166626228Y-158190127D01*
X166790729Y-158130240D01*
X166942332Y-158042698D01*
X167076432Y-157930163D01*
X167188955Y-157796052D01*
X167188955Y-157796050D01*
X167188958Y-157796048D01*
X167188959Y-157796046D01*
X167276476Y-157644448D01*
X167276481Y-157644440D01*
X167336352Y-157479933D01*
X167366750Y-157307529D01*
X167366749Y-157219998D01*
X167366749Y-157154106D01*
X167366749Y-144154110D01*
X167366749Y-144154109D01*
X167366749Y-144146265D01*
X167366700Y-144145528D01*
X167366701Y-144132477D01*
X167336306Y-143960081D01*
X167276437Y-143795582D01*
X167276434Y-143795576D01*
X167188919Y-143643982D01*
X167188917Y-143643980D01*
X167188916Y-143643978D01*
X167188915Y-143643977D01*
X167076398Y-143509873D01*
X166942305Y-143397342D01*
X166942304Y-143397341D01*
X166866507Y-143353573D01*
X166790709Y-143309805D01*
X166675478Y-143267854D01*
X166626214Y-143249919D01*
X166626206Y-143249917D01*
X166453833Y-143219509D01*
X166453825Y-143219508D01*
X166453823Y-143219508D01*
X166453815Y-143219507D01*
X166440437Y-143219506D01*
X166440335Y-143219500D01*
X166432140Y-143219500D01*
X166366296Y-143219500D01*
X166292310Y-143219492D01*
X166292188Y-143219500D01*
X153440308Y-143219500D01*
X153440185Y-143219492D01*
X153417615Y-143219494D01*
X153417444Y-143219444D01*
X153278672Y-143219456D01*
X153278665Y-143219457D01*
X153106274Y-143249870D01*
X153106257Y-143249874D01*
X152941769Y-143309758D01*
X152790164Y-143397300D01*
X152656069Y-143509833D01*
X152656059Y-143509842D01*
X152543544Y-143643945D01*
X152543538Y-143643953D01*
X152456019Y-143795554D01*
X152396144Y-143960068D01*
X152365748Y-144132461D01*
X152365748Y-144132469D01*
X151928749Y-144132469D01*
X151928749Y-143154110D01*
X151928749Y-143146265D01*
X151928700Y-143145528D01*
X151928701Y-143132477D01*
X151928700Y-143132469D01*
X167803748Y-143132469D01*
X167803749Y-143186373D01*
X167803749Y-157293618D01*
X167803799Y-157294382D01*
X167803799Y-157307529D01*
X167834194Y-157479918D01*
X167894065Y-157644423D01*
X167981583Y-157796022D01*
X167981584Y-157796023D01*
X168094097Y-157930123D01*
X168094099Y-157930124D01*
X168094101Y-157930127D01*
X168228194Y-158042657D01*
X168379789Y-158130194D01*
X168544281Y-158190079D01*
X168659209Y-158210354D01*
X168716672Y-158220492D01*
X168716673Y-158220492D01*
X168729140Y-158220492D01*
X168729234Y-158220500D01*
X168804200Y-158220500D01*
X168870092Y-158220507D01*
X168870094Y-158220506D01*
X168878185Y-158220507D01*
X168878308Y-158220500D01*
X174730188Y-158220500D01*
X174730310Y-158220507D01*
X174738401Y-158220506D01*
X174738404Y-158220507D01*
X174752878Y-158220505D01*
X174753043Y-158220553D01*
X174804296Y-158220548D01*
X174804296Y-158220549D01*
X174891828Y-158220541D01*
X175064228Y-158190127D01*
X175228729Y-158130240D01*
X175380332Y-158042698D01*
X175514432Y-157930163D01*
X175626955Y-157796052D01*
X175626955Y-157796050D01*
X175626958Y-157796048D01*
X175626959Y-157796046D01*
X175714476Y-157644448D01*
X175714481Y-157644440D01*
X175774352Y-157479933D01*
X175804750Y-157307529D01*
X175804749Y-157219998D01*
X175804749Y-157154106D01*
X175804749Y-143154110D01*
X175804749Y-143146265D01*
X175804700Y-143145528D01*
X175804701Y-143132477D01*
X175804700Y-143132469D01*
X224890248Y-143132469D01*
X224890249Y-143186373D01*
X224890249Y-157293618D01*
X224890299Y-157294382D01*
X224890299Y-157307529D01*
X224920694Y-157479918D01*
X224980565Y-157644423D01*
X225068083Y-157796022D01*
X225068084Y-157796023D01*
X225180597Y-157930123D01*
X225180599Y-157930124D01*
X225180601Y-157930127D01*
X225314694Y-158042657D01*
X225466289Y-158130194D01*
X225630781Y-158190079D01*
X225745709Y-158210354D01*
X225803172Y-158220492D01*
X225803173Y-158220492D01*
X225815640Y-158220492D01*
X225815734Y-158220500D01*
X225890700Y-158220500D01*
X225956592Y-158220507D01*
X225956594Y-158220506D01*
X225964685Y-158220507D01*
X225964808Y-158220500D01*
X231816688Y-158220500D01*
X231816810Y-158220507D01*
X231824901Y-158220506D01*
X231824904Y-158220507D01*
X231839378Y-158220505D01*
X231839543Y-158220553D01*
X231890796Y-158220548D01*
X231890796Y-158220549D01*
X231978328Y-158220541D01*
X232150728Y-158190127D01*
X232315229Y-158130240D01*
X232466832Y-158042698D01*
X232600932Y-157930163D01*
X232713455Y-157796052D01*
X232713455Y-157796050D01*
X232713458Y-157796048D01*
X232713459Y-157796046D01*
X232800976Y-157644448D01*
X232800981Y-157644440D01*
X232860852Y-157479933D01*
X232891250Y-157307529D01*
X232891249Y-157219998D01*
X232891249Y-157154106D01*
X232891249Y-144132469D01*
X233328248Y-144132469D01*
X233328249Y-144186373D01*
X233328249Y-157293618D01*
X233328299Y-157294382D01*
X233328299Y-157307529D01*
X233358694Y-157479918D01*
X233418565Y-157644423D01*
X233506083Y-157796022D01*
X233506084Y-157796023D01*
X233618597Y-157930123D01*
X233618599Y-157930124D01*
X233618601Y-157930127D01*
X233752694Y-158042657D01*
X233904289Y-158130194D01*
X234068781Y-158190079D01*
X234183709Y-158210354D01*
X234241172Y-158220492D01*
X234241173Y-158220492D01*
X234253640Y-158220492D01*
X234253734Y-158220500D01*
X234328700Y-158220500D01*
X234394592Y-158220507D01*
X234394594Y-158220506D01*
X234402685Y-158220507D01*
X234402808Y-158220500D01*
X247254688Y-158220500D01*
X247254810Y-158220507D01*
X247262901Y-158220506D01*
X247262904Y-158220507D01*
X247277378Y-158220505D01*
X247277543Y-158220553D01*
X247328796Y-158220548D01*
X247328796Y-158220549D01*
X247416328Y-158220541D01*
X247588728Y-158190127D01*
X247753229Y-158130240D01*
X247904832Y-158042698D01*
X248038932Y-157930163D01*
X248151455Y-157796052D01*
X248151455Y-157796050D01*
X248151458Y-157796048D01*
X248151459Y-157796046D01*
X248238976Y-157644448D01*
X248238981Y-157644440D01*
X248298852Y-157479933D01*
X248329250Y-157307529D01*
X248329249Y-157219998D01*
X248329249Y-157154106D01*
X248329249Y-144154110D01*
X248329249Y-144154109D01*
X248329249Y-144146265D01*
X248329200Y-144145528D01*
X248329201Y-144132477D01*
X248298806Y-143960081D01*
X248238937Y-143795582D01*
X248238934Y-143795576D01*
X248151419Y-143643982D01*
X248151417Y-143643980D01*
X248151416Y-143643978D01*
X248151415Y-143643977D01*
X248038898Y-143509873D01*
X247904805Y-143397342D01*
X247904804Y-143397341D01*
X247829007Y-143353573D01*
X247753209Y-143309805D01*
X247637978Y-143267854D01*
X247588714Y-143249919D01*
X247588706Y-143249917D01*
X247416333Y-143219509D01*
X247416325Y-143219508D01*
X247416323Y-143219508D01*
X247416315Y-143219507D01*
X247402937Y-143219506D01*
X247402835Y-143219500D01*
X247394640Y-143219500D01*
X247328796Y-143219500D01*
X247254810Y-143219492D01*
X247254688Y-143219500D01*
X234402808Y-143219500D01*
X234402685Y-143219492D01*
X234380115Y-143219494D01*
X234379944Y-143219444D01*
X234241172Y-143219456D01*
X234241165Y-143219457D01*
X234068774Y-143249870D01*
X234068757Y-143249874D01*
X233904269Y-143309758D01*
X233752664Y-143397300D01*
X233618569Y-143509833D01*
X233618559Y-143509842D01*
X233506044Y-143643945D01*
X233506038Y-143643953D01*
X233418519Y-143795554D01*
X233358644Y-143960068D01*
X233328248Y-144132461D01*
X233328248Y-144132469D01*
X232891249Y-144132469D01*
X232891249Y-143154110D01*
X232891249Y-143146265D01*
X232891200Y-143145528D01*
X232891201Y-143132477D01*
X232891200Y-143132469D01*
X248766248Y-143132469D01*
X248766249Y-143186373D01*
X248766249Y-157293618D01*
X248766299Y-157294382D01*
X248766299Y-157307529D01*
X248796694Y-157479918D01*
X248856565Y-157644423D01*
X248944083Y-157796022D01*
X248944084Y-157796023D01*
X249056597Y-157930123D01*
X249056599Y-157930124D01*
X249056601Y-157930127D01*
X249190694Y-158042657D01*
X249342289Y-158130194D01*
X249506781Y-158190079D01*
X249621709Y-158210354D01*
X249679172Y-158220492D01*
X249679173Y-158220492D01*
X249691640Y-158220492D01*
X249691734Y-158220500D01*
X249766700Y-158220500D01*
X249832592Y-158220507D01*
X249832594Y-158220506D01*
X249840685Y-158220507D01*
X249840808Y-158220500D01*
X255692688Y-158220500D01*
X255692810Y-158220507D01*
X255700901Y-158220506D01*
X255700904Y-158220507D01*
X255715378Y-158220505D01*
X255715543Y-158220553D01*
X255766796Y-158220548D01*
X255766796Y-158220549D01*
X255854328Y-158220541D01*
X256026728Y-158190127D01*
X256191229Y-158130240D01*
X256342832Y-158042698D01*
X256476932Y-157930163D01*
X256589455Y-157796052D01*
X256589455Y-157796050D01*
X256589458Y-157796048D01*
X256589459Y-157796046D01*
X256676976Y-157644448D01*
X256676981Y-157644440D01*
X256736852Y-157479933D01*
X256767250Y-157307529D01*
X256767250Y-157295880D01*
X269046999Y-157295880D01*
X269047000Y-157295893D01*
X269047000Y-157307533D01*
X269077398Y-157479935D01*
X269104587Y-157554635D01*
X269137054Y-157643838D01*
X269137274Y-157644441D01*
X269137277Y-157644448D01*
X269224808Y-157796056D01*
X269337329Y-157930155D01*
X269337330Y-157930155D01*
X269337336Y-157930162D01*
X269471444Y-158042692D01*
X269471446Y-158042693D01*
X269471450Y-158042696D01*
X269596603Y-158114953D01*
X269623055Y-158130225D01*
X269787562Y-158190100D01*
X269959967Y-158220500D01*
X269959969Y-158220500D01*
X283135029Y-158220500D01*
X283140215Y-158220500D01*
X283142419Y-158219296D01*
X283147244Y-158218346D01*
X283307434Y-158190100D01*
X283471942Y-158130225D01*
X283623553Y-158042693D01*
X283757661Y-157930163D01*
X283870191Y-157796055D01*
X283957724Y-157644444D01*
X284017600Y-157479936D01*
X284047999Y-157307531D01*
X284047999Y-157295880D01*
X292859499Y-157295880D01*
X292859500Y-157295893D01*
X292859500Y-157307533D01*
X292889898Y-157479935D01*
X292917087Y-157554635D01*
X292949554Y-157643838D01*
X292949774Y-157644441D01*
X292949777Y-157644448D01*
X293037308Y-157796056D01*
X293149829Y-157930155D01*
X293149830Y-157930155D01*
X293149836Y-157930162D01*
X293283944Y-158042692D01*
X293283946Y-158042693D01*
X293283950Y-158042696D01*
X293409103Y-158114953D01*
X293435555Y-158130225D01*
X293600062Y-158190100D01*
X293772467Y-158220500D01*
X293772469Y-158220500D01*
X306947529Y-158220500D01*
X306952715Y-158220500D01*
X306954919Y-158219296D01*
X306959744Y-158218346D01*
X307119934Y-158190100D01*
X307284442Y-158130225D01*
X307436053Y-158042693D01*
X307570161Y-157930163D01*
X307682691Y-157796055D01*
X307770224Y-157644444D01*
X307830100Y-157479936D01*
X307860499Y-157307531D01*
X307860499Y-157295880D01*
X311909499Y-157295880D01*
X311909500Y-157295893D01*
X311909500Y-157307533D01*
X311939898Y-157479935D01*
X311967087Y-157554635D01*
X311999554Y-157643838D01*
X311999774Y-157644441D01*
X311999777Y-157644448D01*
X312087308Y-157796056D01*
X312199829Y-157930155D01*
X312199830Y-157930155D01*
X312199836Y-157930162D01*
X312333944Y-158042692D01*
X312333946Y-158042693D01*
X312333950Y-158042696D01*
X312459103Y-158114953D01*
X312485555Y-158130225D01*
X312650062Y-158190100D01*
X312822467Y-158220500D01*
X312844108Y-158220500D01*
X319538356Y-158220500D01*
X319605395Y-158240185D01*
X319651150Y-158292989D01*
X319662356Y-158344500D01*
X319662356Y-160521402D01*
X319663417Y-160529461D01*
X319662602Y-160529568D01*
X319664954Y-160547423D01*
X319664954Y-160624013D01*
X319702682Y-160958871D01*
X319702683Y-160958875D01*
X319777664Y-161287412D01*
X319777670Y-161287433D01*
X319888958Y-161605495D01*
X319888961Y-161605502D01*
X319888962Y-161605504D01*
X320028883Y-161896074D01*
X320035172Y-161909133D01*
X320132026Y-162063286D01*
X320214449Y-162194471D01*
X320424548Y-162457950D01*
X320621902Y-162655324D01*
X320662824Y-162696250D01*
X320926270Y-162906367D01*
X320926276Y-162906371D01*
X320926282Y-162906376D01*
X320926871Y-162906746D01*
X321211608Y-163085685D01*
X321211607Y-163085685D01*
X321515215Y-163231922D01*
X321700766Y-163296865D01*
X321833287Y-163343249D01*
X322161822Y-163418266D01*
X322496691Y-163456029D01*
X322833682Y-163456064D01*
X323168558Y-163418371D01*
X323394573Y-163366812D01*
X323497092Y-163343427D01*
X323497096Y-163343425D01*
X323497108Y-163343423D01*
X323815203Y-163232163D01*
X324118841Y-163085989D01*
X324404205Y-162906740D01*
X324667707Y-162696669D01*
X324906033Y-162458419D01*
X325116187Y-162194984D01*
X325163391Y-162119887D01*
X325295523Y-161909684D01*
X325295524Y-161909681D01*
X325295527Y-161909677D01*
X325441797Y-161606085D01*
X325553159Y-161288026D01*
X325628211Y-160959499D01*
X325628281Y-160958879D01*
X325666010Y-160624646D01*
X325666010Y-160624641D01*
X325666011Y-160624635D01*
X325666046Y-160456140D01*
X325666060Y-160390248D01*
X325666059Y-160390246D01*
X325666488Y-158344473D01*
X325686187Y-158277439D01*
X325739000Y-158231695D01*
X325790488Y-158220500D01*
X326002715Y-158220500D01*
X326004919Y-158219296D01*
X326009744Y-158218346D01*
X326169934Y-158190100D01*
X326334442Y-158130225D01*
X326486053Y-158042693D01*
X326620161Y-157930163D01*
X326732691Y-157796055D01*
X326820224Y-157644444D01*
X326880100Y-157479936D01*
X326910499Y-157307531D01*
X326910499Y-157295880D01*
X330959499Y-157295880D01*
X330959500Y-157295893D01*
X330959500Y-157307533D01*
X330989898Y-157479935D01*
X331017087Y-157554635D01*
X331049554Y-157643838D01*
X331049774Y-157644441D01*
X331049777Y-157644448D01*
X331137308Y-157796056D01*
X331249829Y-157930155D01*
X331249830Y-157930155D01*
X331249836Y-157930162D01*
X331383944Y-158042692D01*
X331383946Y-158042693D01*
X331383950Y-158042696D01*
X331509103Y-158114953D01*
X331535555Y-158130225D01*
X331700062Y-158190100D01*
X331872467Y-158220500D01*
X331872469Y-158220500D01*
X345047529Y-158220500D01*
X345052715Y-158220500D01*
X345054919Y-158219296D01*
X345059744Y-158218346D01*
X345219934Y-158190100D01*
X345384442Y-158130225D01*
X345536053Y-158042693D01*
X345670161Y-157930163D01*
X345782691Y-157796055D01*
X345870224Y-157644444D01*
X345930100Y-157479936D01*
X345960499Y-157307531D01*
X345960499Y-157219998D01*
X345960499Y-157154106D01*
X345960499Y-144220004D01*
X345960500Y-144220004D01*
X345960501Y-144132471D01*
X345930101Y-143960065D01*
X345870226Y-143795557D01*
X345782693Y-143643945D01*
X345782691Y-143643943D01*
X345782691Y-143643942D01*
X345744326Y-143598221D01*
X345670163Y-143509837D01*
X345595998Y-143447605D01*
X345536057Y-143397308D01*
X345536053Y-143397306D01*
X345536050Y-143397304D01*
X345384443Y-143309774D01*
X345274771Y-143269857D01*
X345219936Y-143249899D01*
X345133732Y-143234699D01*
X345047529Y-143219499D01*
X345047528Y-143219499D01*
X344959996Y-143219500D01*
X332011363Y-143219500D01*
X332011360Y-143219499D01*
X331960000Y-143219499D01*
X331872467Y-143219499D01*
X331872464Y-143219499D01*
X331700060Y-143249899D01*
X331535559Y-143309772D01*
X331535549Y-143309776D01*
X331383946Y-143397304D01*
X331383940Y-143397309D01*
X331249837Y-143509835D01*
X331249835Y-143509838D01*
X331137305Y-143643945D01*
X331049776Y-143795551D01*
X331049773Y-143795558D01*
X330989897Y-143960064D01*
X330959499Y-144132466D01*
X330959499Y-157295880D01*
X326910499Y-157295880D01*
X326910499Y-157219998D01*
X326910499Y-157154106D01*
X326910499Y-144220004D01*
X326910500Y-144220004D01*
X326910501Y-144132471D01*
X326880101Y-143960065D01*
X326820226Y-143795557D01*
X326732693Y-143643945D01*
X326732691Y-143643943D01*
X326732691Y-143643942D01*
X326694326Y-143598221D01*
X326620163Y-143509837D01*
X326545998Y-143447605D01*
X326486057Y-143397308D01*
X326486053Y-143397306D01*
X326486050Y-143397304D01*
X326334443Y-143309774D01*
X326224771Y-143269857D01*
X326169936Y-143249899D01*
X326083732Y-143234699D01*
X325997529Y-143219499D01*
X325997528Y-143219499D01*
X325909996Y-143219500D01*
X312961363Y-143219500D01*
X312961360Y-143219499D01*
X312910000Y-143219499D01*
X312822467Y-143219499D01*
X312822464Y-143219499D01*
X312650060Y-143249899D01*
X312485559Y-143309772D01*
X312485549Y-143309776D01*
X312333946Y-143397304D01*
X312333940Y-143397309D01*
X312199837Y-143509835D01*
X312199835Y-143509838D01*
X312087305Y-143643945D01*
X311999776Y-143795551D01*
X311999773Y-143795558D01*
X311939897Y-143960064D01*
X311909499Y-144132466D01*
X311909499Y-157295880D01*
X307860499Y-157295880D01*
X307860499Y-157219998D01*
X307860499Y-157154106D01*
X307860499Y-144220004D01*
X307860500Y-144220004D01*
X307860501Y-144132471D01*
X307830101Y-143960065D01*
X307770226Y-143795557D01*
X307682693Y-143643945D01*
X307682691Y-143643943D01*
X307682691Y-143643942D01*
X307644326Y-143598221D01*
X307570163Y-143509837D01*
X307495998Y-143447605D01*
X307436057Y-143397308D01*
X307436053Y-143397306D01*
X307436050Y-143397304D01*
X307284443Y-143309774D01*
X307174771Y-143269857D01*
X307119936Y-143249899D01*
X307033732Y-143234699D01*
X306947529Y-143219499D01*
X306947528Y-143219499D01*
X306859996Y-143219500D01*
X293911363Y-143219500D01*
X293911360Y-143219499D01*
X293860000Y-143219499D01*
X293772467Y-143219499D01*
X293772464Y-143219499D01*
X293600060Y-143249899D01*
X293435559Y-143309772D01*
X293435549Y-143309776D01*
X293283946Y-143397304D01*
X293283940Y-143397309D01*
X293149837Y-143509835D01*
X293149835Y-143509838D01*
X293037305Y-143643945D01*
X292949776Y-143795551D01*
X292949773Y-143795558D01*
X292889897Y-143960064D01*
X292859499Y-144132466D01*
X292859499Y-157295880D01*
X284047999Y-157295880D01*
X284047999Y-157219998D01*
X284047999Y-157154106D01*
X284047999Y-144220004D01*
X284048000Y-144220004D01*
X284048001Y-144132471D01*
X284017601Y-143960065D01*
X283957726Y-143795557D01*
X283870193Y-143643945D01*
X283870191Y-143643943D01*
X283870191Y-143643942D01*
X283831826Y-143598221D01*
X283757663Y-143509837D01*
X283683498Y-143447605D01*
X283623557Y-143397308D01*
X283623553Y-143397306D01*
X283623550Y-143397304D01*
X283471943Y-143309774D01*
X283362271Y-143269857D01*
X283307436Y-143249899D01*
X283221232Y-143234699D01*
X283135029Y-143219499D01*
X283135028Y-143219499D01*
X283047496Y-143219500D01*
X270098863Y-143219500D01*
X270098860Y-143219499D01*
X270047500Y-143219499D01*
X269959967Y-143219499D01*
X269959964Y-143219499D01*
X269787560Y-143249899D01*
X269623059Y-143309772D01*
X269623049Y-143309776D01*
X269471446Y-143397304D01*
X269471440Y-143397309D01*
X269337337Y-143509835D01*
X269337335Y-143509838D01*
X269224805Y-143643945D01*
X269137276Y-143795551D01*
X269137273Y-143795558D01*
X269077397Y-143960064D01*
X269046999Y-144132466D01*
X269046999Y-157295880D01*
X256767250Y-157295880D01*
X256767249Y-157219998D01*
X256767249Y-157154106D01*
X256767249Y-143154110D01*
X256767249Y-143146265D01*
X256767200Y-143145528D01*
X256767201Y-143132477D01*
X256736806Y-142960081D01*
X256676937Y-142795582D01*
X256676934Y-142795576D01*
X256589419Y-142643982D01*
X256589417Y-142643980D01*
X256589416Y-142643978D01*
X256589415Y-142643977D01*
X256476898Y-142509873D01*
X256342805Y-142397342D01*
X256342804Y-142397341D01*
X256267007Y-142353573D01*
X256191209Y-142309805D01*
X256075978Y-142267854D01*
X256026714Y-142249919D01*
X256026706Y-142249917D01*
X255854333Y-142219509D01*
X255854325Y-142219508D01*
X255854323Y-142219508D01*
X255854315Y-142219507D01*
X255840937Y-142219506D01*
X255840835Y-142219500D01*
X255832640Y-142219500D01*
X255766796Y-142219500D01*
X255692810Y-142219492D01*
X255692688Y-142219500D01*
X249840808Y-142219500D01*
X249840685Y-142219492D01*
X249818115Y-142219494D01*
X249817944Y-142219444D01*
X249679172Y-142219456D01*
X249679165Y-142219457D01*
X249506774Y-142249870D01*
X249506757Y-142249874D01*
X249342269Y-142309758D01*
X249190664Y-142397300D01*
X249056569Y-142509833D01*
X249056559Y-142509842D01*
X248944044Y-142643945D01*
X248944038Y-142643953D01*
X248856519Y-142795554D01*
X248796644Y-142960068D01*
X248766248Y-143132461D01*
X248766248Y-143132469D01*
X232891200Y-143132469D01*
X232860806Y-142960081D01*
X232800937Y-142795582D01*
X232800934Y-142795576D01*
X232713419Y-142643982D01*
X232713417Y-142643980D01*
X232713416Y-142643978D01*
X232713415Y-142643977D01*
X232600898Y-142509873D01*
X232466805Y-142397342D01*
X232466804Y-142397341D01*
X232391007Y-142353573D01*
X232315209Y-142309805D01*
X232199978Y-142267854D01*
X232150714Y-142249919D01*
X232150706Y-142249917D01*
X231978333Y-142219509D01*
X231978325Y-142219508D01*
X231978323Y-142219508D01*
X231978315Y-142219507D01*
X231964937Y-142219506D01*
X231964835Y-142219500D01*
X231956640Y-142219500D01*
X231890796Y-142219500D01*
X231816810Y-142219492D01*
X231816688Y-142219500D01*
X225964808Y-142219500D01*
X225964685Y-142219492D01*
X225942115Y-142219494D01*
X225941944Y-142219444D01*
X225803172Y-142219456D01*
X225803165Y-142219457D01*
X225630774Y-142249870D01*
X225630757Y-142249874D01*
X225466269Y-142309758D01*
X225314664Y-142397300D01*
X225180569Y-142509833D01*
X225180559Y-142509842D01*
X225068044Y-142643945D01*
X225068038Y-142643953D01*
X224980519Y-142795554D01*
X224920644Y-142960068D01*
X224890248Y-143132461D01*
X224890248Y-143132469D01*
X175804700Y-143132469D01*
X175774306Y-142960081D01*
X175714437Y-142795582D01*
X175714434Y-142795576D01*
X175626919Y-142643982D01*
X175626917Y-142643980D01*
X175626916Y-142643978D01*
X175626915Y-142643977D01*
X175514398Y-142509873D01*
X175380305Y-142397342D01*
X175380304Y-142397341D01*
X175304507Y-142353573D01*
X175228709Y-142309805D01*
X175113478Y-142267854D01*
X175064214Y-142249919D01*
X175064206Y-142249917D01*
X174891833Y-142219509D01*
X174891825Y-142219508D01*
X174891823Y-142219508D01*
X174891815Y-142219507D01*
X174878437Y-142219506D01*
X174878335Y-142219500D01*
X174870140Y-142219500D01*
X174804296Y-142219500D01*
X174730310Y-142219492D01*
X174730188Y-142219500D01*
X168878308Y-142219500D01*
X168878185Y-142219492D01*
X168855615Y-142219494D01*
X168855444Y-142219444D01*
X168716672Y-142219456D01*
X168716665Y-142219457D01*
X168544274Y-142249870D01*
X168544257Y-142249874D01*
X168379769Y-142309758D01*
X168228164Y-142397300D01*
X168094069Y-142509833D01*
X168094059Y-142509842D01*
X167981544Y-142643945D01*
X167981538Y-142643953D01*
X167894019Y-142795554D01*
X167834144Y-142960068D01*
X167803748Y-143132461D01*
X167803748Y-143132469D01*
X151928700Y-143132469D01*
X151898306Y-142960081D01*
X151838437Y-142795582D01*
X151838434Y-142795576D01*
X151750919Y-142643982D01*
X151750917Y-142643980D01*
X151750916Y-142643978D01*
X151750915Y-142643977D01*
X151638398Y-142509873D01*
X151504305Y-142397342D01*
X151504304Y-142397341D01*
X151428507Y-142353573D01*
X151352709Y-142309805D01*
X151237478Y-142267854D01*
X151188214Y-142249919D01*
X151188206Y-142249917D01*
X151015833Y-142219509D01*
X151015825Y-142219508D01*
X151015823Y-142219508D01*
X151015815Y-142219507D01*
X151002437Y-142219506D01*
X151002335Y-142219500D01*
X150994140Y-142219500D01*
X150928296Y-142219500D01*
X150854310Y-142219492D01*
X150854188Y-142219500D01*
X145002308Y-142219500D01*
X145002185Y-142219492D01*
X144979615Y-142219494D01*
X144979444Y-142219444D01*
X144840672Y-142219456D01*
X144840665Y-142219457D01*
X144668274Y-142249870D01*
X144668257Y-142249874D01*
X144503769Y-142309758D01*
X144352164Y-142397300D01*
X144218069Y-142509833D01*
X144218059Y-142509842D01*
X144105544Y-142643945D01*
X144105538Y-142643953D01*
X144018019Y-142795554D01*
X143958144Y-142960068D01*
X143927748Y-143132461D01*
X143927748Y-143132469D01*
X62938309Y-143132469D01*
X62938309Y-134852367D01*
X62938349Y-134849237D01*
X62938415Y-134846596D01*
X62939050Y-134821455D01*
X62939365Y-134815223D01*
X62940835Y-134795901D01*
X62941465Y-134789696D01*
X62942877Y-134778585D01*
X62943858Y-134770856D01*
X62944791Y-134764748D01*
X62948080Y-134746331D01*
X62949319Y-134740283D01*
X62949325Y-134740259D01*
X62953473Y-134722289D01*
X62954996Y-134716366D01*
X62960005Y-134698730D01*
X62961797Y-134692965D01*
X62967653Y-134675661D01*
X62969736Y-134669974D01*
X62970078Y-134669107D01*
X62976392Y-134653093D01*
X62978728Y-134647571D01*
X62986204Y-134631036D01*
X62988780Y-134625689D01*
X62997075Y-134609495D01*
X62999901Y-134604295D01*
X63008930Y-134588597D01*
X63012015Y-134583519D01*
X63021826Y-134568216D01*
X63025122Y-134563339D01*
X63035667Y-134548513D01*
X63039181Y-134543815D01*
X63050454Y-134529473D01*
X63054153Y-134524992D01*
X63066127Y-134511173D01*
X63070036Y-134506873D01*
X63082621Y-134493677D01*
X63086793Y-134489506D01*
X63095583Y-134481127D01*
X63099961Y-134476954D01*
X63104284Y-134473025D01*
X63118108Y-134461053D01*
X63122606Y-134457343D01*
X63136946Y-134446077D01*
X63141609Y-134442590D01*
X63156486Y-134432014D01*
X63161327Y-134428744D01*
X63176666Y-134418914D01*
X63181716Y-134415848D01*
X63197422Y-134406819D01*
X63202671Y-134403969D01*
X63218823Y-134395700D01*
X63224213Y-134393103D01*
X63240724Y-134385640D01*
X63246259Y-134383300D01*
X63263200Y-134376623D01*
X63268852Y-134374555D01*
X63286104Y-134368719D01*
X63291968Y-134366897D01*
X63309547Y-134361907D01*
X63315527Y-134360369D01*
X63317315Y-134359956D01*
X63333516Y-134356218D01*
X63339569Y-134354980D01*
X63357965Y-134351696D01*
X63364097Y-134350760D01*
X63382950Y-134348365D01*
X63389150Y-134347736D01*
X63408494Y-134346265D01*
X63414687Y-134345951D01*
X63442562Y-134345248D01*
X63445618Y-134345210D01*
X65853539Y-134345210D01*
X65866608Y-134345901D01*
X65874302Y-134346716D01*
X65874303Y-134346715D01*
X65874304Y-134346716D01*
X65932264Y-134345249D01*
X65935399Y-134345210D01*
X66001540Y-134345210D01*
X66001540Y-134345442D01*
X66020158Y-134345955D01*
X66020207Y-134345066D01*
X66028321Y-134345511D01*
X66028328Y-134345513D01*
X66078289Y-134341713D01*
X66084517Y-134341398D01*
X66134607Y-134340132D01*
X66134612Y-134340130D01*
X66142639Y-134338867D01*
X66142838Y-134340131D01*
X66172549Y-134337871D01*
X66172555Y-134336587D01*
X66180677Y-134336622D01*
X66180685Y-134336624D01*
X66230457Y-134330298D01*
X66236618Y-134329674D01*
X66286606Y-134325873D01*
X66286614Y-134325869D01*
X66294557Y-134324204D01*
X66294849Y-134325598D01*
X66323060Y-134322016D01*
X66322995Y-134320582D01*
X66331109Y-134320210D01*
X66331109Y-134320209D01*
X66331111Y-134320210D01*
X66380534Y-134311382D01*
X66386655Y-134310447D01*
X66436448Y-134304121D01*
X66436456Y-134304117D01*
X66444309Y-134302052D01*
X66444708Y-134303569D01*
X66471435Y-134298798D01*
X66471284Y-134297224D01*
X66479363Y-134296445D01*
X66479373Y-134296446D01*
X66528331Y-134285144D01*
X66534400Y-134283903D01*
X66583872Y-134275069D01*
X66583874Y-134275068D01*
X66591614Y-134272609D01*
X66592128Y-134274229D01*
X66617431Y-134268393D01*
X66617182Y-134266695D01*
X66625220Y-134265514D01*
X66625223Y-134265513D01*
X66625226Y-134265513D01*
X66673670Y-134251754D01*
X66679611Y-134250226D01*
X66728652Y-134238908D01*
X66728659Y-134238904D01*
X66736265Y-134236062D01*
X66736905Y-134237774D01*
X66760825Y-134230983D01*
X66760468Y-134229176D01*
X66768441Y-134227597D01*
X66768443Y-134227596D01*
X66768448Y-134227596D01*
X66816214Y-134211431D01*
X66822043Y-134209619D01*
X66870553Y-134195844D01*
X66870559Y-134195839D01*
X66878020Y-134192620D01*
X66878792Y-134194408D01*
X66901409Y-134186758D01*
X66900933Y-134184852D01*
X66908806Y-134182885D01*
X66908818Y-134182884D01*
X66955832Y-134164344D01*
X66961510Y-134162266D01*
X67009362Y-134146075D01*
X67009370Y-134146069D01*
X67016654Y-134142487D01*
X67017563Y-134144335D01*
X67038947Y-134135906D01*
X67038346Y-134133919D01*
X67046118Y-134131567D01*
X67046124Y-134131567D01*
X67092229Y-134110721D01*
X67097764Y-134108380D01*
X67144870Y-134089807D01*
X67144875Y-134089803D01*
X67151980Y-134085862D01*
X67153027Y-134087749D01*
X67173229Y-134078617D01*
X67172500Y-134076570D01*
X67180157Y-134073840D01*
X67180157Y-134073839D01*
X67180161Y-134073839D01*
X67225283Y-134050727D01*
X67230683Y-134048125D01*
X67276874Y-134027243D01*
X67276875Y-134027241D01*
X67283780Y-134022956D01*
X67284973Y-134024879D01*
X67304090Y-134015091D01*
X67303222Y-134012984D01*
X67310731Y-134009888D01*
X67310738Y-134009887D01*
X67354751Y-133984578D01*
X67359990Y-133981732D01*
X67405180Y-133958588D01*
X67405186Y-133958581D01*
X67411865Y-133953972D01*
X67413195Y-133955899D01*
X67431295Y-133945495D01*
X67430293Y-133943362D01*
X67437649Y-133939906D01*
X67452242Y-133930550D01*
X67480455Y-133912461D01*
X67485509Y-133909389D01*
X67529605Y-133884036D01*
X67529607Y-133884033D01*
X67529610Y-133884032D01*
X67536063Y-133879099D01*
X67537614Y-133881128D01*
X67554753Y-133870179D01*
X67553537Y-133867884D01*
X67560710Y-133864081D01*
X67560723Y-133864077D01*
X67602194Y-133834585D01*
X67607118Y-133831258D01*
X67649959Y-133803794D01*
X67649962Y-133803789D01*
X67656148Y-133798570D01*
X67672902Y-133786658D01*
X67679761Y-133782592D01*
X67711760Y-133757444D01*
X67719823Y-133751107D01*
X67724535Y-133747583D01*
X67766073Y-133718045D01*
X67766076Y-133718041D01*
X67771863Y-133712660D01*
X67788054Y-133699938D01*
X67794581Y-133695633D01*
X67794591Y-133695629D01*
X67833150Y-133662226D01*
X67837626Y-133658531D01*
X67877759Y-133626995D01*
X67877765Y-133626986D01*
X67883204Y-133621422D01*
X67898779Y-133607931D01*
X67905024Y-133603370D01*
X67905033Y-133603366D01*
X67941975Y-133568142D01*
X67946285Y-133564225D01*
X67984855Y-133530817D01*
X67984858Y-133530811D01*
X67989976Y-133525048D01*
X68004901Y-133510818D01*
X68010890Y-133505991D01*
X68010890Y-133505990D01*
X68010893Y-133505989D01*
X68046120Y-133469039D01*
X68050249Y-133464911D01*
X68087181Y-133429701D01*
X68087183Y-133429697D01*
X68091997Y-133423723D01*
X68106237Y-133408786D01*
X68111997Y-133403670D01*
X68112009Y-133403663D01*
X68145402Y-133365110D01*
X68149373Y-133360743D01*
X68184553Y-133323845D01*
X68184552Y-133323845D01*
X68184557Y-133323841D01*
X68184560Y-133323835D01*
X68189122Y-133317588D01*
X68202612Y-133302015D01*
X68208180Y-133296574D01*
X68208183Y-133296569D01*
X68208187Y-133296567D01*
X68239723Y-133256434D01*
X68243418Y-133251958D01*
X68276821Y-133213399D01*
X68276825Y-133213389D01*
X68281130Y-133206862D01*
X68293852Y-133190671D01*
X68299233Y-133184884D01*
X68299237Y-133184881D01*
X68328775Y-133143343D01*
X68332299Y-133138631D01*
X68345578Y-133121734D01*
X68363784Y-133098569D01*
X68367850Y-133091710D01*
X68379762Y-133074956D01*
X68384981Y-133068770D01*
X68384986Y-133068767D01*
X68412450Y-133025926D01*
X68415777Y-133021002D01*
X68417805Y-133018148D01*
X68445269Y-132979531D01*
X68445273Y-132979518D01*
X68449076Y-132972345D01*
X68451371Y-132973561D01*
X68462320Y-132956422D01*
X68460291Y-132954871D01*
X68465224Y-132948418D01*
X68465225Y-132948415D01*
X68465228Y-132948413D01*
X68490581Y-132904317D01*
X68493653Y-132899263D01*
X68521098Y-132856457D01*
X68524554Y-132849101D01*
X68526687Y-132850103D01*
X68537091Y-132832003D01*
X68535164Y-132830673D01*
X68539773Y-132823994D01*
X68539780Y-132823988D01*
X68562924Y-132778798D01*
X68565770Y-132773559D01*
X68591079Y-132729546D01*
X68591080Y-132729539D01*
X68594176Y-132722030D01*
X68596283Y-132722898D01*
X68606071Y-132703781D01*
X68604148Y-132702588D01*
X68608434Y-132695683D01*
X68608433Y-132695683D01*
X68608435Y-132695682D01*
X68629317Y-132649491D01*
X68631919Y-132644091D01*
X68655031Y-132598969D01*
X68655032Y-132598965D01*
X68657762Y-132591308D01*
X68659809Y-132592037D01*
X68668941Y-132571835D01*
X68667054Y-132570788D01*
X68670995Y-132563683D01*
X68670999Y-132563678D01*
X68689572Y-132516572D01*
X68691913Y-132511037D01*
X68712759Y-132464932D01*
X68712759Y-132464926D01*
X68715111Y-132457154D01*
X68717098Y-132457755D01*
X68725528Y-132436368D01*
X68723681Y-132435459D01*
X68727265Y-132428174D01*
X68727265Y-132428171D01*
X68727267Y-132428170D01*
X68743456Y-132380323D01*
X68745546Y-132374618D01*
X68764076Y-132327626D01*
X68764076Y-132327622D01*
X68766047Y-132319733D01*
X68767957Y-132320210D01*
X68775607Y-132297595D01*
X68773815Y-132296821D01*
X68777034Y-132289367D01*
X68777036Y-132289361D01*
X68790825Y-132240803D01*
X68792612Y-132235057D01*
X68808788Y-132187255D01*
X68808788Y-132187251D01*
X68808790Y-132187246D01*
X68810368Y-132179274D01*
X68812182Y-132179633D01*
X68818971Y-132155715D01*
X68817254Y-132155073D01*
X68820096Y-132147467D01*
X68820100Y-132147460D01*
X68831418Y-132098419D01*
X68832946Y-132092478D01*
X68846705Y-132044034D01*
X68846705Y-132044031D01*
X68846706Y-132044028D01*
X68847887Y-132035990D01*
X68849585Y-132036239D01*
X68855423Y-132010938D01*
X68853800Y-132010423D01*
X68856259Y-132002683D01*
X68856261Y-132002680D01*
X68865095Y-131953208D01*
X68866340Y-131947124D01*
X68867849Y-131940588D01*
X68877638Y-131898181D01*
X68877637Y-131898171D01*
X68878416Y-131890092D01*
X68879989Y-131890243D01*
X68884762Y-131863513D01*
X68883244Y-131863114D01*
X68885310Y-131855262D01*
X68885313Y-131855255D01*
X68891640Y-131805464D01*
X68892576Y-131799335D01*
X68901402Y-131749919D01*
X68901402Y-131749918D01*
X68901774Y-131741802D01*
X68903209Y-131741867D01*
X68906792Y-131713662D01*
X68905396Y-131713370D01*
X68907063Y-131705419D01*
X68907065Y-131705415D01*
X68910864Y-131655437D01*
X68911492Y-131649246D01*
X68917816Y-131599492D01*
X68917814Y-131599484D01*
X68917779Y-131591361D01*
X68919060Y-131591355D01*
X68921319Y-131561645D01*
X68920059Y-131561447D01*
X68921322Y-131553420D01*
X68921324Y-131553415D01*
X68922590Y-131503325D01*
X68922905Y-131497097D01*
X68926705Y-131447136D01*
X68926703Y-131447129D01*
X68926258Y-131439015D01*
X68927384Y-131438953D01*
X68928174Y-131407747D01*
X68927051Y-131407628D01*
X68927908Y-131399542D01*
X68926641Y-131349462D01*
X68926641Y-131343188D01*
X68927908Y-131293114D01*
X68927051Y-131285029D01*
X68928171Y-131284910D01*
X68927380Y-131253673D01*
X68926258Y-131253612D01*
X68926704Y-131245498D01*
X68926705Y-131245495D01*
X68922904Y-131195515D01*
X68922589Y-131189270D01*
X68921324Y-131139213D01*
X68920060Y-131131185D01*
X68921317Y-131130987D01*
X68919060Y-131101249D01*
X68917779Y-131101244D01*
X68917816Y-131093113D01*
X68911498Y-131043391D01*
X68910866Y-131037160D01*
X68907067Y-130987189D01*
X68905398Y-130979233D01*
X68906791Y-130978940D01*
X68903209Y-130950721D01*
X68901774Y-130950787D01*
X68901402Y-130942668D01*
X68892582Y-130893277D01*
X68891640Y-130887105D01*
X68885316Y-130837328D01*
X68883249Y-130829472D01*
X68884759Y-130829074D01*
X68879985Y-130802321D01*
X68878417Y-130802472D01*
X68877639Y-130794392D01*
X68877640Y-130794388D01*
X68866336Y-130745410D01*
X68865098Y-130739360D01*
X68856265Y-130689887D01*
X68856260Y-130689878D01*
X68853804Y-130682142D01*
X68855423Y-130681627D01*
X68849586Y-130656315D01*
X68847889Y-130656565D01*
X68846707Y-130648517D01*
X68832961Y-130600107D01*
X68831421Y-130594120D01*
X68820107Y-130545097D01*
X68820106Y-130545092D01*
X68820103Y-130545086D01*
X68817259Y-130537478D01*
X68818965Y-130536839D01*
X68812171Y-130512898D01*
X68810367Y-130513256D01*
X68808790Y-130505286D01*
X68792634Y-130457536D01*
X68790818Y-130451699D01*
X68777041Y-130403177D01*
X68777039Y-130403173D01*
X68777038Y-130403170D01*
X68773819Y-130395713D01*
X68775603Y-130394942D01*
X68767953Y-130372313D01*
X68766047Y-130372789D01*
X68764078Y-130364905D01*
X68764078Y-130364900D01*
X68745550Y-130317909D01*
X68743466Y-130312216D01*
X68727274Y-130264358D01*
X68727272Y-130264355D01*
X68727271Y-130264352D01*
X68723683Y-130257057D01*
X68725523Y-130256151D01*
X68717095Y-130234765D01*
X68715115Y-130235365D01*
X68712762Y-130227586D01*
X68691926Y-130181497D01*
X68689559Y-130175900D01*
X68679827Y-130151218D01*
X68671004Y-130128839D01*
X68671002Y-130128836D01*
X68667060Y-130121729D01*
X68668927Y-130120692D01*
X68659791Y-130100467D01*
X68657760Y-130101192D01*
X68655033Y-130093543D01*
X68655032Y-130093538D01*
X68655029Y-130093532D01*
X68655028Y-130093529D01*
X68631937Y-130048446D01*
X68629324Y-130043024D01*
X68608440Y-129996828D01*
X68604156Y-129989927D01*
X68606046Y-129988753D01*
X68596255Y-129969621D01*
X68594180Y-129970477D01*
X68591082Y-129962961D01*
X68574208Y-129933615D01*
X68565778Y-129918955D01*
X68562916Y-129913685D01*
X68539782Y-129868516D01*
X68535164Y-129861826D01*
X68537089Y-129860496D01*
X68526691Y-129842390D01*
X68524552Y-129843396D01*
X68521098Y-129836045D01*
X68521096Y-129836039D01*
X68493653Y-129793234D01*
X68490572Y-129788162D01*
X68465229Y-129744088D01*
X68465226Y-129744085D01*
X68460288Y-129737625D01*
X68462126Y-129736219D01*
X68451135Y-129719053D01*
X68449072Y-129720147D01*
X68445269Y-129712971D01*
X68445266Y-129712966D01*
X68445265Y-129712964D01*
X68415766Y-129671484D01*
X68412463Y-129666593D01*
X68384983Y-129623731D01*
X68379751Y-129617532D01*
X68367852Y-129600796D01*
X68363780Y-129593928D01*
X68332299Y-129553872D01*
X68328740Y-129549113D01*
X68299232Y-129507619D01*
X68299230Y-129507618D01*
X68299228Y-129507614D01*
X68293835Y-129501814D01*
X68281124Y-129485639D01*
X68276813Y-129479102D01*
X68276810Y-129479095D01*
X68268642Y-129469666D01*
X68243434Y-129440567D01*
X68239662Y-129435997D01*
X68208177Y-129395934D01*
X68202603Y-129390488D01*
X68189116Y-129374918D01*
X68184547Y-129368661D01*
X68184546Y-129368659D01*
X68167420Y-129350698D01*
X68149348Y-129331745D01*
X68145367Y-129327366D01*
X68139758Y-129320891D01*
X68111995Y-129288842D01*
X68111993Y-129288840D01*
X68111989Y-129288836D01*
X68106219Y-129283714D01*
X68091999Y-129268800D01*
X68087168Y-129262806D01*
X68085501Y-129261217D01*
X68050235Y-129227596D01*
X68046079Y-129223440D01*
X68039966Y-129217029D01*
X68010877Y-129186522D01*
X68010870Y-129186518D01*
X68004879Y-129181689D01*
X67989971Y-129167477D01*
X67984838Y-129161697D01*
X67982873Y-129159995D01*
X67946274Y-129128295D01*
X67941951Y-129124367D01*
X67905011Y-129089151D01*
X67905008Y-129089148D01*
X67898750Y-129084580D01*
X67883182Y-129071097D01*
X67877739Y-129065528D01*
X67877736Y-129065524D01*
X67846459Y-129040948D01*
X67837664Y-129034037D01*
X67833095Y-129030267D01*
X67794568Y-128996898D01*
X67794567Y-128996897D01*
X67794565Y-128996896D01*
X67788012Y-128992575D01*
X67771841Y-128979869D01*
X67766049Y-128974484D01*
X67762975Y-128972298D01*
X67724520Y-128944956D01*
X67719787Y-128941416D01*
X67679726Y-128909939D01*
X67672851Y-128905863D01*
X67656126Y-128893973D01*
X67649933Y-128888747D01*
X67649932Y-128888746D01*
X67607078Y-128861276D01*
X67602170Y-128857961D01*
X67560690Y-128828468D01*
X67560688Y-128828467D01*
X67560685Y-128828465D01*
X67553508Y-128824663D01*
X67554634Y-128822537D01*
X67537488Y-128811534D01*
X67536027Y-128813446D01*
X67529574Y-128808512D01*
X67485520Y-128783185D01*
X67480410Y-128780081D01*
X67437618Y-128752652D01*
X67430259Y-128749196D01*
X67431234Y-128747118D01*
X67413140Y-128736702D01*
X67411837Y-128738591D01*
X67405149Y-128733974D01*
X67359986Y-128710847D01*
X67354703Y-128707978D01*
X67310703Y-128682683D01*
X67303190Y-128679587D01*
X67304036Y-128677531D01*
X67284911Y-128667735D01*
X67283745Y-128669615D01*
X67276840Y-128665330D01*
X67230682Y-128644465D01*
X67225243Y-128641845D01*
X67180123Y-128618741D01*
X67172466Y-128616012D01*
X67173186Y-128613991D01*
X67152980Y-128604859D01*
X67151947Y-128606723D01*
X67144839Y-128602781D01*
X67144837Y-128602780D01*
X67097781Y-128584229D01*
X67092189Y-128581864D01*
X67046085Y-128561026D01*
X67038304Y-128558673D01*
X67038900Y-128556701D01*
X67017526Y-128548276D01*
X67016624Y-128550112D01*
X67009329Y-128546524D01*
X66961483Y-128530336D01*
X66955758Y-128528241D01*
X66908780Y-128509722D01*
X66908776Y-128509721D01*
X66900888Y-128507752D01*
X66901360Y-128505859D01*
X66878740Y-128498210D01*
X66877975Y-128499984D01*
X66870518Y-128496764D01*
X66847140Y-128490127D01*
X66822007Y-128482991D01*
X66816186Y-128481181D01*
X66768417Y-128465021D01*
X66768413Y-128465020D01*
X66760449Y-128463445D01*
X66760804Y-128461646D01*
X66736874Y-128454854D01*
X66736237Y-128456559D01*
X66728623Y-128453712D01*
X66679588Y-128442397D01*
X66673606Y-128440859D01*
X66625191Y-128427114D01*
X66617147Y-128425933D01*
X66617395Y-128424240D01*
X66592106Y-128418407D01*
X66591593Y-128420023D01*
X66583848Y-128417562D01*
X66534387Y-128408731D01*
X66528304Y-128407487D01*
X66479351Y-128396191D01*
X66479348Y-128396190D01*
X66479345Y-128396190D01*
X66479341Y-128396190D01*
X66471258Y-128395413D01*
X66471408Y-128393844D01*
X66444684Y-128389074D01*
X66444287Y-128390587D01*
X66436428Y-128388519D01*
X66386656Y-128382195D01*
X66380493Y-128381254D01*
X66331088Y-128372434D01*
X66322971Y-128372062D01*
X66323036Y-128370632D01*
X66294841Y-128367051D01*
X66294550Y-128368443D01*
X66286591Y-128366773D01*
X66236629Y-128362975D01*
X66230401Y-128362343D01*
X66180673Y-128356025D01*
X66180669Y-128356025D01*
X66180668Y-128356025D01*
X66172543Y-128356062D01*
X66172537Y-128354783D01*
X66142827Y-128352524D01*
X66142629Y-128353783D01*
X66134598Y-128352518D01*
X66084531Y-128351253D01*
X66078266Y-128350936D01*
X66028317Y-128347139D01*
X66028316Y-128347139D01*
X66028315Y-128347139D01*
X66020197Y-128347586D01*
X66020148Y-128346702D01*
X66001534Y-128347213D01*
X66001534Y-128347444D01*
X65935386Y-128347444D01*
X65932252Y-128347404D01*
X65931471Y-128347384D01*
X65874303Y-128345938D01*
X65866624Y-128346753D01*
X65853548Y-128347444D01*
X63445640Y-128347444D01*
X63442506Y-128347404D01*
X63438923Y-128347313D01*
X63414763Y-128346701D01*
X63408500Y-128346384D01*
X63389201Y-128344916D01*
X63382970Y-128344283D01*
X63364160Y-128341892D01*
X63357990Y-128340950D01*
X63339658Y-128337674D01*
X63333576Y-128336430D01*
X63315603Y-128332280D01*
X63309616Y-128330739D01*
X63292068Y-128325754D01*
X63286203Y-128323930D01*
X63277770Y-128321076D01*
X63268982Y-128318101D01*
X63263258Y-128316005D01*
X63255559Y-128312969D01*
X63246404Y-128309358D01*
X63240807Y-128306990D01*
X63224336Y-128299541D01*
X63218893Y-128296918D01*
X63202815Y-128288681D01*
X63197532Y-128285811D01*
X63191029Y-128282071D01*
X63181843Y-128276787D01*
X63176730Y-128273680D01*
X63161482Y-128263901D01*
X63156552Y-128260570D01*
X63152794Y-128257897D01*
X63141746Y-128250039D01*
X63137007Y-128246493D01*
X63122741Y-128235279D01*
X63118177Y-128231512D01*
X63104417Y-128219590D01*
X63100037Y-128215608D01*
X63086867Y-128203048D01*
X63082689Y-128198869D01*
X63070143Y-128185707D01*
X63066167Y-128181331D01*
X63054267Y-128167591D01*
X63050490Y-128163014D01*
X63039256Y-128148714D01*
X63035705Y-128143965D01*
X63025185Y-128129169D01*
X63021851Y-128124232D01*
X63012075Y-128108981D01*
X63008981Y-128103888D01*
X62999940Y-128088162D01*
X62997082Y-128082899D01*
X62988838Y-128066800D01*
X62986217Y-128061359D01*
X62978759Y-128044861D01*
X62976416Y-128039323D01*
X62969721Y-128022340D01*
X62967664Y-128016718D01*
X62961822Y-127999452D01*
X62960006Y-127993610D01*
X62955009Y-127976012D01*
X62953468Y-127970022D01*
X62951781Y-127962710D01*
X62949319Y-127952040D01*
X62948084Y-127946002D01*
X62944792Y-127927573D01*
X62943862Y-127921477D01*
X62941461Y-127902589D01*
X62940834Y-127896401D01*
X62939366Y-127877093D01*
X62939051Y-127870897D01*
X62938347Y-127842999D01*
X62938309Y-127839942D01*
X62938309Y-125082469D01*
X71403248Y-125082469D01*
X71403249Y-125136373D01*
X71403249Y-138243618D01*
X71403299Y-138244382D01*
X71403299Y-138257529D01*
X71433694Y-138429918D01*
X71493565Y-138594423D01*
X71581083Y-138746022D01*
X71581084Y-138746023D01*
X71693597Y-138880123D01*
X71693599Y-138880124D01*
X71693601Y-138880127D01*
X71827694Y-138992657D01*
X71979289Y-139080194D01*
X72143781Y-139140079D01*
X72258709Y-139160354D01*
X72316172Y-139170492D01*
X72316173Y-139170492D01*
X72328640Y-139170492D01*
X72328734Y-139170500D01*
X72403700Y-139170500D01*
X72469592Y-139170507D01*
X72469594Y-139170506D01*
X72477685Y-139170507D01*
X72477808Y-139170500D01*
X85329688Y-139170500D01*
X85329810Y-139170507D01*
X85337901Y-139170506D01*
X85337904Y-139170507D01*
X85352378Y-139170505D01*
X85352543Y-139170553D01*
X85403796Y-139170548D01*
X85403796Y-139170549D01*
X85491328Y-139170541D01*
X85663728Y-139140127D01*
X85828229Y-139080240D01*
X85979832Y-138992698D01*
X86113932Y-138880163D01*
X86226455Y-138746052D01*
X86226455Y-138746050D01*
X86226458Y-138746048D01*
X86226459Y-138746046D01*
X86313976Y-138594448D01*
X86313981Y-138594440D01*
X86373852Y-138429933D01*
X86404250Y-138257529D01*
X86404250Y-138245880D01*
X97596999Y-138245880D01*
X97597000Y-138245893D01*
X97597000Y-138257533D01*
X97627398Y-138429935D01*
X97687274Y-138594441D01*
X97687277Y-138594448D01*
X97774808Y-138746056D01*
X97887329Y-138880155D01*
X97887330Y-138880155D01*
X97887336Y-138880162D01*
X98021444Y-138992692D01*
X98021446Y-138992693D01*
X98021450Y-138992696D01*
X98146603Y-139064953D01*
X98173055Y-139080225D01*
X98337562Y-139140100D01*
X98509967Y-139170500D01*
X98509969Y-139170500D01*
X111685029Y-139170500D01*
X111690215Y-139170500D01*
X111692419Y-139169296D01*
X111697244Y-139168346D01*
X111857434Y-139140100D01*
X112021942Y-139080225D01*
X112173553Y-138992693D01*
X112307661Y-138880163D01*
X112420191Y-138746055D01*
X112507724Y-138594444D01*
X112567600Y-138429936D01*
X112597999Y-138257531D01*
X112597999Y-138245880D01*
X116646999Y-138245880D01*
X116647000Y-138245893D01*
X116647000Y-138257533D01*
X116677398Y-138429935D01*
X116737274Y-138594441D01*
X116737277Y-138594448D01*
X116824808Y-138746056D01*
X116937329Y-138880155D01*
X116937330Y-138880155D01*
X116937336Y-138880162D01*
X117071444Y-138992692D01*
X117071446Y-138992693D01*
X117071450Y-138992696D01*
X117196603Y-139064953D01*
X117223055Y-139080225D01*
X117387562Y-139140100D01*
X117559967Y-139170500D01*
X117559969Y-139170500D01*
X130735029Y-139170500D01*
X130740215Y-139170500D01*
X130742419Y-139169296D01*
X130747244Y-139168346D01*
X130907434Y-139140100D01*
X131071942Y-139080225D01*
X131223553Y-138992693D01*
X131357661Y-138880163D01*
X131470191Y-138746055D01*
X131557724Y-138594444D01*
X131617600Y-138429936D01*
X131647999Y-138257531D01*
X131647999Y-138245880D01*
X135696999Y-138245880D01*
X135697000Y-138245893D01*
X135697000Y-138257533D01*
X135727398Y-138429935D01*
X135787274Y-138594441D01*
X135787277Y-138594448D01*
X135874808Y-138746056D01*
X135987329Y-138880155D01*
X135987330Y-138880155D01*
X135987336Y-138880162D01*
X136121444Y-138992692D01*
X136121446Y-138992693D01*
X136121450Y-138992696D01*
X136246603Y-139064953D01*
X136273055Y-139080225D01*
X136437562Y-139140100D01*
X136609967Y-139170500D01*
X136609969Y-139170500D01*
X149785029Y-139170500D01*
X149790215Y-139170500D01*
X149792419Y-139169296D01*
X149797244Y-139168346D01*
X149957434Y-139140100D01*
X150121942Y-139080225D01*
X150273553Y-138992693D01*
X150407661Y-138880163D01*
X150520191Y-138746055D01*
X150607724Y-138594444D01*
X150667600Y-138429936D01*
X150697999Y-138257531D01*
X150697999Y-138245880D01*
X154746999Y-138245880D01*
X154747000Y-138245893D01*
X154747000Y-138257533D01*
X154777398Y-138429935D01*
X154837274Y-138594441D01*
X154837277Y-138594448D01*
X154924808Y-138746056D01*
X155037329Y-138880155D01*
X155037330Y-138880155D01*
X155037336Y-138880162D01*
X155171444Y-138992692D01*
X155171446Y-138992693D01*
X155171450Y-138992696D01*
X155296603Y-139064953D01*
X155323055Y-139080225D01*
X155487562Y-139140100D01*
X155659967Y-139170500D01*
X155659969Y-139170500D01*
X168835029Y-139170500D01*
X168840215Y-139170500D01*
X168842419Y-139169296D01*
X168847244Y-139168346D01*
X169007434Y-139140100D01*
X169171942Y-139080225D01*
X169323553Y-138992693D01*
X169457661Y-138880163D01*
X169570191Y-138746055D01*
X169657724Y-138594444D01*
X169717600Y-138429936D01*
X169747999Y-138257531D01*
X169747999Y-138245880D01*
X173796999Y-138245880D01*
X173797000Y-138245893D01*
X173797000Y-138257533D01*
X173827398Y-138429935D01*
X173887274Y-138594441D01*
X173887277Y-138594448D01*
X173974808Y-138746056D01*
X174087329Y-138880155D01*
X174087330Y-138880155D01*
X174087336Y-138880162D01*
X174221444Y-138992692D01*
X174221446Y-138992693D01*
X174221450Y-138992696D01*
X174346603Y-139064953D01*
X174373055Y-139080225D01*
X174537562Y-139140100D01*
X174709967Y-139170500D01*
X174709969Y-139170500D01*
X187885029Y-139170500D01*
X187890215Y-139170500D01*
X187892419Y-139169296D01*
X187897244Y-139168346D01*
X188057434Y-139140100D01*
X188221942Y-139080225D01*
X188373553Y-138992693D01*
X188507661Y-138880163D01*
X188620191Y-138746055D01*
X188707724Y-138594444D01*
X188767600Y-138429936D01*
X188797999Y-138257531D01*
X188797999Y-138245880D01*
X216659499Y-138245880D01*
X216659500Y-138245893D01*
X216659500Y-138257533D01*
X216689898Y-138429935D01*
X216749774Y-138594441D01*
X216749777Y-138594448D01*
X216837308Y-138746056D01*
X216949829Y-138880155D01*
X216949830Y-138880155D01*
X216949836Y-138880162D01*
X217083944Y-138992692D01*
X217083946Y-138992693D01*
X217083950Y-138992696D01*
X217209103Y-139064953D01*
X217235555Y-139080225D01*
X217400062Y-139140100D01*
X217572467Y-139170500D01*
X217572469Y-139170500D01*
X230747529Y-139170500D01*
X230752715Y-139170500D01*
X230754919Y-139169296D01*
X230759744Y-139168346D01*
X230919934Y-139140100D01*
X231084442Y-139080225D01*
X231236053Y-138992693D01*
X231370161Y-138880163D01*
X231482691Y-138746055D01*
X231570224Y-138594444D01*
X231630100Y-138429936D01*
X231660499Y-138257531D01*
X231660499Y-138245880D01*
X235709499Y-138245880D01*
X235709500Y-138245893D01*
X235709500Y-138257533D01*
X235739898Y-138429935D01*
X235799774Y-138594441D01*
X235799777Y-138594448D01*
X235887308Y-138746056D01*
X235999829Y-138880155D01*
X235999830Y-138880155D01*
X235999836Y-138880162D01*
X236133944Y-138992692D01*
X236133946Y-138992693D01*
X236133950Y-138992696D01*
X236259103Y-139064953D01*
X236285555Y-139080225D01*
X236450062Y-139140100D01*
X236622467Y-139170500D01*
X236622469Y-139170500D01*
X249797529Y-139170500D01*
X249802715Y-139170500D01*
X249804919Y-139169296D01*
X249809744Y-139168346D01*
X249969934Y-139140100D01*
X250134442Y-139080225D01*
X250286053Y-138992693D01*
X250420161Y-138880163D01*
X250532691Y-138746055D01*
X250620224Y-138594444D01*
X250680100Y-138429936D01*
X250710499Y-138257531D01*
X250710499Y-138245880D01*
X254759499Y-138245880D01*
X254759500Y-138245893D01*
X254759500Y-138257533D01*
X254789898Y-138429935D01*
X254849774Y-138594441D01*
X254849777Y-138594448D01*
X254937308Y-138746056D01*
X255049829Y-138880155D01*
X255049830Y-138880155D01*
X255049836Y-138880162D01*
X255183944Y-138992692D01*
X255183946Y-138992693D01*
X255183950Y-138992696D01*
X255309103Y-139064953D01*
X255335555Y-139080225D01*
X255500062Y-139140100D01*
X255672467Y-139170500D01*
X255672469Y-139170500D01*
X268847529Y-139170500D01*
X268852715Y-139170500D01*
X268854919Y-139169296D01*
X268859744Y-139168346D01*
X269019934Y-139140100D01*
X269184442Y-139080225D01*
X269336053Y-138992693D01*
X269470161Y-138880163D01*
X269582691Y-138746055D01*
X269670224Y-138594444D01*
X269730100Y-138429936D01*
X269760499Y-138257531D01*
X269760499Y-138245880D01*
X273809499Y-138245880D01*
X273809500Y-138245893D01*
X273809500Y-138257533D01*
X273839898Y-138429935D01*
X273899774Y-138594441D01*
X273899777Y-138594448D01*
X273987308Y-138746056D01*
X274099829Y-138880155D01*
X274099830Y-138880155D01*
X274099836Y-138880162D01*
X274233944Y-138992692D01*
X274233946Y-138992693D01*
X274233950Y-138992696D01*
X274359103Y-139064953D01*
X274385555Y-139080225D01*
X274550062Y-139140100D01*
X274722467Y-139170500D01*
X274722469Y-139170500D01*
X287897529Y-139170500D01*
X287902715Y-139170500D01*
X287904919Y-139169296D01*
X287909744Y-139168346D01*
X288069934Y-139140100D01*
X288234442Y-139080225D01*
X288386053Y-138992693D01*
X288520161Y-138880163D01*
X288632691Y-138746055D01*
X288720224Y-138594444D01*
X288780100Y-138429936D01*
X288810499Y-138257531D01*
X288810499Y-138245880D01*
X292859499Y-138245880D01*
X292859500Y-138245893D01*
X292859500Y-138257533D01*
X292889898Y-138429935D01*
X292949774Y-138594441D01*
X292949777Y-138594448D01*
X293037308Y-138746056D01*
X293149829Y-138880155D01*
X293149830Y-138880155D01*
X293149836Y-138880162D01*
X293283944Y-138992692D01*
X293283946Y-138992693D01*
X293283950Y-138992696D01*
X293409103Y-139064953D01*
X293435555Y-139080225D01*
X293600062Y-139140100D01*
X293772467Y-139170500D01*
X293772469Y-139170500D01*
X306947529Y-139170500D01*
X306952715Y-139170500D01*
X306954919Y-139169296D01*
X306959744Y-139168346D01*
X307119934Y-139140100D01*
X307284442Y-139080225D01*
X307436053Y-138992693D01*
X307570161Y-138880163D01*
X307682691Y-138746055D01*
X307770224Y-138594444D01*
X307830100Y-138429936D01*
X307860499Y-138257531D01*
X307860499Y-138245880D01*
X311909499Y-138245880D01*
X311909500Y-138245893D01*
X311909500Y-138257533D01*
X311939898Y-138429935D01*
X311999774Y-138594441D01*
X311999777Y-138594448D01*
X312087308Y-138746056D01*
X312199829Y-138880155D01*
X312199830Y-138880155D01*
X312199836Y-138880162D01*
X312333944Y-138992692D01*
X312333946Y-138992693D01*
X312333950Y-138992696D01*
X312459103Y-139064953D01*
X312485555Y-139080225D01*
X312650062Y-139140100D01*
X312822467Y-139170500D01*
X312822469Y-139170500D01*
X325997529Y-139170500D01*
X326002715Y-139170500D01*
X326004919Y-139169296D01*
X326009744Y-139168346D01*
X326169934Y-139140100D01*
X326334442Y-139080225D01*
X326486053Y-138992693D01*
X326620161Y-138880163D01*
X326732691Y-138746055D01*
X326820224Y-138594444D01*
X326880100Y-138429936D01*
X326910499Y-138257531D01*
X326910499Y-138169998D01*
X326910499Y-138104106D01*
X326910499Y-125170004D01*
X326910500Y-125170004D01*
X326910501Y-125082471D01*
X326880101Y-124910065D01*
X326820226Y-124745557D01*
X326732693Y-124593945D01*
X326732691Y-124593943D01*
X326732691Y-124593942D01*
X326694326Y-124548221D01*
X326620163Y-124459837D01*
X326500037Y-124359039D01*
X326486057Y-124347308D01*
X326486053Y-124347306D01*
X326486050Y-124347304D01*
X326334443Y-124259774D01*
X326224771Y-124219857D01*
X326169936Y-124199899D01*
X326083732Y-124184699D01*
X325997529Y-124169499D01*
X325997528Y-124169499D01*
X325909996Y-124169500D01*
X312961363Y-124169500D01*
X312961360Y-124169499D01*
X312910000Y-124169499D01*
X312822467Y-124169499D01*
X312822464Y-124169499D01*
X312650060Y-124199899D01*
X312485559Y-124259772D01*
X312485549Y-124259776D01*
X312333946Y-124347304D01*
X312333940Y-124347309D01*
X312199837Y-124459835D01*
X312199835Y-124459838D01*
X312087305Y-124593945D01*
X311999776Y-124745551D01*
X311999773Y-124745558D01*
X311939897Y-124910064D01*
X311909499Y-125082466D01*
X311909499Y-138245880D01*
X307860499Y-138245880D01*
X307860499Y-138169998D01*
X307860499Y-138104106D01*
X307860499Y-125170004D01*
X307860500Y-125170004D01*
X307860501Y-125082471D01*
X307830101Y-124910065D01*
X307770226Y-124745557D01*
X307682693Y-124593945D01*
X307682691Y-124593943D01*
X307682691Y-124593942D01*
X307644326Y-124548221D01*
X307570163Y-124459837D01*
X307450037Y-124359039D01*
X307436057Y-124347308D01*
X307436053Y-124347306D01*
X307436050Y-124347304D01*
X307284443Y-124259774D01*
X307174771Y-124219857D01*
X307119936Y-124199899D01*
X307033732Y-124184699D01*
X306947529Y-124169499D01*
X306947528Y-124169499D01*
X306859996Y-124169500D01*
X293911363Y-124169500D01*
X293911360Y-124169499D01*
X293860000Y-124169499D01*
X293772467Y-124169499D01*
X293772464Y-124169499D01*
X293600060Y-124199899D01*
X293435559Y-124259772D01*
X293435549Y-124259776D01*
X293283946Y-124347304D01*
X293283940Y-124347309D01*
X293149837Y-124459835D01*
X293149835Y-124459838D01*
X293037305Y-124593945D01*
X292949776Y-124745551D01*
X292949773Y-124745558D01*
X292889897Y-124910064D01*
X292859499Y-125082466D01*
X292859499Y-138245880D01*
X288810499Y-138245880D01*
X288810499Y-138169998D01*
X288810499Y-138104106D01*
X288810499Y-125170004D01*
X288810500Y-125170004D01*
X288810501Y-125082471D01*
X288780101Y-124910065D01*
X288720226Y-124745557D01*
X288632693Y-124593945D01*
X288632691Y-124593943D01*
X288632691Y-124593942D01*
X288594326Y-124548221D01*
X288520163Y-124459837D01*
X288400037Y-124359039D01*
X288386057Y-124347308D01*
X288386053Y-124347306D01*
X288386050Y-124347304D01*
X288234443Y-124259774D01*
X288124771Y-124219857D01*
X288069936Y-124199899D01*
X287983732Y-124184699D01*
X287897529Y-124169499D01*
X287897528Y-124169499D01*
X287809996Y-124169500D01*
X274861363Y-124169500D01*
X274861360Y-124169499D01*
X274810000Y-124169499D01*
X274722467Y-124169499D01*
X274722464Y-124169499D01*
X274550060Y-124199899D01*
X274385559Y-124259772D01*
X274385549Y-124259776D01*
X274233946Y-124347304D01*
X274233940Y-124347309D01*
X274099837Y-124459835D01*
X274099835Y-124459838D01*
X273987305Y-124593945D01*
X273899776Y-124745551D01*
X273899773Y-124745558D01*
X273839897Y-124910064D01*
X273809499Y-125082466D01*
X273809499Y-138245880D01*
X269760499Y-138245880D01*
X269760499Y-138169998D01*
X269760499Y-138104106D01*
X269760499Y-125170004D01*
X269760500Y-125170004D01*
X269760501Y-125082471D01*
X269730101Y-124910065D01*
X269670226Y-124745557D01*
X269582693Y-124593945D01*
X269582691Y-124593943D01*
X269582691Y-124593942D01*
X269544326Y-124548221D01*
X269470163Y-124459837D01*
X269350037Y-124359039D01*
X269336057Y-124347308D01*
X269336053Y-124347306D01*
X269336050Y-124347304D01*
X269184443Y-124259774D01*
X269074771Y-124219857D01*
X269019936Y-124199899D01*
X268933732Y-124184699D01*
X268847529Y-124169499D01*
X268847528Y-124169499D01*
X268759996Y-124169500D01*
X255811363Y-124169500D01*
X255811360Y-124169499D01*
X255760000Y-124169499D01*
X255672467Y-124169499D01*
X255672464Y-124169499D01*
X255500060Y-124199899D01*
X255335559Y-124259772D01*
X255335549Y-124259776D01*
X255183946Y-124347304D01*
X255183940Y-124347309D01*
X255049837Y-124459835D01*
X255049835Y-124459838D01*
X254937305Y-124593945D01*
X254849776Y-124745551D01*
X254849773Y-124745558D01*
X254789897Y-124910064D01*
X254759499Y-125082466D01*
X254759499Y-138245880D01*
X250710499Y-138245880D01*
X250710499Y-138169998D01*
X250710499Y-138104106D01*
X250710499Y-125170004D01*
X250710500Y-125170004D01*
X250710501Y-125082471D01*
X250680101Y-124910065D01*
X250620226Y-124745557D01*
X250532693Y-124593945D01*
X250532691Y-124593943D01*
X250532691Y-124593942D01*
X250494326Y-124548221D01*
X250420163Y-124459837D01*
X250300037Y-124359039D01*
X250286057Y-124347308D01*
X250286053Y-124347306D01*
X250286050Y-124347304D01*
X250134443Y-124259774D01*
X250024771Y-124219857D01*
X249969936Y-124199899D01*
X249883732Y-124184699D01*
X249797529Y-124169499D01*
X249797528Y-124169499D01*
X249709996Y-124169500D01*
X236761363Y-124169500D01*
X236761360Y-124169499D01*
X236710000Y-124169499D01*
X236622467Y-124169499D01*
X236622464Y-124169499D01*
X236450060Y-124199899D01*
X236285559Y-124259772D01*
X236285549Y-124259776D01*
X236133946Y-124347304D01*
X236133940Y-124347309D01*
X235999837Y-124459835D01*
X235999835Y-124459838D01*
X235887305Y-124593945D01*
X235799776Y-124745551D01*
X235799773Y-124745558D01*
X235739897Y-124910064D01*
X235709499Y-125082466D01*
X235709499Y-138245880D01*
X231660499Y-138245880D01*
X231660499Y-138169998D01*
X231660499Y-138104106D01*
X231660499Y-125170004D01*
X231660500Y-125170004D01*
X231660501Y-125082471D01*
X231630101Y-124910065D01*
X231570226Y-124745557D01*
X231482693Y-124593945D01*
X231482691Y-124593943D01*
X231482691Y-124593942D01*
X231444326Y-124548221D01*
X231370163Y-124459837D01*
X231250037Y-124359039D01*
X231236057Y-124347308D01*
X231236053Y-124347306D01*
X231236050Y-124347304D01*
X231084443Y-124259774D01*
X230974771Y-124219857D01*
X230919936Y-124199899D01*
X230833732Y-124184699D01*
X230747529Y-124169499D01*
X230747528Y-124169499D01*
X230659996Y-124169500D01*
X217711363Y-124169500D01*
X217711360Y-124169499D01*
X217660000Y-124169499D01*
X217572467Y-124169499D01*
X217572464Y-124169499D01*
X217400060Y-124199899D01*
X217235559Y-124259772D01*
X217235549Y-124259776D01*
X217083946Y-124347304D01*
X217083940Y-124347309D01*
X216949837Y-124459835D01*
X216949835Y-124459838D01*
X216837305Y-124593945D01*
X216749776Y-124745551D01*
X216749773Y-124745558D01*
X216689897Y-124910064D01*
X216659499Y-125082466D01*
X216659499Y-138245880D01*
X188797999Y-138245880D01*
X188797999Y-138169998D01*
X188797999Y-138104106D01*
X188797999Y-125170004D01*
X188798000Y-125170004D01*
X188798001Y-125082471D01*
X188797999Y-125082465D01*
X188798000Y-125077942D01*
X188817685Y-125010903D01*
X188870489Y-124965148D01*
X188939648Y-124955205D01*
X188999313Y-124980996D01*
X189112107Y-125070946D01*
X189397460Y-125250246D01*
X189701095Y-125396469D01*
X189939994Y-125480063D01*
X190019180Y-125507772D01*
X190019192Y-125507776D01*
X190347752Y-125582767D01*
X190682638Y-125620499D01*
X190682639Y-125620500D01*
X190682642Y-125620500D01*
X191019653Y-125620500D01*
X191019653Y-125620499D01*
X191354540Y-125582767D01*
X191683100Y-125507776D01*
X192001197Y-125396469D01*
X192304832Y-125250246D01*
X192590185Y-125070946D01*
X192853669Y-124860825D01*
X193091971Y-124622523D01*
X193302092Y-124359039D01*
X193481392Y-124073686D01*
X193627615Y-123770051D01*
X193738922Y-123451954D01*
X193813913Y-123123394D01*
X193851646Y-122788504D01*
X193851646Y-122620000D01*
X193851646Y-122554108D01*
X193851646Y-120244500D01*
X193871331Y-120177461D01*
X193924135Y-120131706D01*
X193975646Y-120120500D01*
X197415215Y-120120500D01*
X197417419Y-120119296D01*
X197422244Y-120118346D01*
X197582434Y-120090100D01*
X197746942Y-120030225D01*
X197898553Y-119942693D01*
X198032661Y-119830163D01*
X198145191Y-119696055D01*
X198232724Y-119544444D01*
X198292600Y-119379936D01*
X198322999Y-119207531D01*
X198322999Y-119119998D01*
X198322999Y-119054106D01*
X198322999Y-112624008D01*
X202084810Y-112624008D01*
X202122541Y-112958880D01*
X202122543Y-112958896D01*
X202197533Y-113287451D01*
X202197537Y-113287463D01*
X202308838Y-113605542D01*
X202308844Y-113605556D01*
X202455062Y-113909180D01*
X202455064Y-113909183D01*
X202634363Y-114194536D01*
X202710060Y-114289456D01*
X202842068Y-114454989D01*
X202844485Y-114458019D01*
X203082786Y-114696320D01*
X203346270Y-114906441D01*
X203544566Y-115031038D01*
X203631629Y-115085743D01*
X203935246Y-115231956D01*
X203935253Y-115231958D01*
X203935258Y-115231961D01*
X204174157Y-115315555D01*
X204253343Y-115343264D01*
X204253355Y-115343268D01*
X204581914Y-115418258D01*
X204581917Y-115418258D01*
X204581920Y-115418259D01*
X204581919Y-115418259D01*
X204730223Y-115434968D01*
X204916803Y-115455991D01*
X205085307Y-115455990D01*
X205151199Y-115455990D01*
X207010499Y-115455990D01*
X207077538Y-115475675D01*
X207123293Y-115528479D01*
X207134499Y-115579990D01*
X207134499Y-119195880D01*
X207134500Y-119195893D01*
X207134500Y-119207533D01*
X207164898Y-119379935D01*
X207224774Y-119544441D01*
X207224777Y-119544448D01*
X207312308Y-119696056D01*
X207424829Y-119830155D01*
X207424830Y-119830155D01*
X207424836Y-119830162D01*
X207558944Y-119942692D01*
X207558946Y-119942693D01*
X207558950Y-119942696D01*
X207684103Y-120014953D01*
X207710555Y-120030225D01*
X207875062Y-120090100D01*
X208047467Y-120120500D01*
X208047469Y-120120500D01*
X221222529Y-120120500D01*
X221227715Y-120120500D01*
X221229919Y-120119296D01*
X221234744Y-120118346D01*
X221394934Y-120090100D01*
X221559442Y-120030225D01*
X221711053Y-119942693D01*
X221845161Y-119830163D01*
X221957691Y-119696055D01*
X222045224Y-119544444D01*
X222105100Y-119379936D01*
X222135499Y-119207531D01*
X222135499Y-119195880D01*
X226184499Y-119195880D01*
X226184500Y-119195893D01*
X226184500Y-119207533D01*
X226214898Y-119379935D01*
X226274774Y-119544441D01*
X226274777Y-119544448D01*
X226362308Y-119696056D01*
X226474829Y-119830155D01*
X226474830Y-119830155D01*
X226474836Y-119830162D01*
X226608944Y-119942692D01*
X226608946Y-119942693D01*
X226608950Y-119942696D01*
X226734103Y-120014953D01*
X226760555Y-120030225D01*
X226925062Y-120090100D01*
X227097467Y-120120500D01*
X227097469Y-120120500D01*
X240272529Y-120120500D01*
X240277715Y-120120500D01*
X240279919Y-120119296D01*
X240284744Y-120118346D01*
X240444934Y-120090100D01*
X240609442Y-120030225D01*
X240761053Y-119942693D01*
X240895161Y-119830163D01*
X241007691Y-119696055D01*
X241095224Y-119544444D01*
X241155100Y-119379936D01*
X241185499Y-119207531D01*
X241185499Y-119195880D01*
X245234499Y-119195880D01*
X245234500Y-119195893D01*
X245234500Y-119207533D01*
X245264898Y-119379935D01*
X245324774Y-119544441D01*
X245324777Y-119544448D01*
X245412308Y-119696056D01*
X245524829Y-119830155D01*
X245524830Y-119830155D01*
X245524836Y-119830162D01*
X245658944Y-119942692D01*
X245658946Y-119942693D01*
X245658950Y-119942696D01*
X245784103Y-120014953D01*
X245810555Y-120030225D01*
X245975062Y-120090100D01*
X246147467Y-120120500D01*
X246147469Y-120120500D01*
X259322529Y-120120500D01*
X259327715Y-120120500D01*
X259329919Y-120119296D01*
X259334744Y-120118346D01*
X259494934Y-120090100D01*
X259659442Y-120030225D01*
X259811053Y-119942693D01*
X259945161Y-119830163D01*
X260057691Y-119696055D01*
X260145224Y-119544444D01*
X260205100Y-119379936D01*
X260235499Y-119207531D01*
X260235499Y-119195880D01*
X264284499Y-119195880D01*
X264284500Y-119195893D01*
X264284500Y-119207533D01*
X264314898Y-119379935D01*
X264374774Y-119544441D01*
X264374777Y-119544448D01*
X264462308Y-119696056D01*
X264574829Y-119830155D01*
X264574830Y-119830155D01*
X264574836Y-119830162D01*
X264708944Y-119942692D01*
X264708946Y-119942693D01*
X264708950Y-119942696D01*
X264834103Y-120014953D01*
X264860555Y-120030225D01*
X265025062Y-120090100D01*
X265197467Y-120120500D01*
X265197469Y-120120500D01*
X278372529Y-120120500D01*
X278377715Y-120120500D01*
X278379919Y-120119296D01*
X278384744Y-120118346D01*
X278544934Y-120090100D01*
X278709442Y-120030225D01*
X278861053Y-119942693D01*
X278995161Y-119830163D01*
X279107691Y-119696055D01*
X279195224Y-119544444D01*
X279255100Y-119379936D01*
X279285499Y-119207531D01*
X279285499Y-119195880D01*
X283334499Y-119195880D01*
X283334500Y-119195893D01*
X283334500Y-119207533D01*
X283364898Y-119379935D01*
X283424774Y-119544441D01*
X283424777Y-119544448D01*
X283512308Y-119696056D01*
X283624829Y-119830155D01*
X283624830Y-119830155D01*
X283624836Y-119830162D01*
X283758944Y-119942692D01*
X283758946Y-119942693D01*
X283758950Y-119942696D01*
X283884103Y-120014953D01*
X283910555Y-120030225D01*
X284075062Y-120090100D01*
X284247467Y-120120500D01*
X284247469Y-120120500D01*
X297422529Y-120120500D01*
X297427715Y-120120500D01*
X297429919Y-120119296D01*
X297434744Y-120118346D01*
X297594934Y-120090100D01*
X297759442Y-120030225D01*
X297911053Y-119942693D01*
X298045161Y-119830163D01*
X298157691Y-119696055D01*
X298245224Y-119544444D01*
X298305100Y-119379936D01*
X298335499Y-119207531D01*
X298335499Y-119195880D01*
X302384499Y-119195880D01*
X302384500Y-119195893D01*
X302384500Y-119207533D01*
X302414898Y-119379935D01*
X302474774Y-119544441D01*
X302474777Y-119544448D01*
X302562308Y-119696056D01*
X302674829Y-119830155D01*
X302674830Y-119830155D01*
X302674836Y-119830162D01*
X302808944Y-119942692D01*
X302808946Y-119942693D01*
X302808950Y-119942696D01*
X302934103Y-120014953D01*
X302960555Y-120030225D01*
X303125062Y-120090100D01*
X303297467Y-120120500D01*
X303297469Y-120120500D01*
X316472529Y-120120500D01*
X316477715Y-120120500D01*
X316479919Y-120119296D01*
X316484744Y-120118346D01*
X316644934Y-120090100D01*
X316809442Y-120030225D01*
X316961053Y-119942693D01*
X317095161Y-119830163D01*
X317207691Y-119696055D01*
X317295224Y-119544444D01*
X317355100Y-119379936D01*
X317385499Y-119207531D01*
X317385499Y-119119998D01*
X317385499Y-119054106D01*
X317385499Y-106120004D01*
X317385500Y-106120004D01*
X317385501Y-106032471D01*
X317355101Y-105860065D01*
X317295226Y-105695557D01*
X317207693Y-105543945D01*
X317207691Y-105543943D01*
X317207691Y-105543942D01*
X317153477Y-105479333D01*
X317095163Y-105409837D01*
X317016724Y-105344019D01*
X316961057Y-105297308D01*
X316961053Y-105297306D01*
X316933993Y-105281683D01*
X316809443Y-105209774D01*
X316699771Y-105169857D01*
X316644936Y-105149899D01*
X316558732Y-105134699D01*
X316472529Y-105119499D01*
X316472528Y-105119499D01*
X316384996Y-105119500D01*
X303436363Y-105119500D01*
X303436360Y-105119499D01*
X303385000Y-105119499D01*
X303297467Y-105119499D01*
X303297464Y-105119499D01*
X303125060Y-105149899D01*
X302960559Y-105209772D01*
X302960549Y-105209776D01*
X302808946Y-105297304D01*
X302808940Y-105297309D01*
X302674837Y-105409835D01*
X302674835Y-105409838D01*
X302562305Y-105543945D01*
X302474776Y-105695551D01*
X302474773Y-105695558D01*
X302414897Y-105860064D01*
X302384499Y-106032466D01*
X302384499Y-119195880D01*
X298335499Y-119195880D01*
X298335499Y-119119998D01*
X298335499Y-119054106D01*
X298335499Y-106120004D01*
X298335500Y-106120004D01*
X298335501Y-106032471D01*
X298305101Y-105860065D01*
X298245226Y-105695557D01*
X298157693Y-105543945D01*
X298157691Y-105543943D01*
X298157691Y-105543942D01*
X298103477Y-105479333D01*
X298045163Y-105409837D01*
X297966724Y-105344019D01*
X297911057Y-105297308D01*
X297911053Y-105297306D01*
X297883993Y-105281683D01*
X297759443Y-105209774D01*
X297649771Y-105169857D01*
X297594936Y-105149899D01*
X297508732Y-105134699D01*
X297422529Y-105119499D01*
X297422528Y-105119499D01*
X297334996Y-105119500D01*
X284386363Y-105119500D01*
X284386360Y-105119499D01*
X284335000Y-105119499D01*
X284247467Y-105119499D01*
X284247464Y-105119499D01*
X284075060Y-105149899D01*
X283910559Y-105209772D01*
X283910549Y-105209776D01*
X283758946Y-105297304D01*
X283758940Y-105297309D01*
X283624837Y-105409835D01*
X283624835Y-105409838D01*
X283512305Y-105543945D01*
X283424776Y-105695551D01*
X283424773Y-105695558D01*
X283364897Y-105860064D01*
X283334499Y-106032466D01*
X283334499Y-119195880D01*
X279285499Y-119195880D01*
X279285499Y-119119998D01*
X279285499Y-119054106D01*
X279285499Y-106120004D01*
X279285500Y-106120004D01*
X279285501Y-106032471D01*
X279255101Y-105860065D01*
X279195226Y-105695557D01*
X279107693Y-105543945D01*
X279107691Y-105543943D01*
X279107691Y-105543942D01*
X279053477Y-105479333D01*
X278995163Y-105409837D01*
X278916724Y-105344019D01*
X278861057Y-105297308D01*
X278861053Y-105297306D01*
X278833993Y-105281683D01*
X278709443Y-105209774D01*
X278599771Y-105169857D01*
X278544936Y-105149899D01*
X278458732Y-105134699D01*
X278372529Y-105119499D01*
X278372528Y-105119499D01*
X278284996Y-105119500D01*
X265336363Y-105119500D01*
X265336360Y-105119499D01*
X265285000Y-105119499D01*
X265197467Y-105119499D01*
X265197464Y-105119499D01*
X265025060Y-105149899D01*
X264860559Y-105209772D01*
X264860549Y-105209776D01*
X264708946Y-105297304D01*
X264708940Y-105297309D01*
X264574837Y-105409835D01*
X264574835Y-105409838D01*
X264462305Y-105543945D01*
X264374776Y-105695551D01*
X264374773Y-105695558D01*
X264314897Y-105860064D01*
X264284499Y-106032466D01*
X264284499Y-119195880D01*
X260235499Y-119195880D01*
X260235499Y-119119998D01*
X260235499Y-119054106D01*
X260235499Y-106120004D01*
X260235500Y-106120004D01*
X260235501Y-106032471D01*
X260205101Y-105860065D01*
X260145226Y-105695557D01*
X260057693Y-105543945D01*
X260057691Y-105543943D01*
X260057691Y-105543942D01*
X260003477Y-105479333D01*
X259945163Y-105409837D01*
X259866724Y-105344019D01*
X259811057Y-105297308D01*
X259811053Y-105297306D01*
X259783993Y-105281683D01*
X259659443Y-105209774D01*
X259549771Y-105169857D01*
X259494936Y-105149899D01*
X259408732Y-105134699D01*
X259322529Y-105119499D01*
X259322528Y-105119499D01*
X259234996Y-105119500D01*
X246286363Y-105119500D01*
X246286360Y-105119499D01*
X246235000Y-105119499D01*
X246147467Y-105119499D01*
X246147464Y-105119499D01*
X245975060Y-105149899D01*
X245810559Y-105209772D01*
X245810549Y-105209776D01*
X245658946Y-105297304D01*
X245658940Y-105297309D01*
X245524837Y-105409835D01*
X245524835Y-105409838D01*
X245412305Y-105543945D01*
X245324776Y-105695551D01*
X245324773Y-105695558D01*
X245264897Y-105860064D01*
X245234499Y-106032466D01*
X245234499Y-119195880D01*
X241185499Y-119195880D01*
X241185499Y-119119998D01*
X241185499Y-119054106D01*
X241185499Y-106120004D01*
X241185500Y-106120004D01*
X241185501Y-106032471D01*
X241155101Y-105860065D01*
X241095226Y-105695557D01*
X241007693Y-105543945D01*
X241007691Y-105543943D01*
X241007691Y-105543942D01*
X240953477Y-105479333D01*
X240895163Y-105409837D01*
X240816724Y-105344019D01*
X240761057Y-105297308D01*
X240761053Y-105297306D01*
X240733993Y-105281683D01*
X240609443Y-105209774D01*
X240499771Y-105169857D01*
X240444936Y-105149899D01*
X240358732Y-105134699D01*
X240272529Y-105119499D01*
X240272528Y-105119499D01*
X240184996Y-105119500D01*
X227236363Y-105119500D01*
X227236360Y-105119499D01*
X227185000Y-105119499D01*
X227097467Y-105119499D01*
X227097464Y-105119499D01*
X226925060Y-105149899D01*
X226760559Y-105209772D01*
X226760549Y-105209776D01*
X226608946Y-105297304D01*
X226608940Y-105297309D01*
X226474837Y-105409835D01*
X226474835Y-105409838D01*
X226362305Y-105543945D01*
X226274776Y-105695551D01*
X226274773Y-105695558D01*
X226214897Y-105860064D01*
X226184499Y-106032466D01*
X226184499Y-119195880D01*
X222135499Y-119195880D01*
X222135499Y-119119998D01*
X222135499Y-119054106D01*
X222135499Y-106120004D01*
X222135500Y-106120004D01*
X222135501Y-106032471D01*
X222105101Y-105860065D01*
X222045226Y-105695557D01*
X221957693Y-105543945D01*
X221957691Y-105543943D01*
X221957691Y-105543942D01*
X221903477Y-105479333D01*
X221845163Y-105409837D01*
X221766724Y-105344019D01*
X221711057Y-105297308D01*
X221711053Y-105297306D01*
X221683993Y-105281683D01*
X221559443Y-105209774D01*
X221449771Y-105169857D01*
X221394936Y-105149899D01*
X221308732Y-105134699D01*
X221222529Y-105119499D01*
X221222528Y-105119499D01*
X221134996Y-105119500D01*
X208186363Y-105119500D01*
X208186360Y-105119499D01*
X208135000Y-105119499D01*
X208047467Y-105119499D01*
X208047464Y-105119499D01*
X207875060Y-105149899D01*
X207710559Y-105209772D01*
X207710549Y-105209776D01*
X207558946Y-105297304D01*
X207558940Y-105297309D01*
X207424837Y-105409835D01*
X207424835Y-105409838D01*
X207312305Y-105543945D01*
X207224776Y-105695551D01*
X207224773Y-105695558D01*
X207164897Y-105860064D01*
X207134499Y-106032466D01*
X207134499Y-109330990D01*
X207114814Y-109398029D01*
X207062010Y-109443784D01*
X207010499Y-109454990D01*
X205011764Y-109454990D01*
X205011463Y-109455009D01*
X204916798Y-109455009D01*
X204581919Y-109492740D01*
X204253355Y-109567731D01*
X204253343Y-109567735D01*
X203935254Y-109679040D01*
X203935246Y-109679043D01*
X203631629Y-109825256D01*
X203346271Y-110004558D01*
X203082786Y-110214679D01*
X202844484Y-110452981D01*
X202634362Y-110716465D01*
X202455062Y-111001819D01*
X202308844Y-111305443D01*
X202308838Y-111305457D01*
X202197537Y-111623536D01*
X202197533Y-111623548D01*
X202122543Y-111952103D01*
X202122541Y-111952119D01*
X202084810Y-112286991D01*
X202084810Y-112624008D01*
X198322999Y-112624008D01*
X198322999Y-106120004D01*
X198323000Y-106120004D01*
X198323001Y-106032471D01*
X198292601Y-105860065D01*
X198232726Y-105695557D01*
X198145193Y-105543945D01*
X198145191Y-105543943D01*
X198145191Y-105543942D01*
X198090977Y-105479333D01*
X198032663Y-105409837D01*
X197954224Y-105344019D01*
X197898557Y-105297308D01*
X197898553Y-105297306D01*
X197871493Y-105281683D01*
X197746943Y-105209774D01*
X197637271Y-105169857D01*
X197582436Y-105149899D01*
X197496232Y-105134699D01*
X197410029Y-105119499D01*
X197410028Y-105119499D01*
X197322496Y-105119500D01*
X184373863Y-105119500D01*
X184373860Y-105119499D01*
X184322500Y-105119499D01*
X184234967Y-105119499D01*
X184234964Y-105119499D01*
X184062560Y-105149899D01*
X183898059Y-105209772D01*
X183898049Y-105209776D01*
X183746446Y-105297304D01*
X183746440Y-105297309D01*
X183612337Y-105409835D01*
X183612335Y-105409838D01*
X183499805Y-105543945D01*
X183412276Y-105695551D01*
X183412273Y-105695558D01*
X183352397Y-105860064D01*
X183321999Y-106032466D01*
X183321999Y-119195880D01*
X183322000Y-119195893D01*
X183322000Y-119207533D01*
X183352398Y-119379935D01*
X183412274Y-119544441D01*
X183412277Y-119544448D01*
X183499808Y-119696056D01*
X183612329Y-119830155D01*
X183612330Y-119830155D01*
X183612336Y-119830162D01*
X183746444Y-119942692D01*
X183746446Y-119942693D01*
X183746450Y-119942696D01*
X183871603Y-120014953D01*
X183898055Y-120030225D01*
X184062562Y-120090100D01*
X184234967Y-120120500D01*
X184256608Y-120120500D01*
X187726646Y-120120500D01*
X187793685Y-120140185D01*
X187839440Y-120192989D01*
X187850646Y-120244500D01*
X187850646Y-122788508D01*
X187888377Y-123123381D01*
X187888379Y-123123397D01*
X187963369Y-123451953D01*
X187963373Y-123451965D01*
X188074678Y-123770054D01*
X188074681Y-123770062D01*
X188197622Y-124025351D01*
X188208974Y-124094292D01*
X188181252Y-124158426D01*
X188123256Y-124197392D01*
X188063138Y-124198730D01*
X188062767Y-124200839D01*
X187972800Y-124184975D01*
X187885029Y-124169499D01*
X187885028Y-124169499D01*
X187797496Y-124169500D01*
X174848863Y-124169500D01*
X174848860Y-124169499D01*
X174797500Y-124169499D01*
X174709967Y-124169499D01*
X174709964Y-124169499D01*
X174537560Y-124199899D01*
X174373059Y-124259772D01*
X174373049Y-124259776D01*
X174221446Y-124347304D01*
X174221440Y-124347309D01*
X174087337Y-124459835D01*
X174087335Y-124459838D01*
X173974805Y-124593945D01*
X173887276Y-124745551D01*
X173887273Y-124745558D01*
X173827397Y-124910064D01*
X173796999Y-125082466D01*
X173796999Y-138245880D01*
X169747999Y-138245880D01*
X169747999Y-138169998D01*
X169747999Y-138104106D01*
X169747999Y-125170004D01*
X169748000Y-125170004D01*
X169748001Y-125082471D01*
X169717601Y-124910065D01*
X169657726Y-124745557D01*
X169570193Y-124593945D01*
X169570191Y-124593943D01*
X169570191Y-124593942D01*
X169531826Y-124548221D01*
X169457663Y-124459837D01*
X169337537Y-124359039D01*
X169323557Y-124347308D01*
X169323553Y-124347306D01*
X169323550Y-124347304D01*
X169171943Y-124259774D01*
X169062271Y-124219857D01*
X169007436Y-124199899D01*
X168921232Y-124184699D01*
X168835029Y-124169499D01*
X168835028Y-124169499D01*
X168747496Y-124169500D01*
X155798863Y-124169500D01*
X155798860Y-124169499D01*
X155747500Y-124169499D01*
X155659967Y-124169499D01*
X155659964Y-124169499D01*
X155487560Y-124199899D01*
X155323059Y-124259772D01*
X155323049Y-124259776D01*
X155171446Y-124347304D01*
X155171440Y-124347309D01*
X155037337Y-124459835D01*
X155037335Y-124459838D01*
X154924805Y-124593945D01*
X154837276Y-124745551D01*
X154837273Y-124745558D01*
X154777397Y-124910064D01*
X154746999Y-125082466D01*
X154746999Y-138245880D01*
X150697999Y-138245880D01*
X150697999Y-138169998D01*
X150697999Y-138104106D01*
X150697999Y-125170004D01*
X150698000Y-125170004D01*
X150698001Y-125082471D01*
X150667601Y-124910065D01*
X150607726Y-124745557D01*
X150520193Y-124593945D01*
X150520191Y-124593943D01*
X150520191Y-124593942D01*
X150481826Y-124548221D01*
X150407663Y-124459837D01*
X150287537Y-124359039D01*
X150273557Y-124347308D01*
X150273553Y-124347306D01*
X150273550Y-124347304D01*
X150121943Y-124259774D01*
X150012271Y-124219857D01*
X149957436Y-124199899D01*
X149871232Y-124184699D01*
X149785029Y-124169499D01*
X149785028Y-124169499D01*
X149697496Y-124169500D01*
X136748863Y-124169500D01*
X136748860Y-124169499D01*
X136697500Y-124169499D01*
X136609967Y-124169499D01*
X136609964Y-124169499D01*
X136437560Y-124199899D01*
X136273059Y-124259772D01*
X136273049Y-124259776D01*
X136121446Y-124347304D01*
X136121440Y-124347309D01*
X135987337Y-124459835D01*
X135987335Y-124459838D01*
X135874805Y-124593945D01*
X135787276Y-124745551D01*
X135787273Y-124745558D01*
X135727397Y-124910064D01*
X135696999Y-125082466D01*
X135696999Y-138245880D01*
X131647999Y-138245880D01*
X131647999Y-138169998D01*
X131647999Y-138104106D01*
X131647999Y-125170004D01*
X131648000Y-125170004D01*
X131648001Y-125082471D01*
X131617601Y-124910065D01*
X131557726Y-124745557D01*
X131470193Y-124593945D01*
X131470191Y-124593943D01*
X131470191Y-124593942D01*
X131431826Y-124548221D01*
X131357663Y-124459837D01*
X131237537Y-124359039D01*
X131223557Y-124347308D01*
X131223553Y-124347306D01*
X131223550Y-124347304D01*
X131071943Y-124259774D01*
X130962271Y-124219857D01*
X130907436Y-124199899D01*
X130821232Y-124184699D01*
X130735029Y-124169499D01*
X130735028Y-124169499D01*
X130647496Y-124169500D01*
X117698863Y-124169500D01*
X117698860Y-124169499D01*
X117647500Y-124169499D01*
X117559967Y-124169499D01*
X117559964Y-124169499D01*
X117387560Y-124199899D01*
X117223059Y-124259772D01*
X117223049Y-124259776D01*
X117071446Y-124347304D01*
X117071440Y-124347309D01*
X116937337Y-124459835D01*
X116937335Y-124459838D01*
X116824805Y-124593945D01*
X116737276Y-124745551D01*
X116737273Y-124745558D01*
X116677397Y-124910064D01*
X116646999Y-125082466D01*
X116646999Y-138245880D01*
X112597999Y-138245880D01*
X112597999Y-138169998D01*
X112597999Y-138104106D01*
X112597999Y-125170004D01*
X112598000Y-125170004D01*
X112598001Y-125082471D01*
X112567601Y-124910065D01*
X112507726Y-124745557D01*
X112420193Y-124593945D01*
X112420191Y-124593943D01*
X112420191Y-124593942D01*
X112381826Y-124548221D01*
X112307663Y-124459837D01*
X112187537Y-124359039D01*
X112173557Y-124347308D01*
X112173553Y-124347306D01*
X112173550Y-124347304D01*
X112021943Y-124259774D01*
X111912271Y-124219857D01*
X111857436Y-124199899D01*
X111771232Y-124184699D01*
X111685029Y-124169499D01*
X111685028Y-124169499D01*
X111597496Y-124169500D01*
X98648863Y-124169500D01*
X98648860Y-124169499D01*
X98597500Y-124169499D01*
X98509967Y-124169499D01*
X98509964Y-124169499D01*
X98337560Y-124199899D01*
X98173059Y-124259772D01*
X98173049Y-124259776D01*
X98021446Y-124347304D01*
X98021440Y-124347309D01*
X97887337Y-124459835D01*
X97887335Y-124459838D01*
X97774805Y-124593945D01*
X97687276Y-124745551D01*
X97687273Y-124745558D01*
X97627397Y-124910064D01*
X97596999Y-125082466D01*
X97596999Y-138245880D01*
X86404250Y-138245880D01*
X86404249Y-138169998D01*
X86404249Y-138104106D01*
X86404249Y-125104110D01*
X86404249Y-125104109D01*
X86404249Y-125096265D01*
X86404200Y-125095528D01*
X86404201Y-125082477D01*
X86373806Y-124910081D01*
X86313937Y-124745582D01*
X86313934Y-124745576D01*
X86226419Y-124593982D01*
X86226417Y-124593980D01*
X86226416Y-124593978D01*
X86226415Y-124593977D01*
X86113898Y-124459873D01*
X85979805Y-124347342D01*
X85979804Y-124347341D01*
X85904007Y-124303573D01*
X85828209Y-124259805D01*
X85712978Y-124217854D01*
X85663714Y-124199919D01*
X85663706Y-124199917D01*
X85491333Y-124169509D01*
X85491325Y-124169508D01*
X85491323Y-124169508D01*
X85491315Y-124169507D01*
X85477937Y-124169506D01*
X85477835Y-124169500D01*
X85469640Y-124169500D01*
X85403796Y-124169500D01*
X85329810Y-124169492D01*
X85329688Y-124169500D01*
X72477808Y-124169500D01*
X72477685Y-124169492D01*
X72455115Y-124169494D01*
X72454944Y-124169444D01*
X72316172Y-124169456D01*
X72316165Y-124169457D01*
X72143774Y-124199870D01*
X72143757Y-124199874D01*
X71979269Y-124259758D01*
X71827664Y-124347300D01*
X71693569Y-124459833D01*
X71693559Y-124459842D01*
X71581044Y-124593945D01*
X71581038Y-124593953D01*
X71493519Y-124745554D01*
X71433644Y-124910068D01*
X71403248Y-125082461D01*
X71403248Y-125082469D01*
X62938309Y-125082469D01*
X62938309Y-119195880D01*
X69021999Y-119195880D01*
X69022000Y-119195893D01*
X69022000Y-119207533D01*
X69052398Y-119379935D01*
X69112274Y-119544441D01*
X69112277Y-119544448D01*
X69199808Y-119696056D01*
X69312329Y-119830155D01*
X69312330Y-119830155D01*
X69312336Y-119830162D01*
X69446444Y-119942692D01*
X69446446Y-119942693D01*
X69446450Y-119942696D01*
X69571603Y-120014953D01*
X69598055Y-120030225D01*
X69762562Y-120090100D01*
X69934967Y-120120500D01*
X69934969Y-120120500D01*
X83110029Y-120120500D01*
X83115215Y-120120500D01*
X83117419Y-120119296D01*
X83122244Y-120118346D01*
X83282434Y-120090100D01*
X83446942Y-120030225D01*
X83598553Y-119942693D01*
X83732661Y-119830163D01*
X83845191Y-119696055D01*
X83932724Y-119544444D01*
X83992600Y-119379936D01*
X84022999Y-119207531D01*
X84022999Y-119119998D01*
X84022999Y-119054106D01*
X84022999Y-106120004D01*
X84023000Y-106120004D01*
X84023001Y-106032471D01*
X83992601Y-105860065D01*
X83932726Y-105695557D01*
X83845193Y-105543945D01*
X83845191Y-105543943D01*
X83845191Y-105543942D01*
X83790977Y-105479333D01*
X83732663Y-105409837D01*
X83654224Y-105344019D01*
X83598557Y-105297308D01*
X83598553Y-105297306D01*
X83571493Y-105281683D01*
X83446943Y-105209774D01*
X83337271Y-105169857D01*
X83282436Y-105149899D01*
X83196232Y-105134699D01*
X83110029Y-105119499D01*
X83110028Y-105119499D01*
X83022496Y-105119500D01*
X70073863Y-105119500D01*
X70073860Y-105119499D01*
X70022500Y-105119499D01*
X69934967Y-105119499D01*
X69934964Y-105119499D01*
X69762560Y-105149899D01*
X69598059Y-105209772D01*
X69598049Y-105209776D01*
X69446446Y-105297304D01*
X69446440Y-105297309D01*
X69312337Y-105409835D01*
X69312335Y-105409838D01*
X69199805Y-105543945D01*
X69112276Y-105695551D01*
X69112273Y-105695558D01*
X69052397Y-105860064D01*
X69021999Y-106032466D01*
X69021999Y-119195880D01*
X62938309Y-119195880D01*
X62938309Y-100145880D01*
X64259499Y-100145880D01*
X64259500Y-100145893D01*
X64259500Y-100157533D01*
X64289898Y-100329935D01*
X64322340Y-100419067D01*
X64349594Y-100493948D01*
X64349774Y-100494441D01*
X64349777Y-100494448D01*
X64437308Y-100646056D01*
X64549829Y-100780155D01*
X64549830Y-100780155D01*
X64549836Y-100780162D01*
X64683944Y-100892692D01*
X64683946Y-100892693D01*
X64683950Y-100892696D01*
X64781061Y-100948763D01*
X64835555Y-100980225D01*
X65000062Y-101040100D01*
X65172467Y-101070500D01*
X65172469Y-101070500D01*
X78347529Y-101070500D01*
X78352715Y-101070500D01*
X78354919Y-101069296D01*
X78359744Y-101068346D01*
X78519934Y-101040100D01*
X78684442Y-100980225D01*
X78836053Y-100892693D01*
X78970161Y-100780163D01*
X79082691Y-100646055D01*
X79170224Y-100494444D01*
X79230100Y-100329936D01*
X79260499Y-100157531D01*
X79260499Y-100145880D01*
X83309499Y-100145880D01*
X83309500Y-100145893D01*
X83309500Y-100157533D01*
X83339898Y-100329935D01*
X83372340Y-100419067D01*
X83399594Y-100493948D01*
X83399774Y-100494441D01*
X83399777Y-100494448D01*
X83487308Y-100646056D01*
X83599829Y-100780155D01*
X83599830Y-100780155D01*
X83599836Y-100780162D01*
X83733944Y-100892692D01*
X83733946Y-100892693D01*
X83733950Y-100892696D01*
X83831061Y-100948763D01*
X83885555Y-100980225D01*
X84050062Y-101040100D01*
X84222467Y-101070500D01*
X84244108Y-101070500D01*
X84688916Y-101070500D01*
X84755955Y-101090185D01*
X84801710Y-101142989D01*
X84812916Y-101194500D01*
X84812916Y-102922024D01*
X84812225Y-102935093D01*
X84811409Y-102942787D01*
X84812876Y-103000769D01*
X84812916Y-103003904D01*
X84812916Y-103061903D01*
X84812918Y-103061919D01*
X84812916Y-103061991D01*
X84812916Y-103070028D01*
X84812695Y-103070028D01*
X84812181Y-103088748D01*
X84813061Y-103088797D01*
X84812614Y-103096915D01*
X84816410Y-103146847D01*
X84816727Y-103153111D01*
X84817993Y-103203184D01*
X84819258Y-103211216D01*
X84818013Y-103211412D01*
X84820280Y-103241227D01*
X84821546Y-103241233D01*
X84821509Y-103249362D01*
X84827827Y-103299087D01*
X84828459Y-103305314D01*
X84832258Y-103355282D01*
X84833927Y-103363233D01*
X84832548Y-103363522D01*
X84836143Y-103391825D01*
X84837561Y-103391761D01*
X84837933Y-103399879D01*
X84846749Y-103449252D01*
X84847690Y-103455414D01*
X84854019Y-103505212D01*
X84856088Y-103513074D01*
X84854584Y-103513469D01*
X84859372Y-103540287D01*
X84860932Y-103540137D01*
X84861710Y-103548229D01*
X84873007Y-103597175D01*
X84874250Y-103603253D01*
X84880916Y-103640576D01*
X84883087Y-103652731D01*
X84885547Y-103660474D01*
X84883942Y-103660983D01*
X84889799Y-103686370D01*
X84891480Y-103686124D01*
X84892660Y-103694164D01*
X84906407Y-103742575D01*
X84907946Y-103748558D01*
X84919262Y-103797586D01*
X84922109Y-103805202D01*
X84920412Y-103805836D01*
X84927230Y-103829856D01*
X84929021Y-103829502D01*
X84930597Y-103837469D01*
X84946757Y-103885228D01*
X84948577Y-103891079D01*
X84954204Y-103910893D01*
X84962348Y-103939574D01*
X84965570Y-103947036D01*
X84963808Y-103947796D01*
X84971489Y-103970505D01*
X84973367Y-103970037D01*
X84975335Y-103977922D01*
X84993862Y-104024913D01*
X84995962Y-104030649D01*
X85012143Y-104078470D01*
X85015731Y-104085763D01*
X85013905Y-104086660D01*
X85022365Y-104108122D01*
X85024327Y-104107529D01*
X85026679Y-104115306D01*
X85047516Y-104161398D01*
X85049882Y-104166994D01*
X85068435Y-104214050D01*
X85072377Y-104221156D01*
X85070515Y-104222188D01*
X85079691Y-104242486D01*
X85081711Y-104241767D01*
X85084441Y-104249426D01*
X85107540Y-104294527D01*
X85110163Y-104299972D01*
X85131031Y-104346134D01*
X85135321Y-104353045D01*
X85133436Y-104354214D01*
X85143270Y-104373412D01*
X85145332Y-104372563D01*
X85148429Y-104380078D01*
X85173717Y-104424058D01*
X85176586Y-104429340D01*
X85199723Y-104474516D01*
X85204343Y-104481207D01*
X85202452Y-104482512D01*
X85212909Y-104500686D01*
X85214993Y-104499708D01*
X85218448Y-104507061D01*
X85245874Y-104549843D01*
X85248979Y-104554955D01*
X85274311Y-104599011D01*
X85279248Y-104605468D01*
X85277422Y-104606863D01*
X85288493Y-104624093D01*
X85290514Y-104623023D01*
X85294318Y-104630202D01*
X85323798Y-104671660D01*
X85327132Y-104676595D01*
X85354601Y-104719441D01*
X85359842Y-104725651D01*
X85358579Y-104726716D01*
X85371752Y-104742399D01*
X85375851Y-104749313D01*
X85407313Y-104789349D01*
X85410870Y-104794105D01*
X85421549Y-104809122D01*
X85440392Y-104835620D01*
X85440395Y-104835623D01*
X85445811Y-104841447D01*
X85458525Y-104857627D01*
X85462862Y-104864205D01*
X85465558Y-104867317D01*
X85496250Y-104902749D01*
X85499983Y-104907273D01*
X85502084Y-104909946D01*
X85531498Y-104947377D01*
X85537094Y-104952844D01*
X85550582Y-104968414D01*
X85555179Y-104974711D01*
X85590374Y-105011626D01*
X85594342Y-105015991D01*
X85604319Y-105027509D01*
X85627728Y-105054533D01*
X85633531Y-105059685D01*
X85647749Y-105074598D01*
X85652611Y-105080631D01*
X85652613Y-105080633D01*
X85682624Y-105109246D01*
X85689520Y-105115820D01*
X85693697Y-105119996D01*
X85728896Y-105156915D01*
X85728898Y-105156916D01*
X85734918Y-105161767D01*
X85749843Y-105175996D01*
X85754994Y-105181798D01*
X85754997Y-105181802D01*
X85755000Y-105181804D01*
X85755004Y-105181809D01*
X85793531Y-105215183D01*
X85797907Y-105219160D01*
X85834819Y-105254351D01*
X85841108Y-105258943D01*
X85856679Y-105272429D01*
X85862155Y-105278033D01*
X85886680Y-105297306D01*
X85902240Y-105309533D01*
X85906787Y-105313286D01*
X85938278Y-105340563D01*
X85945323Y-105346666D01*
X85951908Y-105351008D01*
X85968087Y-105363721D01*
X85973913Y-105369139D01*
X86015412Y-105398649D01*
X86020169Y-105402206D01*
X86060216Y-105433677D01*
X86067125Y-105437773D01*
X86082876Y-105450866D01*
X86083874Y-105449684D01*
X86090083Y-105454924D01*
X86090088Y-105454927D01*
X86090089Y-105454928D01*
X86128158Y-105479333D01*
X86132928Y-105482391D01*
X86137848Y-105485714D01*
X86179326Y-105515210D01*
X86179329Y-105515211D01*
X86186506Y-105519014D01*
X86185358Y-105521180D01*
X86202587Y-105532200D01*
X86204058Y-105530277D01*
X86210514Y-105535213D01*
X86254584Y-105560552D01*
X86259684Y-105563651D01*
X86302470Y-105591080D01*
X86309825Y-105594536D01*
X86308831Y-105596650D01*
X86327013Y-105607089D01*
X86328326Y-105605188D01*
X86335010Y-105609802D01*
X86380181Y-105632936D01*
X86385445Y-105635795D01*
X86429456Y-105661101D01*
X86429458Y-105661101D01*
X86429459Y-105661102D01*
X86436970Y-105664198D01*
X86436113Y-105666276D01*
X86455313Y-105676102D01*
X86456488Y-105674210D01*
X86463393Y-105678494D01*
X86463395Y-105678496D01*
X86509586Y-105699378D01*
X86514995Y-105701983D01*
X86560104Y-105725087D01*
X86567757Y-105727815D01*
X86567031Y-105729850D01*
X86587328Y-105739019D01*
X86588367Y-105737147D01*
X86595473Y-105741089D01*
X86595476Y-105741091D01*
X86642559Y-105759654D01*
X86648104Y-105761999D01*
X86694223Y-105782849D01*
X86694227Y-105782849D01*
X86694230Y-105782851D01*
X86702005Y-105785203D01*
X86701407Y-105787178D01*
X86722865Y-105795633D01*
X86723768Y-105793798D01*
X86731062Y-105797386D01*
X86731063Y-105797386D01*
X86731064Y-105797387D01*
X86778920Y-105813578D01*
X86784626Y-105815668D01*
X86831603Y-105834191D01*
X86831605Y-105834191D01*
X86831609Y-105834193D01*
X86831612Y-105834193D01*
X86839497Y-105836162D01*
X86839024Y-105838055D01*
X86861723Y-105845731D01*
X86862490Y-105843956D01*
X86869950Y-105847176D01*
X86869955Y-105847179D01*
X86918478Y-105860957D01*
X86924277Y-105862760D01*
X86972062Y-105878929D01*
X86972068Y-105878929D01*
X86980038Y-105880507D01*
X86979681Y-105882308D01*
X87003694Y-105889121D01*
X87004330Y-105887420D01*
X87011944Y-105890266D01*
X87060974Y-105901581D01*
X87066965Y-105903121D01*
X87115367Y-105916866D01*
X87115369Y-105916866D01*
X87123414Y-105918048D01*
X87123166Y-105919735D01*
X87148545Y-105925587D01*
X87149056Y-105923979D01*
X87156801Y-105926439D01*
X87156802Y-105926439D01*
X87156804Y-105926440D01*
X87206272Y-105935273D01*
X87212323Y-105936510D01*
X87261308Y-105947816D01*
X87261314Y-105947815D01*
X87269393Y-105948593D01*
X87269242Y-105950155D01*
X87296059Y-105954940D01*
X87296455Y-105953437D01*
X87304311Y-105955503D01*
X87304317Y-105955506D01*
X87354116Y-105961833D01*
X87360238Y-105962768D01*
X87409654Y-105971593D01*
X87409656Y-105971592D01*
X87409657Y-105971593D01*
X87417773Y-105971965D01*
X87417707Y-105973391D01*
X87446005Y-105976983D01*
X87446296Y-105975598D01*
X87454239Y-105977264D01*
X87454247Y-105977267D01*
X87504216Y-105981066D01*
X87510433Y-105981696D01*
X87560172Y-105988017D01*
X87560179Y-105988015D01*
X87568299Y-105987980D01*
X87568304Y-105989255D01*
X87598109Y-105991519D01*
X87598307Y-105990266D01*
X87606332Y-105991529D01*
X87606338Y-105991531D01*
X87656413Y-105992796D01*
X87662652Y-105993112D01*
X87712619Y-105996912D01*
X87712625Y-105996910D01*
X87720735Y-105996465D01*
X87720796Y-105997581D01*
X87752105Y-105998373D01*
X87752224Y-105997260D01*
X87760303Y-105998116D01*
X87760306Y-105998117D01*
X87760308Y-105998116D01*
X87760309Y-105998117D01*
X87769250Y-105997890D01*
X87810396Y-105996850D01*
X87816642Y-105996850D01*
X87857632Y-105997886D01*
X87866734Y-105998117D01*
X87866734Y-105998116D01*
X87866737Y-105998117D01*
X87866739Y-105998116D01*
X87874820Y-105997260D01*
X87874938Y-105998374D01*
X87906227Y-105997583D01*
X87906289Y-105996465D01*
X87914403Y-105996910D01*
X87914410Y-105996912D01*
X87938598Y-105995072D01*
X88006934Y-106009616D01*
X88056562Y-106058798D01*
X88071999Y-106118715D01*
X88071999Y-119195880D01*
X88072000Y-119195893D01*
X88072000Y-119207533D01*
X88102398Y-119379935D01*
X88162274Y-119544441D01*
X88162277Y-119544448D01*
X88249808Y-119696056D01*
X88362329Y-119830155D01*
X88362330Y-119830155D01*
X88362336Y-119830162D01*
X88496444Y-119942692D01*
X88496446Y-119942693D01*
X88496450Y-119942696D01*
X88621603Y-120014953D01*
X88648055Y-120030225D01*
X88812562Y-120090100D01*
X88984967Y-120120500D01*
X88984969Y-120120500D01*
X102160029Y-120120500D01*
X102165215Y-120120500D01*
X102167419Y-120119296D01*
X102172244Y-120118346D01*
X102332434Y-120090100D01*
X102496942Y-120030225D01*
X102648553Y-119942693D01*
X102782661Y-119830163D01*
X102895191Y-119696055D01*
X102982724Y-119544444D01*
X103042600Y-119379936D01*
X103072999Y-119207531D01*
X103072999Y-119195880D01*
X107121999Y-119195880D01*
X107122000Y-119195893D01*
X107122000Y-119207533D01*
X107152398Y-119379935D01*
X107212274Y-119544441D01*
X107212277Y-119544448D01*
X107299808Y-119696056D01*
X107412329Y-119830155D01*
X107412330Y-119830155D01*
X107412336Y-119830162D01*
X107546444Y-119942692D01*
X107546446Y-119942693D01*
X107546450Y-119942696D01*
X107671603Y-120014953D01*
X107698055Y-120030225D01*
X107862562Y-120090100D01*
X108034967Y-120120500D01*
X108034969Y-120120500D01*
X121210029Y-120120500D01*
X121215215Y-120120500D01*
X121217419Y-120119296D01*
X121222244Y-120118346D01*
X121382434Y-120090100D01*
X121546942Y-120030225D01*
X121698553Y-119942693D01*
X121832661Y-119830163D01*
X121945191Y-119696055D01*
X122032724Y-119544444D01*
X122092600Y-119379936D01*
X122122999Y-119207531D01*
X122122999Y-119195880D01*
X126171999Y-119195880D01*
X126172000Y-119195893D01*
X126172000Y-119207533D01*
X126202398Y-119379935D01*
X126262274Y-119544441D01*
X126262277Y-119544448D01*
X126349808Y-119696056D01*
X126462329Y-119830155D01*
X126462330Y-119830155D01*
X126462336Y-119830162D01*
X126596444Y-119942692D01*
X126596446Y-119942693D01*
X126596450Y-119942696D01*
X126721603Y-120014953D01*
X126748055Y-120030225D01*
X126912562Y-120090100D01*
X127084967Y-120120500D01*
X127084969Y-120120500D01*
X140260029Y-120120500D01*
X140265215Y-120120500D01*
X140267419Y-120119296D01*
X140272244Y-120118346D01*
X140432434Y-120090100D01*
X140596942Y-120030225D01*
X140748553Y-119942693D01*
X140882661Y-119830163D01*
X140995191Y-119696055D01*
X141082724Y-119544444D01*
X141142600Y-119379936D01*
X141172999Y-119207531D01*
X141172999Y-119195880D01*
X145221999Y-119195880D01*
X145222000Y-119195893D01*
X145222000Y-119207533D01*
X145252398Y-119379935D01*
X145312274Y-119544441D01*
X145312277Y-119544448D01*
X145399808Y-119696056D01*
X145512329Y-119830155D01*
X145512330Y-119830155D01*
X145512336Y-119830162D01*
X145646444Y-119942692D01*
X145646446Y-119942693D01*
X145646450Y-119942696D01*
X145771603Y-120014953D01*
X145798055Y-120030225D01*
X145962562Y-120090100D01*
X146134967Y-120120500D01*
X146134969Y-120120500D01*
X159310029Y-120120500D01*
X159315215Y-120120500D01*
X159317419Y-120119296D01*
X159322244Y-120118346D01*
X159482434Y-120090100D01*
X159646942Y-120030225D01*
X159798553Y-119942693D01*
X159932661Y-119830163D01*
X160045191Y-119696055D01*
X160132724Y-119544444D01*
X160192600Y-119379936D01*
X160222999Y-119207531D01*
X160222999Y-119195880D01*
X164271999Y-119195880D01*
X164272000Y-119195893D01*
X164272000Y-119207533D01*
X164302398Y-119379935D01*
X164362274Y-119544441D01*
X164362277Y-119544448D01*
X164449808Y-119696056D01*
X164562329Y-119830155D01*
X164562330Y-119830155D01*
X164562336Y-119830162D01*
X164696444Y-119942692D01*
X164696446Y-119942693D01*
X164696450Y-119942696D01*
X164821603Y-120014953D01*
X164848055Y-120030225D01*
X165012562Y-120090100D01*
X165184967Y-120120500D01*
X165184969Y-120120500D01*
X178360029Y-120120500D01*
X178365215Y-120120500D01*
X178367419Y-120119296D01*
X178372244Y-120118346D01*
X178532434Y-120090100D01*
X178696942Y-120030225D01*
X178848553Y-119942693D01*
X178982661Y-119830163D01*
X179095191Y-119696055D01*
X179182724Y-119544444D01*
X179242600Y-119379936D01*
X179272999Y-119207531D01*
X179272999Y-119119998D01*
X179272999Y-119054106D01*
X179272999Y-106120004D01*
X179273000Y-106120004D01*
X179273001Y-106032471D01*
X179242601Y-105860065D01*
X179182726Y-105695557D01*
X179095193Y-105543945D01*
X179095191Y-105543943D01*
X179095191Y-105543942D01*
X179040977Y-105479333D01*
X178982663Y-105409837D01*
X178904224Y-105344019D01*
X178848557Y-105297308D01*
X178848553Y-105297306D01*
X178821493Y-105281683D01*
X178696943Y-105209774D01*
X178587271Y-105169857D01*
X178532436Y-105149899D01*
X178446232Y-105134699D01*
X178360029Y-105119499D01*
X178360028Y-105119499D01*
X178272496Y-105119500D01*
X165323863Y-105119500D01*
X165323860Y-105119499D01*
X165272500Y-105119499D01*
X165184967Y-105119499D01*
X165184964Y-105119499D01*
X165012560Y-105149899D01*
X164848059Y-105209772D01*
X164848049Y-105209776D01*
X164696446Y-105297304D01*
X164696440Y-105297309D01*
X164562337Y-105409835D01*
X164562335Y-105409838D01*
X164449805Y-105543945D01*
X164362276Y-105695551D01*
X164362273Y-105695558D01*
X164302397Y-105860064D01*
X164271999Y-106032466D01*
X164271999Y-119195880D01*
X160222999Y-119195880D01*
X160222999Y-119119998D01*
X160222999Y-119054106D01*
X160222999Y-106120004D01*
X160223000Y-106120004D01*
X160223001Y-106032471D01*
X160192601Y-105860065D01*
X160132726Y-105695557D01*
X160045193Y-105543945D01*
X160045191Y-105543943D01*
X160045191Y-105543942D01*
X159990977Y-105479333D01*
X159932663Y-105409837D01*
X159854224Y-105344019D01*
X159798557Y-105297308D01*
X159798553Y-105297306D01*
X159771493Y-105281683D01*
X159646943Y-105209774D01*
X159537271Y-105169857D01*
X159482436Y-105149899D01*
X159396232Y-105134699D01*
X159310029Y-105119499D01*
X159310028Y-105119499D01*
X159222496Y-105119500D01*
X146273863Y-105119500D01*
X146273860Y-105119499D01*
X146222500Y-105119499D01*
X146134967Y-105119499D01*
X146134964Y-105119499D01*
X145962560Y-105149899D01*
X145798059Y-105209772D01*
X145798049Y-105209776D01*
X145646446Y-105297304D01*
X145646440Y-105297309D01*
X145512337Y-105409835D01*
X145512335Y-105409838D01*
X145399805Y-105543945D01*
X145312276Y-105695551D01*
X145312273Y-105695558D01*
X145252397Y-105860064D01*
X145221999Y-106032466D01*
X145221999Y-119195880D01*
X141172999Y-119195880D01*
X141172999Y-119119998D01*
X141172999Y-119054106D01*
X141172999Y-106120004D01*
X141173000Y-106120004D01*
X141173001Y-106032471D01*
X141142601Y-105860065D01*
X141082726Y-105695557D01*
X140995193Y-105543945D01*
X140995191Y-105543943D01*
X140995191Y-105543942D01*
X140940977Y-105479333D01*
X140882663Y-105409837D01*
X140804224Y-105344019D01*
X140748557Y-105297308D01*
X140748553Y-105297306D01*
X140721493Y-105281683D01*
X140596943Y-105209774D01*
X140487271Y-105169857D01*
X140432436Y-105149899D01*
X140346232Y-105134699D01*
X140260029Y-105119499D01*
X140260028Y-105119499D01*
X140172496Y-105119500D01*
X127223863Y-105119500D01*
X127223860Y-105119499D01*
X127172500Y-105119499D01*
X127084967Y-105119499D01*
X127084964Y-105119499D01*
X126912560Y-105149899D01*
X126748059Y-105209772D01*
X126748049Y-105209776D01*
X126596446Y-105297304D01*
X126596440Y-105297309D01*
X126462337Y-105409835D01*
X126462335Y-105409838D01*
X126349805Y-105543945D01*
X126262276Y-105695551D01*
X126262273Y-105695558D01*
X126202397Y-105860064D01*
X126171999Y-106032466D01*
X126171999Y-119195880D01*
X122122999Y-119195880D01*
X122122999Y-119119998D01*
X122122999Y-119054106D01*
X122122999Y-106120004D01*
X122123000Y-106120004D01*
X122123001Y-106032471D01*
X122092601Y-105860065D01*
X122032726Y-105695557D01*
X121945193Y-105543945D01*
X121945191Y-105543943D01*
X121945191Y-105543942D01*
X121890977Y-105479333D01*
X121832663Y-105409837D01*
X121754224Y-105344019D01*
X121698557Y-105297308D01*
X121698553Y-105297306D01*
X121671493Y-105281683D01*
X121546943Y-105209774D01*
X121437271Y-105169857D01*
X121382436Y-105149899D01*
X121296232Y-105134699D01*
X121210029Y-105119499D01*
X121210028Y-105119499D01*
X121122496Y-105119500D01*
X108173863Y-105119500D01*
X108173860Y-105119499D01*
X108122500Y-105119499D01*
X108034967Y-105119499D01*
X108034964Y-105119499D01*
X107862560Y-105149899D01*
X107698059Y-105209772D01*
X107698049Y-105209776D01*
X107546446Y-105297304D01*
X107546440Y-105297309D01*
X107412337Y-105409835D01*
X107412335Y-105409838D01*
X107299805Y-105543945D01*
X107212276Y-105695551D01*
X107212273Y-105695558D01*
X107152397Y-105860064D01*
X107121999Y-106032466D01*
X107121999Y-119195880D01*
X103072999Y-119195880D01*
X103072999Y-119119998D01*
X103072999Y-119054106D01*
X103072999Y-106120004D01*
X103073000Y-106120004D01*
X103073001Y-106032471D01*
X103042601Y-105860065D01*
X102982726Y-105695557D01*
X102895193Y-105543945D01*
X102895191Y-105543943D01*
X102895191Y-105543942D01*
X102840977Y-105479333D01*
X102782663Y-105409837D01*
X102704224Y-105344019D01*
X102648557Y-105297308D01*
X102648553Y-105297306D01*
X102621493Y-105281683D01*
X102496943Y-105209774D01*
X102387271Y-105169857D01*
X102332436Y-105149899D01*
X102246232Y-105134699D01*
X102160029Y-105119499D01*
X102160028Y-105119499D01*
X102072496Y-105119500D01*
X90215276Y-105119500D01*
X90148237Y-105099815D01*
X90102482Y-105047011D01*
X90092538Y-104977853D01*
X90117770Y-104918893D01*
X90123772Y-104911254D01*
X90126902Y-104907269D01*
X90130658Y-104902719D01*
X90164027Y-104864197D01*
X90164031Y-104864187D01*
X90168360Y-104857624D01*
X90181075Y-104841441D01*
X90186486Y-104835620D01*
X90186494Y-104835614D01*
X90216015Y-104794096D01*
X90219564Y-104789352D01*
X90251036Y-104749303D01*
X90251039Y-104749295D01*
X90255127Y-104742400D01*
X90268306Y-104726709D01*
X90267043Y-104725643D01*
X90272276Y-104719440D01*
X90272284Y-104719434D01*
X90286785Y-104696814D01*
X90299754Y-104676583D01*
X90303079Y-104671660D01*
X90332565Y-104630195D01*
X90332566Y-104630191D01*
X90336372Y-104623010D01*
X90338528Y-104624152D01*
X90349549Y-104606935D01*
X90347630Y-104605468D01*
X90352564Y-104599013D01*
X90352565Y-104599010D01*
X90352568Y-104599008D01*
X90377911Y-104554926D01*
X90381008Y-104549832D01*
X90382159Y-104548037D01*
X90408434Y-104507052D01*
X90408435Y-104507046D01*
X90411892Y-104499691D01*
X90414035Y-104500697D01*
X90424468Y-104482535D01*
X90422536Y-104481201D01*
X90427151Y-104474516D01*
X90427153Y-104474513D01*
X90450301Y-104429313D01*
X90453134Y-104424097D01*
X90478452Y-104380065D01*
X90478453Y-104380060D01*
X90481549Y-104372550D01*
X90483644Y-104373413D01*
X90493470Y-104354223D01*
X90491557Y-104353036D01*
X90495840Y-104346134D01*
X90495845Y-104346129D01*
X90516741Y-104299903D01*
X90519324Y-104294543D01*
X90542436Y-104249418D01*
X90542437Y-104249408D01*
X90545165Y-104241760D01*
X90547206Y-104242487D01*
X90556375Y-104222199D01*
X90554494Y-104221156D01*
X90558433Y-104214052D01*
X90558438Y-104214047D01*
X90577002Y-104166961D01*
X90579338Y-104161437D01*
X90600196Y-104115300D01*
X90600196Y-104115294D01*
X90602549Y-104107518D01*
X90604531Y-104108117D01*
X90612985Y-104086665D01*
X90611143Y-104085759D01*
X90614732Y-104078462D01*
X90630923Y-104030605D01*
X90633008Y-104024913D01*
X90651539Y-103977914D01*
X90653508Y-103970028D01*
X90655399Y-103970500D01*
X90663075Y-103947802D01*
X90661301Y-103947036D01*
X90664521Y-103939576D01*
X90664524Y-103939572D01*
X90671897Y-103913607D01*
X90678294Y-103891079D01*
X90680120Y-103885206D01*
X90687043Y-103864746D01*
X90696274Y-103837465D01*
X90696274Y-103837460D01*
X90697852Y-103829489D01*
X90699655Y-103829845D01*
X90706471Y-103805828D01*
X90704766Y-103805191D01*
X90707609Y-103797586D01*
X90707610Y-103797585D01*
X90718929Y-103748534D01*
X90720465Y-103742566D01*
X90724782Y-103727363D01*
X90734211Y-103694160D01*
X90734211Y-103694154D01*
X90735393Y-103686113D01*
X90737080Y-103686360D01*
X90742934Y-103660980D01*
X90741324Y-103660469D01*
X90743785Y-103652720D01*
X90743784Y-103652720D01*
X90743786Y-103652718D01*
X90752619Y-103603251D01*
X90753861Y-103597180D01*
X90765159Y-103548227D01*
X90765159Y-103548226D01*
X90765161Y-103548219D01*
X90765160Y-103548209D01*
X90765938Y-103540135D01*
X90767504Y-103540285D01*
X90772291Y-103513467D01*
X90770781Y-103513070D01*
X90772848Y-103505213D01*
X90772850Y-103505209D01*
X90779180Y-103455389D01*
X90780118Y-103449252D01*
X90788937Y-103399868D01*
X90788937Y-103399865D01*
X90789309Y-103391747D01*
X90790734Y-103391812D01*
X90794327Y-103363526D01*
X90792941Y-103363236D01*
X90794607Y-103355287D01*
X90794611Y-103355279D01*
X90798409Y-103305304D01*
X90799037Y-103299114D01*
X90805361Y-103249355D01*
X90805359Y-103249347D01*
X90805324Y-103241223D01*
X90806598Y-103241217D01*
X90808863Y-103211414D01*
X90807610Y-103211217D01*
X90808872Y-103203196D01*
X90808875Y-103203189D01*
X90810140Y-103153111D01*
X90810456Y-103146874D01*
X90814256Y-103096907D01*
X90814254Y-103096900D01*
X90813809Y-103088792D01*
X90814692Y-103088743D01*
X90814177Y-103070028D01*
X90813955Y-103070028D01*
X90813955Y-103061940D01*
X90813954Y-103061904D01*
X90813955Y-103061896D01*
X90813955Y-103003887D01*
X90813995Y-103000751D01*
X90814249Y-102990707D01*
X90815461Y-102942790D01*
X90815460Y-102942789D01*
X90815461Y-102942787D01*
X90814646Y-102935092D01*
X90813955Y-102922024D01*
X90813955Y-102809290D01*
X319660364Y-102809290D01*
X319661164Y-102838204D01*
X319662464Y-102838276D01*
X319662017Y-102846394D01*
X319665813Y-102896326D01*
X319666130Y-102902590D01*
X319667396Y-102952663D01*
X319668661Y-102960695D01*
X319667416Y-102960890D01*
X319669683Y-102990707D01*
X319670949Y-102990713D01*
X319670912Y-102998842D01*
X319677230Y-103048567D01*
X319677862Y-103054794D01*
X319681661Y-103104762D01*
X319683330Y-103112713D01*
X319681950Y-103113002D01*
X319685545Y-103141304D01*
X319686964Y-103141240D01*
X319687335Y-103149356D01*
X319696153Y-103198733D01*
X319697094Y-103204897D01*
X319703422Y-103254687D01*
X319705492Y-103262555D01*
X319703993Y-103262949D01*
X319708779Y-103289761D01*
X319710335Y-103289612D01*
X319711114Y-103297708D01*
X319722409Y-103346651D01*
X319723654Y-103352733D01*
X319732489Y-103402206D01*
X319734950Y-103409951D01*
X319733343Y-103410461D01*
X319739201Y-103435850D01*
X319740882Y-103435604D01*
X319742061Y-103443639D01*
X319755805Y-103492036D01*
X319757341Y-103498010D01*
X319768664Y-103547069D01*
X319768665Y-103547071D01*
X319768666Y-103547074D01*
X319771511Y-103554687D01*
X319769812Y-103555321D01*
X319776631Y-103579336D01*
X319778423Y-103578982D01*
X319779999Y-103586949D01*
X319796159Y-103634708D01*
X319797982Y-103640569D01*
X319810915Y-103686113D01*
X319811750Y-103689054D01*
X319814972Y-103696516D01*
X319813204Y-103697278D01*
X319820886Y-103719982D01*
X319822768Y-103719513D01*
X319824738Y-103727402D01*
X319843255Y-103774370D01*
X319845354Y-103780104D01*
X319861543Y-103827948D01*
X319865132Y-103835242D01*
X319863313Y-103836136D01*
X319871775Y-103857602D01*
X319873730Y-103857011D01*
X319876083Y-103864794D01*
X319896923Y-103910893D01*
X319899289Y-103916486D01*
X319917824Y-103963496D01*
X319917840Y-103963535D01*
X319921781Y-103970639D01*
X319919915Y-103971673D01*
X319929089Y-103991969D01*
X319931113Y-103991248D01*
X319933843Y-103998907D01*
X319956942Y-104044008D01*
X319959565Y-104049453D01*
X319980433Y-104095615D01*
X319984723Y-104102526D01*
X319982838Y-104103695D01*
X319992672Y-104122893D01*
X319994734Y-104122044D01*
X319997831Y-104129559D01*
X320023119Y-104173539D01*
X320025988Y-104178821D01*
X320049125Y-104223997D01*
X320053745Y-104230688D01*
X320051854Y-104231992D01*
X320062308Y-104250166D01*
X320064394Y-104249187D01*
X320067848Y-104256540D01*
X320095283Y-104299335D01*
X320098389Y-104304448D01*
X320123715Y-104348494D01*
X320128650Y-104354949D01*
X320126819Y-104356348D01*
X320137885Y-104373583D01*
X320139917Y-104372507D01*
X320143722Y-104379688D01*
X320173191Y-104421128D01*
X320176528Y-104426067D01*
X320204003Y-104468925D01*
X320209246Y-104475137D01*
X320208064Y-104476134D01*
X320221152Y-104491878D01*
X320225249Y-104498789D01*
X320225250Y-104498791D01*
X320225251Y-104498792D01*
X320256692Y-104538802D01*
X320256718Y-104538834D01*
X320260255Y-104543563D01*
X320289794Y-104585102D01*
X320289798Y-104585105D01*
X320295210Y-104590926D01*
X320307920Y-104607101D01*
X320312264Y-104613689D01*
X320345625Y-104652202D01*
X320349396Y-104656771D01*
X320380893Y-104696852D01*
X320386496Y-104702326D01*
X320399983Y-104717896D01*
X320404580Y-104724193D01*
X320439775Y-104761108D01*
X320443743Y-104765473D01*
X320466452Y-104791689D01*
X320477129Y-104804015D01*
X320482932Y-104809167D01*
X320497150Y-104824080D01*
X320502012Y-104830113D01*
X320502014Y-104830115D01*
X320538892Y-104865275D01*
X320538921Y-104865302D01*
X320543104Y-104869484D01*
X320578296Y-104906396D01*
X320584324Y-104911254D01*
X320599239Y-104925474D01*
X320604398Y-104931284D01*
X320604401Y-104931288D01*
X320642945Y-104964675D01*
X320647318Y-104968649D01*
X320664575Y-104985102D01*
X320684221Y-105003833D01*
X320690507Y-105008422D01*
X320706084Y-105021914D01*
X320711551Y-105027509D01*
X320711555Y-105027512D01*
X320751620Y-105058996D01*
X320756178Y-105062759D01*
X320794725Y-105096149D01*
X320801301Y-105100485D01*
X320817481Y-105113197D01*
X320823309Y-105118616D01*
X320823311Y-105118618D01*
X320864827Y-105148141D01*
X320869562Y-105151682D01*
X320909618Y-105183160D01*
X320909620Y-105183161D01*
X320916531Y-105187258D01*
X320932329Y-105200288D01*
X320933276Y-105199167D01*
X320939485Y-105204407D01*
X320982330Y-105231874D01*
X320987250Y-105235197D01*
X321028728Y-105264693D01*
X321028731Y-105264694D01*
X321035908Y-105268497D01*
X321034760Y-105270663D01*
X321051989Y-105281683D01*
X321053460Y-105279760D01*
X321059916Y-105284696D01*
X321103986Y-105310035D01*
X321109086Y-105313134D01*
X321151872Y-105340563D01*
X321159227Y-105344019D01*
X321158233Y-105346133D01*
X321176415Y-105356572D01*
X321177728Y-105354671D01*
X321184412Y-105359285D01*
X321229583Y-105382419D01*
X321234847Y-105385278D01*
X321278858Y-105410584D01*
X321278860Y-105410584D01*
X321278861Y-105410585D01*
X321286372Y-105413681D01*
X321285515Y-105415759D01*
X321304715Y-105425585D01*
X321305890Y-105423693D01*
X321312795Y-105427977D01*
X321312797Y-105427979D01*
X321358988Y-105448861D01*
X321364397Y-105451466D01*
X321409506Y-105474570D01*
X321417159Y-105477298D01*
X321416433Y-105479333D01*
X321436730Y-105488502D01*
X321437769Y-105486630D01*
X321444875Y-105490571D01*
X321444878Y-105490574D01*
X321463410Y-105497880D01*
X321472526Y-105501475D01*
X321527672Y-105544378D01*
X321550869Y-105610284D01*
X321534752Y-105678270D01*
X321534431Y-105678829D01*
X321524776Y-105695552D01*
X321524773Y-105695558D01*
X321464897Y-105860064D01*
X321434499Y-106032466D01*
X321434499Y-119195880D01*
X321434500Y-119195893D01*
X321434500Y-119207533D01*
X321464898Y-119379935D01*
X321524774Y-119544441D01*
X321524777Y-119544448D01*
X321612308Y-119696056D01*
X321724829Y-119830155D01*
X321724830Y-119830155D01*
X321724836Y-119830162D01*
X321858944Y-119942692D01*
X321858946Y-119942693D01*
X321858950Y-119942696D01*
X321984103Y-120014953D01*
X322010555Y-120030225D01*
X322175062Y-120090100D01*
X322347467Y-120120500D01*
X322347469Y-120120500D01*
X335522529Y-120120500D01*
X335527715Y-120120500D01*
X335529919Y-120119296D01*
X335534744Y-120118346D01*
X335694934Y-120090100D01*
X335859442Y-120030225D01*
X336011053Y-119942693D01*
X336145161Y-119830163D01*
X336257691Y-119696055D01*
X336345224Y-119544444D01*
X336405100Y-119379936D01*
X336435499Y-119207531D01*
X336435499Y-119119998D01*
X336435499Y-119054106D01*
X336435499Y-106120004D01*
X336435500Y-106120004D01*
X336435501Y-106032471D01*
X336405101Y-105860065D01*
X336345226Y-105695557D01*
X336257693Y-105543945D01*
X336257691Y-105543943D01*
X336257691Y-105543942D01*
X336203477Y-105479333D01*
X336145163Y-105409837D01*
X336066724Y-105344019D01*
X336011057Y-105297308D01*
X336011053Y-105297306D01*
X335983993Y-105281683D01*
X335859443Y-105209774D01*
X335749771Y-105169857D01*
X335694936Y-105149899D01*
X335608732Y-105134699D01*
X335522529Y-105119499D01*
X335522528Y-105119499D01*
X335434996Y-105119500D01*
X324833764Y-105119500D01*
X324766725Y-105099815D01*
X324720970Y-105047011D01*
X324711026Y-104977853D01*
X324740051Y-104914297D01*
X324744006Y-104909946D01*
X324755172Y-104898231D01*
X324782623Y-104869432D01*
X324786753Y-104865302D01*
X324823691Y-104830079D01*
X324823696Y-104830069D01*
X324828549Y-104824049D01*
X324842778Y-104809122D01*
X324848565Y-104803983D01*
X324848570Y-104803980D01*
X324881962Y-104765421D01*
X324885917Y-104761070D01*
X324921109Y-104724152D01*
X324921113Y-104724143D01*
X324925696Y-104717867D01*
X324939187Y-104702289D01*
X324944780Y-104696822D01*
X324944785Y-104696819D01*
X324976277Y-104656735D01*
X324980039Y-104652173D01*
X325013407Y-104613646D01*
X325013410Y-104613638D01*
X325017735Y-104607079D01*
X325030454Y-104590888D01*
X325035864Y-104585067D01*
X325035868Y-104585065D01*
X325065384Y-104543548D01*
X325068916Y-104538822D01*
X325100404Y-104498746D01*
X325100407Y-104498738D01*
X325104491Y-104491850D01*
X325118177Y-104476591D01*
X325116403Y-104475094D01*
X325121642Y-104468885D01*
X325121643Y-104468884D01*
X325149117Y-104426016D01*
X325152423Y-104421121D01*
X325181917Y-104379639D01*
X325181918Y-104379635D01*
X325185722Y-104372456D01*
X325187958Y-104373640D01*
X325198970Y-104356437D01*
X325196977Y-104354914D01*
X325201909Y-104348459D01*
X325201915Y-104348454D01*
X325227262Y-104304357D01*
X325230321Y-104299321D01*
X325257770Y-104256497D01*
X325257772Y-104256487D01*
X325261227Y-104249135D01*
X325263332Y-104250123D01*
X325273769Y-104231961D01*
X325271867Y-104230648D01*
X325276480Y-104223963D01*
X325276486Y-104223957D01*
X325299623Y-104178766D01*
X325302462Y-104173539D01*
X325327776Y-104129505D01*
X325327778Y-104129495D01*
X325330873Y-104121986D01*
X325332964Y-104122847D01*
X325342782Y-104103667D01*
X325340874Y-104102483D01*
X325345155Y-104095583D01*
X325345155Y-104095582D01*
X325345159Y-104095578D01*
X325366053Y-104049349D01*
X325368655Y-104043949D01*
X325374531Y-104032473D01*
X325391745Y-103998855D01*
X325391747Y-103998843D01*
X325394474Y-103991196D01*
X325396525Y-103991927D01*
X325405684Y-103971659D01*
X325403794Y-103970611D01*
X325407735Y-103963504D01*
X325407736Y-103963501D01*
X325407740Y-103963496D01*
X325426310Y-103916382D01*
X325428644Y-103910863D01*
X325449489Y-103864746D01*
X325449490Y-103864738D01*
X325451842Y-103856963D01*
X325453825Y-103857562D01*
X325462277Y-103836112D01*
X325460433Y-103835205D01*
X325464017Y-103827916D01*
X325464021Y-103827911D01*
X325480216Y-103780032D01*
X325482301Y-103774338D01*
X325500818Y-103727363D01*
X325500817Y-103727363D01*
X325500820Y-103727358D01*
X325500820Y-103727352D01*
X325502787Y-103719475D01*
X325504684Y-103719948D01*
X325512359Y-103697253D01*
X325510578Y-103696484D01*
X325513797Y-103689025D01*
X325513800Y-103689022D01*
X325515363Y-103683518D01*
X325524105Y-103652720D01*
X325527567Y-103640520D01*
X325529379Y-103634691D01*
X325545543Y-103586910D01*
X325545543Y-103586904D01*
X325547121Y-103578932D01*
X325548929Y-103579289D01*
X325555738Y-103555290D01*
X325554029Y-103554652D01*
X325556873Y-103547042D01*
X325556874Y-103547039D01*
X325568200Y-103497943D01*
X325569720Y-103492036D01*
X325583469Y-103443608D01*
X325583469Y-103443598D01*
X325584648Y-103435568D01*
X325586342Y-103435816D01*
X325592194Y-103410441D01*
X325590577Y-103409928D01*
X325593037Y-103402181D01*
X325593449Y-103399876D01*
X325601865Y-103352726D01*
X325603104Y-103346664D01*
X325614409Y-103297670D01*
X325614409Y-103297667D01*
X325615187Y-103289576D01*
X325616753Y-103289726D01*
X325621534Y-103262935D01*
X325620026Y-103262539D01*
X325622093Y-103254679D01*
X325622093Y-103254677D01*
X325622095Y-103254673D01*
X325628424Y-103204840D01*
X325629353Y-103198760D01*
X325638178Y-103149330D01*
X325638177Y-103149325D01*
X325638178Y-103149324D01*
X325638550Y-103141207D01*
X325639975Y-103141272D01*
X325643565Y-103113003D01*
X325642178Y-103112712D01*
X325643845Y-103104756D01*
X325643848Y-103104751D01*
X325647647Y-103054765D01*
X325648276Y-103048567D01*
X325654147Y-103002352D01*
X325654596Y-102998820D01*
X325654559Y-102990690D01*
X325655836Y-102990684D01*
X325658100Y-102960901D01*
X325656843Y-102960704D01*
X325658108Y-102952667D01*
X325658161Y-102950555D01*
X325659374Y-102902559D01*
X325659688Y-102896339D01*
X325663487Y-102846378D01*
X325663485Y-102846372D01*
X325663040Y-102838260D01*
X325663925Y-102838211D01*
X325663410Y-102819511D01*
X325663186Y-102819511D01*
X325663186Y-102753383D01*
X325663226Y-102750248D01*
X325664692Y-102692266D01*
X325663877Y-102684572D01*
X325663186Y-102671503D01*
X325663186Y-101194500D01*
X325682871Y-101127461D01*
X325735675Y-101081706D01*
X325787186Y-101070500D01*
X335527715Y-101070500D01*
X335529919Y-101069296D01*
X335534744Y-101068346D01*
X335694934Y-101040100D01*
X335859442Y-100980225D01*
X336011053Y-100892693D01*
X336145161Y-100780163D01*
X336257691Y-100646055D01*
X336345224Y-100494444D01*
X336405100Y-100329936D01*
X336435499Y-100157531D01*
X336435499Y-100069998D01*
X336435499Y-100004106D01*
X336435499Y-87070004D01*
X336435500Y-87070004D01*
X336435501Y-86982471D01*
X336405101Y-86810065D01*
X336345226Y-86645557D01*
X336257693Y-86493945D01*
X336257691Y-86493943D01*
X336257691Y-86493942D01*
X336219326Y-86448221D01*
X336145163Y-86359837D01*
X336070998Y-86297605D01*
X336011057Y-86247308D01*
X336011053Y-86247306D01*
X335859446Y-86159776D01*
X335859447Y-86159776D01*
X335859443Y-86159774D01*
X335749771Y-86119857D01*
X335694936Y-86099899D01*
X335608732Y-86084699D01*
X335522529Y-86069499D01*
X335522528Y-86069499D01*
X335434996Y-86069500D01*
X322486363Y-86069500D01*
X322486360Y-86069499D01*
X322435000Y-86069499D01*
X322347467Y-86069499D01*
X322347464Y-86069499D01*
X322175060Y-86099899D01*
X322010559Y-86159772D01*
X322010549Y-86159776D01*
X321858946Y-86247304D01*
X321858940Y-86247309D01*
X321724837Y-86359835D01*
X321724835Y-86359838D01*
X321612305Y-86493945D01*
X321524776Y-86645551D01*
X321524773Y-86645558D01*
X321464897Y-86810064D01*
X321434499Y-86982466D01*
X321434499Y-99927497D01*
X321414814Y-99994536D01*
X321367250Y-100037748D01*
X321346319Y-100048522D01*
X321341896Y-100050689D01*
X321290382Y-100074667D01*
X321240655Y-100102808D01*
X321236343Y-100105136D01*
X321185938Y-100131085D01*
X321137542Y-100161054D01*
X321133335Y-100163546D01*
X321084085Y-100191418D01*
X321036998Y-100223203D01*
X321032908Y-100225849D01*
X320984874Y-100255594D01*
X320939159Y-100289133D01*
X320935187Y-100291929D01*
X320888425Y-100323494D01*
X320844143Y-100358725D01*
X320840293Y-100361667D01*
X320794836Y-100395016D01*
X320752039Y-100431881D01*
X320748315Y-100434964D01*
X320704224Y-100470043D01*
X320662908Y-100508534D01*
X320659314Y-100511754D01*
X320616626Y-100548525D01*
X320576894Y-100588544D01*
X320573424Y-100591904D01*
X320532213Y-100630297D01*
X320494080Y-100671821D01*
X320490746Y-100675312D01*
X320451025Y-100715319D01*
X320426596Y-100744094D01*
X320418463Y-100753675D01*
X320414549Y-100758285D01*
X320411350Y-100761907D01*
X320373154Y-100803498D01*
X320338395Y-100847839D01*
X320335335Y-100851589D01*
X320298794Y-100894630D01*
X320265746Y-100940363D01*
X320262834Y-100944232D01*
X320227902Y-100988796D01*
X320196673Y-101035788D01*
X320193905Y-101039781D01*
X320160705Y-101085725D01*
X320131299Y-101133989D01*
X320128682Y-101138099D01*
X320097217Y-101185448D01*
X320069691Y-101234920D01*
X320067231Y-101239144D01*
X320037610Y-101287764D01*
X320012017Y-101338386D01*
X320009716Y-101342722D01*
X319981927Y-101392672D01*
X319958311Y-101444400D01*
X319956175Y-101448843D01*
X319930317Y-101499993D01*
X319908728Y-101552770D01*
X319906763Y-101557315D01*
X319882877Y-101609637D01*
X319863365Y-101663407D01*
X319861574Y-101668048D01*
X319839704Y-101721517D01*
X319822301Y-101776275D01*
X319820690Y-101781012D01*
X319800917Y-101835503D01*
X319785692Y-101891128D01*
X319784267Y-101895947D01*
X319766613Y-101951497D01*
X319753592Y-102008013D01*
X319752360Y-102012905D01*
X319736904Y-102069375D01*
X319726152Y-102126664D01*
X319725115Y-102131625D01*
X319711901Y-102188983D01*
X319703457Y-102247022D01*
X319702621Y-102252041D01*
X319691692Y-102310269D01*
X319685605Y-102368993D01*
X319684975Y-102374057D01*
X319676398Y-102433017D01*
X319672711Y-102492384D01*
X319672288Y-102497480D01*
X319666101Y-102557173D01*
X319664863Y-102617083D01*
X319664651Y-102622201D01*
X319660925Y-102682228D01*
X319660771Y-102690634D01*
X319662115Y-102743788D01*
X319662129Y-102749479D01*
X319661065Y-102801032D01*
X319661960Y-102809114D01*
X319660364Y-102809290D01*
X90813955Y-102809290D01*
X90813955Y-101194500D01*
X90833640Y-101127461D01*
X90886444Y-101081706D01*
X90937955Y-101070500D01*
X97402715Y-101070500D01*
X97404919Y-101069296D01*
X97409744Y-101068346D01*
X97569934Y-101040100D01*
X97734442Y-100980225D01*
X97886053Y-100892693D01*
X98020161Y-100780163D01*
X98132691Y-100646055D01*
X98220224Y-100494444D01*
X98280100Y-100329936D01*
X98310499Y-100157531D01*
X98310499Y-100145880D01*
X102359499Y-100145880D01*
X102359500Y-100145893D01*
X102359500Y-100157533D01*
X102389898Y-100329935D01*
X102422340Y-100419067D01*
X102449594Y-100493948D01*
X102449774Y-100494441D01*
X102449777Y-100494448D01*
X102537308Y-100646056D01*
X102649829Y-100780155D01*
X102649830Y-100780155D01*
X102649836Y-100780162D01*
X102783944Y-100892692D01*
X102783946Y-100892693D01*
X102783950Y-100892696D01*
X102881061Y-100948763D01*
X102935555Y-100980225D01*
X103100062Y-101040100D01*
X103272467Y-101070500D01*
X103272469Y-101070500D01*
X116447529Y-101070500D01*
X116452715Y-101070500D01*
X116454919Y-101069296D01*
X116459744Y-101068346D01*
X116619934Y-101040100D01*
X116784442Y-100980225D01*
X116936053Y-100892693D01*
X117070161Y-100780163D01*
X117182691Y-100646055D01*
X117270224Y-100494444D01*
X117330100Y-100329936D01*
X117360499Y-100157531D01*
X117360499Y-100145880D01*
X121409499Y-100145880D01*
X121409500Y-100145893D01*
X121409500Y-100157533D01*
X121439898Y-100329935D01*
X121472340Y-100419067D01*
X121499594Y-100493948D01*
X121499774Y-100494441D01*
X121499777Y-100494448D01*
X121587308Y-100646056D01*
X121699829Y-100780155D01*
X121699830Y-100780155D01*
X121699836Y-100780162D01*
X121833944Y-100892692D01*
X121833946Y-100892693D01*
X121833950Y-100892696D01*
X121931061Y-100948763D01*
X121985555Y-100980225D01*
X122150062Y-101040100D01*
X122322467Y-101070500D01*
X122322469Y-101070500D01*
X135497529Y-101070500D01*
X135502715Y-101070500D01*
X135504919Y-101069296D01*
X135509744Y-101068346D01*
X135669934Y-101040100D01*
X135834442Y-100980225D01*
X135986053Y-100892693D01*
X136120161Y-100780163D01*
X136232691Y-100646055D01*
X136320224Y-100494444D01*
X136380100Y-100329936D01*
X136410499Y-100157531D01*
X136410499Y-100145880D01*
X140459499Y-100145880D01*
X140459500Y-100145893D01*
X140459500Y-100157533D01*
X140489898Y-100329935D01*
X140522340Y-100419067D01*
X140549594Y-100493948D01*
X140549774Y-100494441D01*
X140549777Y-100494448D01*
X140637308Y-100646056D01*
X140749829Y-100780155D01*
X140749830Y-100780155D01*
X140749836Y-100780162D01*
X140883944Y-100892692D01*
X140883946Y-100892693D01*
X140883950Y-100892696D01*
X140981061Y-100948763D01*
X141035555Y-100980225D01*
X141200062Y-101040100D01*
X141372467Y-101070500D01*
X141372469Y-101070500D01*
X154547529Y-101070500D01*
X154552715Y-101070500D01*
X154554919Y-101069296D01*
X154559744Y-101068346D01*
X154719934Y-101040100D01*
X154884442Y-100980225D01*
X155036053Y-100892693D01*
X155170161Y-100780163D01*
X155282691Y-100646055D01*
X155370224Y-100494444D01*
X155430100Y-100329936D01*
X155460499Y-100157531D01*
X155460499Y-100145880D01*
X159509499Y-100145880D01*
X159509500Y-100145893D01*
X159509500Y-100157533D01*
X159539898Y-100329935D01*
X159572340Y-100419067D01*
X159599594Y-100493948D01*
X159599774Y-100494441D01*
X159599777Y-100494448D01*
X159687308Y-100646056D01*
X159799829Y-100780155D01*
X159799830Y-100780155D01*
X159799836Y-100780162D01*
X159933944Y-100892692D01*
X159933946Y-100892693D01*
X159933950Y-100892696D01*
X160031061Y-100948763D01*
X160085555Y-100980225D01*
X160250062Y-101040100D01*
X160422467Y-101070500D01*
X160422469Y-101070500D01*
X173597529Y-101070500D01*
X173602715Y-101070500D01*
X173604919Y-101069296D01*
X173609744Y-101068346D01*
X173769934Y-101040100D01*
X173934442Y-100980225D01*
X174086053Y-100892693D01*
X174220161Y-100780163D01*
X174332691Y-100646055D01*
X174420224Y-100494444D01*
X174480100Y-100329936D01*
X174510499Y-100157531D01*
X174510499Y-100145880D01*
X178559499Y-100145880D01*
X178559500Y-100145893D01*
X178559500Y-100157533D01*
X178589898Y-100329935D01*
X178622340Y-100419067D01*
X178649594Y-100493948D01*
X178649774Y-100494441D01*
X178649777Y-100494448D01*
X178737308Y-100646056D01*
X178849829Y-100780155D01*
X178849830Y-100780155D01*
X178849836Y-100780162D01*
X178983944Y-100892692D01*
X178983946Y-100892693D01*
X178983950Y-100892696D01*
X179081061Y-100948763D01*
X179135555Y-100980225D01*
X179300062Y-101040100D01*
X179472467Y-101070500D01*
X179472469Y-101070500D01*
X192647529Y-101070500D01*
X192652715Y-101070500D01*
X192654919Y-101069296D01*
X192659744Y-101068346D01*
X192819934Y-101040100D01*
X192984442Y-100980225D01*
X193136053Y-100892693D01*
X193270161Y-100780163D01*
X193382691Y-100646055D01*
X193470224Y-100494444D01*
X193530100Y-100329936D01*
X193560499Y-100157531D01*
X193560499Y-100145880D01*
X202371999Y-100145880D01*
X202372000Y-100145893D01*
X202372000Y-100157533D01*
X202402398Y-100329935D01*
X202434840Y-100419067D01*
X202462094Y-100493948D01*
X202462274Y-100494441D01*
X202462277Y-100494448D01*
X202549808Y-100646056D01*
X202662329Y-100780155D01*
X202662330Y-100780155D01*
X202662336Y-100780162D01*
X202796444Y-100892692D01*
X202796446Y-100892693D01*
X202796450Y-100892696D01*
X202893561Y-100948763D01*
X202948055Y-100980225D01*
X203112562Y-101040100D01*
X203284967Y-101070500D01*
X203284969Y-101070500D01*
X216460029Y-101070500D01*
X216465215Y-101070500D01*
X216467419Y-101069296D01*
X216472244Y-101068346D01*
X216632434Y-101040100D01*
X216796942Y-100980225D01*
X216948553Y-100892693D01*
X217082661Y-100780163D01*
X217195191Y-100646055D01*
X217282724Y-100494444D01*
X217342600Y-100329936D01*
X217372999Y-100157531D01*
X217372999Y-100145880D01*
X221421999Y-100145880D01*
X221422000Y-100145893D01*
X221422000Y-100157533D01*
X221452398Y-100329935D01*
X221484840Y-100419067D01*
X221512094Y-100493948D01*
X221512274Y-100494441D01*
X221512277Y-100494448D01*
X221599808Y-100646056D01*
X221712329Y-100780155D01*
X221712330Y-100780155D01*
X221712336Y-100780162D01*
X221846444Y-100892692D01*
X221846446Y-100892693D01*
X221846450Y-100892696D01*
X221943561Y-100948763D01*
X221998055Y-100980225D01*
X222162562Y-101040100D01*
X222334967Y-101070500D01*
X222334969Y-101070500D01*
X235510029Y-101070500D01*
X235515215Y-101070500D01*
X235517419Y-101069296D01*
X235522244Y-101068346D01*
X235682434Y-101040100D01*
X235846942Y-100980225D01*
X235998553Y-100892693D01*
X236132661Y-100780163D01*
X236245191Y-100646055D01*
X236332724Y-100494444D01*
X236392600Y-100329936D01*
X236422999Y-100157531D01*
X236422999Y-100145880D01*
X240471999Y-100145880D01*
X240472000Y-100145893D01*
X240472000Y-100157533D01*
X240502398Y-100329935D01*
X240534840Y-100419067D01*
X240562094Y-100493948D01*
X240562274Y-100494441D01*
X240562277Y-100494448D01*
X240649808Y-100646056D01*
X240762329Y-100780155D01*
X240762330Y-100780155D01*
X240762336Y-100780162D01*
X240896444Y-100892692D01*
X240896446Y-100892693D01*
X240896450Y-100892696D01*
X240993561Y-100948763D01*
X241048055Y-100980225D01*
X241212562Y-101040100D01*
X241384967Y-101070500D01*
X241384969Y-101070500D01*
X254560029Y-101070500D01*
X254565215Y-101070500D01*
X254567419Y-101069296D01*
X254572244Y-101068346D01*
X254732434Y-101040100D01*
X254896942Y-100980225D01*
X255048553Y-100892693D01*
X255182661Y-100780163D01*
X255295191Y-100646055D01*
X255382724Y-100494444D01*
X255442600Y-100329936D01*
X255472999Y-100157531D01*
X255472999Y-100145880D01*
X259521999Y-100145880D01*
X259522000Y-100145893D01*
X259522000Y-100157533D01*
X259552398Y-100329935D01*
X259584840Y-100419067D01*
X259612094Y-100493948D01*
X259612274Y-100494441D01*
X259612277Y-100494448D01*
X259699808Y-100646056D01*
X259812329Y-100780155D01*
X259812330Y-100780155D01*
X259812336Y-100780162D01*
X259946444Y-100892692D01*
X259946446Y-100892693D01*
X259946450Y-100892696D01*
X260043561Y-100948763D01*
X260098055Y-100980225D01*
X260262562Y-101040100D01*
X260434967Y-101070500D01*
X260434969Y-101070500D01*
X273610029Y-101070500D01*
X273615215Y-101070500D01*
X273617419Y-101069296D01*
X273622244Y-101068346D01*
X273782434Y-101040100D01*
X273946942Y-100980225D01*
X274098553Y-100892693D01*
X274232661Y-100780163D01*
X274345191Y-100646055D01*
X274432724Y-100494444D01*
X274492600Y-100329936D01*
X274522999Y-100157531D01*
X274522999Y-100145880D01*
X278571999Y-100145880D01*
X278572000Y-100145893D01*
X278572000Y-100157533D01*
X278602398Y-100329935D01*
X278634840Y-100419067D01*
X278662094Y-100493948D01*
X278662274Y-100494441D01*
X278662277Y-100494448D01*
X278749808Y-100646056D01*
X278862329Y-100780155D01*
X278862330Y-100780155D01*
X278862336Y-100780162D01*
X278996444Y-100892692D01*
X278996446Y-100892693D01*
X278996450Y-100892696D01*
X279093561Y-100948763D01*
X279148055Y-100980225D01*
X279312562Y-101040100D01*
X279484967Y-101070500D01*
X279484969Y-101070500D01*
X292660029Y-101070500D01*
X292665215Y-101070500D01*
X292667419Y-101069296D01*
X292672244Y-101068346D01*
X292832434Y-101040100D01*
X292996942Y-100980225D01*
X293148553Y-100892693D01*
X293282661Y-100780163D01*
X293395191Y-100646055D01*
X293482724Y-100494444D01*
X293542600Y-100329936D01*
X293572999Y-100157531D01*
X293572999Y-100145880D01*
X297621999Y-100145880D01*
X297622000Y-100145893D01*
X297622000Y-100157533D01*
X297652398Y-100329935D01*
X297684840Y-100419067D01*
X297712094Y-100493948D01*
X297712274Y-100494441D01*
X297712277Y-100494448D01*
X297799808Y-100646056D01*
X297912329Y-100780155D01*
X297912330Y-100780155D01*
X297912336Y-100780162D01*
X298046444Y-100892692D01*
X298046446Y-100892693D01*
X298046450Y-100892696D01*
X298143561Y-100948763D01*
X298198055Y-100980225D01*
X298362562Y-101040100D01*
X298534967Y-101070500D01*
X298534969Y-101070500D01*
X311710029Y-101070500D01*
X311715215Y-101070500D01*
X311717419Y-101069296D01*
X311722244Y-101068346D01*
X311882434Y-101040100D01*
X312046942Y-100980225D01*
X312198553Y-100892693D01*
X312332661Y-100780163D01*
X312445191Y-100646055D01*
X312532724Y-100494444D01*
X312592600Y-100329936D01*
X312622999Y-100157531D01*
X312622999Y-100069998D01*
X312622999Y-100004106D01*
X312622999Y-87070004D01*
X312623000Y-87070004D01*
X312623001Y-86982471D01*
X312592601Y-86810065D01*
X312532726Y-86645557D01*
X312445193Y-86493945D01*
X312445191Y-86493943D01*
X312445191Y-86493942D01*
X312406826Y-86448221D01*
X312332663Y-86359837D01*
X312258498Y-86297605D01*
X312198557Y-86247308D01*
X312198553Y-86247306D01*
X312046946Y-86159776D01*
X312046947Y-86159776D01*
X312046943Y-86159774D01*
X311937271Y-86119857D01*
X311882436Y-86099899D01*
X311796232Y-86084699D01*
X311710029Y-86069499D01*
X311710028Y-86069499D01*
X311622496Y-86069500D01*
X298673863Y-86069500D01*
X298673860Y-86069499D01*
X298622500Y-86069499D01*
X298534967Y-86069499D01*
X298534964Y-86069499D01*
X298362560Y-86099899D01*
X298198059Y-86159772D01*
X298198049Y-86159776D01*
X298046446Y-86247304D01*
X298046440Y-86247309D01*
X297912337Y-86359835D01*
X297912335Y-86359838D01*
X297799805Y-86493945D01*
X297712276Y-86645551D01*
X297712273Y-86645558D01*
X297652397Y-86810064D01*
X297621999Y-86982466D01*
X297621999Y-100145880D01*
X293572999Y-100145880D01*
X293572999Y-100069998D01*
X293572999Y-100004106D01*
X293572999Y-87070004D01*
X293573000Y-87070004D01*
X293573001Y-86982471D01*
X293542601Y-86810065D01*
X293482726Y-86645557D01*
X293395193Y-86493945D01*
X293395191Y-86493943D01*
X293395191Y-86493942D01*
X293356826Y-86448221D01*
X293282663Y-86359837D01*
X293208498Y-86297605D01*
X293148557Y-86247308D01*
X293148553Y-86247306D01*
X292996946Y-86159776D01*
X292996947Y-86159776D01*
X292996943Y-86159774D01*
X292887271Y-86119857D01*
X292832436Y-86099899D01*
X292746232Y-86084699D01*
X292660029Y-86069499D01*
X292660028Y-86069499D01*
X292572496Y-86069500D01*
X279623863Y-86069500D01*
X279623860Y-86069499D01*
X279572500Y-86069499D01*
X279484967Y-86069499D01*
X279484964Y-86069499D01*
X279312560Y-86099899D01*
X279148059Y-86159772D01*
X279148049Y-86159776D01*
X278996446Y-86247304D01*
X278996440Y-86247309D01*
X278862337Y-86359835D01*
X278862335Y-86359838D01*
X278749805Y-86493945D01*
X278662276Y-86645551D01*
X278662273Y-86645558D01*
X278602397Y-86810064D01*
X278571999Y-86982466D01*
X278571999Y-100145880D01*
X274522999Y-100145880D01*
X274522999Y-100069998D01*
X274522999Y-100004106D01*
X274522999Y-87070004D01*
X274523000Y-87070004D01*
X274523001Y-86982471D01*
X274492601Y-86810065D01*
X274432726Y-86645557D01*
X274345193Y-86493945D01*
X274345191Y-86493943D01*
X274345191Y-86493942D01*
X274306826Y-86448221D01*
X274232663Y-86359837D01*
X274158498Y-86297605D01*
X274098557Y-86247308D01*
X274098553Y-86247306D01*
X273946946Y-86159776D01*
X273946947Y-86159776D01*
X273946943Y-86159774D01*
X273837271Y-86119857D01*
X273782436Y-86099899D01*
X273696232Y-86084699D01*
X273610029Y-86069499D01*
X273610028Y-86069499D01*
X273522496Y-86069500D01*
X260573863Y-86069500D01*
X260573860Y-86069499D01*
X260522500Y-86069499D01*
X260434967Y-86069499D01*
X260434964Y-86069499D01*
X260262560Y-86099899D01*
X260098059Y-86159772D01*
X260098049Y-86159776D01*
X259946446Y-86247304D01*
X259946440Y-86247309D01*
X259812337Y-86359835D01*
X259812335Y-86359838D01*
X259699805Y-86493945D01*
X259612276Y-86645551D01*
X259612273Y-86645558D01*
X259552397Y-86810064D01*
X259521999Y-86982466D01*
X259521999Y-100145880D01*
X255472999Y-100145880D01*
X255472999Y-100069998D01*
X255472999Y-100004106D01*
X255472999Y-87070004D01*
X255473000Y-87070004D01*
X255473001Y-86982471D01*
X255442601Y-86810065D01*
X255382726Y-86645557D01*
X255295193Y-86493945D01*
X255295191Y-86493943D01*
X255295191Y-86493942D01*
X255256826Y-86448221D01*
X255182663Y-86359837D01*
X255108498Y-86297605D01*
X255048557Y-86247308D01*
X255048553Y-86247306D01*
X254896946Y-86159776D01*
X254896947Y-86159776D01*
X254896943Y-86159774D01*
X254787271Y-86119857D01*
X254732436Y-86099899D01*
X254646232Y-86084699D01*
X254560029Y-86069499D01*
X254560028Y-86069499D01*
X254472496Y-86069500D01*
X241523863Y-86069500D01*
X241523860Y-86069499D01*
X241472500Y-86069499D01*
X241384967Y-86069499D01*
X241384964Y-86069499D01*
X241212560Y-86099899D01*
X241048059Y-86159772D01*
X241048049Y-86159776D01*
X240896446Y-86247304D01*
X240896440Y-86247309D01*
X240762337Y-86359835D01*
X240762335Y-86359838D01*
X240649805Y-86493945D01*
X240562276Y-86645551D01*
X240562273Y-86645558D01*
X240502397Y-86810064D01*
X240471999Y-86982466D01*
X240471999Y-100145880D01*
X236422999Y-100145880D01*
X236422999Y-100069998D01*
X236422999Y-100004106D01*
X236422999Y-87070004D01*
X236423000Y-87070004D01*
X236423001Y-86982471D01*
X236392601Y-86810065D01*
X236332726Y-86645557D01*
X236245193Y-86493945D01*
X236245191Y-86493943D01*
X236245191Y-86493942D01*
X236206826Y-86448221D01*
X236132663Y-86359837D01*
X236058498Y-86297605D01*
X235998557Y-86247308D01*
X235998553Y-86247306D01*
X235846946Y-86159776D01*
X235846947Y-86159776D01*
X235846943Y-86159774D01*
X235737271Y-86119857D01*
X235682436Y-86099899D01*
X235596232Y-86084699D01*
X235510029Y-86069499D01*
X235510028Y-86069499D01*
X235422496Y-86069500D01*
X222473863Y-86069500D01*
X222473860Y-86069499D01*
X222422500Y-86069499D01*
X222334967Y-86069499D01*
X222334964Y-86069499D01*
X222162560Y-86099899D01*
X221998059Y-86159772D01*
X221998049Y-86159776D01*
X221846446Y-86247304D01*
X221846440Y-86247309D01*
X221712337Y-86359835D01*
X221712335Y-86359838D01*
X221599805Y-86493945D01*
X221512276Y-86645551D01*
X221512273Y-86645558D01*
X221452397Y-86810064D01*
X221421999Y-86982466D01*
X221421999Y-100145880D01*
X217372999Y-100145880D01*
X217372999Y-100069998D01*
X217372999Y-100004106D01*
X217372999Y-87070004D01*
X217373000Y-87070004D01*
X217373001Y-86982471D01*
X217342601Y-86810065D01*
X217282726Y-86645557D01*
X217195193Y-86493945D01*
X217195191Y-86493943D01*
X217195191Y-86493942D01*
X217156826Y-86448221D01*
X217082663Y-86359837D01*
X217008498Y-86297605D01*
X216948557Y-86247308D01*
X216948553Y-86247306D01*
X216796946Y-86159776D01*
X216796947Y-86159776D01*
X216796943Y-86159774D01*
X216687271Y-86119857D01*
X216632436Y-86099899D01*
X216546232Y-86084699D01*
X216460029Y-86069499D01*
X216460028Y-86069499D01*
X216372496Y-86069500D01*
X203423863Y-86069500D01*
X203423860Y-86069499D01*
X203372500Y-86069499D01*
X203284967Y-86069499D01*
X203284964Y-86069499D01*
X203112560Y-86099899D01*
X202948059Y-86159772D01*
X202948049Y-86159776D01*
X202796446Y-86247304D01*
X202796440Y-86247309D01*
X202662337Y-86359835D01*
X202662335Y-86359838D01*
X202549805Y-86493945D01*
X202462276Y-86645551D01*
X202462273Y-86645558D01*
X202402397Y-86810064D01*
X202371999Y-86982466D01*
X202371999Y-100145880D01*
X193560499Y-100145880D01*
X193560499Y-100069998D01*
X193560499Y-100004106D01*
X193560499Y-87121365D01*
X193560500Y-87121361D01*
X193560500Y-86982473D01*
X193560500Y-86982471D01*
X193560500Y-86982469D01*
X193530101Y-86810063D01*
X193470225Y-86645555D01*
X193454953Y-86619103D01*
X193382696Y-86493950D01*
X193382693Y-86493946D01*
X193382692Y-86493944D01*
X193270162Y-86359836D01*
X193270155Y-86359830D01*
X193270155Y-86359829D01*
X193136055Y-86247308D01*
X193136054Y-86247307D01*
X193085517Y-86218129D01*
X192984447Y-86159776D01*
X192984445Y-86159775D01*
X192984443Y-86159774D01*
X192929242Y-86139682D01*
X192819936Y-86099899D01*
X192733732Y-86084699D01*
X192647529Y-86069499D01*
X192647528Y-86069499D01*
X192559996Y-86069500D01*
X179611363Y-86069500D01*
X179611360Y-86069499D01*
X179560000Y-86069499D01*
X179472467Y-86069499D01*
X179472464Y-86069499D01*
X179300060Y-86099899D01*
X179135559Y-86159772D01*
X179135549Y-86159776D01*
X178983946Y-86247304D01*
X178983940Y-86247309D01*
X178849837Y-86359835D01*
X178849835Y-86359838D01*
X178737305Y-86493945D01*
X178649776Y-86645551D01*
X178649773Y-86645558D01*
X178589897Y-86810064D01*
X178559499Y-86982466D01*
X178559499Y-100145880D01*
X174510499Y-100145880D01*
X174510499Y-100069998D01*
X174510499Y-100004106D01*
X174510499Y-87070004D01*
X174510500Y-87070004D01*
X174510501Y-86982471D01*
X174480101Y-86810065D01*
X174420226Y-86645557D01*
X174332693Y-86493945D01*
X174332691Y-86493943D01*
X174332691Y-86493942D01*
X174294326Y-86448221D01*
X174220163Y-86359837D01*
X174145998Y-86297605D01*
X174086057Y-86247308D01*
X174086053Y-86247306D01*
X173934446Y-86159776D01*
X173934447Y-86159776D01*
X173934443Y-86159774D01*
X173824771Y-86119857D01*
X173769936Y-86099899D01*
X173683732Y-86084699D01*
X173597529Y-86069499D01*
X173597528Y-86069499D01*
X173509996Y-86069500D01*
X160561363Y-86069500D01*
X160561360Y-86069499D01*
X160510000Y-86069499D01*
X160422467Y-86069499D01*
X160422464Y-86069499D01*
X160250060Y-86099899D01*
X160085559Y-86159772D01*
X160085549Y-86159776D01*
X159933946Y-86247304D01*
X159933940Y-86247309D01*
X159799837Y-86359835D01*
X159799835Y-86359838D01*
X159687305Y-86493945D01*
X159599776Y-86645551D01*
X159599773Y-86645558D01*
X159539897Y-86810064D01*
X159509499Y-86982466D01*
X159509499Y-100145880D01*
X155460499Y-100145880D01*
X155460499Y-100069998D01*
X155460499Y-100004106D01*
X155460499Y-87070004D01*
X155460500Y-87070004D01*
X155460501Y-86982471D01*
X155430101Y-86810065D01*
X155370226Y-86645557D01*
X155282693Y-86493945D01*
X155282691Y-86493943D01*
X155282691Y-86493942D01*
X155244326Y-86448221D01*
X155170163Y-86359837D01*
X155095998Y-86297605D01*
X155036057Y-86247308D01*
X155036053Y-86247306D01*
X154884446Y-86159776D01*
X154884447Y-86159776D01*
X154884443Y-86159774D01*
X154774771Y-86119857D01*
X154719936Y-86099899D01*
X154633732Y-86084699D01*
X154547529Y-86069499D01*
X154547528Y-86069499D01*
X154459996Y-86069500D01*
X141511363Y-86069500D01*
X141511360Y-86069499D01*
X141460000Y-86069499D01*
X141372467Y-86069499D01*
X141372464Y-86069499D01*
X141200060Y-86099899D01*
X141035559Y-86159772D01*
X141035549Y-86159776D01*
X140883946Y-86247304D01*
X140883940Y-86247309D01*
X140749837Y-86359835D01*
X140749835Y-86359838D01*
X140637305Y-86493945D01*
X140549776Y-86645551D01*
X140549773Y-86645558D01*
X140489897Y-86810064D01*
X140459499Y-86982466D01*
X140459499Y-100145880D01*
X136410499Y-100145880D01*
X136410499Y-100069998D01*
X136410499Y-100004106D01*
X136410499Y-87070004D01*
X136410500Y-87070004D01*
X136410501Y-86982471D01*
X136380101Y-86810065D01*
X136320226Y-86645557D01*
X136232693Y-86493945D01*
X136232691Y-86493943D01*
X136232691Y-86493942D01*
X136194326Y-86448221D01*
X136120163Y-86359837D01*
X136045998Y-86297605D01*
X135986057Y-86247308D01*
X135986053Y-86247306D01*
X135834446Y-86159776D01*
X135834447Y-86159776D01*
X135834443Y-86159774D01*
X135724771Y-86119857D01*
X135669936Y-86099899D01*
X135583732Y-86084699D01*
X135497529Y-86069499D01*
X135497528Y-86069499D01*
X135409996Y-86069500D01*
X122461363Y-86069500D01*
X122461360Y-86069499D01*
X122410000Y-86069499D01*
X122322467Y-86069499D01*
X122322464Y-86069499D01*
X122150060Y-86099899D01*
X121985559Y-86159772D01*
X121985549Y-86159776D01*
X121833946Y-86247304D01*
X121833940Y-86247309D01*
X121699837Y-86359835D01*
X121699835Y-86359838D01*
X121587305Y-86493945D01*
X121499776Y-86645551D01*
X121499773Y-86645558D01*
X121439897Y-86810064D01*
X121409499Y-86982466D01*
X121409499Y-100145880D01*
X117360499Y-100145880D01*
X117360499Y-100069998D01*
X117360499Y-100004106D01*
X117360499Y-87070004D01*
X117360500Y-87070004D01*
X117360501Y-86982471D01*
X117330101Y-86810065D01*
X117270226Y-86645557D01*
X117182693Y-86493945D01*
X117182691Y-86493943D01*
X117182691Y-86493942D01*
X117144326Y-86448221D01*
X117070163Y-86359837D01*
X116995998Y-86297605D01*
X116936057Y-86247308D01*
X116936053Y-86247306D01*
X116784446Y-86159776D01*
X116784447Y-86159776D01*
X116784443Y-86159774D01*
X116674771Y-86119857D01*
X116619936Y-86099899D01*
X116533732Y-86084699D01*
X116447529Y-86069499D01*
X116447528Y-86069499D01*
X116359996Y-86069500D01*
X103411363Y-86069500D01*
X103411360Y-86069499D01*
X103360000Y-86069499D01*
X103272467Y-86069499D01*
X103272464Y-86069499D01*
X103100060Y-86099899D01*
X102935559Y-86159772D01*
X102935549Y-86159776D01*
X102783946Y-86247304D01*
X102783940Y-86247309D01*
X102649837Y-86359835D01*
X102649835Y-86359838D01*
X102537305Y-86493945D01*
X102449776Y-86645551D01*
X102449773Y-86645558D01*
X102389897Y-86810064D01*
X102359499Y-86982466D01*
X102359499Y-100145880D01*
X98310499Y-100145880D01*
X98310499Y-100069998D01*
X98310499Y-100004106D01*
X98310499Y-87070004D01*
X98310500Y-87070004D01*
X98310501Y-86982471D01*
X98280101Y-86810065D01*
X98220226Y-86645557D01*
X98132693Y-86493945D01*
X98132691Y-86493943D01*
X98132691Y-86493942D01*
X98094326Y-86448221D01*
X98020163Y-86359837D01*
X97945998Y-86297605D01*
X97886057Y-86247308D01*
X97886053Y-86247306D01*
X97734446Y-86159776D01*
X97734447Y-86159776D01*
X97734443Y-86159774D01*
X97624771Y-86119857D01*
X97569936Y-86099899D01*
X97483732Y-86084699D01*
X97397529Y-86069499D01*
X97397528Y-86069499D01*
X97309996Y-86069500D01*
X84361363Y-86069500D01*
X84361360Y-86069499D01*
X84310000Y-86069499D01*
X84222467Y-86069499D01*
X84222464Y-86069499D01*
X84050060Y-86099899D01*
X83885559Y-86159772D01*
X83885549Y-86159776D01*
X83733946Y-86247304D01*
X83733940Y-86247309D01*
X83599837Y-86359835D01*
X83599835Y-86359838D01*
X83487305Y-86493945D01*
X83399776Y-86645551D01*
X83399773Y-86645558D01*
X83339897Y-86810064D01*
X83309499Y-86982466D01*
X83309499Y-100145880D01*
X79260499Y-100145880D01*
X79260499Y-100069998D01*
X79260499Y-100004106D01*
X79260499Y-87070004D01*
X79260500Y-87070004D01*
X79260501Y-86982471D01*
X79230101Y-86810065D01*
X79170226Y-86645557D01*
X79082693Y-86493945D01*
X79082691Y-86493943D01*
X79082691Y-86493942D01*
X79044326Y-86448221D01*
X78970163Y-86359837D01*
X78895998Y-86297605D01*
X78836057Y-86247308D01*
X78836053Y-86247306D01*
X78684446Y-86159776D01*
X78684447Y-86159776D01*
X78684443Y-86159774D01*
X78574771Y-86119857D01*
X78519936Y-86099899D01*
X78433732Y-86084699D01*
X78347529Y-86069499D01*
X78347528Y-86069499D01*
X78259996Y-86069500D01*
X65311363Y-86069500D01*
X65311360Y-86069499D01*
X65260000Y-86069499D01*
X65172467Y-86069499D01*
X65172464Y-86069499D01*
X65000060Y-86099899D01*
X64835559Y-86159772D01*
X64835549Y-86159776D01*
X64683946Y-86247304D01*
X64683940Y-86247309D01*
X64549837Y-86359835D01*
X64549835Y-86359838D01*
X64437305Y-86493945D01*
X64349776Y-86645551D01*
X64349773Y-86645558D01*
X64289897Y-86810064D01*
X64259499Y-86982466D01*
X64259499Y-100145880D01*
X62938309Y-100145880D01*
X62938309Y-76727385D01*
X62938349Y-76724253D01*
X62938629Y-76713185D01*
X62940351Y-76645023D01*
X62940665Y-76638797D01*
X62945998Y-76568658D01*
X62946629Y-76562450D01*
X62951027Y-76527835D01*
X62955383Y-76493549D01*
X62956316Y-76487442D01*
X62968396Y-76419785D01*
X62969639Y-76413713D01*
X62974696Y-76391800D01*
X62984960Y-76347326D01*
X62986477Y-76341425D01*
X63004964Y-76276315D01*
X63006784Y-76270465D01*
X63028326Y-76206796D01*
X63030426Y-76201058D01*
X63052002Y-76146329D01*
X63054981Y-76138772D01*
X63057344Y-76133187D01*
X63084822Y-76072405D01*
X63087445Y-76066960D01*
X63087447Y-76066957D01*
X63117770Y-76007749D01*
X63120615Y-76002510D01*
X63153753Y-75944873D01*
X63156808Y-75939845D01*
X63192632Y-75883965D01*
X63195956Y-75879045D01*
X63234349Y-75825055D01*
X63237900Y-75820306D01*
X63278839Y-75768208D01*
X63282535Y-75763729D01*
X63325951Y-75713607D01*
X63329849Y-75709319D01*
X63375562Y-75661371D01*
X63379718Y-75657216D01*
X63402918Y-75635098D01*
X63427634Y-75611532D01*
X63432005Y-75607561D01*
X63432011Y-75607556D01*
X63482051Y-75564209D01*
X63486566Y-75560483D01*
X63538691Y-75519522D01*
X63543366Y-75516026D01*
X63597438Y-75477576D01*
X63602288Y-75474299D01*
X63658166Y-75438478D01*
X63663251Y-75435390D01*
X63685754Y-75422452D01*
X63720856Y-75402269D01*
X63726073Y-75399435D01*
X63785365Y-75369070D01*
X63790713Y-75366494D01*
X63851564Y-75338985D01*
X63857106Y-75336642D01*
X63881584Y-75326992D01*
X63919416Y-75312078D01*
X63925122Y-75309988D01*
X63988866Y-75288421D01*
X63994655Y-75286621D01*
X64059733Y-75268143D01*
X64065694Y-75266610D01*
X64132075Y-75251291D01*
X64138116Y-75250055D01*
X64205765Y-75237976D01*
X64211907Y-75237038D01*
X64280809Y-75228283D01*
X64287003Y-75227654D01*
X64357142Y-75222321D01*
X64363370Y-75222007D01*
X64438863Y-75220099D01*
X64442600Y-75220005D01*
X64445731Y-75219965D01*
X345779892Y-75219965D01*
X345783025Y-75220005D01*
G37*
%TD.AperFunction*%
%TD*%
M02*
