0
SECTION
2
HEADER
9
$INSUNITS
70
4
9
$ACADVER
1
AC1014
9
$HANDSEED
5
FFFF
0
ENDSEC
0
SECTION
2
TABLES
0
TABLE
2
VPORT
5
8
100
AcDbSymbolTable
0
ENDTAB
0
TABLE
2
LTYPE
5
5
100
AcDbSymbolTable
0
LTYPE
5
14
100
AcDbSymbolTableRecord
100
AcDbLinetypeTableRecord
2
BYBLOCK
70
0
0
LTYPE
5
15
100
AcDbSymbolTableRecord
100
AcDbLinetypeTableRecord
2
BYLAYER
70
0
0
ENDTAB
0
TABLE
2
LAYER
5
2
100
AcDbSymbolTable
70
2
0
LAYER
5
50
100
AcDbSymbolTableRecord
100
AcDbLayerTableRecord
2
0
70
0
6
CONTINUOUS
0
ENDTAB
0
TABLE
2
STYLE
5
3
100
AcDbSymbolTable
70
1
0
STYLE
5
11
100
AcDbSymbolTableRecord
100
AcDbTextStyleTableRecord
2
STANDARD
70
0
0
ENDTAB
0
TABLE
2
VIEW
5
6
100
AcDbSymbolTable
70
0
0
ENDTAB
0
TABLE
2
UCS
5
7
100
AcDbSymbolTable
70
0
0
ENDTAB
0
TABLE
2
APPID
5
9
100
AcDbSymbolTable
70
2
0
APPID
5
12
100
AcDbSymbolTableRecord
100
AcDbRegAppTableRecord
2
ACAD
70
0
0
ENDTAB
0
TABLE
2
DIMSTYLE
5
A
100
AcDbSymbolTable
70
1
0
ENDTAB
0
TABLE
2
BLOCK_RECORD
5
1
100
AcDbSymbolTable
70
1
0
BLOCK_RECORD
5
1F
100
AcDbSymbolTableRecord
100
AcDbBlockTableRecord
2
*MODEL_SPACE
0
BLOCK_RECORD
5
1B
100
AcDbSymbolTableRecord
100
AcDbBlockTableRecord
2
*PAPER_SPACE
0
ENDTAB
0
ENDSEC
0
SECTION
2
BLOCKS
0
BLOCK
5
20
100
AcDbEntity
100
AcDbBlockBegin
2
*MODEL_SPACE
0
ENDBLK
5
21
100
AcDbEntity
100
AcDbBlockEnd
0
BLOCK
5
1C
100
AcDbEntity
100
AcDbBlockBegin
2
*PAPER_SPACE
0
ENDBLK
5
1D
100
AcDbEntity
100
AcDbBlockEnd
0
ENDSEC
0
SECTION
2
ENTITIES
0
LWPOLYLINE
5
100
100
AcDbEntity
8
0
100
AcDbPolyline
90
8
70
1
43
0.0
10
-165.1527329112414
20
83.152175477261835
10
-165.1527329112414
20
70.152175477261821
42
-0.41421356237313667
10
-165.6527329112414
20
69.652175477261821
10
-178.6527329112414
20
69.652175477261835
42
-0.41421356237312629
10
-179.1527329112414
20
70.152175477261821
10
-179.15273291124146
20
83.152175477261835
42
-0.41421356237308465
10
-178.6527329112414
20
83.652175477261835
10
-165.6527329112414
20
83.652175477261835
42
-0.41421356237309509
0
LWPOLYLINE
5
101
100
AcDbEntity
8
0
100
AcDbPolyline
90
8
70
1
43
0.0
10
-146.10273291124139
20
83.152175477261835
10
-146.10273291124139
20
70.152175477261821
42
-0.4142135623731002
10
-146.60273291124139
20
69.652175477261821
10
-159.60273291124139
20
69.652175477261807
42
-0.4142135623731002
10
-160.10273291124139
20
70.152175477261821
10
-160.10273291124139
20
83.152175477261835
42
-0.41421356237307427
10
-159.60273291124139
20
83.652175477261835
10
-146.60273291124139
20
83.652175477261835
42
-0.41421356237307427
0
LWPOLYLINE
5
102
100
AcDbEntity
8
0
100
AcDbPolyline
90
8
70
1
43
0.0
10
-122.29023291124139
20
83.152175477261835
10
-122.29023291124139
20
70.152175477261821
42
-0.4142135623731002
10
-122.7902329112414
20
69.652175477261821
10
-135.79023291124139
20
69.652175477261807
42
-0.4142135623731002
10
-136.29023291124139
20
70.152175477261821
10
-136.29023291124139
20
83.152175477261835
42
-0.41421356237307427
10
-135.79023291124139
20
83.652175477261835
10
-122.7902329112414
20
83.652175477261835
42
-0.41421356237307427
0
LWPOLYLINE
5
103
100
AcDbEntity
8
0
100
AcDbPolyline
90
8
70
1
43
0.0
10
-241.35273291124139
20
83.152175477261835
10
-241.35273291124136
20
70.152175477261821
42
-0.41421356237312629
10
-241.85273291124139
20
69.652175477261821
10
-254.85273291124139
20
69.652175477261835
42
-0.41421356237312629
10
-255.35273291124139
20
70.152175477261821
10
-255.35273291124142
20
83.152175477261835
42
-0.41421356237308465
10
-254.85273291124139
20
83.652175477261835
10
-241.85273291124139
20
83.652175477261821
42
-0.41421356237308465
0
LWPOLYLINE
5
104
100
AcDbEntity
8
0
100
AcDbPolyline
90
8
70
1
43
0.0
10
-84.190232911241367
20
83.152175477261835
10
-84.190232911241367
20
70.152175477261821
42
-0.4142135623731002
10
-84.690232911241381
20
69.652175477261821
10
-97.690232911241395
20
69.652175477261807
42
-0.4142135623731002
10
-98.190232911241395
20
70.152175477261821
10
-98.190232911241395
20
83.152175477261835
42
-0.41421356237307427
10
-97.690232911241395
20
83.652175477261835
10
-84.690232911241381
20
83.652175477261835
42
-0.41421356237307427
0
LWPOLYLINE
5
105
100
AcDbEntity
8
0
100
AcDbPolyline
90
8
70
1
43
0.0
10
-203.25273291124137
20
83.152175477261835
10
-203.25273291124134
20
70.152175477261821
42
-0.41421356237312629
10
-203.75273291124137
20
69.652175477261821
10
-216.7527329112414
20
69.652175477261821
42
-0.41421356237313667
10
-217.2527329112414
20
70.152175477261821
10
-217.2527329112414
20
83.152175477261835
42
-0.41421356237309509
10
-216.7527329112414
20
83.652175477261835
10
-203.75273291124137
20
83.652175477261821
42
-0.41421356237308465
0
LWPOLYLINE
5
106
100
AcDbEntity
8
0
100
AcDbPolyline
90
8
70
1
43
0.0
10
-222.30273291124138
20
83.152175477261835
10
-222.30273291124135
20
70.152175477261821
42
-0.41421356237312629
10
-222.80273291124138
20
69.652175477261821
10
-235.80273291124141
20
69.652175477261821
42
-0.41421356237313667
10
-236.30273291124141
20
70.152175477261821
10
-236.30273291124141
20
83.152175477261835
42
-0.41421356237309509
10
-235.80273291124141
20
83.652175477261835
10
-222.80273291124138
20
83.652175477261821
42
-0.41421356237308465
0
LWPOLYLINE
5
107
100
AcDbEntity
8
0
100
AcDbPolyline
90
8
70
1
43
0.0
10
-31.802732911241378
20
102.20217547726185
10
-31.802732911241382
20
89.202175477261832
42
-0.41421356237307161
10
-32.302732911241385
20
88.702175477261832
10
-45.302732911241392
20
88.702175477261846
42
-0.41421356237309509
10
-45.802732911241378
20
89.202175477261832
10
-45.802732911241392
20
102.20217547726185
42
-0.41421356237307427
10
-45.302732911241385
20
102.70217547726185
10
-32.302732911241385
20
102.70217547726183
42
-0.4142135623731002
0
LWPOLYLINE
5
108
100
AcDbEntity
8
0
100
AcDbPolyline
90
8
70
1
43
0.0
10
-188.9652329112414
20
102.20217547726185
10
-188.9652329112414
20
89.202175477261832
42
-0.41421356237309509
10
-189.4652329112414
20
88.702175477261832
10
-202.4652329112414
20
88.702175477261846
42
-0.41421356237308465
10
-202.96523291124143
20
89.202175477261832
10
-202.96523291124146
20
102.20217547726185
42
-0.41421356237308465
10
-202.4652329112414
20
102.70217547726185
10
-189.4652329112414
20
102.70217547726185
42
-0.41421356237309509
0
LWPOLYLINE
5
109
100
AcDbEntity
8
0
100
AcDbPolyline
90
8
70
1
43
0.0
10
-246.11523291124141
20
102.20217547726185
10
-246.11523291124138
20
89.202175477261832
42
-0.41421356237308465
10
-246.61523291124141
20
88.702175477261832
10
-259.61523291124143
20
88.702175477261832
42
-0.41421356237309509
10
-260.11523291124143
20
89.202175477261832
10
-260.11523291124143
20
102.20217547726185
42
-0.41421356237309509
10
-259.61523291124143
20
102.70217547726185
10
-246.61523291124141
20
102.70217547726183
42
-0.41421356237308465
0
LWPOLYLINE
5
110
100
AcDbEntity
8
0
100
AcDbPolyline
90
8
70
1
43
0.0
10
-169.91523291124139
20
102.20217547726185
10
-169.91523291124139
20
89.202175477261832
42
-0.41421356237309509
10
-170.41523291124139
20
88.702175477261832
10
-183.41523291124136
20
88.702175477261832
42
-0.41421356237309509
10
-183.91523291124139
20
89.202175477261832
10
-183.91523291124139
20
102.20217547726185
42
-0.41421356237309509
10
-183.41523291124136
20
102.70217547726185
10
-170.41523291124139
20
102.70217547726185
42
-0.41421356237309509
0
LWPOLYLINE
5
111
100
AcDbEntity
8
0
100
AcDbPolyline
90
8
70
1
43
0.0
10
-12.752732911241385
20
102.20217547726185
10
-12.752732911241377
20
89.202175477261832
42
-0.41421356237307427
10
-13.252732911241385
20
88.702175477261832
10
-26.252732911241381
20
88.702175477261846
42
-0.41421356237310542
10
-26.752732911241388
20
89.202175477261832
10
-26.752732911241392
20
102.20217547726185
42
-0.41421356237307161
10
-26.252732911241388
20
102.70217547726185
10
-13.252732911241392
20
102.70217547726183
42
-0.41421356237307944
0
LWPOLYLINE
5
112
100
AcDbEntity
8
0
100
AcDbPolyline
90
8
70
1
43
0.0
10
-69.902732911241401
20
102.20217547726185
10
-69.902732911241372
20
89.202175477261846
42
-0.41421356237307944
10
-70.402732911241387
20
88.702175477261832
10
-83.402732911241372
20
88.702175477261832
42
-0.41421356237307427
10
-83.902732911241387
20
89.202175477261832
10
-83.902732911241387
20
102.20217547726185
42
-0.41421356237307427
10
-83.402732911241372
20
102.70217547726185
10
-70.402732911241387
20
102.70217547726182
42
-0.41421356237310542
0
LWPOLYLINE
5
113
100
AcDbEntity
8
0
100
AcDbPolyline
90
8
70
1
43
0.0
10
-50.85273291124139
20
102.20217547726185
10
-50.852732911241382
20
89.202175477261832
42
-0.41421356237307427
10
-51.35273291124139
20
88.702175477261832
10
-64.352732911241404
20
88.702175477261846
42
-0.41421356237309509
10
-64.85273291124139
20
89.202175477261832
10
-64.852732911241404
20
102.20217547726185
42
-0.41421356237307427
10
-64.35273291124139
20
102.70217547726185
10
-51.352732911241397
20
102.70217547726183
42
-0.41421356237310542
0
LWPOLYLINE
5
114
100
AcDbEntity
8
0
100
AcDbPolyline
90
8
70
1
43
0.0
10
-60.377732911241395
20
121.25217547726186
10
-60.377732911241388
20
108.25217547726184
42
-0.41421356237307427
10
-60.877732911241395
20
107.75217547726184
10
-73.877732911241367
20
107.75217547726186
42
-0.41421356237310542
10
-74.377732911241381
20
108.25217547726184
10
-74.377732911241395
20
121.25217547726186
42
-0.41421356237307427
10
-73.877732911241381
20
121.75217547726186
10
-60.877732911241402
20
121.75217547726184
42
-0.41421356237310542
0
LWPOLYLINE
5
115
100
AcDbEntity
8
0
100
AcDbPolyline
90
8
70
1
43
0.0
10
-108.0027329112414
20
102.20217547726185
10
-108.0027329112414
20
89.202175477261832
42
-0.41421356237307427
10
-108.5027329112414
20
88.702175477261832
10
-121.50273291124138
20
88.702175477261832
42
-0.4142135623730534
10
-122.0027329112414
20
89.202175477261832
10
-122.0027329112414
20
102.20217547726185
42
-0.4142135623730534
10
-121.50273291124138
20
102.70217547726185
10
-108.5027329112414
20
102.70217547726185
42
-0.41421356237307427
0
LWPOLYLINE
5
116
100
AcDbEntity
8
0
100
AcDbPolyline
90
8
70
1
43
0.0
10
-227.0652329112414
20
102.20217547726185
10
-227.06523291124137
20
89.202175477261832
42
-0.41421356237308465
10
-227.5652329112414
20
88.702175477261832
10
-240.5652329112414
20
88.702175477261832
42
-0.41421356237309509
10
-241.06523291124142
20
89.202175477261832
10
-241.06523291124142
20
102.20217547726185
42
-0.41421356237309509
10
-240.5652329112414
20
102.70217547726185
10
-227.5652329112414
20
102.70217547726183
42
-0.41421356237308465
0
LWPOLYLINE
5
117
100
AcDbEntity
8
0
100
AcDbPolyline
90
8
70
1
43
0.0
10
-208.01523291124141
20
102.20217547726185
10
-208.01523291124141
20
89.202175477261832
42
-0.41421356237309509
10
-208.51523291124141
20
88.702175477261832
10
-221.51523291124141
20
88.702175477261846
42
-0.41421356237308465
10
-222.01523291124144
20
89.202175477261832
10
-222.01523291124147
20
102.20217547726185
42
-0.41421356237308465
10
-221.51523291124141
20
102.70217547726185
10
-208.51523291124141
20
102.70217547726185
42
-0.41421356237309509
0
LWPOLYLINE
5
118
100
AcDbEntity
8
0
100
AcDbPolyline
90
8
70
1
43
0.0
10
-41.327732911241384
20
121.25217547726186
10
-41.327732911241377
20
108.25217547726184
42
-0.41421356237307427
10
-41.827732911241384
20
107.75217547726184
10
-54.827732911241398
20
107.75217547726186
42
-0.41421356237309509
10
-55.327732911241384
20
108.25217547726184
10
-55.327732911241398
20
121.25217547726186
42
-0.41421356237307427
10
-54.827732911241391
20
121.75217547726186
10
-41.827732911241391
20
121.75217547726184
42
-0.41421356237310542
0
LWPOLYLINE
5
119
100
AcDbEntity
8
0
100
AcDbPolyline
90
8
70
1
43
0.0
10
-15.133982911241386
20
121.25217547726186
10
-15.133982911241375
20
108.25217547726184
42
-0.41421356237307549
10
-15.633982911241384
20
107.75217547726184
10
-28.633982911241382
20
107.75217547726186
42
-0.4142135623731002
10
-29.133982911241382
20
108.25217547726184
10
-29.133982911241386
20
121.25217547726186
42
-0.41421356237307161
10
-28.633982911241382
20
121.75217547726186
10
-15.633982911241375
20
121.75217547726184
42
-0.41421356237307033
0
LWPOLYLINE
5
120
100
AcDbEntity
8
0
100
AcDbPolyline
90
8
70
1
43
0.0
10
-265.16523291124139
20
102.20217547726185
10
-265.16523291124139
20
89.202175477261832
42
-0.41421356237309509
10
-265.66523291124139
20
88.702175477261832
10
-278.66523291124139
20
88.702175477261846
42
-0.41421356237308465
10
-279.16523291124139
20
89.202175477261832
10
-279.16523291124145
20
102.20217547726185
42
-0.41421356237308465
10
-278.66523291124139
20
102.70217547726185
10
-265.66523291124139
20
102.70217547726185
42
-0.41421356237309509
0
LWPOLYLINE
5
121
100
AcDbEntity
8
0
100
AcDbPolyline
90
8
70
1
43
0.0
10
-117.5277329112414
20
121.25217547726186
10
-117.5277329112414
20
108.25217547726184
42
-0.41421356237307427
10
-118.0277329112414
20
107.75217547726184
10
-131.0277329112414
20
107.75217547726184
42
-0.4142135623730534
10
-131.5277329112414
20
108.25217547726184
10
-131.5277329112414
20
121.25217547726186
42
-0.4142135623730534
10
-131.0277329112414
20
121.75217547726186
10
-118.0277329112414
20
121.75217547726186
42
-0.41421356237307427
0
LWPOLYLINE
5
122
100
AcDbEntity
8
0
100
AcDbPolyline
90
8
70
1
43
0.0
10
-98.47773291124139
20
121.25217547726186
10
-98.47773291124139
20
108.25217547726184
42
-0.41421356237307427
10
-98.97773291124139
20
107.75217547726184
10
-111.97773291124139
20
107.75217547726184
42
-0.41421356237307427
10
-112.4777329112414
20
108.25217547726184
10
-112.4777329112414
20
121.25217547726186
42
-0.41421356237307427
10
-111.97773291124139
20
121.75217547726186
10
-98.97773291124139
20
121.75217547726186
42
-0.41421356237307427
0
LWPOLYLINE
5
123
100
AcDbEntity
8
0
100
AcDbPolyline
90
8
70
1
43
0.0
10
-10.371482911241383
20
140.30217547726184
10
-10.371482911241376
20
127.30217547726183
42
-0.41421356237307549
10
-10.871482911241387
20
126.80217547726181
10
-23.87148291124138
20
126.80217547726184
42
-0.41421356237310542
10
-24.371482911241387
20
127.30217547726183
10
-24.37148291124139
20
140.30217547726184
42
-0.41421356237307161
10
-23.871482911241387
20
140.80217547726184
10
-10.87148291124139
20
140.80217547726184
42
-0.4142135623730781
0
LWPOLYLINE
5
124
100
AcDbEntity
8
0
100
AcDbPolyline
90
8
70
1
43
0.0
10
-79.427732911241407
20
121.25217547726186
10
-79.427732911241378
20
108.25217547726186
42
-0.41421356237307944
10
-79.927732911241392
20
107.75217547726184
10
-92.927732911241407
20
107.75217547726184
42
-0.4142135623730534
10
-93.427732911241407
20
108.25217547726184
10
-93.427732911241407
20
121.25217547726186
42
-0.4142135623730534
10
-92.927732911241407
20
121.75217547726186
10
-79.927732911241392
20
121.75217547726183
42
-0.41421356237310542
0
LWPOLYLINE
5
125
100
AcDbEntity
8
0
100
AcDbPolyline
90
8
70
1
43
0.0
10
-198.49023291124141
20
121.25217547726186
10
-198.49023291124141
20
108.25217547726184
42
-0.41421356237309509
10
-198.99023291124141
20
107.75217547726184
10
-211.99023291124143
20
107.75217547726186
42
-0.41421356237308465
10
-212.49023291124143
20
108.25217547726184
10
-212.49023291124146
20
121.25217547726186
42
-0.41421356237308465
10
-211.99023291124143
20
121.75217547726186
10
-198.99023291124141
20
121.75217547726186
42
-0.41421356237309509
0
LWPOLYLINE
5
126
100
AcDbEntity
8
0
100
AcDbPolyline
90
8
70
1
43
0.0
10
-179.4402329112414
20
121.25217547726186
10
-179.4402329112414
20
108.25217547726184
42
-0.41421356237309509
10
-179.9402329112414
20
107.75217547726184
10
-192.94023291124137
20
107.75217547726184
42
-0.41421356237309509
10
-193.44023291124137
20
108.25217547726184
10
-193.44023291124137
20
121.25217547726186
42
-0.41421356237309509
10
-192.94023291124137
20
121.75217547726186
10
-179.9402329112414
20
121.75217547726186
42
-0.41421356237309509
0
LWPOLYLINE
5
127
100
AcDbEntity
8
0
100
AcDbPolyline
90
8
70
1
43
0.0
10
-160.39023291124138
20
121.25217547726186
10
-160.39023291124138
20
108.25217547726184
42
-0.41421356237309509
10
-160.89023291124138
20
107.75217547726184
10
-173.89023291124141
20
107.75217547726186
42
-0.41421356237308465
10
-174.39023291124141
20
108.25217547726184
10
-174.39023291124144
20
121.25217547726186
42
-0.41421356237308465
10
-173.89023291124141
20
121.75217547726186
10
-160.89023291124138
20
121.75217547726186
42
-0.41421356237309509
0
LWPOLYLINE
5
128
100
AcDbEntity
8
0
100
AcDbPolyline
90
8
70
1
43
0.0
10
-255.64023291124141
20
121.25217547726186
10
-255.64023291124136
20
108.25217547726184
42
-0.41421356237308465
10
-256.14023291124141
20
107.75217547726184
10
-269.14023291124141
20
107.75217547726184
42
-0.41421356237309509
10
-269.64023291124141
20
108.25217547726184
10
-269.64023291124141
20
121.25217547726186
42
-0.41421356237309509
10
-269.14023291124141
20
121.75217547726186
10
-256.14023291124141
20
121.75217547726184
42
-0.41421356237308465
0
LWPOLYLINE
5
129
100
AcDbEntity
8
0
100
AcDbPolyline
90
8
70
1
43
0.0
10
-236.5902329112414
20
121.25217547726186
10
-236.59023291124134
20
108.25217547726184
42
-0.41421356237308465
10
-237.0902329112414
20
107.75217547726184
10
-250.0902329112414
20
107.75217547726184
42
-0.41421356237309509
10
-250.5902329112414
20
108.25217547726184
10
-250.5902329112414
20
121.25217547726186
42
-0.41421356237309509
10
-250.0902329112414
20
121.75217547726186
10
-237.0902329112414
20
121.75217547726184
42
-0.41421356237308465
0
LWPOLYLINE
5
130
100
AcDbEntity
8
0
100
AcDbPolyline
90
8
70
1
43
0.0
10
-217.54023291124139
20
121.25217547726186
10
-217.54023291124133
20
108.25217547726184
42
-0.41421356237308465
10
-218.04023291124139
20
107.75217547726184
10
-231.04023291124139
20
107.75217547726184
42
-0.41421356237309509
10
-231.54023291124139
20
108.25217547726184
10
-231.54023291124139
20
121.25217547726186
42
-0.41421356237309509
10
-231.04023291124139
20
121.75217547726186
10
-218.04023291124139
20
121.75217547726184
42
-0.41421356237308465
0
LWPOLYLINE
5
131
100
AcDbEntity
8
0
100
AcDbPolyline
90
8
70
1
43
0.0
10
-274.69023291124142
20
140.30217547726184
10
-274.69023291124137
20
127.30217547726183
42
-0.41421356237308465
10
-275.19023291124142
20
126.80217547726181
10
-288.19023291124142
20
126.80217547726181
42
-0.41421356237309509
10
-288.69023291124142
20
127.30217547726183
10
-288.69023291124142
20
140.30217547726184
42
-0.41421356237309509
10
-288.19023291124142
20
140.80217547726184
10
-275.19023291124142
20
140.80217547726181
42
-0.41421356237308465
0
LWPOLYLINE
5
132
100
AcDbEntity
8
0
100
AcDbPolyline
90
14
70
1
43
0.0
10
-140.55273291124141
20
102.70217547726185
10
-137.08137983655382
20
102.70217547726185
42
0.41421356237307427
10
-136.58137983655382
20
103.20217547726186
10
-136.58137983655379
20
105.70217547726186
42
-0.99999999999999989
10
-131.58137983655388
20
105.70217547726186
10
-131.58137983655382
20
103.20217547726186
42
0.41421356237307427
10
-131.08137983655382
20
102.70217547726185
10
-127.55273291124141
20
102.70217547726185
42
-0.41421356237307427
10
-127.05273291124141
20
102.20217547726185
10
-127.05273291124141
20
89.202175477261832
42
-0.41421356237307427
10
-127.55273291124141
20
88.702175477261832
10
-140.55273291124141
20
88.702175477261832
42
-0.4142135623730534
10
-141.05273291124141
20
89.202175477261832
10
-141.05273291124141
20
102.20217547726185
42
-0.4142135623730534
0
LWPOLYLINE
5
133
100
AcDbEntity
8
0
100
AcDbPolyline
90
8
70
1
43
0.0
10
-34.18398291124138
20
140.30217547726184
10
-34.183982911241387
20
127.30217547726183
42
-0.41421356237307161
10
-34.683982911241387
20
126.80217547726181
10
-47.683982911241394
20
126.80217547726184
42
-0.41421356237309509
10
-48.183982911241387
20
127.30217547726183
10
-48.183982911241394
20
140.30217547726184
42
-0.41421356237307427
10
-47.683982911241387
20
140.80217547726184
10
-34.683982911241387
20
140.80217547726181
42
-0.4142135623731002
0
LWPOLYLINE
5
134
100
AcDbEntity
8
0
100
AcDbPolyline
90
8
70
1
43
0.0
10
-212.77773291124137
20
140.30217547726184
10
-212.77773291124134
20
127.30217547726183
42
-0.41421356237308465
10
-213.2777329112414
20
126.80217547726181
10
-226.2777329112414
20
126.80217547726181
42
-0.41421356237309509
10
-226.7777329112414
20
127.30217547726183
10
-226.7777329112414
20
140.30217547726184
42
-0.41421356237309509
10
-226.2777329112414
20
140.80217547726184
10
-213.2777329112414
20
140.80217547726181
42
-0.41421356237308465
0
LINE
5
135
100
AcDbEntity
8
0
100
AcDbLine
10
-177.0589829112414
20
140.30217547726184
30
0
11
-177.0589829112414
21
127.30217547726183
31
0
0
ARC
5
136
100
AcDbEntity
8
0
100
AcDbCircle
10
-177.5589829112414
20
140.30217547726181
30
0
40
0.50000000000000711
210
0
220
-0
230
1
100
AcDbArc
50
0
51
90
0
LINE
5
137
100
AcDbEntity
8
0
100
AcDbLine
10
-190.5589829112414
20
140.80217547726184
30
0
11
-177.5589829112414
21
140.80217547726181
31
0
0
ARC
5
138
100
AcDbEntity
8
0
100
AcDbCircle
10
-190.5589829112414
20
140.30217547726184
30
0
40
0.50000000000000711
210
0
220
-0
230
1
100
AcDbArc
50
90
51
180
0
LINE
5
139
100
AcDbEntity
8
0
100
AcDbLine
10
-191.0589829112414
20
127.30217547726183
30
0
11
-191.0589829112414
21
140.30217547726184
31
0
0
ARC
5
140
100
AcDbEntity
8
0
100
AcDbCircle
10
-190.5589829112414
20
127.30217547726183
30
0
40
0.50000000000000711
210
0
220
0
230
1
100
AcDbArc
50
180
51
270
0
LINE
5
141
100
AcDbEntity
8
0
100
AcDbLine
10
-177.5589829112414
20
126.80217547726181
30
0
11
-190.5589829112414
21
126.80217547726181
31
0
0
ARC
5
142
100
AcDbEntity
8
0
100
AcDbCircle
10
-177.5589829112414
20
127.30217547726184
30
0
40
0.50000000000002487
210
-0
220
0
230
1
100
AcDbArc
50
270
51
360
0
LWPOLYLINE
5
143
100
AcDbEntity
8
0
100
AcDbPolyline
90
8
70
1
43
0.0
10
-236.5902329112414
20
140.30217547726184
10
-236.59023291124134
20
127.30217547726183
42
-0.41421356237308465
10
-237.0902329112414
20
126.80217547726181
10
-250.0902329112414
20
126.80217547726181
42
-0.41421356237309509
10
-250.5902329112414
20
127.30217547726183
10
-250.5902329112414
20
140.30217547726184
42
-0.41421356237309509
10
-250.0902329112414
20
140.80217547726184
10
-237.0902329112414
20
140.80217547726181
42
-0.41421356237308465
0
LINE
5
144
100
AcDbEntity
8
0
100
AcDbLine
10
-168.62098291124141
20
140.30217547726184
30
0
11
-168.62098291124141
21
126.30217547726181
31
0
0
ARC
5
145
100
AcDbEntity
8
0
100
AcDbCircle
10
-169.12098291124141
20
140.30217547726184
30
0
40
0.50000000000000711
210
0
220
0
230
1
100
AcDbArc
50
0
51
90
0
LINE
5
146
100
AcDbEntity
8
0
100
AcDbLine
10
-175.12098291124141
20
140.80217547726184
30
0
11
-169.12098291124141
21
140.80217547726184
31
0
0
ARC
5
147
100
AcDbEntity
8
0
100
AcDbCircle
10
-175.12098291124141
20
140.30217547726181
30
0
40
0.50000000000002487
210
0
220
-0
230
1
100
AcDbArc
50
90
51
180
0
LINE
5
148
100
AcDbEntity
8
0
100
AcDbLine
10
-175.62098291124141
20
126.30217547726181
30
0
11
-175.62098291124141
21
140.30217547726184
31
0
0
ARC
5
149
100
AcDbEntity
8
0
100
AcDbCircle
10
-175.12098291124141
20
126.30217547726183
30
0
40
0.50000000000000711
210
0
220
0
230
1
100
AcDbArc
50
180
51
270
0
LINE
5
150
100
AcDbEntity
8
0
100
AcDbLine
10
-169.12098291124141
20
125.8021754772618
30
0
11
-175.12098291124141
21
125.8021754772618
31
0
0
ARC
5
151
100
AcDbEntity
8
0
100
AcDbCircle
10
-169.12098291124141
20
126.30217547726181
30
0
40
0.50000000000000711
210
0
220
0
230
1
100
AcDbArc
50
-90
51
0
0
LINE
5
152
100
AcDbEntity
8
0
100
AcDbLine
10
-192.49698291124136
20
140.30217547726184
30
0
11
-192.49698291124136
21
126.30217547726181
31
0
0
ARC
5
153
100
AcDbEntity
8
0
100
AcDbCircle
10
-192.99698291124139
20
140.30217547726181
30
0
40
0.50000000000000711
210
0
220
-0
230
1
100
AcDbArc
50
0
51
90
0
LINE
5
154
100
AcDbEntity
8
0
100
AcDbLine
10
-198.99698291124139
20
140.80217547726184
30
0
11
-192.99698291124139
21
140.80217547726181
31
0
0
ARC
5
155
100
AcDbEntity
8
0
100
AcDbCircle
10
-198.99698291124139
20
140.30217547726181
30
0
40
0.50000000000002487
210
0
220
-0
230
1
100
AcDbArc
50
90
51
180
0
LINE
5
156
100
AcDbEntity
8
0
100
AcDbLine
10
-199.49698291124139
20
126.30217547726181
30
0
11
-199.49698291124139
21
140.30217547726184
31
0
0
ARC
5
157
100
AcDbEntity
8
0
100
AcDbCircle
10
-198.99698291124139
20
126.30217547726183
30
0
40
0.50000000000000711
210
0
220
0
230
1
100
AcDbArc
50
180
51
270
0
LINE
5
158
100
AcDbEntity
8
0
100
AcDbLine
10
-192.99698291124139
20
125.8021754772618
30
0
11
-198.99698291124139
21
125.8021754772618
31
0
0
ARC
5
159
100
AcDbEntity
8
0
100
AcDbCircle
10
-192.99698291124139
20
126.30217547726183
30
0
40
0.50000000000002487
210
-0
220
0
230
1
100
AcDbArc
50
270
51
360
0
LINE
5
160
100
AcDbEntity
8
0
100
AcDbLine
10
-96.096482911241381
20
140.30217547726184
30
0
11
-96.096482911241381
21
127.30217547726183
31
0
0
ARC
5
161
100
AcDbEntity
8
0
100
AcDbCircle
10
-96.596482911241409
20
140.30217547726181
30
0
40
0.50000000000002487
210
0
220
-0
230
1
100
AcDbArc
50
0
51
89.99999999999838
0
LINE
5
162
100
AcDbEntity
8
0
100
AcDbLine
10
-109.5964829112414
20
140.80217547726184
30
0
11
-96.596482911241395
21
140.80217547726184
31
0
0
ARC
5
163
100
AcDbEntity
8
0
100
AcDbCircle
10
-109.59648291124138
20
140.30217547726181
30
0
40
0.50000000000002487
210
0
220
0
230
1
100
AcDbArc
50
90.000000000001634
51
180
0
LINE
5
164
100
AcDbEntity
8
0
100
AcDbLine
10
-110.0964829112414
20
127.30217547726183
30
0
11
-110.0964829112414
21
140.30217547726184
31
0
0
ARC
5
165
100
AcDbEntity
8
0
100
AcDbCircle
10
-109.59648291124138
20
127.30217547726184
30
0
40
0.50000000000002487
210
0
220
0
230
1
100
AcDbArc
50
180
51
269.99999999999835
0
LINE
5
166
100
AcDbEntity
8
0
100
AcDbLine
10
-96.596482911241395
20
126.80217547726181
30
0
11
-109.5964829112414
21
126.80217547726181
31
0
0
ARC
5
167
100
AcDbEntity
8
0
100
AcDbCircle
10
-96.596482911241409
20
127.30217547726184
30
0
40
0.50000000000002487
210
-0
220
0
230
1
100
AcDbArc
50
270.00000000000159
51
360
0
LINE
5
168
100
AcDbEntity
8
0
100
AcDbLine
10
-87.658482911241379
20
140.30217547726184
30
0
11
-87.658482911241379
21
126.30217547726181
31
0
0
ARC
5
169
100
AcDbEntity
8
0
100
AcDbCircle
10
-88.158482911241421
20
140.30217547726178
30
0
40
0.50000000000004263
210
0
220
-0
230
1
100
AcDbArc
50
0
51
89.999999999996746
0
LINE
5
170
100
AcDbEntity
8
0
100
AcDbLine
10
-94.158482911241407
20
140.80217547726184
30
0
11
-88.158482911241393
21
140.80217547726184
31
0
0
ARC
5
171
100
AcDbEntity
8
0
100
AcDbCircle
10
-94.158482911241364
20
140.30217547726178
30
0
40
0.50000000000004263
210
0
220
0
230
1
100
AcDbArc
50
90.000000000004889
51
180
0
LINE
5
172
100
AcDbEntity
8
0
100
AcDbLine
10
-94.658482911241407
20
126.30217547726181
30
0
11
-94.658482911241407
21
140.30217547726184
31
0
0
ARC
5
173
100
AcDbEntity
8
0
100
AcDbCircle
10
-94.158482911241364
20
126.30217547726184
30
0
40
0.50000000000004263
210
0
220
0
230
1
100
AcDbArc
50
180
51
269.99999999999511
0
LINE
5
174
100
AcDbEntity
8
0
100
AcDbLine
10
-88.158482911241393
20
125.8021754772618
30
0
11
-94.158482911241407
21
125.8021754772618
31
0
0
ARC
5
175
100
AcDbEntity
8
0
100
AcDbCircle
10
-88.158482911241421
20
126.30217547726184
30
0
40
0.50000000000004263
210
-0
220
0
230
1
100
AcDbArc
50
270.00000000000324
51
360
0
LINE
5
176
100
AcDbEntity
8
0
100
AcDbLine
10
-111.53448291124138
20
140.30217547726184
30
0
11
-111.53448291124138
21
126.30217547726181
31
0
0
ARC
5
177
100
AcDbEntity
8
0
100
AcDbCircle
10
-112.03448291124141
20
140.30217547726181
30
0
40
0.50000000000002487
210
0
220
-0
230
1
100
AcDbArc
50
0
51
89.99999999999838
0
LINE
5
178
100
AcDbEntity
8
0
100
AcDbLine
10
-118.0344829112414
20
140.80217547726184
30
0
11
-112.0344829112414
21
140.80217547726184
31
0
0
ARC
5
179
100
AcDbEntity
8
0
100
AcDbCircle
10
-118.03448291124135
20
140.30217547726178
30
0
40
0.50000000000004263
210
0
220
0
230
1
100
AcDbArc
50
90.000000000004889
51
180
0
LINE
5
180
100
AcDbEntity
8
0
100
AcDbLine
10
-118.5344829112414
20
126.30217547726181
30
0
11
-118.5344829112414
21
140.30217547726184
31
0
0
ARC
5
181
100
AcDbEntity
8
0
100
AcDbCircle
10
-118.03448291124135
20
126.30217547726184
30
0
40
0.50000000000004263
210
0
220
0
230
1
100
AcDbArc
50
180
51
269.99999999999511
0
LINE
5
182
100
AcDbEntity
8
0
100
AcDbLine
10
-112.0344829112414
20
125.8021754772618
30
0
11
-118.0344829112414
21
125.8021754772618
31
0
0
ARC
5
183
100
AcDbEntity
8
0
100
AcDbCircle
10
-112.03448291124141
20
126.30217547726183
30
0
40
0.50000000000002487
210
-0
220
0
230
1
100
AcDbArc
50
270.00000000000159
51
360
0
LWPOLYLINE
5
184
100
AcDbEntity
8
0
100
AcDbPolyline
90
8
70
1
43
0.0
10
-57.996482911241394
20
140.30217547726184
10
-57.996482911241387
20
127.30217547726183
42
-0.41421356237307427
10
-58.496482911241394
20
126.80217547726181
10
-71.496482911241387
20
126.80217547726184
42
-0.41421356237310542
10
-71.996482911241387
20
127.30217547726183
10
-71.996482911241401
20
140.30217547726181
42
-0.41421356237307944
10
-71.496482911241387
20
140.80217547726184
10
-58.496482911241401
20
140.80217547726181
42
-0.41421356237310542
0
LWPOLYLINE
5
185
100
AcDbEntity
8
0
100
AcDbPolyline
90
8
70
1
43
0.0
10
-65.140232911241398
20
83.152175477261835
10
-65.140232911241384
20
70.152175477261821
42
-0.41421356237311585
10
-65.640232911241384
20
69.652175477261821
10
-78.640232911241384
20
69.652175477261821
42
-0.4142135623731002
10
-79.140232911241384
20
70.152175477261821
10
-79.140232911241398
20
83.152175477261835
42
-0.41421356237307427
10
-78.640232911241384
20
83.652175477261835
10
-65.640232911241384
20
83.652175477261807
42
-0.41421356237310542
0
LWPOLYLINE
5
186
100
AcDbEntity
8
0
100
AcDbPolyline
90
8
70
1
43
0.0
10
-7.9902329112413817
20
83.152175477261835
10
-7.9902329112413817
20
70.152175477261821
42
-0.41421356237310281
10
-8.4902329112413852
20
69.652175477261821
10
-21.490232911241378
20
69.652175477261835
42
-0.41421356237310281
10
-21.990232911241385
20
70.152175477261821
10
-21.990232911241389
20
83.152175477261835
42
-0.41421356237307161
10
-21.490232911241385
20
83.652175477261835
10
-8.4902329112413888
20
83.652175477261835
42
-0.41421356237307683
0
LWPOLYLINE
5
187
100
AcDbEntity
8
0
100
AcDbPolyline
90
8
70
1
43
0.0
10
-103.24023291124138
20
83.152175477261835
10
-103.24023291124138
20
70.152175477261821
42
-0.4142135623731002
10
-103.74023291124139
20
69.652175477261821
10
-116.74023291124141
20
69.652175477261807
42
-0.4142135623731002
10
-117.24023291124141
20
70.152175477261821
10
-117.24023291124141
20
83.152175477261835
42
-0.41421356237307427
10
-116.74023291124141
20
83.652175477261835
10
-103.74023291124139
20
83.652175477261835
42
-0.41421356237307427
0
LWPOLYLINE
5
188
100
AcDbEntity
8
0
100
AcDbPolyline
90
8
70
1
43
0.0
10
-88.952732911241384
20
102.20217547726185
10
-88.952732911241384
20
89.202175477261832
42
-0.41421356237307427
10
-89.452732911241384
20
88.702175477261832
10
-102.45273291124138
20
88.702175477261832
42
-0.41421356237307427
10
-102.9527329112414
20
89.202175477261832
10
-102.9527329112414
20
102.20217547726185
42
-0.41421356237307427
10
-102.45273291124138
20
102.70217547726185
10
-89.452732911241384
20
102.70217547726185
42
-0.41421356237307427
0
LWPOLYLINE
5
189
100
AcDbEntity
8
0
100
AcDbPolyline
90
8
70
1
43
0.0
10
-46.090232911241387
20
83.152175477261835
10
-46.090232911241387
20
70.152175477261821
42
-0.41421356237311063
10
-46.590232911241387
20
69.652175477261821
10
-59.590232911241401
20
69.652175477261821
42
-0.41421356237308982
10
-60.090232911241387
20
70.152175477261821
10
-60.090232911241401
20
83.152175477261835
42
-0.41421356237307427
10
-59.590232911241394
20
83.652175477261835
10
-46.590232911241394
20
83.652175477261821
42
-0.41421356237310542
0
LWPOLYLINE
5
190
100
AcDbEntity
8
0
100
AcDbPolyline
90
8
70
1
43
0.0
10
-184.20273291124141
20
83.152175477261835
10
-184.20273291124141
20
70.152175477261821
42
-0.41421356237313667
10
-184.70273291124141
20
69.652175477261821
10
-197.70273291124141
20
69.652175477261835
42
-0.41421356237312629
10
-198.20273291124141
20
70.152175477261821
10
-198.20273291124147
20
83.152175477261835
42
-0.41421356237308465
10
-197.70273291124141
20
83.652175477261835
10
-184.70273291124141
20
83.652175477261835
42
-0.41421356237309509
0
SPLINE
5
191
100
AcDbEntity
8
0
100
AcDbSpline
70
0
71
3
72
8
73
4
74
0
42
0.000000001
43
0.0000000001
44
0.0000000001
40
0
40
0
40
0
40
0
40
1
40
1
40
1
40
1
10
-290.01812872523851
20
111.93011878712159
30
0
10
-290.57037753152412
20
111.93011878712159
30
0
10
-291.01789543505811
20
111.4822563740392
30
0
10
-291.01789543505811
20
110.93000756775362
30
0
0
LINE
5
192
100
AcDbEntity
8
0
100
AcDbLine
10
-291.01789543505811
20
110.93000756775362
30
0
11
-291.01789543505811
21
59.801689980709313
31
0
0
SPLINE
5
193
100
AcDbEntity
8
0
100
AcDbSpline
70
0
71
3
72
8
73
4
74
0
42
0.000000001
43
0.0000000001
44
0.0000000001
40
0
40
0
40
0
40
0
40
1
40
1
40
1
40
1
10
-291.01789543505811
20
59.801689980709313
30
0
10
-291.01789543505811
20
58.697020113363926
30
0
10
-290.12251511844164
20
57.801639796747509
30
0
10
-289.01801750587049
20
57.801639796747509
30
0
0
LINE
5
194
100
AcDbEntity
8
0
100
AcDbLine
10
-289.01801750587049
20
57.801639796747523
30
0
11
-7.6680935310691112
21
57.801639796747509
31
0
0
SPLINE
5
195
100
AcDbEntity
8
0
100
AcDbSpline
70
0
71
3
72
8
73
4
74
0
42
0.000000001
43
0.0000000001
44
0.0000000001
40
0
40
0
40
0
40
0
40
1
40
1
40
1
40
1
10
-7.6680935310690881
20
57.801639796747509
30
0
10
-6.5634236637237278
20
57.801639796747509
30
0
10
-5.6680433471072957
20
58.697020113363926
30
0
10
-5.6680433471072957
20
59.801689980709313
30
0
0
LINE
5
196
100
AcDbEntity
8
0
100
AcDbLine
10
-5.6680433471072957
20
59.801689980709313
30
0
11
-5.6680433471072966
21
110.93000756775362
31
0
0
SPLINE
5
197
100
AcDbEntity
8
0
100
AcDbSpline
70
0
71
3
72
8
73
4
74
0
42
0.000000001
43
0.0000000001
44
0.0000000001
40
0
40
0
40
0
40
0
40
1
40
1
40
1
40
1
10
-5.6680433471072957
20
110.93000756775362
30
0
10
-5.6680433471072957
20
111.4822563740392
30
0
10
-6.1157335054155126
20
111.93011878712159
30
0
10
-6.6679823117010582
20
111.93011878712159
30
0
0
LINE
5
198
100
AcDbEntity
8
0
100
AcDbLine
10
-6.6679823117010582
20
111.93011878712159
30
0
11
-9.1577528188911117
21
111.93011878712159
31
0
0
SPLINE
5
199
100
AcDbEntity
8
0
100
AcDbSpline
70
0
71
3
72
11
73
7
74
0
42
0.000000001
43
0.0000000001
44
0.0000000001
40
-2
40
-2
40
-2
40
-2
40
-1
40
-1
40
-1
40
0
40
0
40
0
40
0
10
-9.157752818891117
20
111.93011878712159
30
0
10
-10.537513560733679
20
111.93011878712159
30
0
10
-11.6561360647943
20
113.0483967816337
30
0
10
-11.6561360647943
20
114.42850203302478
30
0
10
-11.6561360647943
20
115.80826277486742
30
0
10
-10.537513560733679
20
116.926885278928
30
0
10
-9.157752818891117
20
116.926885278928
30
0
0
LINE
5
200
100
AcDbEntity
8
0
100
AcDbLine
10
-9.1577528188911188
20
116.926885278928
30
0
11
-6.6679823117010528
21
116.926885278928
31
0
0
SPLINE
5
201
100
AcDbEntity
8
0
100
AcDbSpline
70
0
71
3
72
8
73
4
74
0
42
0.000000001
43
0.0000000001
44
0.0000000001
40
0
40
0
40
0
40
0
40
1
40
1
40
1
40
1
10
-6.6679823117010582
20
116.926885278928
30
0
10
-6.1157335054155126
20
116.926885278928
30
0
10
-5.6680433471072957
20
117.374403182462
30
0
10
-5.6680433471072957
20
117.92665198874752
30
0
0
LINE
5
202
100
AcDbEntity
8
0
100
AcDbLine
10
-5.6680433471072957
20
117.92665198874752
30
0
11
-5.6680433471072966
21
150.65161400313568
31
0
0
SPLINE
5
203
100
AcDbEntity
8
0
100
AcDbSpline
70
0
71
3
72
8
73
4
74
0
42
0.000000001
43
0.0000000001
44
0.0000000001
40
0
40
0
40
0
40
0
40
1
40
1
40
1
40
1
10
-5.6680433471072957
20
150.65161400313568
30
0
10
-5.6680433471072957
20
151.7561116157068
30
0
10
-6.5634236637237278
20
152.65149193232318
30
0
10
-7.6680935310690881
20
152.65149193232318
30
0
0
LINE
5
204
100
AcDbEntity
8
0
100
AcDbLine
10
-7.6680935310690881
20
152.65149193232318
30
0
11
-289.01801750587049
21
152.65149193232318
31
0
0
SPLINE
5
205
100
AcDbEntity
8
0
100
AcDbSpline
70
0
71
3
72
8
73
4
74
0
42
0.000000001
43
0.0000000001
44
0.0000000001
40
0
40
0
40
0
40
0
40
1
40
1
40
1
40
1
10
-289.01801750587049
20
152.65149193232318
30
0
10
-290.12251511844164
20
152.65149193232318
30
0
10
-291.01789543505811
20
151.7561116157068
30
0
10
-291.01789543505811
20
150.65161400313568
30
0
0
LINE
5
206
100
AcDbEntity
8
0
100
AcDbLine
10
-291.01789543505811
20
150.65161400313568
30
0
11
-291.01789543505811
21
117.92665198874752
31
0
0
SPLINE
5
207
100
AcDbEntity
8
0
100
AcDbSpline
70
0
71
3
72
8
73
4
74
0
42
0.000000001
43
0.0000000001
44
0.0000000001
40
0
40
0
40
0
40
0
40
1
40
1
40
1
40
1
10
-291.01789543505811
20
117.92665198874752
30
0
10
-291.01789543505811
20
117.374403182462
30
0
10
-290.57037753152412
20
116.926885278928
30
0
10
-290.01812872523851
20
116.926885278928
30
0
0
LINE
5
208
100
AcDbEntity
8
0
100
AcDbLine
10
-290.01812872523851
20
116.926885278928
30
0
11
-289.19023291124142
21
116.926885278928
31
0
0
ARC
5
209
100
AcDbEntity
8
0
100
AcDbCircle
10
-288.19023291124142
20
121.25217547726186
30
0
40
0.50000000000000711
210
0
220
-0
230
1
100
AcDbArc
50
90
51
180
0
LINE
5
210
100
AcDbEntity
8
0
100
AcDbLine
10
-288.19023291124142
20
121.75217547726186
30
0
11
-275.19023291124142
21
121.75217547726186
31
0
0
ARC
5
211
100
AcDbEntity
8
0
100
AcDbCircle
10
-275.19023291124142
20
121.25217547726183
30
0
40
0.50000000000000711
210
0
220
-0
230
1
100
AcDbArc
50
0
51
90
0
LINE
5
212
100
AcDbEntity
8
0
100
AcDbLine
10
-274.69023291124142
20
121.25217547726186
30
0
11
-274.69023291124142
21
108.25217547726184
31
0
0
ARC
5
213
100
AcDbEntity
8
0
100
AcDbCircle
10
-275.19023291124142
20
108.25217547726186
30
0
40
0.50000000000002487
210
0
220
0
230
1
100
AcDbArc
50
270
51
360
0
LINE
5
214
100
AcDbEntity
8
0
100
AcDbLine
10
-275.19023291124142
20
107.75217547726184
30
0
11
-288.19023291124142
21
107.75217547726184
31
0
0
ARC
5
215
100
AcDbEntity
8
0
100
AcDbCircle
10
-288.19023291124142
20
108.25217547726184
30
0
40
0.50000000000000711
210
0
220
0
230
1
100
AcDbArc
50
180
51
270
0
LINE
5
216
100
AcDbEntity
8
0
100
AcDbLine
10
-288.69023291124142
20
108.25217547726184
30
0
11
-288.69023291124142
21
111.43011878712159
31
0
0
LINE
5
217
100
AcDbEntity
8
0
100
AcDbLine
10
-289.19023291124142
20
111.93011878712159
30
0
11
-290.01812872523851
21
111.93011878712159
31
0
0
CIRCLE
5
218
100
AcDbEntity
8
0
100
AcDbCircle
10
-32.180555548235418
20
143.32665198239761
30
0
40
2.4999999999999956
210
0
220
-0
230
1
0
LWPOLYLINE
5
219
100
AcDbEntity
8
0
100
AcDbPolyline
90
15
70
1
43
0.0
10
-268.39624841333585
20
141.30207077923015
10
-268.39578017072495
20
143.53820828858693
42
-0.99989530650702196
10
-263.39578022553434
20
143.53768479372309
10
-263.39308950184522
20
143.53768479372309
10
-263.39308950184522
20
141.30217547820297
42
0.41421356237309509
10
-262.89308950184522
20
140.80217547820294
10
-256.14023291124141
20
140.80217547820294
42
-0.41421356249758834
10
-255.64023291111997
20
140.30217547726184
10
-255.64023291111997
20
127.30217547726183
42
-0.41421356239089907
10
-256.14023291124147
20
126.80217547723146
10
-269.14023291124141
20
126.80217547723147
42
-0.41421356239086787
10
-269.64023291136289
20
127.30217547726183
10
-269.64023291136289
20
140.30217547726184
42
-0.41421356249761954
10
-269.14023291124141
20
140.80217547820294
10
-268.89624840237394
20
140.80217547820297
42
0.41415223246418253
0
ARC
5
220
100
AcDbEntity
8
0
100
AcDbCircle
10
-289.19023291124142
20
117.42688527892801
30
0
40
0.50000000000000711
210
-0
220
0
230
1
100
AcDbArc
50
-90
51
0
0
LINE
5
221
100
AcDbEntity
8
0
100
AcDbLine
10
-288.69023291124142
20
117.42688527892801
30
0
11
-288.69023291124142
21
121.25217547726186
31
0
0
ARC
5
222
100
AcDbEntity
8
0
100
AcDbCircle
10
-289.19023291124142
20
111.43011878712161
30
0
40
0.49999999999997158
210
-0
220
0
230
1
100
AcDbArc
50
0
51
90
0
SPLINE
5
223
100
AcDbEntity
8
0
100
AcDbSpline
70
0
71
3
72
11
73
7
74
0
42
0.000000001
43
0.0000000001
44
0.0000000001
40
-4
40
-4
40
-4
40
-4
40
-3
40
-3
40
-3
40
-2.0000011003121041
40
-2.0000011003121041
40
-2.0000011003121041
40
-2.0000011003121041
10
-33.543688956457828
20
86.078180588351984
30
0
10
-33.543688956457828
20
87.458974858840136
30
0
10
-32.424377433300158
20
88.578286381997799
30
0
10
-31.043755417586286
20
88.578286381997799
30
0
10
-29.662962666402805
20
88.578286381997799
30
0
10
-28.54365208712483
20
87.458977322022818
30
0
10
-28.543649623944543
20
86.078185146264957
30
0
0
LINE
5
224
100
AcDbEntity
8
0
100
AcDbLine
10
-28.543649623944543
20
86.078185146264957
30
0
11
-28.543649623940492
21
84.152175477261849
31
0
0
ARC
5
225
100
AcDbEntity
8
0
100
AcDbCircle
10
-28.04364962394045
20
84.152175477261878
30
0
40
0.50000000000004263
210
0
220
0
230
1
100
AcDbArc
50
180
51
269.99999999999636
0
LINE
5
226
100
AcDbEntity
8
0
100
AcDbLine
10
-28.043649623940482
20
83.652175477261835
30
0
11
-27.540232911241382
21
83.652175477261835
31
0
0
ARC
5
227
100
AcDbEntity
8
0
100
AcDbCircle
10
-27.540232911241375
20
83.152175477261835
30
0
40
0.49999999999998934
210
0
220
0
230
1
100
AcDbArc
50
0
51
90.00000000000081
0
LINE
5
228
100
AcDbEntity
8
0
100
AcDbLine
10
-27.040232911241382
20
83.152175477261835
30
0
11
-27.040232911241382
21
70.152175477261821
31
0
0
ARC
5
229
100
AcDbEntity
8
0
100
AcDbCircle
10
-27.540232911241382
20
70.152175477261821
30
0
40
0.49999999999999822
210
0
220
0
230
1
100
AcDbArc
50
-90
51
0
0
LINE
5
230
100
AcDbEntity
8
0
100
AcDbLine
10
-27.540232911241382
20
69.652175477261821
30
0
11
-40.54023291124139
21
69.652175477261821
31
0
0
ARC
5
231
100
AcDbEntity
8
0
100
AcDbCircle
10
-40.540232911241397
20
70.152175477261821
30
0
40
0.49999999999998934
210
0
220
0
230
1
100
AcDbArc
50
180
51
270.0000000000008
0
LINE
5
232
100
AcDbEntity
8
0
100
AcDbLine
10
-41.04023291124139
20
70.152175477261821
30
0
11
-41.04023291124139
21
83.152175477261835
31
0
0
ARC
5
233
100
AcDbEntity
8
0
100
AcDbCircle
10
-40.540232911241382
20
83.152175477261807
30
0
40
0.50000000000002487
210
0
220
0
230
1
100
AcDbArc
50
90.00000000000081
51
180
0
LINE
5
234
100
AcDbEntity
8
0
100
AcDbLine
10
-40.54023291124139
20
83.652175477261835
30
0
11
-34.043688956457828
21
83.652175477261835
31
0
0
ARC
5
235
100
AcDbEntity
8
0
100
AcDbCircle
10
-34.043688956457856
20
84.152175477261864
30
0
40
0.50000000000002487
210
-0
220
0
230
1
100
AcDbArc
50
270.00000000000324
51
360
0
LINE
5
236
100
AcDbEntity
8
0
100
AcDbLine
10
-33.543688956457835
20
84.152175477261849
30
0
11
-33.543688956457828
21
86.078180588351984
31
0
0
LWPOLYLINE
5
237
100
AcDbEntity
8
0
100
AcDbPolyline
90
14
70
1
43
0.0
10
-150.86523291124141
20
102.20217547726185
42
0.4142135623730534
10
-151.36523291124141
20
102.70217547726185
10
-164.36523291124138
20
102.70217547726185
42
0.41421356237308465
10
-164.86523291124141
20
102.20217547726185
10
-164.86523291124141
20
89.202175477261832
42
0.41421356237308465
10
-164.36523291124138
20
88.702175477261832
10
-151.36523291124141
20
88.702175477261832
42
0.4142135623730534
10
-150.86523291124141
20
89.202175477261832
10
-150.86523291124141
20
92.537665041514032
42
-0.41421356237318868
10
-150.36523291124126
20
93.037665041514046
10
-148.31554018303504
20
93.037665041514174
42
0.99999999999999989
10
-148.31554018303504
20
98.037665041513606
10
-150.36523291124138
20
98.037665041513606
42
-0.4142135623730534
10
-150.86523291124141
20
98.537665041513606
0
ARC
5
238
100
AcDbEntity
8
0
100
AcDbCircle
10
-278.66523291124139
20
83.152175477261807
30
0
40
0.50000000000002487
210
0
220
-0
230
1
100
AcDbArc
50
90
51
180
0
LINE
5
239
100
AcDbEntity
8
0
100
AcDbLine
10
-278.66523291124139
20
83.652175477261835
30
0
11
-268.89291985477678
21
83.652175477261835
31
0
0
ARC
5
240
100
AcDbEntity
8
0
100
AcDbCircle
10
-268.89291985477678
20
84.152175477261849
30
0
40
0.50000000000000711
210
-0
220
0
230
1
100
AcDbArc
50
-90
51
0
0
LINE
5
241
100
AcDbEntity
8
0
100
AcDbLine
10
-268.39291985477678
20
84.152175477261849
30
0
11
-268.39291985477678
21
85.827663824029216
31
0
0
SPLINE
5
242
100
AcDbEntity
8
0
100
AcDbSpline
70
0
71
3
72
13
73
9
74
0
42
0.000000001
43
0.0000000001
44
0.0000000001
40
-4
40
-4
40
-4
40
-4
40
-3
40
-3
40
-2
40
-2
40
-2
40
-1.1833707411450172
40
-1.1833707411450172
40
-1.1833707411450172
40
-1.1833707411450172
10
-268.39291985477678
20
85.827663824029216
30
0
10
-268.39291985477678
20
87.20845809451734
30
0
10
-267.27395284116761
20
88.327769617675003
30
0
10
-264.51236430019139
20
88.327769617675003
30
0
10
-263.39305277703369
20
87.20845809451734
30
0
10
-263.39305277703369
20
85.827663824029216
30
0
10
-263.39305277703369
20
84.700207490577924
30
0
10
-264.13950299128135
20
83.747014772856659
30
0
10
-265.1652329112415
20
83.435349988739603
30
0
0
LINE
5
243
100
AcDbEntity
8
0
100
AcDbLine
10
-265.16523291124156
20
83.435349988739603
30
0
11
-265.16523291124139
21
70.152175477261821
31
0
0
ARC
5
244
100
AcDbEntity
8
0
100
AcDbCircle
10
-265.66523291124133
20
70.152175477261792
30
0
40
0.49999999999997158
210
0
220
0
230
1
100
AcDbArc
50
-90.000000000006523
51
0
0
LINE
5
245
100
AcDbEntity
8
0
100
AcDbLine
10
-265.66523291124139
20
69.652175477261821
30
0
11
-278.66523291124139
21
69.652175477261821
31
0
0
ARC
5
246
100
AcDbEntity
8
0
100
AcDbCircle
10
-278.66523291124145
20
70.152175477261807
30
0
40
0.49999999999997158
210
0
220
0
230
1
100
AcDbArc
50
180
51
270.00000000000648
0
LINE
5
247
100
AcDbEntity
8
0
100
AcDbLine
10
-279.16523291124139
20
70.152175477261821
30
0
11
-279.16523291124145
21
83.152175477261835
31
0
0
ENDSEC
0
SECTION
2
OBJECTS
0
DICTIONARY
5
C
100
AcDbDictionary
3
ACAD_GROUP
350
D
3
ACAD_MLINESTYLE
350
17
0
DICTIONARY
5
D
100
AcDbDictionary
0
DICTIONARY
5
1A
330
C
100
AcDbDictionary
0
DICTIONARY
5
17
100
AcDbDictionary
0
ENDSEC
0
EOF
